<?xml version="1.0" encoding="utf-8"?>
<!-- Generator: Adobe Illustrator 16.0.3, SVG Export Plug-In . SVG Version: 6.00 Build 0)  -->
<!DOCTYPE svg PUBLIC "-//W3C//DTD SVG 1.1//EN" "http://www.w3.org/Graphics/SVG/1.1/DTD/svg11.dtd">
<svg version="1.1" id="Warstwa_1" xmlns="http://www.w3.org/2000/svg" xmlns:xlink="http://www.w3.org/1999/xlink" x="0px" y="0px"
	 width="31.524px" height="33.358px" viewBox="0 0 31.524 33.358" enable-background="new 0 0 31.524 33.358" xml:space="preserve">
<g>
	<path fill="#FFFFFF" d="M26.453,7.358c-1.402-0.533-2.729-0.444-4.031-0.135c0.078-0.082,0.164-0.153,0.236-0.242
		c1.438-1.755,1.936-4.38,1.219-6.521c-0.014-0.039-0.036-0.066-0.057-0.098c-0.018-0.202-0.15-0.381-0.412-0.36
		c-3.389,0.274-6.33,2.712-7.303,5.852c-0.764-2.275-2.459-4.395-4.248-5.724c-0.133-0.098-0.26-0.096-0.369-0.046
		c-0.012,0.005-0.023,0.015-0.035,0.021c-0.026,0.017-0.052,0.032-0.074,0.054c-0.017,0.015-0.036,0.021-0.053,0.039
		c-0.682,0.766-1.037,1.909-1.298,2.877c-0.044,0.16,0.005,0.29,0.093,0.385c0.049,0.065,0.113,0.124,0.213,0.154
		c2.432,0.742,4.246,2.653,4.926,5.074c-2.705-0.45-5.007-2.156-7.932-1.793c-2.822,0.351-5.02,2.299-6.189,4.832
		C-1.886,18.261,1.6,26.101,5.864,31.244c2.233,2.693,4.31,2.401,7.368,1.385c2.217-0.736,3.721-0.311,5.877,0.23
		c1.195,0.3,2.539,0.614,3.777,0.417c2.971-0.468,4.887-4.079,5.955-6.546c1.575-3.632,2.79-7.362,2.674-11.364
		C31.42,12.047,29.712,8.595,26.453,7.358z M23.09,0.92c0.547,1.914,0.078,4.322-1.334,5.764c-1.303,1.329-3.309,1.778-5.117,2.04
		c0.008-0.038,0.018-0.072,0.016-0.116C16.377,4.854,19.361,1.396,23.09,0.92z M10.98,2.925c0.17-0.613,0.395-1.266,0.746-1.793
		c1.646,1.335,3.17,3.459,3.711,5.624C14.488,4.987,12.908,3.628,10.98,2.925z M24.852,31.25c-2.912,2.719-6.156-0.172-9.416-0.037
		c-1.56,0.064-2.932,0.881-4.418,1.25C8.358,33.126,6.792,31.205,5.47,29.2c-2.235-3.385-4.302-7.056-4.565-11.19
		C0.641,13.868,2.445,8.676,7.035,7.826c3.289-0.607,5.805,1.589,8.93,1.825c0.054,0.019,0.115,0.026,0.189,0.018
		c0.896-0.013,1.775-0.216,2.645-0.482c0.419-0.107,0.824-0.247,1.223-0.401c1.853-0.638,3.689-1.304,5.615-0.778
		c5.232,1.43,5.543,7.938,4.553,12.285C29.34,24.02,27.701,28.588,24.852,31.25z"/>
	<path fill="#FFFFFF" d="M8.013,10.394c-2.958,1.218-4.451,4.945-3.954,7.95c0.094,0.556,0.938,0.319,0.846-0.233
		c-0.41-2.479,0.864-5.852,3.342-6.872C8.76,11.027,8.535,10.18,8.013,10.394z"/>
	<path fill="#FFFFFF" d="M4.641,20.155c-0.563,0-0.564,0.875,0,0.875S5.206,20.155,4.641,20.155z"/>
</g>
</svg>
