<?xml version="1.0" encoding="utf-8"?>
<!-- Generator: Adobe Illustrator 16.0.3, SVG Export Plug-In . SVG Version: 6.00 Build 0)  -->
<!DOCTYPE svg PUBLIC "-//W3C//DTD SVG 1.1//EN" "http://www.w3.org/Graphics/SVG/1.1/DTD/svg11.dtd">
<svg version="1.1" id="Warstwa_1" xmlns="http://www.w3.org/2000/svg" xmlns:xlink="http://www.w3.org/1999/xlink" x="0px" y="0px"
	 width="360.454px" height="327.043px" viewBox="0 0 360.454 327.043" enable-background="new 0 0 360.454 327.043"
	 xml:space="preserve">
<path fill="#FF7042" d="M266.534,318.906c0.221-0.109,0.443-0.217,0.664-0.328c1.063-0.514,2.102-1.071,3.105-1.688
	c18.361-10.678,25.184-28.037,27.514-42.146c12.242-34.516,18.648-77.932,38.477-94.032
	c64.922-52.707-15.137-152.536-74.086-130.812c-43.227,15.93-71.059,2.295-75.752-9.418C175.43,12.98,149.74-9.484,104.428,4.053
	c-39.31,11.743-56.414,64.595-62.209,88.319c-6.838,16.325,4.491,35.649-18.06,53.96c-64.92,52.709,15.138,152.536,74.087,130.813
	c43.228-15.932,71.058-2.297,75.753,9.416c11.025,27.502,36.714,49.965,82.025,36.43
	C259.856,321.846,263.347,320.469,266.534,318.906L266.534,318.906L266.534,318.906z"/>
</svg>
