<?xml version="1.0" encoding="utf-8"?>
<!-- Generator: Adobe Illustrator 16.0.3, SVG Export Plug-In . SVG Version: 6.00 Build 0)  -->
<!DOCTYPE svg PUBLIC "-//W3C//DTD SVG 1.1//EN" "http://www.w3.org/Graphics/SVG/1.1/DTD/svg11.dtd">
<svg version="1.1" id="Warstwa_1" xmlns="http://www.w3.org/2000/svg" xmlns:xlink="http://www.w3.org/1999/xlink" x="0px" y="0px"
	 width="339.356px" height="231.091px" viewBox="0 0 339.356 231.091" enable-background="new 0 0 339.356 231.091"
	 xml:space="preserve">
<g>
	<g>
		<g>
			<g>
				<path fill="#74DAEE" d="M318.335,230.512c0,0,40.17-54.476,6.793-113.453c-29.615-52.33-64.142-48.751-89.474-27.516
					c-10.788,9.043-41.896,1.113-68.374-52.133C131.176-35.203,6.019,8.837,28.839,120.555
					c11.043,54.063-33.61,56.029-10.857,110.072L318.335,230.512z"/>
				<path fill="#4A2C6A" d="M0.336,231.091h338.688c0.185,0,0.333-0.15,0.333-0.336v-0.259c0-0.183-0.148-0.335-0.333-0.335H0.336
					c-0.185,0-0.336,0.152-0.336,0.335v0.259C0,230.94,0.151,231.091,0.336,231.091z"/>
			</g>
		</g>
		
			<ellipse transform="matrix(-0.6647 0.7471 -0.7471 -0.6647 402.9377 -110.3824)" fill="#74DAEE" cx="226.24" cy="35.234" rx="29.666" ry="41.202"/>
		
			<ellipse transform="matrix(0.7472 0.6646 -0.6646 0.7472 106.9872 -176.6494)" fill="#74DAEE" cx="285.677" cy="52.296" rx="9.165" ry="12.728"/>
		
			<ellipse transform="matrix(0.9754 0.2202 -0.2202 0.9754 8.3235 -4.1896)" fill="#74DAEE" cx="22.951" cy="35.234" rx="9.164" ry="12.729"/>
	</g>
	<path fill="#FF9F23" d="M300.963,229.539H258.07c-2.301-1.95,1.587-6.378,5.651-6.676c1.768-0.133,3.998,0.235,6.548,0.775
		c0.591-7.841,3.962-43.087,16.667-41.672c14.283,1.587,0,15.523-4.041,23.773c-2.988,6.11-6.146,14.877-7.586,19.012
		c1.16,0.25,2.359,0.497,3.586,0.724c1.893-5.814,8.939-25.368,17.896-24.229c10.521,1.334,6.29,9.174-1.164,13.828
		c-5.471,3.423-12.188,8.285-15.378,10.635c2.703,0.443,5.526,0.741,8.389,0.673C295.985,226.207,299.572,228.373,300.963,229.539z"
		/>
	<g>
		<g>
			<path fill="#4E306D" d="M116.873,45.148c-0.101-0.434-1.349-5.078-8.568-3.938c0,0,3.607-0.261,4.516,1.171
				c0,0-2.771-1.451-4.609-0.457c-1.835,0.994-2.323,4.643-2.116,5.772c0.207,1.129,1.995,4.553,3.296,4.622
				c0.493,0.027,1.027-0.11,1.504-0.288c-0.232,0.579-0.445,1.21-0.632,1.906c-1.726,6.428,2.335,11.6,4.636,10.497
				c1.476-0.707,2.428,1.859,2.428,1.859l12.736-15.14C130.063,51.153,122.3,40.75,116.873,45.148z"/>
			<path fill="#6139BC" d="M128.416,224.317l-4.79-1.835c0,0-2.81-15.749-4.557-33.062c-0.312-3.092-0.208-6.085,0.467-8.852
				c0,0-0.139-0.79-0.381-2.191c-0.112-0.653-0.251-1.439-0.409-2.342c-0.459-2.641-1.095-6.258-1.82-10.375
				c-1.669-9.476-3.833-21.588-5.511-30.492l0.879-0.281l9.523-3.072l1.968-6.252l8.659-3.29c0,0,0.016,4.523,1.432,19.16
				c0.262,1.921,0.5,4.038,0.677,6.333c0.554,7.008,0.593,15.701-0.675,25.641c-0.325,2.545-0.737,5.171-1.246,7.871
				c-0.372,1.978-0.429,4.674-0.271,7.77C133.075,203.2,128.416,224.317,128.416,224.317z"/>
			<path fill="#4A2C76" d="M134.552,147.767l-15.397,30.611c-0.112-0.653-0.251-1.439-0.409-2.342
				c-0.459-2.641-1.095-6.258-1.82-10.375c-1.669-9.476-3.833-21.588-5.511-30.492l0.879-0.281l9.523-3.072l1.79-7.333l8.837-2.209
				c0,0,0.016,4.523,1.432,19.16C134.137,143.354,134.375,145.472,134.552,147.767z"/>
			<path fill="#6139BC" d="M127.779,127.626l-0.484-3.652c-5.97,1.586-21.8-3.838-21.8-3.838s-5.784,5.088-5.025,17.277
				c0.371,5.949,1.048,31.23,1.755,38.711c0.255,2.714,0.479,4.644,0.57,5.414c0.002,0.004,0.002,0.006,0.002,0.008
				c0.028,0.234-0.053,0.456-0.173,0.662c-1.042,1.767-1.904,3.605-2.611,5.489c-6.941,18.499,1.07,41.282,1.07,41.282l2.079-0.839
				c0,0,4.56-25.354,8.264-36.554c0.628-1.9,1.23-3.393,1.784-4.285c1.61-2.599,3.104-6.848,4.462-11.897
				c2.565-9.552,4.627-21.978,6.001-31.567C123.862,143.846,127.779,127.626,127.779,127.626z"/>
			<g>
				<path fill="#FFB894" d="M146.872,128.723c-1.645,0.488-3.09-4.491-3.296-5.16c-0.002-0.055-0.013-0.09-0.013-0.09l2.161-2.184
					c0,0,4.13,1.733,4.49,2.718C150.573,124.993,148.66,128.221,146.872,128.723z"/>
				<path fill="#FFB894" d="M145.724,121.289l-1.665,2.524c0,0-0.18-0.083-0.483-0.251c-0.954-0.528-3.289-1.776-5.865-3.332
					c-3.89-2.303-8.397-5.273-9.771-7.358c-2.102-3.159-4.364-10.894-4.943-17.844c-0.027-0.176-0.032-0.341-0.036-0.507
					c-0.28-3.675-0.078-7.098,0.909-9.447c0.589-1.444,1.311-2.582,2.091-3.498c1.028-1.213,2.167-2.02,3.203-2.545
					c0.151-0.093,0.305-0.187,0.491-0.235c1.67-0.776,2.974-0.824,2.974-0.824c0.642,0.026,1.1,0.567,1.402,1.499l-0.011,0.022
					c0.253,0.745,0.427,1.779,0.483,3.006c0.01,0.032,0.023,0.065,0.011,0.087c0.019,0.254,0.027,0.53,0.046,0.838
					c0.025,0.066,0.015,0.144,0.017,0.2c0.006,0.629,0.002,1.282-0.012,1.958c-0.039,7.29-1.341,17.754-0.161,21.602
					c0.511,1.655,4.264,6.187,7.304,9.673C143.901,119.35,145.724,121.289,145.724,121.289z"/>
			</g>
			<path fill="#FFB894" d="M130.932,84.854c-1.676,1.21-3.788,2.221-6.448,2.887c-9.973,2.5-13.97-5.895-15.517-11.679
				c1.351-0.808,2.633-1.004,3.373-1.105c0.723-0.099,1.482-0.17,2.112-0.213c1.109-0.883,2.721-4.439,2.989-9.921l0.474,0.117
				l7.934,2.015c0,0-0.315,2.516-0.448,4.892c-0.102,1.857-0.092,3.632,0.269,4.06c0.618,0.123,0.99,0.203,0.99,0.203
				s0,0.002,0.004,0.008C126.771,76.289,129.132,80.013,130.932,84.854z"/>
			<path fill="#FF7042" d="M134.73,90.982c-0.036,0.215-0.082,0.428-0.135,0.647c-1.489,5.992-1.815,29.681-1.815,29.681
				c1.464,3.966-30.931,5.144-31.731,1.429c-1.873-3.739,1.939-11.063,4.164-14.8c0.279-0.468,0.515-0.96,0.705-1.467
				c0.483-1.272,0.679-2.641,0.563-4.009c-0.465-5.393-1.634-10.305-2.169-13.325l0,0c0.476-0.52,0.94-1.003,1.37-1.461
				c0.657-0.706,1.232-1.357,1.628-1.982c0.435-0.682,0.665-1.338,0.575-2.009c-0.067-0.509-0.184-1.021-0.336-1.527
				c-0.07-0.239-0.148-0.476-0.233-0.712c-0.886-2.482-2.402-4.596-2.402-4.596c2.493-1.618,7.429-1.894,7.429-1.894
				s0.047,0.268,0.129,0.705c0.323,1.76,1.21,6.269,1.939,7.013c0.909,0.927,14.694,3.095,15.096,1.521
				c0.396-1.548-2.724-7.842-2.841-8.079c-0.004-0.006-0.004-0.008-0.004-0.008c4.643,0.86,6.458,1.983,6.458,1.983
				C130.845,80.282,135.71,85.26,134.73,90.982z"/>
			<path fill="#F2AC8C" d="M125.849,66.956c0,0-0.316,2.514-0.447,4.892c-4.481-0.366-6.636-4.584-7.486-6.906L125.849,66.956z"/>
			<path fill="#FFB894" d="M127.228,69.288c0,0-10.627-0.389-10.283-7.003c0.345-6.614-0.794-11.119,6.005-11.149
				c6.799-0.032,7.984,2.56,8.406,4.795C131.778,58.167,130.001,69.218,127.228,69.288z"/>
			<path fill="#4E306D" d="M131.236,52.238c-1.535-2.078-2.799-1.706-3.525-1.145c-5.633-3.499-9.623,1.019-9.623,1.019
				c-0.963,4.708-4.529,7.245-4.529,7.245s1.871,1.298,6.394,0.388c1.381-0.278,2.65-1.181,3.746-2.301
				c-1.966,2.931-4.539,4.98-4.539,4.98c5.46-2.181,7.994-9.478,8.249-10.25c0.616,0.617,1.826,1.949,2.151,3.209
				c0.44,1.712,0.493,5.192,1.511,5.127C131.07,60.508,133.539,55.352,131.236,52.238z"/>
			<path fill="#4A2C6A" d="M113.169,230.678H96.718c0,0-0.394-2.508,0.466-4.411c0.822-1.824,2.112-2.653,1.804-4.862
				c1.045,1.078,2.75,2.283,5.128,1.962c0.292,0.472,1.879,3.001,2.854,3.701C108.045,227.838,112.836,227.563,113.169,230.678z"/>
			<path fill="#4A2C6A" d="M139.731,230.678h-16.451c0,0-0.616-2.625,0.464-4.408c0.956-1.58,0.589-2.48-0.119-3.787
				c0.747,0.305,1.711,0.581,2.771,0.521c0.82-0.046,1.687-0.419,2.447-0.861c0.708,0.809,3.741,4.244,4.688,4.926
				C134.605,227.838,139.399,227.563,139.731,230.678z"/>
			<path fill="#FF7042" d="M110.719,81.568c-4.919-0.385-7.819,3.958-7.819,3.958c-1.3-7.038,2.011-8.675,2.011-8.675
				C106.208,75.997,108.309,78.118,110.719,81.568z"/>
			<path fill="#FF7042" d="M133.342,82.943c0,0,0.576-0.441,1.194,0c0,0-0.061-3.911-1.419-4.85
				C133.117,78.093,131.683,78.804,133.342,82.943z"/>
			<path fill="#FF7042" d="M100.796,83.437c0,0,4.736-2.389,8.9,0.797c0,0-0.877-7.796-3.017-7.725
				C106.68,76.509,102.523,76.55,100.796,83.437z"/>
			<path fill="#FF4A1E" d="M102.642,112.79c0,0-1.426,2.979-1.741,4.838c-0.315,1.859,11.104,7.336,13.386,7.199l-0.145,0.158
				l-4.13-8.474L102.642,112.79z"/>
			<g>
				<path fill="#FFB894" d="M127.687,128.524l-1.667,2.827c0,0-0.996-0.479-2.582-1.243c-0.476-0.232-0.741-0.381-0.741-0.381
					c-1.266-0.626-2.767-1.42-4.404-2.273l-0.022-0.008c-2.787-1.527-5.893-3.296-8.446-5.017c-1.792-1.23-3.308-2.438-4.275-3.494
					c-0.101-0.104-0.175-0.203-0.269-0.331c-2.238-2.786-3.929-9.651-4.764-16.744c-0.117-0.979-0.211-1.955-0.312-2.904
					c-0.322-3.521-0.417-6.928-0.248-9.803c0.083-1.719,0.248-3.263,0.531-4.493c0.092-0.436,0.18-0.848,0.307-1.223
					c1.931-6.902,5.625-6.921,5.625-6.921c0.078-0.005,0.155-0.009,0.258-0.007c0.622,0.067,1.132,0.642,1.562,1.604
					c0.544,1.198,0.968,3.03,1.323,5.203c0.521,3.446,0.868,7.819,1.127,12.143c0.146,2.371,0.272,4.736,0.44,6.933
					c0.074,1.328,0.168,2.584,0.264,3.736c0.194,2.205,0.419,4.009,0.737,5.198c0.2,0.771,1.043,2,2.211,3.446
					c2.029,2.525,5.122,5.748,7.848,8.439c1.127,1.126,2.202,2.162,3.096,3.02C126.727,127.624,127.687,128.524,127.687,128.524z"/>
				<path fill="#FFB894" d="M127.704,128.538c0,0,0.972,1.209,1.948,1.536c0.975,0.328,3.135,1.763,3.762,2.699
					c0,0,0.136,0.429-0.256,0.566c-0.393,0.139-1.812-1.058-2.372-0.587c0,0,1.53,1.709,2.194,2.044
					c0.663,0.333,1.841,2.782,1.938,3.371c0.097,0.585-4.156-0.873-5.973-1.577c-1.814-0.704-4.219-6.682-4.219-6.682
					L127.704,128.538z"/>
			</g>
		</g>
		<g>
			<path fill="#663402" d="M221.198,48.186c0,0,3.25,25.536,4.725,26.946c1.478,1.41-2.326,1.691-2.326,1.691
				s-5.916-3.668-6.273-5.361c-0.357-1.692-4.102,0.537-6.673,1.397c-2.572,0.86-5.142,3.33-6.163-3.16
				c-1.02-6.49-3.032-18.383-4.66-22.347"/>
			<path fill="#663402" d="M220.105,43.11c0.241,0.604,0.462,1.263,0.658,1.989c1.806,6.713-2.438,12.114-4.839,10.964
				c-1.541-0.738-2.535,1.941-2.535,1.941l-13.301-15.811c0,0,8.106-10.864,13.773-6.271"/>
			<path fill="#41B8E1" d="M218.095,33.033"/>
			<path fill="#41B8E1" d="M201.809,223.024l5.001-1.915c0,0,0.302-16.136,2.127-34.216c0.325-3.227,0.217-6.354-0.487-9.241
				c0,0,0.145-0.828,0.397-2.291c0.117-0.681,0.262-1.502,0.426-2.443c0.48-2.761,2.685-9.232,3.442-13.532
				c1.743-9.896,5.094-20.157,6.848-29.456l-0.92-0.294l-9.945-3.207l-2.054-6.527l-9.043-3.438c0,0-0.016,4.724-1.495,20.009
				c-0.271,2.005-0.521,4.217-0.706,6.613c-0.577,7.319-0.618,16.399,0.704,26.776c0.341,2.659,0.769,5.4,1.301,8.22
				c0.39,2.066,0.447,4.881,0.286,8.114C196.942,200.973,201.809,223.024,201.809,223.024z"/>
			<path fill="#41B8E1" d="M202.474,122.054l0.506-3.817c6.235,1.658,22.764-4.004,22.764-4.004s-2.455,0.778,3.496,17.749
				c1.704,4.86-1.53,33.978-2.268,41.791c-0.27,2.831-0.501,4.847-0.597,5.651c-0.002,0.004-0.002,0.007-0.002,0.007
				c-0.029,0.246,0.055,0.478,0.181,0.693c1.088,1.843,1.988,3.766,2.725,5.732c7.251,19.318,1.072,42.039,1.072,42.039l-2.17-0.877
				c0,0-4.761-26.476-8.631-38.173c-0.655-1.982-1.283-3.543-1.862-4.475c-1.682-2.714-1.983-10.399-3.401-15.674
				c-2.679-9.974-6.091-19.7-7.525-29.714C206.563,138.992,202.474,122.054,202.474,122.054z"/>
			<path fill="#3193AD" d="M209.383,172.36c0,0-2.063-8.479-0.934-10.277c1.127-1.799,3.032-0.741,3.032-0.741l-0.065,3.495
				L209.383,172.36z"/>
			<g>
				<path fill="#FFB894" d="M182.533,123.198c1.72,0.509,3.227-4.691,3.441-5.39c0.004-0.057,0.016-0.092,0.016-0.092l-2.259-2.281
					c0,0-4.311,1.81-4.685,2.838C178.669,119.303,180.666,122.673,182.533,123.198z"/>
				<path fill="#FFB894" d="M183.731,115.436l1.741,2.637c0,0,0.186-0.087,0.502-0.264c0.996-0.55,3.436-1.855,6.124-3.479
					c4.064-2.405,8.771-5.508,10.207-7.683c2.193-3.3,4.555-11.376,5.161-18.635c0.027-0.185,0.032-0.358,0.039-0.53
					c0.292-3.839,0.078-7.412-0.95-9.866c-0.617-1.506-1.368-2.695-2.184-3.652c-1.072-1.266-2.264-2.108-3.344-2.657
					c-0.16-0.098-0.32-0.194-0.514-0.246c-1.746-0.812-3.105-0.861-3.105-0.861c-0.671,0.028-1.15,0.592-1.465,1.565l0.011,0.023
					c-0.265,0.778-0.442,1.858-0.503,3.139c-0.012,0.034-0.025,0.068-0.016,0.093c-0.016,0.265-0.027,0.553-0.047,0.876
					c-0.025,0.068-0.016,0.149-0.016,0.208c-0.01,0.657-0.004,1.338,0.012,2.044c0.041,7.61,1.399,18.539,0.167,22.558
					c-0.535,1.729-4.454,6.459-7.628,10.102C185.637,113.41,183.731,115.436,183.731,115.436z"/>
			</g>
			<path fill="#FFB894" d="M199.182,77.388c1.748,1.262,3.953,2.318,6.731,3.014c10.416,2.61,14.589-6.156,16.206-12.197
				c-1.411-0.843-2.75-1.047-3.523-1.155c-0.753-0.103-1.55-0.177-2.205-0.221c-1.158-0.923-2.839-4.637-3.122-10.36l-0.494,0.123
				l-8.285,2.103c0,0,0.327,2.627,0.468,5.108c0.107,1.941,0.094,3.794-0.28,4.24c-0.646,0.128-1.035,0.211-1.035,0.211
				s0,0.004-0.002,0.008C203.524,68.442,201.06,72.331,199.182,77.388z"/>
			<path fill="#EAEAEA" d="M195.214,83.786c0.038,0.225,0.085,0.448,0.141,0.677c1.556,6.257-3.641,78.555-3.641,78.555
				c-0.646,1.754,6.787,2.107,15.577,1.935c9.945-0.197,23.588-1.232,26.068-1.424c0.257-0.021,0.394-0.031,0.394-0.031
				c-3.859-17.757-5.39-58.101-7.713-62.002c-0.291-0.491-0.538-1.002-0.735-1.532c-0.503-1.328-0.712-2.758-0.589-4.186
				c0.485-5.632,1.706-10.762,2.266-13.917l0,0c-0.498-0.542-0.98-1.046-1.431-1.525c-0.685-0.736-1.285-1.416-1.698-2.069
				c-0.456-0.711-0.696-1.396-0.603-2.098c0.072-0.532,0.193-1.067,0.351-1.595c0.074-0.25,0.156-0.498,0.243-0.744
				c0.927-2.593,2.51-4.8,2.51-4.8c-2.604-1.689-7.758-1.979-7.758-1.979s0.086-0.457,0,0c-0.338,1.838-1.763,1.846-3.146,2.243
				c-1.306,0.374-4.8,0.907-7.566,0.528c-1.653-0.226-4.367-1.311-4.244-1.559c0.002-0.004,0.002-0.008,0.002-0.008
				c-4.848,0.899-6.743,2.072-6.743,2.072C199.273,72.612,194.19,77.811,195.214,83.786z"/>
			<path fill="#F2AC8C" d="M204.487,58.697c0,0,0.332,2.625,0.47,5.107c4.678-0.38,6.93-4.788,7.817-7.211L204.487,58.697z"/>
			<path fill="#FFB894" d="M203.048,61.132c0,0,11.097-0.406,10.737-7.313c-0.36-6.907,0.833-11.612-6.269-11.644
				c-7.101-0.033-8.339,2.674-8.779,5.01C198.297,49.518,200.15,61.059,203.048,61.132z"/>
			<path fill="none" stroke="#FF7042" stroke-width="0.2116" stroke-miterlimit="10" d="M207.624,164.99
				c-0.17-0.047-0.349-0.116-0.54-0.206c-2.063-0.969-5.248-4.347-7.144-9.384c-2.072-5.503,2.533-83.206,2.533-83.206
				c3.706,0.591,15.019-3.522,15.019-3.522s0.793-0.221,1.104-1.622"/>
			<path fill="#663402" d="M198.862,43.326c1.606-2.169,2.923-1.782,3.681-1.195c5.885-3.654,10.05,1.064,10.05,1.064
				c1.006,4.916,4.73,7.564,4.73,7.564s-1.956,1.355-6.676,0.405c-1.443-0.291-2.768-1.234-3.912-2.402
				c2.054,3.059,4.74,5.2,4.74,5.2c-5.703-2.277-8.35-9.897-8.615-10.705c-0.645,0.644-1.907,2.035-2.245,3.351
				c-0.46,1.788-0.516,5.421-1.578,5.354C199.037,51.963,196.457,46.578,198.862,43.326z"/>
			<path fill="#C8D1CE" d="M203.413,129.057c6.566,1.58,18.313-20.152,22.582-25.513c-0.548-1.561-0.8-3.229-0.722-4.887
				c0.31-6.534,1.376-12.461,1.841-16.113v-0.001c-0.519-0.645-1.021-1.248-1.489-1.817c-0.712-0.878-1.336-1.688-1.772-2.46
				C217.021,87.279,194.509,126.914,203.413,129.057z"/>
			<path fill="#1A6070" d="M217.729,229.669h15.462c0,0,0.238-3.396-0.658-5.381c-0.86-1.908-1.243-0.243-0.921-2.549
				c-1.849,0.455-1.944,0.628-4.426,0.293c-0.305,0.495-1.966,3.134-2.981,3.864C223.082,226.704,218.075,226.416,217.729,229.669z"
				/>
			<path fill="#1A6070" d="M189.992,229.669h17.18c0,0-0.104-2.459-0.485-4.604c-0.317-1.784-0.616-2.591,0.123-3.955
				c-0.779,0.318-1.786,0.608-2.896,0.545c-0.854-0.049-1.759-0.437-2.555-0.898c-0.738,0.843-3.903,4.43-4.894,5.143
				C195.341,226.704,190.337,226.416,189.992,229.669z"/>
			<path fill="#D8D8D8" d="M228.302,116.233c0,0-15.204,10.905-24.772,11.393l1.445-2.839l22.573-14.389h0.143
				C227.69,110.398,228.351,115.633,228.302,116.233z"/>
			<g>
				<path fill="#EAEAEA" d="M200.204,123.084l0.615-0.582c0.01-0.008,1.015-0.953,2.494-2.383c0.954-0.914,2.065-1.987,3.221-3.143
					c1.995-1.968,5.697-5.712,8.119-8.728c1.642-2.029,2.025-2.876,2.109-3.201c0.283-1.063,0.519-2.73,0.741-5.255
					c0.115-1.398,0.204-2.665,0.271-3.867l0.002-0.022c0.123-1.601,0.225-3.256,0.328-5.009c0.043-0.736,0.088-1.476,0.135-2.218
					c0.325-5.479,0.713-9.657,1.183-12.772c0.437-2.659,0.901-4.47,1.467-5.712c0.626-1.408,1.462-2.18,2.48-2.289l0.042-0.004
					c0,0,0.105-0.003,0.133-0.003c0.096,0,0.178,0.004,0.26,0.008l0,0c0.522,0.023,4.72,0.451,6.833,7.974
					c0.145,0.43,0.238,0.868,0.338,1.33l0.007,0.038c0.289,1.253,0.479,2.85,0.578,4.861c0.176,2.987,0.084,6.581-0.266,10.386
					c-0.029,0.291-0.06,0.571-0.087,0.853c-0.074,0.719-0.151,1.464-0.238,2.207c-0.996,8.454-2.934,15.18-5.187,18.005
					c-0.109,0.15-0.214,0.283-0.349,0.424c-1.005,1.098-2.564,2.375-4.639,3.801c-2.919,1.966-6.481,3.963-8.908,5.293l-0.113,0.062
					l-0.035,0.011l-0.727,0.38c-1.367,0.717-2.656,1.392-3.766,1.94c-0.084,0.045-0.362,0.198-0.799,0.411
					c-1.662,0.803-2.705,1.301-2.705,1.301l-0.875,0.419L200.204,123.084z"/>
				<path fill="#FFB894" d="M202.151,122.528c0,0-1.016,1.265-2.035,1.605c-1.018,0.343-3.271,1.841-3.927,2.819
					c0,0-0.143,0.446,0.266,0.591c0.411,0.145,1.895-1.105,2.478-0.614c0,0-1.597,1.784-2.289,2.134
					c-0.692,0.349-1.921,2.908-2.023,3.521c-0.102,0.614,4.34-0.908,6.234-1.646c1.897-0.735,4.409-6.979,4.409-6.979
					L202.151,122.528z"/>
				<path fill="#EAEAEA" d="M202.054,122.023l2.631,4.396c0,0,0.666-0.975,2.32-1.772c0.496-0.243,0.775-0.398,0.775-0.398
					c1.32-0.653,2.889-1.481,4.598-2.376l0.023-0.006c2.91-1.597,6.155-3.443,8.822-5.239c1.868-1.285,3.453-2.546,4.461-3.65
					c0.105-0.108,0.184-0.212,0.281-0.343c2.338-2.912,4.104-10.081,4.978-17.488c0.121-1.023,0.219-2.039,0.323-3.031
					c0.336-3.677,0.437-7.236,0.262-10.239c-0.09-1.794-0.26-3.407-0.556-4.69c-0.098-0.456-0.189-0.886-0.321-1.278
					c-2.019-7.208-5.875-7.228-5.875-7.228c-0.082-0.004-0.164-0.01-0.271-0.007c-0.649,0.07-1.182,0.67-1.631,1.674
					c-0.568,1.253-1.009,3.165-1.382,5.434c-0.545,3.6-0.904,8.166-1.174,12.68c-0.156,2.477-0.286,4.948-0.463,7.244
					c-0.077,1.385-0.175,2.697-0.274,3.899c-0.202,2.303-0.438,4.187-0.769,5.428c-0.208,0.806-1.09,2.089-2.312,3.598
					c-2.118,2.639-5.349,6.006-8.193,8.813c-1.178,1.178-2.302,2.259-3.234,3.156C203.571,122.052,202.054,122.023,202.054,122.023z
					"/>
			</g>
			<ellipse fill="#FF4A1E" cx="204.171" cy="75.132" rx="0.663" ry="0.543"/>
			<ellipse fill="#FF4A1E" cx="202.473" cy="99.288" rx="0.665" ry="0.545"/>
			<ellipse fill="#FF4A1E" cx="203.136" cy="86.365" rx="0.663" ry="0.544"/>
			<ellipse fill="#FF4A1E" cx="201.811" cy="110.398" rx="0.663" ry="0.545"/>
			<path fill="#FF4A1E" d="M201.809,134.717c0,0.303-0.296,0.546-0.661,0.546c-0.369,0-0.665-0.243-0.665-0.546
				c0-0.3,0.296-0.542,0.665-0.542C201.513,134.175,201.809,134.417,201.809,134.717z"/>
			<ellipse fill="#FF4A1E" cx="205.263" cy="161.033" rx="0.663" ry="0.545"/>
			<path fill="#FF4A1E" d="M201.809,151.046c0,0.299-0.296,0.544-0.661,0.544c-0.369,0-0.665-0.245-0.665-0.544
				c0-0.304,0.296-0.546,0.665-0.546C201.513,150.5,201.809,150.742,201.809,151.046z"/>
			<polygon fill="#FFDD71" points="162.965,112.389 176.892,108.627 185.396,129.074 171.468,134.175 			"/>
			<path fill="#FFB894" d="M180.412,117.09c0,0-1.907,1.606-1.942,2.245c-0.037,0.639,1.428-0.204,1.686-0.534
				c0.255-0.331,0.953-0.613,1.503-0.729"/>
			<path fill="#EDAA8C" d="M182.815,122.872c0,0,0.033-1.066-0.405-2.146c-0.44-1.084-1.21-2.397-1.21-2.397l0.458-0.188
				c0,0-0.651,0.125-0.741,0.164C180.827,118.341,182.815,122.872,182.815,122.872z"/>
			
				<line fill="none" stroke="#2C96A8" stroke-width="0.1432" stroke-miterlimit="10" x1="164.413" y1="113.367" x2="176.509" y2="110.103"/>
			
				<line fill="none" stroke="#2C96A8" stroke-width="0.112" stroke-miterlimit="10" x1="164.951" y1="114.29" x2="174.407" y2="111.735"/>
			
				<line fill="none" stroke="#2C96A8" stroke-width="0.1354" stroke-miterlimit="10" x1="165.929" y1="116.457" x2="177.362" y2="113.367"/>
			
				<line fill="none" stroke="#2C96A8" stroke-width="0.1354" stroke-miterlimit="10" x1="166.337" y1="117.464" x2="177.773" y2="114.375"/>
			
				<line fill="none" stroke="#2C96A8" stroke-width="0.1354" stroke-miterlimit="10" x1="166.846" y1="118.635" x2="178.281" y2="115.546"/>
			<path fill="#EAEAEA" d="M233.753,163.497c0,0-10.42,3.326-18.729,2.922c-1.389-0.089-7.162-1.088-7.733-1.545
				c-0.573-0.456,24.477-2.559,24.477-2.559L233.753,163.497"/>
			<path fill="#EAEAEA" d="M184.302,114.232l2.501,3.84c0,0,8.447-4.423,8.614-4.705c0.166-0.28,0.262-13.534,0.262-13.534"/>
			<path fill="#EAEAEA" d="M196.898,70.326c0,0-1.914,0.382-1.497,9.051c0,0,2.825-7.061,2.216-8.048
				c-0.606-0.988-0.49-1.129-0.49-1.129L196.898,70.326z"/>
			<path fill="none" stroke="#FF7042" stroke-width="0.2116" stroke-miterlimit="10" d="M207.291,164.874"/>
			<path fill="none" stroke="#FF7042" stroke-width="0.2116" stroke-miterlimit="10" d="M206.747,164.61
				c0,0,7.119,3.016,15.756,1.394c8.636-1.62,6.773-1.19,11.25-2.431"/>
		</g>
	</g>
</g>
</svg>
