<?xml version="1.0" encoding="utf-8"?>
<!-- Generator: Adobe Illustrator 16.0.3, SVG Export Plug-In . SVG Version: 6.00 Build 0)  -->
<!DOCTYPE svg PUBLIC "-//W3C//DTD SVG 1.1//EN" "http://www.w3.org/Graphics/SVG/1.1/DTD/svg11.dtd">
<svg version="1.1" id="Warstwa_1" xmlns="http://www.w3.org/2000/svg" xmlns:xlink="http://www.w3.org/1999/xlink" x="0px" y="0px"
	 width="165.233px" height="214.375px" viewBox="-13.099 0 165.233 214.375" enable-background="new -13.099 0 165.233 214.375"
	 xml:space="preserve">
<g>
	<g>
		<g>
			<g>
				<path fill="#6139BC" d="M1.343,34.873c0.059-6.827,5.643-12.312,12.469-12.251l105.109,0.92
					c5.799,0.051,10.54,4.638,10.783,10.431l6.424,152.456c0.191,4.533-3.41,8.324-7.947,8.367L7.694,195.931
					c-4.264,0.041-7.73-3.425-7.693-7.688L1.343,34.873z"/>
				<path fill="#FFFFFF" d="M25.323,193.494h-0.004l-13.478-0.292c-4.507-0.1-8.142-3.846-8.103-8.354l0.178-20.351
					c0.002-0.159,0.131-0.287,0.293-0.286c0.156,0,0.283,0.131,0.283,0.29l-0.179,20.353c-0.036,4.193,3.345,7.681,7.539,7.771
					l13.478,0.293c0.16,0.004,0.286,0.138,0.283,0.295C25.608,193.37,25.48,193.496,25.323,193.494z"/>
				<path fill="#FFFFFF" d="M4.257,158.483c-0.157,0-0.285-0.131-0.285-0.291l0.031-3.295c0-0.16,0.131-0.287,0.289-0.285
					c0.158,0,0.287,0.131,0.285,0.289l-0.027,3.295C4.548,158.356,4.417,158.485,4.257,158.483z"/>
				<g>
					
						<linearGradient id="SVGID_1_" gradientUnits="userSpaceOnUse" x1="155.6045" y1="185.7422" x2="-102.8294" y2="-45.5559" gradientTransform="matrix(1 0 0 -1 0.04 212.9766)">
						<stop  offset="0" style="stop-color:#53D8FF"/>
						<stop  offset="1" style="stop-color:#3840F7"/>
					</linearGradient>
					<path fill="url(#SVGID_1_)" d="M10.042,24.935c0.006-2.185,1.941-3.858,4.104-3.546c14.336,2.073,63.643,8.524,104.477,5.749
						c1.862-0.126,3.467,1.298,3.549,3.163l6.793,153.137c0.097,2.101-1.524,3.881-3.624,3.985
						c-17.169,0.867-87.89,4.175-113.077,1.313c-1.535-0.174-2.688-1.477-2.685-3.021L10.042,24.935z"/>
					<path fill="#74DAEE" d="M11.699,28.785c0.007-2.103,1.868-3.713,3.95-3.412c13.793,1.994,61.243,8.203,100.542,5.533
						c1.793-0.123,3.336,1.248,3.414,3.043l6.539,147.371c0.09,2.021-1.469,3.734-3.487,3.838
						c-16.525,0.83-84.581,4.015-108.821,1.261c-1.475-0.167-2.585-1.42-2.58-2.905L11.699,28.785z"/>
					<g opacity="0.6">
						<path fill="#FFFFFF" d="M36.644,42.875c0.176,1.187,0.805,2.015,1.532,2.011l59.233-0.333c0.67-0.004,1.215-0.932,1.211-2.062
							c-0.006-1.101-0.527-1.986-1.18-1.996L38.215,39.52C37.171,39.504,36.392,41.166,36.644,42.875z"/>
					</g>
					<g>
						<path fill="#FFFFFF" d="M33.012,129.207c-0.007,0-0.013,0-0.021,0l-7.494-0.138c-1.072-0.021-1.949-0.764-2.041-1.731
							l-0.605-6.295c-0.033-0.37,0.084-0.733,0.332-1.024c0.279-0.328,0.699-0.529,1.152-0.556l0,0
							c0.633-0.039,1.521-0.106,2.465-0.178c1.983-0.152,4.453-0.341,5.84-0.345c1.009,0.002,1.857,0.606,2.088,1.486
							c0.377,1.446,0.318,4.18,0.217,7.09C34.915,128.461,34.048,129.216,33.012,129.207z M24.368,120.036
							c-0.297,0.018-0.568,0.146-0.748,0.355c-0.146,0.172-0.217,0.383-0.195,0.596l0.603,6.293
							c0.065,0.677,0.702,1.197,1.479,1.213l7.494,0.137c0.006,0,0.011,0,0.016,0c0.727,0.008,1.332-0.5,1.354-1.135
							c0.1-2.866,0.157-5.553-0.201-6.926c-0.161-0.613-0.793-1.047-1.525-1.055c-1.369,0.004-3.828,0.192-5.801,0.342
							C25.899,119.931,25.005,119.998,24.368,120.036L24.368,120.036z"/>
						<path opacity="0.6" fill="#FFFFFF" enable-background="new    " d="M25.171,120.692c1.574-0.094,5-0.412,6.624-0.418
							c0.687-0.002,1.288,0.418,1.442,1.016c0.303,1.162,0.243,3.473,0.17,5.602c-0.023,0.639-0.613,1.143-1.33,1.129l-5.988-0.109
							c-0.736-0.014-1.344-0.521-1.407-1.176l-0.481-5.03C24.149,121.185,24.587,120.728,25.171,120.692z"/>
						<g opacity="0.6">
							<path fill="#FFFFFF" d="M39.632,125.088c0.209,0.825,0.951,1.401,1.804,1.403l69.356,0.015c0.783,0,1.416-0.642,1.408-1.425
								c-0.014-0.764-0.627-1.379-1.391-1.389l-69.351-0.924C40.235,122.752,39.329,123.901,39.632,125.088z"/>
						</g>
						<path fill="#FFFFFF" d="M33.005,148.112c-0.008,0-0.016,0-0.021,0l-7.497-0.137c-1.069-0.021-1.947-0.765-2.04-1.733
							l-0.604-6.294c-0.035-0.37,0.083-0.734,0.333-1.025c0.278-0.324,0.697-0.527,1.151-0.555l0,0
							c0.633-0.038,1.522-0.105,2.465-0.178c1.982-0.151,4.451-0.34,5.84-0.346c0.012,0,0.02,0,0.031,0
							c0.985,0.01,1.827,0.617,2.056,1.485c0.378,1.446,0.319,4.181,0.22,7.091C34.906,147.368,34.04,148.122,33.005,148.112z
							 M24.36,138.942c-0.297,0.017-0.57,0.146-0.748,0.355c-0.146,0.172-0.217,0.385-0.195,0.596l0.604,6.295
							c0.064,0.676,0.7,1.197,1.479,1.211l7.496,0.138c0.004,0,0.01,0,0.014,0c0.726,0.006,1.333-0.5,1.354-1.136
							c0.097-2.865,0.157-5.553-0.202-6.924c-0.161-0.615-0.805-1.062-1.527-1.057c-1.365,0.006-3.824,0.191-5.799,0.346
							C25.89,138.836,24.999,138.903,24.36,138.942L24.36,138.942z"/>
						<path opacity="0.6" fill="#FFFFFF" enable-background="new    " d="M25.163,139.599c1.574-0.094,5-0.41,6.623-0.418
							c0.688-0.002,1.287,0.418,1.443,1.018c0.303,1.16,0.24,3.468,0.169,5.599c-0.022,0.64-0.612,1.144-1.327,1.13l-5.99-0.111
							c-0.736-0.012-1.344-0.521-1.406-1.176l-0.482-5.029C24.142,140.09,24.579,139.633,25.163,139.599z"/>
						<g opacity="0.6">
							<path fill="#FFFFFF" d="M39.624,143.995c0.211,0.824,0.953,1.402,1.803,1.402l69.355,0.017c0.785,0,1.42-0.642,1.408-1.425
								c-0.01-0.764-0.625-1.379-1.39-1.391l-69.35-0.923C40.228,141.659,39.323,142.808,39.624,143.995z"/>
						</g>
						<path fill="#FFFFFF" d="M32.721,167.187c-0.007,0-0.014,0-0.021,0l-7.496-0.139c-1.069-0.02-1.947-0.764-2.039-1.73
							l-0.605-6.295c-0.035-0.369,0.084-0.733,0.332-1.024c0.279-0.327,0.699-0.528,1.152-0.558l0,0
							c0.632-0.037,1.521-0.105,2.463-0.176c1.984-0.152,4.453-0.341,5.842-0.346c0.011,0,0.021,0,0.03,0
							c0.985,0.01,1.829,0.616,2.058,1.486c0.377,1.447,0.318,4.18,0.219,7.09C34.624,166.44,33.757,167.194,32.721,167.187z
							 M24.078,158.017c-0.299,0.019-0.569,0.146-0.749,0.354c-0.146,0.171-0.217,0.384-0.195,0.596l0.603,6.294
							c0.066,0.678,0.702,1.197,1.481,1.211l7.492,0.139c0.006,0,0.011,0,0.016,0c0.727,0.006,1.332-0.5,1.355-1.135
							c0.098-2.867,0.156-5.552-0.203-6.924c-0.16-0.615-0.805-1.064-1.525-1.058c-1.369,0.005-3.826,0.192-5.801,0.345
							C25.606,157.91,24.716,157.978,24.078,158.017L24.078,158.017z"/>
						<path opacity="0.6" fill="#FFFFFF" enable-background="new    " d="M24.88,158.672c1.574-0.094,5-0.411,6.624-0.418
							c0.687-0.003,1.288,0.418,1.442,1.015c0.304,1.164,0.242,3.471,0.17,5.602c-0.023,0.639-0.614,1.143-1.33,1.13l-5.988-0.11
							c-0.736-0.015-1.346-0.521-1.408-1.176l-0.48-5.029C23.858,159.164,24.295,158.706,24.88,158.672z"/>
						<g opacity="0.6">
							<path fill="#FFFFFF" d="M39.341,163.067c0.209,0.824,0.951,1.402,1.803,1.402l69.355,0.016c0.785,0,1.42-0.641,1.408-1.426
								c-0.01-0.762-0.625-1.379-1.389-1.389l-69.351-0.923C39.944,160.729,39.04,161.881,39.341,163.067z"/>
						</g>
						<path fill="#FFFFFF" d="M32.615,70.504c-0.009,0-0.015,0-0.021,0l-7.496-0.138c-1.071-0.02-1.947-0.764-2.041-1.73
							l-0.604-6.294c-0.035-0.368,0.082-0.734,0.332-1.023c0.278-0.328,0.699-0.53,1.152-0.557l0,0
							c0.632-0.038,1.521-0.106,2.463-0.177c1.984-0.151,4.453-0.341,5.842-0.345c0.01,0,0.021,0,0.029,0
							c0.985,0.009,1.83,0.617,2.057,1.486c0.379,1.446,0.32,4.179,0.219,7.091C34.515,69.76,33.652,70.515,32.615,70.504z
							 M23.972,61.335c-0.299,0.019-0.57,0.147-0.748,0.355c-0.146,0.171-0.218,0.383-0.197,0.596l0.604,6.294
							c0.066,0.676,0.703,1.197,1.48,1.211l7.493,0.138c0.005,0,0.012,0,0.016,0c0.728,0.005,1.332-0.501,1.354-1.136
							c0.098-2.866,0.156-5.552-0.201-6.924c-0.16-0.615-0.807-1.063-1.529-1.057c-1.365,0.005-3.824,0.192-5.799,0.343
							C25.5,61.229,24.608,61.297,23.972,61.335L23.972,61.335z"/>
						<path opacity="0.6" fill="#FFFFFF" enable-background="new    " d="M24.774,61.992c1.573-0.095,4.999-0.411,6.623-0.418
							c0.686-0.002,1.287,0.419,1.441,1.016c0.305,1.161,0.244,3.471,0.17,5.601c-0.023,0.639-0.613,1.142-1.328,1.129l-5.99-0.109
							c-0.736-0.013-1.344-0.521-1.406-1.177l-0.481-5.03C23.751,62.482,24.189,62.025,24.774,61.992z"/>
						<g opacity="0.6">
							<path fill="#FFFFFF" d="M39.234,66.388c0.21,0.823,0.952,1.401,1.804,1.402l69.354,0.015c0.787,0,1.42-0.641,1.409-1.425
								c-0.011-0.763-0.626-1.379-1.389-1.389l-69.351-0.923C39.839,64.051,38.933,65.2,39.234,66.388z"/>
						</g>
						<path fill="#FFFFFF" d="M32.576,89.671c-0.008,0-0.013,0-0.021,0l-7.494-0.136c-1.072-0.021-1.949-0.765-2.043-1.732
							l-0.604-6.295c-0.035-0.37,0.082-0.734,0.332-1.025c0.279-0.326,0.699-0.528,1.152-0.556l0,0
							c0.631-0.037,1.521-0.106,2.463-0.178c1.984-0.151,4.454-0.339,5.842-0.344c0.01,0,0.021,0,0.029,0
							c0.986,0.008,1.83,0.616,2.057,1.486c0.378,1.447,0.319,4.18,0.221,7.09C34.479,88.927,33.612,89.681,32.576,89.671z
							 M23.934,80.502c-0.298,0.017-0.57,0.146-0.751,0.355c-0.146,0.172-0.215,0.383-0.193,0.596l0.602,6.294
							c0.066,0.677,0.701,1.197,1.48,1.211l7.494,0.139c0.004,0,0.011,0,0.015,0c0.729,0.005,1.331-0.501,1.354-1.137
							c0.1-2.867,0.157-5.552-0.201-6.925c-0.162-0.614-0.805-1.063-1.525-1.055c-1.368,0.004-3.827,0.192-5.801,0.343
							C25.46,80.396,24.57,80.463,23.934,80.502L23.934,80.502z"/>
						<path opacity="0.6" fill="#FFFFFF" enable-background="new    " d="M24.733,81.158c1.576-0.094,5-0.412,6.625-0.418
							c0.688-0.002,1.287,0.418,1.444,1.016c0.302,1.161,0.24,3.469,0.167,5.6c-0.021,0.638-0.611,1.144-1.329,1.13l-5.987-0.11
							c-0.737-0.015-1.344-0.521-1.407-1.176l-0.483-5.031C23.714,81.648,24.149,81.192,24.733,81.158z"/>
						<g opacity="0.6">
							<path fill="#FFFFFF" d="M39.196,85.554c0.209,0.825,0.951,1.402,1.802,1.402l69.356,0.017c0.785,0,1.418-0.642,1.408-1.426
								c-0.012-0.763-0.628-1.379-1.39-1.389l-69.35-0.924C39.8,83.217,38.894,84.367,39.196,85.554z"/>
						</g>
						<path fill="#FFFFFF" d="M33.04,109.03c-0.008,0-0.017,0-0.021,0l-7.496-0.139c-1.07-0.019-1.947-0.764-2.041-1.73
							l-0.604-6.295c-0.035-0.37,0.082-0.734,0.332-1.025c0.279-0.326,0.699-0.528,1.152-0.556l0,0
							c0.632-0.037,1.521-0.105,2.463-0.176c1.984-0.152,4.453-0.34,5.842-0.346c0.01,0,0.021,0,0.03,0
							c0.985,0.008,1.829,0.616,2.057,1.486c0.376,1.447,0.319,4.18,0.22,7.09C34.938,108.284,34.075,109.039,33.04,109.03z
							 M24.397,99.859c-0.301,0.018-0.572,0.148-0.75,0.356c-0.146,0.171-0.219,0.382-0.197,0.595l0.605,6.295
							c0.064,0.675,0.699,1.197,1.48,1.21l7.492,0.139c0.004,0,0.012,0,0.015,0c0.727,0.006,1.333-0.5,1.354-1.134
							c0.1-2.867,0.158-5.554-0.201-6.926c-0.161-0.614-0.805-1.065-1.528-1.055c-1.366,0.004-3.823,0.191-5.799,0.343
							C25.925,99.753,25.032,99.821,24.397,99.859L24.397,99.859z"/>
						<path opacity="0.6" fill="#FFFFFF" enable-background="new    " d="M25.196,100.516c1.576-0.094,5.002-0.412,6.625-0.418
							c0.688-0.001,1.288,0.418,1.442,1.017c0.304,1.16,0.243,3.469,0.169,5.6c-0.022,0.638-0.613,1.142-1.328,1.13l-5.988-0.111
							c-0.736-0.014-1.346-0.521-1.408-1.175l-0.48-5.031C24.177,101.006,24.614,100.549,25.196,100.516z"/>
						<g opacity="0.6">
							<path fill="#FFFFFF" d="M39.656,104.911L39.656,104.911c0.213,0.825,0.954,1.402,1.806,1.402l69.355,0.016
								c0.785,0,1.418-0.641,1.408-1.426c-0.011-0.762-0.625-1.378-1.391-1.389l-69.349-0.924
								C40.263,102.575,39.355,103.725,39.656,104.911z"/>
						</g>
					</g>
				</g>
				<path fill="#41B8E1" d="M73.067,2.361c-3.774-2.674-7.077-2.651-9.406-1.985c-2.124,0.607-3.517,2.642-3.334,4.845l0.905,10.948
					l11.917,1.162C73.149,17.331,80.466,7.606,73.067,2.361z M67.744,11.141c-1.642-0.015-2.961-1.358-2.947-3
					c0.015-1.642,1.356-2.961,3.001-2.947c1.643,0.013,2.961,1.357,2.947,3C70.729,9.834,69.388,11.155,67.744,11.141z"/>
				<path fill="#FFFFFF" d="M62.466,11.577c-0.148-0.001-0.271-0.114-0.285-0.264l-0.145-1.744C62.024,9.411,62.14,9.272,62.3,9.258
					c0.16-0.013,0.297,0.106,0.31,0.263l0.144,1.744c0.014,0.159-0.104,0.297-0.262,0.311
					C62.481,11.577,62.473,11.577,62.466,11.577z M62.181,8.16c-0.146-0.001-0.271-0.114-0.283-0.264l-0.109-1.324
					c-0.175-2.098,1.163-4.04,3.177-4.614c1.429-0.408,2.894-0.455,4.36-0.141c0.155,0.034,0.256,0.186,0.221,0.341
					c-0.032,0.155-0.185,0.254-0.341,0.222c-1.372-0.293-2.747-0.25-4.081,0.131c-1.754,0.5-2.914,2.188-2.762,4.015l0.108,1.324
					c0.013,0.157-0.104,0.296-0.263,0.31C62.2,8.16,62.19,8.16,62.181,8.16z"/>
				<path fill="#41B8E1" d="M44.896,23.096l0.047-5.502c0.017-1.897,1.604-3.403,3.5-3.323l37.908,1.632
					c1.683,0.072,3.034,1.413,3.119,3.095l0.271,5.287L44.896,23.096z"/>
				<path fill="#FFFFFF" d="M59.093,16.438l-1.631-0.015c-0.158,0-0.287-0.131-0.285-0.29c0.002-0.16,0.132-0.286,0.289-0.285
					l1.631,0.014c0.16,0.002,0.287,0.132,0.285,0.291C59.382,16.311,59.251,16.438,59.093,16.438z"/>
				<path fill="#FFFFFF" d="M46.962,21.386c-0.158-0.001-0.287-0.13-0.285-0.291l0.02-2.225c0.014-1.719,1.426-3.106,3.145-3.09
					l5.996,0.052c0.158,0.002,0.286,0.132,0.283,0.29c0,0.161-0.131,0.288-0.289,0.286l-5.996-0.052
					c-1.4-0.012-2.551,1.118-2.563,2.52l-0.021,2.225C47.251,21.259,47.12,21.387,46.962,21.386z"/>
				<path fill="#41B8E1" d="M29.432,24.348c0.108-1.903,1.692-3.388,3.599-3.37l66.309,0.579c2.384,0.02,4.406,1.755,4.793,4.107
					l0.054,0.325c0.426,2.577-1.578,4.913-4.188,4.89l-68.029-0.596c-1.563-0.014-2.798-1.331-2.709-2.892L29.432,24.348z"/>
				<path fill="#FF7042" d="M24.422,61.941L24.422,61.941c0.661-0.387,1.511-0.156,1.888,0.514l1.754,3.147
					c0.176,0.316,0.636,0.295,0.783-0.033l4.357-9.698c0.217-0.484,0.936-0.32,0.93,0.21c-0.045,2.966-0.833,8.604-5.572,13.325
					c0,0-2.611-1.015-4.715-5.635C23.542,63.104,23.79,62.313,24.422,61.941z"/>
			</g>
		</g>
	</g>
	<g>
		<g>
			<path fill="#4E306D" d="M77.126,80.526c0.07-0.312,0.969-3.65,6.162-2.832c0,0-2.598-0.188-3.248,0.843
				c0,0,1.99-1.043,3.313-0.328c1.32,0.714,1.67,3.337,1.523,4.149c-0.15,0.812-1.438,3.272-2.371,3.322
				c-0.354,0.019-0.74-0.079-1.081-0.207c0.166,0.417,0.319,0.871,0.454,1.37c1.24,4.623-1.678,8.341-3.332,7.548
				c-1.063-0.509-1.746,1.337-1.746,1.337l-9.158-10.885C67.642,84.844,73.224,77.363,77.126,80.526z"/>
			<path fill="#6139BC" d="M68.825,209.34l3.445-1.319c0,0,2.02-11.322,3.274-23.77c0.226-2.223,0.149-4.375-0.334-6.363
				c0,0,0.101-0.568,0.272-1.574c0.08-0.472,0.182-1.037,0.293-1.685c0.332-1.899,0.787-4.5,1.312-7.459
				c1.199-6.812,2.754-15.521,3.961-21.922l-0.631-0.202l-6.849-2.21l-1.414-4.494l-6.226-2.366c0,0-0.012,3.252-1.029,13.775
				c-0.188,1.381-0.357,2.902-0.486,4.555c-0.397,5.037-0.426,11.289,0.484,18.434c0.234,1.828,0.529,3.718,0.896,5.658
				c0.268,1.422,0.309,3.359,0.194,5.586C65.478,194.158,68.825,209.34,68.825,209.34z"/>
			<path fill="#4A2C76" d="M64.415,154.304l11.07,22.008c0.08-0.471,0.181-1.035,0.293-1.684c0.332-1.9,0.787-4.5,1.311-7.459
				c1.199-6.813,2.754-15.521,3.961-21.922l-0.631-0.202l-6.848-2.21l-1.286-5.271l-6.354-1.588c0,0-0.012,3.252-1.029,13.774
				C64.713,151.131,64.544,152.653,64.415,154.304z"/>
			<path fill="#6139BC" d="M69.284,139.823l0.35-2.627c4.292,1.143,15.672-2.756,15.672-2.756s4.16,3.654,3.613,12.42
				c-0.266,4.277-0.754,22.455-1.262,27.832c-0.184,1.949-0.346,3.338-0.411,3.893c-0.001,0.002-0.001,0.004-0.001,0.006
				c-0.021,0.168,0.038,0.328,0.125,0.477c0.748,1.271,1.367,2.593,1.875,3.945c4.994,13.301-0.768,29.68-0.768,29.68l-1.494-0.603
				c0,0-3.277-18.228-5.94-26.28c-0.452-1.365-0.886-2.438-1.283-3.08c-1.157-1.869-2.233-4.922-3.208-8.555
				c-1.844-6.867-3.326-15.799-4.314-22.695C72.101,151.485,69.284,139.823,69.284,139.823z"/>
			<g>
				<path fill="#FFB894" d="M44.319,80.774c-0.916,0.825,1.598,3.58,1.93,3.957c0.033,0.021,0.048,0.042,0.048,0.042l2.151-0.507
					c0,0,0.486-3.183,0.018-3.771C47.995,79.903,45.3,79.865,44.319,80.774z"/>
				<path fill="#FFB894" d="M48.448,84.266l-2.174,0.074c0,0-0.014,0.143-0.025,0.391c-0.036,0.783-0.145,2.684-0.158,4.847
					c-0.047,3.25,0.086,7.128,0.849,8.753c1.147,2.474,5.044,6.762,9.089,9.727c0.098,0.082,0.197,0.146,0.297,0.211
					c2.149,1.551,4.325,2.711,6.137,2.988c1.105,0.178,2.072,0.164,2.928,0.028c1.129-0.177,2.053-0.572,2.763-1.009
					c0.114-0.061,0.229-0.119,0.329-0.215c1.102-0.732,1.622-1.514,1.622-1.514c0.225-0.404,0.063-0.887-0.396-1.422l-0.017-0.003
					c-0.36-0.434-0.934-0.928-1.661-1.422c-0.016-0.02-0.033-0.04-0.051-0.042c-0.148-0.107-0.314-0.215-0.497-0.342
					c-0.031-0.04-0.081-0.063-0.116-0.085c-0.383-0.241-0.785-0.483-1.204-0.728c-4.485-2.709-11.392-5.837-13.311-8.004
					c-0.823-0.934-2.191-4.936-3.192-8.108C48.954,86.111,48.448,84.266,48.448,84.266z"/>
			</g>
			<path fill="#FFB894" d="M67.019,109.073c1.205,0.869,2.723,1.597,4.636,2.074c7.171,1.799,10.041-4.236,11.156-8.396
				c-0.974-0.581-1.895-0.722-2.427-0.794c-0.52-0.071-1.067-0.122-1.52-0.153c-0.798-0.634-1.954-3.191-2.147-7.133l-0.34,0.086
				l-5.706,1.447c0,0,0.226,1.809,0.323,3.517c0.074,1.336,0.064,2.612-0.193,2.919c-0.443,0.087-0.712,0.145-0.712,0.145
				s0,0.003-0.003,0.006C70.009,102.914,68.312,105.592,67.019,109.073z"/>
			<path fill="#FF7042" d="M64.288,113.478c0.025,0.155,0.059,0.31,0.096,0.465c1.072,4.309,1.305,21.34,1.305,21.34
				c-1.05,2.852,22.24,3.697,22.815,1.029c1.347-2.689-1.396-7.957-2.993-10.642c-0.201-0.337-0.371-0.69-0.506-1.056
				c-0.349-0.914-0.49-1.898-0.406-2.883c0.334-3.875,1.174-7.408,1.562-9.58l0,0c-0.345-0.373-0.679-0.721-0.986-1.051
				c-0.473-0.508-0.885-0.975-1.17-1.424c-0.313-0.49-0.479-0.961-0.414-1.445c0.052-0.365,0.134-0.733,0.242-1.096
				c0.051-0.172,0.104-0.344,0.168-0.514c0.638-1.784,1.728-3.304,1.728-3.304c-1.793-1.163-5.342-1.362-5.342-1.362
				s-0.033,0.192-0.093,0.507c-0.231,1.266-0.869,4.507-1.396,5.042c-0.651,0.667-10.563,2.226-10.854,1.095
				c-0.283-1.115,1.96-5.639,2.043-5.811c0.003-0.003,0.003-0.006,0.003-0.006c-3.337,0.62-4.643,1.426-4.643,1.426
				C67.081,105.787,63.583,109.364,64.288,113.478z"/>
			<path fill="#F2AC8C" d="M70.671,96.205c0,0,0.23,1.807,0.322,3.517c3.223-0.262,4.773-3.295,5.385-4.964L70.671,96.205z"/>
			<path fill="#FFB894" d="M69.683,97.881c0,0,7.637-0.279,7.392-5.034c-0.248-4.755,0.571-7.995-4.316-8.017
				c-4.889-0.021-5.742,1.842-6.045,3.45C66.409,89.886,67.687,97.832,69.683,97.881z"/>
			<path fill="#4E306D" d="M66.799,85.622c1.104-1.492,2.013-1.225,2.536-0.822c4.049-2.515,6.918,0.734,6.918,0.734
				c0.693,3.383,3.256,5.207,3.256,5.207s-1.346,0.935-4.598,0.279c-0.992-0.201-1.904-0.85-2.693-1.655
				c1.414,2.107,3.264,3.581,3.264,3.581c-3.924-1.568-5.748-6.814-5.93-7.37c-0.445,0.444-1.314,1.401-1.546,2.307
				c-0.317,1.231-0.356,3.733-1.087,3.687C66.919,91.57,65.144,87.862,66.799,85.622z"/>
			<path fill="#4A2C6A" d="M79.788,213.912h11.828c0,0,0.283-1.804-0.334-3.17c-0.592-1.312-1.52-1.908-1.297-3.496
				c-0.752,0.772-1.978,1.642-3.688,1.409c-0.209,0.341-1.354,2.158-2.053,2.66C83.472,211.873,80.026,211.674,79.788,213.912z"/>
			<path fill="#4A2C6A" d="M60.691,213.912h11.828c0,0,0.443-1.886-0.332-3.17c-0.688-1.134-0.426-1.783,0.084-2.724
				c-0.537,0.221-1.229,0.42-1.992,0.377c-0.59-0.035-1.213-0.303-1.758-0.619c-0.51,0.58-2.691,3.051-3.371,3.539
				C64.376,211.873,60.931,211.674,60.691,213.912z"/>
			<path fill="#FF7042" d="M81.55,106.711c3.538-0.277,5.621,2.845,5.621,2.845c0.934-5.06-1.445-6.237-1.445-6.237
				C84.794,102.705,83.284,104.231,81.55,106.711z"/>
			<path fill="#FF7042" d="M88.685,108.056c0,0-3.406-1.721-6.397,0.571c0,0,0.631-5.605,2.168-5.555
				C84.454,103.073,87.442,103.103,88.685,108.056z"/>
			<path fill="#FF4A1E" d="M87.356,129.157c0,0,1.024,2.142,1.252,3.479c0.228,1.338-7.982,5.273-9.621,5.174l0.102,0.114
				l2.969-6.091L87.356,129.157z"/>
			<g>
				<path fill="#FFB894" d="M69.351,140.472l1.198,2.031c0,0,0.72-0.343,1.858-0.895c0.34-0.166,0.531-0.273,0.531-0.273
					c0.908-0.449,1.987-1.021,3.166-1.635l0.018-0.006c2.002-1.098,4.232-2.369,6.07-3.605c1.287-0.885,2.377-1.753,3.074-2.514
					c0.071-0.075,0.125-0.146,0.191-0.237c1.609-2.003,2.825-6.94,3.425-12.039c0.085-0.706,0.152-1.403,0.226-2.087
					c0.231-2.531,0.301-4.98,0.18-7.048c-0.061-1.235-0.18-2.345-0.383-3.229c-0.066-0.313-0.131-0.609-0.221-0.879
					c-1.39-4.962-4.045-4.978-4.045-4.978c-0.058-0.002-0.113-0.005-0.187-0.004c-0.447,0.049-0.813,0.462-1.123,1.154
					c-0.394,0.861-0.695,2.179-0.951,3.74c-0.375,2.479-0.624,5.623-0.81,8.73c-0.106,1.705-0.196,3.406-0.317,4.986
					c-0.053,0.953-0.121,1.855-0.188,2.686c-0.14,1.585-0.301,2.882-0.529,3.736c-0.143,0.555-0.75,1.438-1.592,2.477
					c-1.457,1.816-3.68,4.134-5.641,6.068c-0.812,0.811-1.585,1.555-2.228,2.172C70.041,139.823,69.351,140.472,69.351,140.472z"/>
				<path fill="#FFB894" d="M69.339,140.479c0,0-0.697,0.869-1.4,1.104c-0.699,0.235-2.254,1.269-2.705,1.94
					c0,0-0.098,0.309,0.184,0.408c0.282,0.1,1.303-0.762,1.705-0.422c0,0-1.098,1.227-1.576,1.469c-0.477,0.242-1.324,2-1.394,2.422
					c-0.071,0.424,2.987-0.625,4.294-1.131c1.305-0.508,3.035-4.806,3.035-4.806L69.339,140.479z"/>
			</g>
		</g>
		<g>
			<path fill="#FFB894" d="M46.571,84.459c-0.109,0.344,1.148,0.871,1.889-0.542c0.025-0.676,0.438-3.575,0.033-4.126
				c-2.154-2.935-6.328-6.615-6.328-6.615c-0.705,0.695-0.124,1.379-0.124,1.379l2.026,2.11c-0.425,0.766-0.943,1.412-1.186,2.336
				c-0.182,0.702-0.07,1.451,0.285,2.09c0.355,0.64,0.839,1.473,1.298,2.125C45.332,84.449,46.571,84.459,46.571,84.459z"/>
			<path fill="#FFB894" d="M44.953,78.034l1.845,1.564l0.579,1.557l-1.646,1.826c0,0-0.555-3.09-0.965-3.76
				C44.356,78.553,44.568,78.229,44.953,78.034z"/>
		</g>
	</g>
</g>
<g>
	<g>
		<g>
			<path fill="#4A2C6A" d="M151.969,214.376H-12.936c-0.09,0-0.164-0.15-0.164-0.334v-0.261c0-0.184,0.073-0.334,0.164-0.334
				h164.904c0.093,0,0.165,0.15,0.165,0.334v0.261C152.134,214.225,152.059,214.376,151.969,214.376z"/>
		</g>
	</g>
</g>
</svg>
