<?xml version="1.0" encoding="utf-8"?>
<!-- Generator: Adobe Illustrator 16.0.3, SVG Export Plug-In . SVG Version: 6.00 Build 0)  -->
<!DOCTYPE svg PUBLIC "-//W3C//DTD SVG 1.1//EN" "http://www.w3.org/Graphics/SVG/1.1/DTD/svg11.dtd">
<svg version="1.1" id="Warstwa_1" xmlns="http://www.w3.org/2000/svg" xmlns:xlink="http://www.w3.org/1999/xlink" x="0px" y="0px"
	 width="339.356px" height="231.09px" viewBox="0 0 339.356 231.09" enable-background="new 0 0 339.356 231.09"
	 xml:space="preserve">
<g>
	<path fill="#4E306D" d="M319.678,129.831c0,6.375-5.216,11.591-11.591,11.591H201.071c-6.375,0-11.591-5.216-11.591-11.591V63.856
		c0-6.375,5.216-11.591,11.591-11.591h107.017c6.375,0,11.591,5.216,11.591,11.591V129.831z"/>
</g>
<g>
	<path fill="#FFFFFF" d="M198.481,79.466c0-0.113,0.076-0.188,0.188-0.188h7.688c0.115,0,0.19,0.075,0.19,0.188v1.184
		c0,0.113-0.075,0.188-0.19,0.188h-6.09c-0.075,0-0.111,0.038-0.111,0.112v3.893c0,0.074,0.036,0.112,0.111,0.112h5.169
		c0.114,0,0.19,0.074,0.19,0.188v1.185c0,0.113-0.076,0.187-0.19,0.187h-5.169c-0.075,0-0.111,0.039-0.111,0.113v5.244
		c0,0.113-0.078,0.188-0.189,0.188h-1.297c-0.112,0-0.188-0.075-0.188-0.188V79.466z"/>
	<path fill="#FFFFFF" d="M211.114,79.466c0.041-0.113,0.096-0.188,0.225-0.188h1.224c0.133,0,0.207,0.075,0.245,0.188l4.379,12.406
		c0.037,0.113-0.017,0.188-0.132,0.188h-1.315c-0.132,0-0.207-0.056-0.244-0.188l-0.979-2.782h-5.169l-0.977,2.782
		c-0.055,0.132-0.131,0.188-0.245,0.188h-1.316c-0.111,0-0.167-0.075-0.129-0.188L211.114,79.466z M213.971,87.549l-2.011-5.811
		h-0.04l-2.027,5.811H213.971z"/>
	<path fill="#FFFFFF" d="M218.394,85.668c0-2.125,0.093-2.857,0.335-3.591c0.642-2.01,2.165-3.007,4.252-3.007
		c1.897,0,3.362,0.939,4.095,2.576c0.04,0.092,0.02,0.188-0.075,0.244l-1.126,0.545c-0.114,0.057-0.229,0-0.266-0.094
		c-0.504-0.995-1.295-1.71-2.628-1.71c-1.393,0-2.239,0.676-2.654,1.88c-0.168,0.526-0.242,1.146-0.242,3.158
		c0,2.012,0.074,2.632,0.242,3.159c0.415,1.202,1.262,1.879,2.654,1.879c1.333,0,2.124-0.715,2.628-1.71
		c0.037-0.095,0.151-0.15,0.266-0.095L227,89.448c0.095,0.055,0.115,0.15,0.075,0.243c-0.732,1.635-2.197,2.577-4.095,2.577
		c-2.087,0-3.61-0.998-4.252-3.008C218.487,88.526,218.394,87.792,218.394,85.668z"/>
	<path fill="#FFFFFF" d="M231.965,92.059c-0.114,0-0.188-0.075-0.188-0.188V80.95c0-0.075-0.036-0.112-0.109-0.112h-3.497
		c-0.112,0-0.189-0.075-0.189-0.188v-1.184c0-0.113,0.077-0.188,0.189-0.188h8.889c0.114,0,0.188,0.075,0.188,0.188v1.184
		c0,0.113-0.074,0.188-0.188,0.188h-3.494c-0.075,0-0.114,0.038-0.114,0.112v10.922c0,0.113-0.076,0.188-0.187,0.188H231.965z"/>
	<path fill="#FFFFFF" d="M238.623,90.668c-0.076-0.074-0.097-0.187-0.019-0.282l0.827-0.977c0.075-0.094,0.169-0.094,0.264-0.02
		c0.827,0.659,2.105,1.317,3.569,1.317c1.768,0,2.822-0.884,2.822-2.181c0-1.091-0.624-1.823-2.67-2.086l-0.639-0.095
		c-2.482-0.339-3.762-1.523-3.762-3.534c0-2.273,1.638-3.74,4.175-3.74c1.504,0,2.951,0.488,3.892,1.185
		c0.094,0.074,0.111,0.17,0.037,0.262l-0.64,1.035c-0.075,0.094-0.168,0.094-0.262,0.037c-1.035-0.64-1.994-0.958-3.085-0.958
		c-1.558,0-2.424,0.846-2.424,2.068c0,1.071,0.712,1.786,2.688,2.049l0.62,0.095c2.498,0.337,3.759,1.484,3.759,3.57
		c0,2.236-1.579,3.854-4.66,3.854C241.311,92.268,239.563,91.532,238.623,90.668z"/>
</g>
<g>
	<path fill="#FFFFFF" d="M216.1,100.516c0.237-0.742,0.862-1.15,1.685-1.15c0.65,0,1.148,0.276,1.46,0.722
		c0.028,0.044,0.028,0.081-0.026,0.125l-0.392,0.321c-0.045,0.036-0.088,0.036-0.126-0.009c-0.25-0.312-0.489-0.463-0.916-0.463
		c-0.464,0-0.813,0.222-0.957,0.668c-0.07,0.222-0.097,0.491-0.097,0.866c0,0.382,0.026,0.652,0.097,0.873
		c0.145,0.446,0.493,0.669,0.957,0.669c0.427,0,0.666-0.152,0.916-0.463c0.038-0.046,0.081-0.046,0.126-0.01l0.392,0.322
		c0.055,0.044,0.055,0.081,0.026,0.125c-0.312,0.446-0.81,0.722-1.46,0.722c-0.822,0-1.447-0.41-1.685-1.15
		c-0.081-0.258-0.135-0.606-0.135-1.086C215.965,101.122,216.019,100.774,216.1,100.516z"/>
	<path fill="#FFFFFF" d="M222.916,103.735c-0.056,0-0.09-0.036-0.09-0.089v-0.374h-0.009c-0.198,0.321-0.616,0.561-1.267,0.561
		c-0.813,0-1.435-0.418-1.435-1.285c0-0.9,0.622-1.319,1.666-1.319h0.973c0.033,0,0.052-0.017,0.052-0.053v-0.313
		c0-0.588-0.229-0.837-1.024-0.837c-0.481,0-0.785,0.124-1.032,0.304c-0.047,0.035-0.099,0.035-0.128-0.011l-0.238-0.409
		c-0.027-0.053-0.021-0.089,0.018-0.124c0.322-0.25,0.818-0.42,1.453-0.42c1.213,0,1.676,0.401,1.676,1.454v2.827
		c0,0.054-0.034,0.089-0.09,0.089H222.916z M222.806,102.353v-0.473c0-0.036-0.019-0.054-0.052-0.054h-0.856
		c-0.74,0-1.062,0.215-1.062,0.695c0,0.438,0.321,0.67,0.893,0.67C222.398,103.191,222.806,102.877,222.806,102.353z"/>
	<path fill="#FFFFFF" d="M225.986,103.78c-0.75,0-1.042-0.357-1.042-1.124v-4.895c0-0.055,0.035-0.089,0.087-0.089h0.573
		c0.052,0,0.09,0.034,0.09,0.089v4.85c0,0.356,0.131,0.473,0.426,0.473h0.169c0.055,0,0.091,0.035,0.091,0.089v0.517
		c0,0.054-0.036,0.09-0.091,0.09H225.986z"/>
	<path fill="#FFFFFF" d="M227.319,102.682c-0.101-0.292-0.145-0.588-0.145-1.086c0-0.491,0.044-0.784,0.145-1.08
		c0.23-0.73,0.854-1.15,1.685-1.15c0.828,0,1.452,0.42,1.684,1.15c0.099,0.296,0.146,0.588,0.146,1.08
		c0,0.499-0.047,0.794-0.146,1.086c-0.231,0.723-0.855,1.15-1.684,1.15C228.173,103.832,227.549,103.405,227.319,102.682z
		 M229.965,102.468c0.071-0.232,0.098-0.464,0.098-0.873c0-0.411-0.026-0.633-0.098-0.866c-0.144-0.427-0.489-0.668-0.962-0.668
		s-0.822,0.241-0.964,0.668c-0.072,0.232-0.099,0.455-0.099,0.866c0,0.409,0.026,0.641,0.099,0.873
		c0.142,0.427,0.491,0.669,0.964,0.669S229.822,102.896,229.965,102.468z"/>
	<path fill="#FFFFFF" d="M232.129,103.735c-0.056,0-0.092-0.036-0.092-0.089v-4.093c0-0.053,0.036-0.089,0.092-0.089h0.568
		c0.053,0,0.09,0.037,0.09,0.089v0.436h0.008c0.188-0.364,0.563-0.623,1.134-0.623c0.338,0,0.659,0.125,0.872,0.319
		c0.048,0.046,0.055,0.082,0.021,0.127l-0.333,0.437c-0.035,0.043-0.078,0.054-0.125,0.017c-0.194-0.124-0.408-0.204-0.66-0.204
		c-0.649,0-0.917,0.507-0.917,1.248v2.336c0,0.054-0.037,0.089-0.09,0.089H232.129z"/>
	<path fill="#FFFFFF" d="M235.768,98.5c-0.054,0-0.088-0.036-0.088-0.09v-0.649c0-0.055,0.034-0.089,0.088-0.089h0.607
		c0.056,0,0.091,0.034,0.091,0.089v0.649c0,0.054-0.035,0.09-0.091,0.09H235.768z M235.788,103.735
		c-0.054,0-0.089-0.036-0.089-0.089v-4.093c0-0.053,0.035-0.089,0.089-0.089h0.569c0.054,0,0.09,0.037,0.09,0.089v4.093
		c0,0.054-0.036,0.089-0.09,0.089H235.788z"/>
	<path fill="#FFFFFF" d="M237.793,102.674c-0.088-0.277-0.141-0.588-0.141-1.079c0-0.491,0.044-0.821,0.133-1.08
		c0.241-0.742,0.865-1.15,1.678-1.15c0.818,0,1.435,0.42,1.675,1.15c0.09,0.277,0.135,0.57,0.135,1.222
		c0,0.053-0.035,0.088-0.099,0.088h-2.702c-0.036,0-0.054,0.019-0.054,0.054c0,0.232,0.028,0.375,0.072,0.517
		c0.169,0.491,0.553,0.74,1.077,0.74c0.508,0,0.866-0.205,1.098-0.474c0.045-0.043,0.089-0.052,0.132-0.018l0.366,0.33
		c0.045,0.036,0.045,0.081,0.011,0.125c-0.34,0.427-0.918,0.731-1.668,0.731C238.643,103.832,238.027,103.414,237.793,102.674z
		 M240.452,101.229c0.036,0,0.055-0.017,0.055-0.053c0-0.196-0.019-0.348-0.063-0.481c-0.144-0.429-0.5-0.668-0.98-0.668
		c-0.481,0-0.84,0.24-0.981,0.668c-0.046,0.133-0.063,0.285-0.063,0.481c0,0.036,0.018,0.053,0.054,0.053H240.452z"/>
	<path fill="#FFFFFF" d="M242.186,103.191c-0.034-0.037-0.034-0.09,0-0.125l0.366-0.392c0.036-0.035,0.089-0.035,0.124,0
		c0.321,0.276,0.805,0.491,1.321,0.491c0.623,0,0.935-0.27,0.935-0.652c0-0.339-0.16-0.526-0.828-0.599l-0.454-0.044
		c-0.84-0.089-1.277-0.507-1.277-1.204c0-0.811,0.582-1.301,1.589-1.301c0.625,0,1.158,0.205,1.515,0.473
		c0.045,0.026,0.045,0.081,0.019,0.125l-0.304,0.383c-0.034,0.044-0.081,0.044-0.125,0.019c-0.276-0.178-0.712-0.347-1.149-0.347
		c-0.535,0-0.812,0.24-0.812,0.589c0,0.337,0.206,0.516,0.837,0.579l0.446,0.044c0.865,0.081,1.286,0.517,1.286,1.205
		c0,0.838-0.608,1.399-1.721,1.399C243.124,103.832,242.535,103.495,242.186,103.191z"/>
</g>
<g>
	<path fill="#FFFFFF" d="M199.885,98.521h-0.02l-0.963,0.66c-0.053,0.037-0.097,0.018-0.097-0.053v-1.107
		c0-0.051,0.018-0.088,0.063-0.124l1.017-0.732c0.045-0.036,0.097-0.053,0.161-0.053h0.996c0.056,0,0.09,0.036,0.09,0.089v5.885
		c0,0.054-0.034,0.088-0.09,0.088h-1.069c-0.054,0-0.088-0.034-0.088-0.088V98.521z"/>
	<path fill="#FFFFFF" d="M203.207,100.144c0-1.346,0.044-1.623,0.134-1.889c0.249-0.777,0.874-1.241,1.826-1.241
		c0.956,0,1.58,0.464,1.83,1.241c0.09,0.266,0.132,0.543,0.132,1.889c0,1.347-0.042,1.622-0.132,1.89
		c-0.25,0.776-0.874,1.24-1.83,1.24c-0.952,0-1.577-0.464-1.826-1.24C203.25,101.766,203.207,101.491,203.207,100.144z
		 M205.167,102.223c0.313,0,0.527-0.134,0.617-0.411c0.054-0.16,0.071-0.338,0.071-1.667c0-1.329-0.018-1.507-0.071-1.667
		c-0.09-0.276-0.304-0.409-0.617-0.409c-0.32,0-0.522,0.133-0.613,0.409c-0.053,0.161-0.071,0.339-0.071,1.667
		c0,1.33,0.019,1.508,0.071,1.667C204.644,102.089,204.846,102.223,205.167,102.223z"/>
	<path fill="#FFFFFF" d="M208.359,101.837l0.962-0.186c0.054-0.009,0.088,0.017,0.106,0.07c0.107,0.287,0.32,0.501,0.705,0.501
		c0.304,0,0.543-0.142,0.631-0.43c0.055-0.141,0.072-0.311,0.072-0.587c0-0.294-0.018-0.456-0.072-0.597
		c-0.096-0.303-0.339-0.419-0.631-0.419c-0.331,0-0.526,0.169-0.616,0.348c-0.025,0.062-0.056,0.089-0.116,0.089h-0.954
		c-0.052,0-0.087-0.036-0.087-0.089v-3.335c0-0.053,0.035-0.089,0.087-0.089h3.389c0.055,0,0.089,0.036,0.089,0.089v0.882
		c0,0.053-0.034,0.09-0.089,0.09h-2.327c-0.035,0-0.054,0.017-0.054,0.053v1.195h0.026c0.151-0.133,0.453-0.286,0.908-0.286
		c0.777,0,1.339,0.348,1.563,1.026c0.079,0.25,0.125,0.525,0.125,1.035c0,0.382-0.054,0.694-0.134,0.945
		c-0.24,0.74-0.929,1.132-1.792,1.132c-1.035,0-1.756-0.545-1.864-1.336C208.277,101.891,208.303,101.847,208.359,101.837z"/>
</g>
<g>
	<rect x="198.069" y="105.873" fill="#FFFFFF" width="47.707" height="0.297"/>
</g>
<g>
	<path fill="#FFFFFF" d="M236.588,129.969c-0.054,0-0.091-0.035-0.091-0.088v-3.523c0-0.036-0.017-0.053-0.053-0.053h-0.366
		c-0.054,0-0.088-0.036-0.088-0.088v-0.43c0-0.055,0.034-0.088,0.088-0.088h0.366c0.036,0,0.053-0.019,0.053-0.057v-0.363
		c0-1.008,0.412-1.373,1.303-1.373h0.33c0.053,0,0.089,0.035,0.089,0.088v0.518c0,0.055-0.036,0.09-0.089,0.09h-0.232
		c-0.543,0-0.649,0.116-0.649,0.641v0.4c0,0.038,0.018,0.057,0.054,0.057h0.828c0.053,0,0.089,0.033,0.089,0.088v0.43
		c0,0.052-0.036,0.088-0.089,0.088h-0.828c-0.036,0-0.054,0.017-0.054,0.053v3.523c0,0.053-0.036,0.088-0.092,0.088H236.588z"/>
	<path fill="#FFFFFF" d="M241.779,129.969c-0.053,0-0.086-0.035-0.086-0.088v-0.375h-0.01c-0.196,0.32-0.616,0.563-1.267,0.563
		c-0.813,0-1.435-0.42-1.435-1.285c0-0.9,0.622-1.318,1.666-1.318h0.974c0.033,0,0.053-0.02,0.053-0.055v-0.313
		c0-0.589-0.232-0.838-1.026-0.838c-0.481,0-0.784,0.125-1.035,0.303c-0.045,0.036-0.099,0.036-0.124-0.009l-0.241-0.409
		c-0.024-0.055-0.019-0.09,0.017-0.125c0.322-0.25,0.821-0.42,1.456-0.42c1.211,0,1.676,0.402,1.676,1.454v2.827
		c0,0.053-0.035,0.088-0.091,0.088H241.779z M241.674,128.588v-0.473c0-0.037-0.02-0.055-0.053-0.055h-0.857
		c-0.742,0-1.063,0.216-1.063,0.696c0,0.438,0.32,0.669,0.894,0.669C241.264,129.426,241.674,129.114,241.674,128.588z"/>
	<path fill="#FFFFFF" d="M245.066,130.016c-0.828,0-1.149-0.377-1.149-1.215v-2.443c0-0.036-0.018-0.053-0.056-0.053h-0.354
		c-0.057,0-0.092-0.036-0.092-0.088v-0.43c0-0.055,0.035-0.088,0.092-0.088h0.354c0.038,0,0.056-0.019,0.056-0.057v-1.203
		c0-0.052,0.034-0.088,0.087-0.088h0.572c0.053,0,0.088,0.036,0.088,0.088v1.203c0,0.038,0.018,0.057,0.054,0.057h0.679
		c0.053,0,0.09,0.033,0.09,0.088v0.43c0,0.052-0.037,0.088-0.09,0.088h-0.679c-0.036,0-0.054,0.017-0.054,0.053v2.418
		c0,0.428,0.161,0.543,0.546,0.543h0.187c0.053,0,0.09,0.034,0.09,0.09v0.516c0,0.055-0.037,0.092-0.09,0.092H245.066z"/>
</g>
<g>
	<path fill="#FFFFFF" d="M198.243,125.844c0-1.346,0.046-1.623,0.135-1.889c0.251-0.775,0.874-1.24,1.827-1.24
		c0.956,0,1.581,0.465,1.829,1.24c0.091,0.266,0.135,0.543,0.135,1.889c0,1.349-0.044,1.624-0.135,1.892
		c-0.248,0.776-0.873,1.239-1.829,1.239c-0.953,0-1.576-0.463-1.827-1.239C198.289,127.468,198.243,127.193,198.243,125.844z
		 M200.205,127.923c0.313,0,0.527-0.134,0.616-0.411c0.055-0.162,0.071-0.338,0.071-1.668c0-1.328-0.017-1.507-0.071-1.668
		c-0.089-0.275-0.304-0.408-0.616-0.408c-0.319,0-0.526,0.133-0.613,0.408c-0.056,0.161-0.072,0.34-0.072,1.668
		c0,1.33,0.017,1.506,0.072,1.668C199.678,127.79,199.885,127.923,200.205,127.923z"/>
	<path fill="#FFFFFF" d="M203.224,127.717c0-0.053,0.035-0.09,0.09-0.09h1.061c0.054,0,0.09,0.037,0.09,0.09v1.071
		c0,0.054-0.036,0.089-0.09,0.089h-1.061c-0.055,0-0.09-0.035-0.09-0.089V127.717z"/>
	<path fill="#FFFFFF" d="M205.366,127.905v-0.91c0-0.034,0-0.071,0.019-0.105l1.818-4.006c0.027-0.052,0.063-0.069,0.125-0.069
		h1.132c0.063,0,0.082,0.034,0.063,0.089l-1.817,3.986v0.027h1.114c0.036,0,0.053-0.02,0.053-0.057v-1.309
		c0-0.054,0.037-0.09,0.09-0.09h1.033c0.055,0,0.092,0.036,0.092,0.09v1.309c0,0.037,0.016,0.057,0.054,0.057h0.399
		c0.054,0,0.092,0.033,0.092,0.089v0.899c0,0.053-0.038,0.09-0.092,0.09h-0.399c-0.038,0-0.054,0.017-0.054,0.053v0.741
		c0,0.054-0.037,0.089-0.092,0.089h-1.033c-0.053,0-0.09-0.035-0.09-0.089v-0.741c0-0.036-0.017-0.053-0.053-0.053h-2.365
		C205.403,127.995,205.366,127.958,205.366,127.905z"/>
	<path fill="#FFFFFF" d="M210.462,129.928c-0.035-0.045-0.035-0.088,0.01-0.133l0.631-0.643c0.045-0.045,0.092-0.045,0.134,0
		c0.271,0.24,0.555,0.375,0.893,0.375c0.598,0,0.865-0.32,0.865-0.954v-0.366h-0.008c-0.188,0.305-0.563,0.5-1.108,0.5
		c-0.71,0-1.219-0.357-1.442-1.043c-0.099-0.321-0.143-0.615-0.143-1.078c0-0.465,0.044-0.769,0.143-1.08
		c0.224-0.688,0.732-1.045,1.442-1.045c0.545,0,0.92,0.199,1.108,0.502h0.008v-0.314c0-0.053,0.037-0.088,0.09-0.088h1.071
		c0.052,0,0.087,0.035,0.087,0.088v3.764c0,1.445-0.731,2.167-2.148,2.167C211.455,130.58,210.775,130.303,210.462,129.928z
		 M212.915,127.193c0.054-0.161,0.08-0.341,0.08-0.606c0-0.27-0.026-0.447-0.08-0.607c-0.098-0.304-0.293-0.465-0.643-0.465
		c-0.339,0-0.534,0.161-0.642,0.465c-0.045,0.16-0.071,0.338-0.071,0.607c0,0.266,0.026,0.445,0.071,0.606
		c0.107,0.304,0.303,0.461,0.642,0.461C212.622,127.654,212.817,127.497,212.915,127.193z"/>
</g>
<g>
	<rect x="198.069" y="132.334" fill="#FFFFFF" width="47.707" height="0.299"/>
</g>
<g>
	<path fill="#FFFFFF" d="M219.849,117.999c-0.056,0-0.09-0.035-0.09-0.091v-5.696c0-0.054,0.034-0.091,0.09-0.091h0.57
		c0.053,0,0.089,0.037,0.089,0.091v0.401h0.009c0.206-0.338,0.572-0.588,1.213-0.588c0.739,0,1.258,0.346,1.471,1.024
		c0.117,0.34,0.15,0.679,0.15,1.205c0,0.534-0.033,0.874-0.15,1.213c-0.213,0.677-0.731,1.024-1.471,1.024
		c-0.641,0-1.007-0.258-1.213-0.598h-0.009v2.015c0,0.056-0.036,0.091-0.089,0.091H219.849z M222.488,115.145
		c0.071-0.223,0.1-0.5,0.1-0.892c0-0.383-0.028-0.66-0.1-0.891c-0.143-0.419-0.464-0.644-0.936-0.644
		c-0.473,0-0.803,0.215-0.945,0.644c-0.072,0.212-0.099,0.462-0.099,0.891s0.026,0.687,0.099,0.892
		c0.143,0.429,0.473,0.652,0.945,0.652C222.024,115.796,222.345,115.563,222.488,115.145z"/>
	<path fill="#FFFFFF" d="M224.649,116.393c-0.053,0-0.088-0.036-0.088-0.089v-4.092c0-0.054,0.035-0.091,0.088-0.091h0.572
		c0.053,0,0.09,0.037,0.09,0.091v0.437h0.009c0.187-0.365,0.562-0.624,1.133-0.624c0.338,0,0.659,0.124,0.872,0.32
		c0.046,0.044,0.054,0.082,0.019,0.125l-0.331,0.438c-0.035,0.044-0.081,0.053-0.124,0.017c-0.194-0.125-0.409-0.206-0.659-0.206
		c-0.649,0-0.918,0.509-0.918,1.25v2.335c0,0.053-0.037,0.089-0.09,0.089H224.649z"/>
	<path fill="#FFFFFF" d="M227.943,115.341c-0.097-0.295-0.142-0.589-0.142-1.088c0-0.491,0.045-0.785,0.142-1.078
		c0.233-0.732,0.855-1.15,1.687-1.15c0.829,0,1.452,0.418,1.684,1.15c0.1,0.293,0.144,0.587,0.144,1.078
		c0,0.5-0.044,0.793-0.144,1.088c-0.231,0.722-0.854,1.149-1.684,1.149C228.798,116.491,228.176,116.063,227.943,115.341z
		 M230.593,115.127c0.069-0.232,0.098-0.464,0.098-0.874c0-0.41-0.028-0.632-0.098-0.864c-0.143-0.429-0.491-0.67-0.964-0.67
		c-0.472,0-0.82,0.241-0.965,0.67c-0.07,0.232-0.097,0.454-0.097,0.864c0,0.41,0.026,0.642,0.097,0.874
		c0.145,0.427,0.493,0.669,0.965,0.669C230.102,115.796,230.451,115.554,230.593,115.127z"/>
	<path fill="#FFFFFF" d="M233.904,116.438c-0.829,0-1.151-0.375-1.151-1.213v-2.443c0-0.036-0.018-0.053-0.052-0.053h-0.355
		c-0.054,0-0.089-0.037-0.089-0.09v-0.427c0-0.054,0.035-0.091,0.089-0.091h0.355c0.034,0,0.052-0.018,0.052-0.053v-1.204
		c0-0.053,0.036-0.087,0.092-0.087h0.569c0.054,0,0.09,0.034,0.09,0.087v1.204c0,0.036,0.018,0.053,0.053,0.053h0.678
		c0.053,0,0.09,0.037,0.09,0.091v0.427c0,0.053-0.037,0.09-0.09,0.09h-0.678c-0.035,0-0.053,0.017-0.053,0.053v2.417
		c0,0.427,0.16,0.543,0.545,0.543h0.186c0.053,0,0.09,0.036,0.09,0.09v0.516c0,0.054-0.037,0.09-0.09,0.09H233.904z"/>
	<path fill="#FFFFFF" d="M235.369,115.332c-0.088-0.276-0.14-0.589-0.14-1.079c0-0.491,0.043-0.821,0.134-1.078
		c0.237-0.741,0.863-1.15,1.674-1.15c0.821,0,1.437,0.418,1.677,1.15c0.09,0.275,0.134,0.57,0.134,1.22
		c0,0.055-0.035,0.089-0.098,0.089h-2.702c-0.034,0-0.053,0.019-0.053,0.053c0,0.233,0.025,0.376,0.07,0.519
		c0.171,0.491,0.552,0.74,1.081,0.74c0.507,0,0.864-0.205,1.095-0.474c0.046-0.045,0.09-0.053,0.134-0.017l0.365,0.33
		c0.046,0.036,0.046,0.081,0.01,0.126c-0.338,0.427-0.92,0.73-1.666,0.73C236.217,116.491,235.6,116.072,235.369,115.332z
		 M238.027,113.887c0.035,0,0.053-0.017,0.053-0.053c0-0.198-0.018-0.348-0.063-0.483c-0.141-0.427-0.499-0.667-0.98-0.667
		c-0.48,0-0.837,0.24-0.979,0.667c-0.044,0.135-0.063,0.285-0.063,0.483c0,0.036,0.019,0.053,0.053,0.053H238.027z"/>
	<path fill="#FFFFFF" d="M240.125,111.159c-0.053,0-0.088-0.037-0.088-0.09v-0.65c0-0.054,0.035-0.089,0.088-0.089h0.607
		c0.053,0,0.089,0.035,0.089,0.089v0.65c0,0.053-0.036,0.09-0.089,0.09H240.125z M240.143,116.393c-0.053,0-0.089-0.036-0.089-0.089
		v-4.092c0-0.054,0.036-0.091,0.089-0.091h0.569c0.056,0,0.092,0.037,0.092,0.091v4.092c0,0.053-0.036,0.089-0.092,0.089H240.143z"
		/>
	<path fill="#FFFFFF" d="M245.04,116.393c-0.053,0-0.086-0.036-0.086-0.089v-2.499c0-0.686-0.313-1.086-0.955-1.086
		c-0.581,0-0.981,0.412-0.981,1.043v2.542c0,0.053-0.037,0.089-0.09,0.089h-0.569c-0.054,0-0.09-0.036-0.09-0.089v-4.092
		c0-0.054,0.036-0.091,0.09-0.091h0.569c0.053,0,0.09,0.037,0.09,0.091v0.392h0.009c0.205-0.329,0.616-0.579,1.195-0.579
		c0.927,0,1.479,0.632,1.479,1.604v2.676c0,0.053-0.034,0.089-0.088,0.089H245.04z"/>
</g>
<g>
	<path fill="#FFFFFF" d="M199.885,111.74h-0.02l-0.963,0.66c-0.053,0.034-0.097,0.019-0.097-0.054v-1.107
		c0-0.053,0.018-0.087,0.063-0.124l1.017-0.731c0.045-0.037,0.097-0.053,0.161-0.053h0.996c0.056,0,0.09,0.035,0.09,0.089v5.885
		c0,0.054-0.034,0.089-0.09,0.089h-1.069c-0.054,0-0.088-0.035-0.088-0.089V111.74z"/>
	<path fill="#FFFFFF" d="M203.224,115.234c0-0.053,0.035-0.089,0.09-0.089h1.061c0.054,0,0.09,0.036,0.09,0.089v1.07
		c0,0.054-0.036,0.089-0.09,0.089h-1.061c-0.055,0-0.09-0.035-0.09-0.089V115.234z"/>
	<path fill="#FFFFFF" d="M205.572,114.985l0.979-0.188c0.053-0.008,0.09,0.018,0.107,0.07c0.106,0.322,0.366,0.572,0.793,0.572
		c0.466,0,0.751-0.331,0.751-0.785c0-0.545-0.331-0.856-0.849-0.856h-0.259c-0.053,0-0.089-0.036-0.089-0.088v-0.866
		c0-0.054,0.036-0.089,0.089-0.089h0.24c0.456,0,0.751-0.294,0.751-0.757c0-0.429-0.261-0.715-0.686-0.715
		c-0.386,0-0.599,0.224-0.688,0.563c-0.019,0.052-0.054,0.07-0.108,0.063l-0.97-0.188c-0.054-0.009-0.08-0.045-0.073-0.098
		c0.145-0.802,0.83-1.391,1.901-1.391c1.185,0,1.871,0.705,1.871,1.677c0,0.518-0.241,0.963-0.678,1.248v0.018
		c0.365,0.177,0.793,0.668,0.793,1.472c0,1.106-0.836,1.844-1.979,1.844c-1.032,0-1.801-0.517-1.972-1.39
		C205.492,115.046,205.518,115.003,205.572,114.985z"/>
	<path fill="#FFFFFF" d="M210.462,117.446c-0.035-0.045-0.035-0.09,0.01-0.135l0.631-0.641c0.045-0.045,0.092-0.045,0.134,0
		c0.271,0.24,0.555,0.375,0.893,0.375c0.598,0,0.865-0.322,0.865-0.955v-0.365h-0.008c-0.188,0.304-0.563,0.5-1.108,0.5
		c-0.71,0-1.219-0.358-1.442-1.044c-0.099-0.322-0.143-0.616-0.143-1.079c0-0.464,0.044-0.766,0.143-1.079
		c0.224-0.688,0.732-1.043,1.442-1.043c0.545,0,0.92,0.197,1.108,0.5h0.008v-0.313c0-0.053,0.037-0.09,0.09-0.09h1.071
		c0.052,0,0.087,0.037,0.087,0.09v3.762c0,1.446-0.731,2.167-2.148,2.167C211.455,118.096,210.775,117.821,210.462,117.446z
		 M212.915,114.709c0.054-0.163,0.08-0.339,0.08-0.607c0-0.268-0.026-0.447-0.08-0.607c-0.098-0.302-0.293-0.463-0.643-0.463
		c-0.339,0-0.534,0.161-0.642,0.463c-0.045,0.16-0.071,0.339-0.071,0.607c0,0.268,0.026,0.445,0.071,0.607
		c0.107,0.302,0.303,0.462,0.642,0.462C212.622,115.172,212.817,115.011,212.915,114.709z"/>
</g>
<g>
	<rect x="198.069" y="119.737" fill="#FFFFFF" width="47.707" height="0.299"/>
</g>
<g>
	<g>
		<g>
			<g>
				<path fill="#4A2C6A" d="M0.336,231.09h338.688c0.186,0,0.334-0.149,0.334-0.336v-0.258c0-0.184-0.148-0.336-0.334-0.336H0.336
					c-0.185,0-0.336,0.152-0.336,0.336v0.258C0,230.94,0.151,231.09,0.336,231.09z"/>
			</g>
		</g>
	</g>
	<g>
		<g>
			<path fill="#4E306D" d="M55.247,45.148c-0.101-0.434-1.349-5.078-8.567-3.938c0,0,3.606-0.261,4.516,1.171
				c0,0-2.771-1.451-4.608-0.457c-1.836,0.994-2.323,4.643-2.116,5.772c0.207,1.129,1.995,4.553,3.296,4.622
				c0.492,0.027,1.027-0.11,1.504-0.288c-0.232,0.579-0.445,1.21-0.632,1.906c-1.726,6.428,2.335,11.6,4.636,10.497
				c1.477-0.707,2.428,1.859,2.428,1.859l12.736-15.14C68.437,51.153,60.674,40.75,55.247,45.148z"/>
			<path fill="#6139BC" d="M66.79,224.317L62,222.482c0,0-2.811-15.749-4.558-33.062c-0.312-3.092-0.208-6.086,0.468-8.853
				c0,0-0.14-0.79-0.382-2.19c-0.112-0.653-0.251-1.439-0.409-2.342c-0.459-2.642-1.095-6.259-1.82-10.375
				c-1.668-9.477-3.832-21.589-5.51-30.492l0.879-0.281l9.522-3.072l1.968-6.252l8.659-3.29c0,0,0.016,4.522,1.432,19.16
				c0.263,1.921,0.5,4.038,0.678,6.333c0.554,7.008,0.593,15.701-0.676,25.641c-0.324,2.545-0.736,5.172-1.246,7.871
				c-0.371,1.979-0.428,4.674-0.271,7.77C71.449,203.2,66.79,224.317,66.79,224.317z"/>
			<path fill="#4A2C76" d="M72.925,147.767l-15.396,30.61c-0.112-0.652-0.251-1.438-0.409-2.342
				c-0.459-2.641-1.095-6.258-1.82-10.375c-1.668-9.476-3.832-21.588-5.51-30.492l0.879-0.28l9.522-3.072l1.79-7.333l8.837-2.209
				c0,0,0.016,4.523,1.432,19.16C72.511,143.354,72.75,145.472,72.925,147.767z"/>
			<path fill="#6139BC" d="M66.153,127.625l-0.484-3.651c-5.969,1.586-21.799-3.838-21.799-3.838s-5.785,5.088-5.025,17.276
				c0.371,5.949,1.048,31.23,1.755,38.711c0.255,2.715,0.479,4.645,0.569,5.414c0.002,0.004,0.002,0.006,0.002,0.008
				c0.029,0.234-0.053,0.457-0.172,0.662c-1.043,1.768-1.904,3.605-2.611,5.489c-6.941,18.499,1.07,41.282,1.07,41.282l2.078-0.839
				c0,0,4.561-25.354,8.264-36.554c0.629-1.9,1.23-3.394,1.785-4.285c1.609-2.6,3.104-6.848,4.461-11.897
				c2.565-9.552,4.627-21.978,6.002-31.567C62.236,143.846,66.153,127.625,66.153,127.625z"/>
			<g>
				<path fill="#FFB894" d="M85.246,128.723c-1.645,0.488-3.09-4.491-3.295-5.16c-0.002-0.055-0.014-0.09-0.014-0.09l2.161-2.184
					c0,0,4.13,1.732,4.489,2.717C88.947,124.993,87.035,128.221,85.246,128.723z"/>
				<path fill="#FFB894" d="M84.098,121.29l-1.665,2.523c0,0-0.18-0.083-0.482-0.251c-0.955-0.528-3.289-1.776-5.865-3.332
					c-3.891-2.303-8.397-5.273-9.771-7.358c-2.103-3.159-4.364-10.894-4.942-17.844c-0.027-0.176-0.033-0.341-0.037-0.507
					c-0.279-3.675-0.078-7.098,0.91-9.447c0.588-1.444,1.311-2.582,2.09-3.498c1.028-1.213,2.168-2.02,3.203-2.545
					c0.151-0.093,0.305-0.187,0.491-0.235c1.671-0.776,2.975-0.824,2.975-0.824c0.642,0.026,1.1,0.567,1.401,1.499l-0.011,0.022
					c0.253,0.745,0.427,1.779,0.482,3.006c0.011,0.032,0.023,0.065,0.012,0.087c0.02,0.254,0.027,0.53,0.046,0.838
					c0.024,0.066,0.015,0.144,0.017,0.2c0.006,0.629,0.002,1.282-0.012,1.958c-0.039,7.29-1.341,17.754-0.161,21.602
					c0.511,1.655,4.265,6.187,7.304,9.673C82.275,119.35,84.098,121.29,84.098,121.29z"/>
			</g>
			<path fill="#FFB894" d="M69.306,84.854c-1.677,1.21-3.788,2.221-6.448,2.887c-9.973,2.5-13.97-5.895-15.518-11.679
				c1.352-0.808,2.634-1.004,3.373-1.105c0.724-0.099,1.482-0.17,2.113-0.213c1.108-0.883,2.721-4.439,2.988-9.921l0.475,0.117
				l7.934,2.015c0,0-0.314,2.516-0.448,4.892c-0.103,1.857-0.092,3.632,0.269,4.06c0.619,0.123,0.99,0.203,0.99,0.203
				s0,0.002,0.004,0.008C65.145,76.289,67.506,80.013,69.306,84.854z"/>
			<path fill="#FF7042" d="M73.104,90.982c-0.036,0.215-0.082,0.428-0.135,0.647c-1.489,5.992-1.815,29.681-1.815,29.681
				c1.465,3.966-30.931,5.144-31.731,1.429c-1.873-3.738,1.939-11.063,4.164-14.8c0.279-0.468,0.516-0.96,0.705-1.467
				c0.483-1.272,0.68-2.641,0.563-4.009c-0.465-5.393-1.634-10.305-2.169-13.325l0,0c0.477-0.52,0.939-1.003,1.37-1.461
				c0.657-0.706,1.231-1.357,1.628-1.982c0.436-0.682,0.665-1.338,0.574-2.009c-0.066-0.509-0.184-1.021-0.336-1.527
				c-0.069-0.239-0.147-0.476-0.232-0.712c-0.886-2.482-2.402-4.596-2.402-4.596c2.494-1.618,7.43-1.894,7.43-1.894
				s0.047,0.268,0.129,0.705c0.322,1.76,1.21,6.269,1.939,7.013c0.908,0.927,14.693,3.095,15.096,1.521
				c0.396-1.548-2.725-7.842-2.842-8.079c-0.004-0.006-0.004-0.008-0.004-0.008c4.644,0.86,6.458,1.983,6.458,1.983
				C69.219,80.282,74.083,85.26,73.104,90.982z"/>
			<path fill="#F2AC8C" d="M64.223,66.956c0,0-0.316,2.514-0.447,4.892c-4.48-0.366-6.636-4.584-7.486-6.906L64.223,66.956z"/>
			<path fill="#FFB894" d="M65.602,69.288c0,0-10.627-0.389-10.283-7.003c0.346-6.614-0.794-11.119,6.006-11.149
				c6.799-0.032,7.983,2.56,8.405,4.795C70.152,58.167,68.375,69.218,65.602,69.288z"/>
			<path fill="#4E306D" d="M69.61,52.238c-1.535-2.078-2.799-1.706-3.525-1.145c-5.633-3.499-9.623,1.019-9.623,1.019
				c-0.963,4.708-4.528,7.245-4.528,7.245s1.871,1.298,6.394,0.388c1.381-0.278,2.65-1.181,3.746-2.301
				c-1.966,2.931-4.539,4.98-4.539,4.98c5.461-2.181,7.994-9.478,8.25-10.25c0.615,0.617,1.825,1.949,2.15,3.209
				c0.439,1.712,0.492,5.192,1.511,5.127C69.444,60.508,71.914,55.352,69.61,52.238z"/>
			<path fill="#4A2C6A" d="M51.543,230.678H35.092c0,0-0.395-2.508,0.466-4.411c0.821-1.824,2.112-2.653,1.804-4.862
				c1.045,1.078,2.75,2.283,5.129,1.963c0.291,0.471,1.879,3,2.854,3.7C46.418,227.838,51.209,227.563,51.543,230.678z"/>
			<path fill="#4A2C6A" d="M78.105,230.678H61.654c0,0-0.616-2.625,0.464-4.408c0.957-1.58,0.59-2.48-0.119-3.787
				c0.748,0.305,1.711,0.581,2.771,0.521c0.82-0.047,1.688-0.42,2.447-0.861c0.707,0.809,3.741,4.244,4.688,4.926
				C72.979,227.838,77.773,227.563,78.105,230.678z"/>
			<path fill="#FF7042" d="M49.093,81.568c-4.919-0.385-7.819,3.958-7.819,3.958c-1.3-7.038,2.012-8.675,2.012-8.675
				C44.583,75.997,46.683,78.118,49.093,81.568z"/>
			<path fill="#FF7042" d="M71.716,82.943c0,0,0.576-0.441,1.193,0c0,0-0.061-3.911-1.418-4.85
				C71.492,78.093,70.057,78.804,71.716,82.943z"/>
			<path fill="#FF7042" d="M39.17,83.437c0,0,4.736-2.389,8.899,0.797c0,0-0.877-7.796-3.017-7.725
				C45.054,76.509,40.897,76.55,39.17,83.437z"/>
			<path fill="#FF4A1E" d="M41.016,112.79c0,0-1.426,2.979-1.741,4.837c-0.315,1.859,11.104,7.336,13.386,7.199l-0.145,0.158
				l-4.13-8.474L41.016,112.79z"/>
			<g>
				<path fill="#FFB894" d="M66.061,128.524l-1.667,2.827c0,0-0.996-0.479-2.582-1.243c-0.476-0.232-0.741-0.381-0.741-0.381
					c-1.266-0.626-2.767-1.42-4.404-2.273l-0.021-0.008c-2.787-1.527-5.893-3.296-8.445-5.017c-1.793-1.23-3.309-2.438-4.275-3.494
					c-0.102-0.104-0.176-0.203-0.27-0.331c-2.238-2.786-3.929-9.651-4.764-16.744c-0.117-0.979-0.211-1.955-0.313-2.904
					c-0.322-3.521-0.416-6.928-0.248-9.803c0.084-1.719,0.248-3.263,0.531-4.493c0.092-0.436,0.18-0.848,0.307-1.223
					c1.932-6.902,5.625-6.921,5.625-6.921c0.078-0.005,0.156-0.009,0.259-0.007c0.622,0.067,1.132,0.642,1.562,1.604
					c0.545,1.198,0.969,3.03,1.323,5.203c0.521,3.446,0.868,7.819,1.127,12.143c0.146,2.371,0.272,4.736,0.44,6.933
					c0.074,1.328,0.168,2.584,0.264,3.736c0.193,2.205,0.419,4.009,0.736,5.198c0.201,0.771,1.043,2,2.211,3.446
					c2.029,2.525,5.123,5.748,7.849,8.439c1.127,1.125,2.202,2.162,3.097,3.02C65.101,127.624,66.061,128.524,66.061,128.524z"/>
				<path fill="#FFB894" d="M66.079,128.538c0,0,0.971,1.209,1.947,1.536c0.975,0.328,3.136,1.763,3.763,2.699
					c0,0,0.135,0.429-0.256,0.565c-0.394,0.14-1.813-1.058-2.372-0.586c0,0,1.529,1.709,2.193,2.043
					c0.663,0.334,1.841,2.783,1.938,3.371c0.097,0.586-4.156-0.873-5.974-1.576c-1.814-0.704-4.219-6.683-4.219-6.683
					L66.079,128.538z"/>
			</g>
		</g>
		<g>
			<path fill="#663402" d="M159.572,49.143c0,0,3.25,25.536,4.725,26.946c1.479,1.41-2.325,1.691-2.325,1.691
				s-5.916-3.668-6.272-5.361c-0.357-1.692-4.103,0.537-6.674,1.397c-2.572,0.86-5.143,3.33-6.163-3.16
				c-1.021-6.49-3.032-18.383-4.659-22.347"/>
			<path fill="#663402" d="M158.479,44.067c0.241,0.604,0.462,1.263,0.658,1.989c1.806,6.713-2.438,12.114-4.839,10.964
				c-1.541-0.738-2.535,1.941-2.535,1.941L138.462,43.15c0,0,8.105-10.864,13.772-6.271"/>
			<path fill="#41B8E1" d="M156.469,33.99"/>
			<path fill="#41B8E1" d="M140.183,223.981l5.001-1.915c0,0,0.302-16.136,2.127-34.216c0.325-3.227,0.217-6.354-0.487-9.241
				c0,0,0.146-0.828,0.397-2.291c0.116-0.681,0.262-1.502,0.426-2.442c0.479-2.762,2.685-9.232,3.442-13.532
				c1.742-9.896,5.094-20.157,6.848-29.456l-0.92-0.294l-9.945-3.207l-2.054-6.527l-9.043-3.438c0,0-0.017,4.725-1.495,20.01
				c-0.271,2.005-0.521,4.217-0.706,6.613c-0.577,7.318-0.618,16.398,0.704,26.775c0.341,2.659,0.77,5.4,1.301,8.221
				c0.391,2.065,0.447,4.881,0.286,8.113C135.316,201.93,140.183,223.981,140.183,223.981z"/>
			<path fill="#41B8E1" d="M140.848,123.011l0.506-3.817c6.235,1.658,22.765-4.004,22.765-4.004s-2.455,0.778,3.496,17.749
				c1.703,4.86-1.531,33.978-2.269,41.791c-0.271,2.831-0.501,4.847-0.597,5.651c-0.002,0.004-0.002,0.007-0.002,0.007
				c-0.029,0.246,0.055,0.478,0.181,0.692c1.088,1.844,1.987,3.767,2.725,5.732c7.251,19.318,1.072,42.039,1.072,42.039l-2.17-0.877
				c0,0-4.761-26.477-8.632-38.173c-0.654-1.982-1.282-3.543-1.861-4.476c-1.682-2.714-1.982-10.398-3.4-15.674
				c-2.68-9.974-6.092-19.699-7.525-29.714C144.937,139.95,140.848,123.011,140.848,123.011z"/>
			<path fill="#3193AD" d="M147.757,173.317c0,0-2.063-8.479-0.934-10.277c1.127-1.799,3.031-0.74,3.031-0.74l-0.064,3.494
				L147.757,173.317z"/>
			<g>
				<path fill="#FFB894" d="M120.908,124.155c1.719,0.51,3.227-4.691,3.44-5.39c0.004-0.058,0.017-0.093,0.017-0.093l-2.26-2.28
					c0,0-4.311,1.81-4.686,2.838C117.042,120.26,119.041,123.629,120.908,124.155z"/>
				<path fill="#FFB894" d="M122.105,116.393l1.741,2.637c0,0,0.187-0.087,0.502-0.264c0.996-0.551,3.437-1.855,6.124-3.479
					c4.064-2.405,8.771-5.508,10.207-7.683c2.193-3.3,4.555-11.376,5.16-18.635c0.027-0.185,0.033-0.358,0.039-0.53
					c0.293-3.839,0.078-7.412-0.949-9.866c-0.617-1.506-1.368-2.695-2.184-3.652c-1.072-1.266-2.265-2.108-3.345-2.657
					c-0.159-0.098-0.319-0.194-0.514-0.246c-1.746-0.812-3.104-0.861-3.104-0.861c-0.672,0.028-1.15,0.592-1.466,1.565l0.011,0.023
					c-0.265,0.778-0.441,1.858-0.502,3.139c-0.013,0.034-0.025,0.068-0.017,0.093c-0.017,0.265-0.026,0.553-0.047,0.876
					c-0.025,0.068-0.017,0.149-0.017,0.208c-0.01,0.657-0.004,1.338,0.012,2.044c0.041,7.61,1.4,18.539,0.168,22.558
					c-0.535,1.729-4.454,6.459-7.629,10.102C124.011,114.367,122.105,116.393,122.105,116.393z"/>
			</g>
			<path fill="#FFB894" d="M137.556,78.345c1.748,1.262,3.953,2.318,6.73,3.014c10.416,2.61,14.59-6.156,16.207-12.197
				c-1.412-0.843-2.75-1.047-3.523-1.155c-0.754-0.103-1.551-0.177-2.205-0.221c-1.158-0.923-2.84-4.637-3.122-10.36l-0.494,0.123
				l-8.284,2.103c0,0,0.326,2.627,0.467,5.108c0.107,1.941,0.094,3.794-0.279,4.24c-0.646,0.128-1.035,0.211-1.035,0.211
				s0,0.004-0.002,0.008C141.898,69.399,139.434,73.288,137.556,78.345z"/>
			<path fill="#EAEAEA" d="M133.587,84.743c0.039,0.225,0.086,0.448,0.142,0.677c1.556,6.257-3.642,78.555-3.642,78.555
				c-0.646,1.754,6.787,2.107,15.578,1.936c9.944-0.197,23.588-1.232,26.067-1.425c0.257-0.021,0.394-0.03,0.394-0.03
				c-3.858-17.758-5.39-58.102-7.713-62.002c-0.291-0.491-0.537-1.002-0.734-1.532c-0.504-1.328-0.713-2.758-0.59-4.186
				c0.486-5.632,1.707-10.762,2.267-13.917l0,0c-0.498-0.542-0.979-1.046-1.431-1.525c-0.686-0.736-1.285-1.416-1.698-2.069
				c-0.456-0.711-0.696-1.396-0.603-2.098c0.072-0.532,0.192-1.067,0.351-1.595c0.073-0.25,0.155-0.498,0.243-0.744
				c0.927-2.593,2.51-4.8,2.51-4.8c-2.604-1.689-7.758-1.979-7.758-1.979s0.086-0.457,0,0c-0.338,1.838-1.764,1.846-3.146,2.243
				c-1.306,0.374-4.8,0.907-7.566,0.528c-1.652-0.226-4.366-1.311-4.243-1.559c0.002-0.004,0.002-0.008,0.002-0.008
				c-4.849,0.899-6.743,2.072-6.743,2.072C137.647,73.569,132.564,78.768,133.587,84.743z"/>
			<path fill="#F2AC8C" d="M142.861,59.654c0,0,0.332,2.625,0.471,5.107c4.678-0.38,6.93-4.788,7.816-7.211L142.861,59.654z"/>
			<path fill="#FFB894" d="M141.421,62.089c0,0,11.098-0.406,10.738-7.313c-0.361-6.907,0.832-11.612-6.27-11.644
				c-7.102-0.033-8.34,2.674-8.779,5.01C136.671,50.475,138.524,62.016,141.421,62.089z"/>
			<path fill="none" stroke="#FF7042" stroke-width="0.2116" stroke-miterlimit="10" d="M145.998,165.947
				c-0.17-0.047-0.349-0.116-0.539-0.206c-2.063-0.969-5.248-4.347-7.145-9.384c-2.072-5.503,2.533-83.206,2.533-83.206
				c3.706,0.591,15.02-3.522,15.02-3.522s0.793-0.221,1.104-1.622"/>
			<path fill="#663402" d="M137.236,44.283c1.605-2.169,2.924-1.782,3.682-1.195c5.885-3.654,10.049,1.064,10.049,1.064
				c1.007,4.916,4.73,7.564,4.73,7.564s-1.955,1.355-6.676,0.405c-1.443-0.291-2.768-1.234-3.912-2.402
				c2.055,3.059,4.74,5.2,4.74,5.2c-5.703-2.277-8.35-9.897-8.615-10.705c-0.645,0.644-1.906,2.035-2.244,3.351
				c-0.461,1.788-0.517,5.421-1.578,5.354C137.412,52.92,134.832,47.535,137.236,44.283z"/>
			<path fill="#C8D1CE" d="M141.787,130.014c6.566,1.58,18.313-20.152,22.582-25.513c-0.548-1.561-0.8-3.229-0.722-4.887
				c0.31-6.534,1.376-12.461,1.841-16.113V83.5c-0.519-0.645-1.021-1.248-1.488-1.817c-0.713-0.878-1.336-1.688-1.772-2.46
				C155.395,88.236,132.882,127.872,141.787,130.014z"/>
			<path fill="#1A6070" d="M156.103,230.625h15.462c0,0,0.238-3.396-0.657-5.381c-0.861-1.908-1.244-0.242-0.922-2.549
				c-1.849,0.455-1.943,0.629-4.426,0.293c-0.305,0.495-1.966,3.135-2.98,3.864C161.457,227.661,156.449,227.374,156.103,230.625z"
				/>
			<path fill="#1A6070" d="M128.367,230.625h17.18c0,0-0.104-2.459-0.485-4.604c-0.317-1.784-0.616-2.591,0.123-3.955
				c-0.779,0.318-1.786,0.608-2.896,0.545c-0.854-0.049-1.76-0.437-2.556-0.898c-0.737,0.844-3.903,4.431-4.894,5.144
				C133.714,227.661,128.71,227.374,128.367,230.625z"/>
			<path fill="#D8D8D8" d="M166.675,117.19c0,0-15.203,10.905-24.771,11.393l1.445-2.838l22.572-14.39h0.144
				C166.064,111.355,166.725,116.59,166.675,117.19z"/>
			<g>
				<path fill="#EAEAEA" d="M138.578,124.042l0.615-0.582c0.01-0.008,1.016-0.953,2.494-2.383c0.954-0.914,2.064-1.988,3.221-3.144
					c1.995-1.968,5.697-5.712,8.119-8.728c1.643-2.029,2.025-2.876,2.109-3.201c0.283-1.063,0.519-2.73,0.74-5.255
					c0.115-1.398,0.205-2.665,0.271-3.867l0.002-0.022c0.123-1.601,0.225-3.256,0.328-5.009c0.043-0.736,0.088-1.476,0.135-2.218
					c0.325-5.479,0.713-9.657,1.184-12.772c0.437-2.659,0.9-4.47,1.467-5.712c0.626-1.408,1.462-2.18,2.48-2.289l0.041-0.004
					c0,0,0.105-0.003,0.133-0.003c0.097,0,0.179,0.004,0.261,0.008l0,0c0.522,0.023,4.72,0.451,6.833,7.974
					c0.145,0.43,0.238,0.868,0.338,1.33l0.007,0.038c0.289,1.253,0.479,2.85,0.578,4.861c0.176,2.987,0.084,6.581-0.267,10.386
					c-0.028,0.291-0.06,0.571-0.086,0.853c-0.074,0.719-0.151,1.464-0.238,2.207c-0.996,8.454-2.934,15.18-5.188,18.005
					c-0.109,0.15-0.214,0.283-0.349,0.424c-1.005,1.098-2.563,2.375-4.64,3.802c-2.918,1.965-6.48,3.963-8.908,5.293l-0.112,0.062
					l-0.035,0.011l-0.728,0.38c-1.366,0.718-2.655,1.392-3.766,1.94c-0.084,0.045-0.361,0.197-0.799,0.41
					c-1.662,0.804-2.705,1.302-2.705,1.302l-0.875,0.419L138.578,124.042z"/>
				<path fill="#FFB894" d="M140.525,123.485c0,0-1.016,1.266-2.035,1.605c-1.018,0.343-3.271,1.841-3.927,2.818
					c0,0-0.144,0.446,0.267,0.592c0.41,0.145,1.895-1.105,2.478-0.614c0,0-1.597,1.784-2.289,2.134s-1.921,2.908-2.022,3.521
					c-0.103,0.613,4.34-0.908,6.233-1.646c1.897-0.734,4.409-6.979,4.409-6.979L140.525,123.485z"/>
				<path fill="#EAEAEA" d="M140.428,122.98l2.631,4.396c0,0,0.666-0.975,2.319-1.771c0.496-0.243,0.775-0.398,0.775-0.398
					c1.32-0.652,2.889-1.48,4.598-2.375l0.023-0.006c2.91-1.598,6.155-3.443,8.822-5.24c1.867-1.284,3.453-2.545,4.461-3.649
					c0.105-0.108,0.184-0.212,0.281-0.343c2.338-2.912,4.104-10.081,4.978-17.488c0.121-1.023,0.22-2.039,0.323-3.031
					c0.336-3.677,0.438-7.236,0.262-10.239c-0.09-1.794-0.26-3.407-0.556-4.69c-0.099-0.456-0.188-0.886-0.321-1.278
					c-2.02-7.208-5.875-7.228-5.875-7.228c-0.082-0.004-0.164-0.01-0.271-0.007c-0.648,0.07-1.182,0.67-1.631,1.674
					c-0.567,1.253-1.008,3.165-1.381,5.434c-0.546,3.6-0.904,8.166-1.175,12.68c-0.155,2.477-0.286,4.948-0.463,7.244
					c-0.077,1.385-0.175,2.697-0.274,3.899c-0.201,2.303-0.438,4.187-0.769,5.428c-0.208,0.806-1.09,2.089-2.312,3.598
					c-2.119,2.639-5.35,6.006-8.193,8.813c-1.178,1.178-2.303,2.26-3.234,3.156C141.945,123.009,140.428,122.98,140.428,122.98z"/>
			</g>
			<ellipse fill="#FF4A1E" cx="142.544" cy="76.089" rx="0.664" ry="0.543"/>
			<ellipse fill="#FF4A1E" cx="140.847" cy="100.245" rx="0.665" ry="0.545"/>
			<ellipse fill="#FF4A1E" cx="141.51" cy="87.322" rx="0.663" ry="0.544"/>
			<ellipse fill="#FF4A1E" cx="140.185" cy="111.355" rx="0.663" ry="0.545"/>
			<path fill="#FF4A1E" d="M140.183,135.674c0,0.303-0.296,0.546-0.661,0.546c-0.369,0-0.665-0.243-0.665-0.546
				c0-0.301,0.296-0.543,0.665-0.543C139.887,135.131,140.183,135.374,140.183,135.674z"/>
			<ellipse fill="#FF4A1E" cx="143.637" cy="161.99" rx="0.663" ry="0.545"/>
			<path fill="#FF4A1E" d="M140.183,152.002c0,0.3-0.296,0.545-0.661,0.545c-0.369,0-0.665-0.245-0.665-0.545
				c0-0.303,0.296-0.545,0.665-0.545C139.887,151.458,140.183,151.7,140.183,152.002z"/>
			<polygon fill="#FFDD71" points="101.339,113.346 115.266,109.584 123.77,130.031 109.841,135.131 			"/>
			<path fill="#FFB894" d="M118.787,118.047c0,0-1.908,1.605-1.942,2.244c-0.037,0.64,1.428-0.203,1.687-0.533
				c0.254-0.331,0.952-0.613,1.502-0.729"/>
			<path fill="#EDAA8C" d="M121.189,123.829c0,0,0.033-1.065-0.404-2.146c-0.44-1.084-1.211-2.397-1.211-2.397l0.459-0.188
				c0,0-0.652,0.125-0.742,0.164C119.201,119.297,121.189,123.829,121.189,123.829z"/>
			
				<line fill="none" stroke="#2C96A8" stroke-width="0.1432" stroke-miterlimit="10" x1="102.787" y1="114.324" x2="114.882" y2="111.06"/>
			
				<line fill="none" stroke="#2C96A8" stroke-width="0.112" stroke-miterlimit="10" x1="103.326" y1="115.247" x2="112.781" y2="112.692"/>
			
				<line fill="none" stroke="#2C96A8" stroke-width="0.1354" stroke-miterlimit="10" x1="104.303" y1="117.415" x2="115.736" y2="114.324"/>
			
				<line fill="none" stroke="#2C96A8" stroke-width="0.1354" stroke-miterlimit="10" x1="104.71" y1="118.42" x2="116.147" y2="115.332"/>
			
				<line fill="none" stroke="#2C96A8" stroke-width="0.1354" stroke-miterlimit="10" x1="105.22" y1="119.592" x2="116.656" y2="116.502"/>
			<path fill="#EAEAEA" d="M172.126,164.454c0,0-10.42,3.326-18.729,2.922c-1.389-0.088-7.162-1.088-7.732-1.545
				c-0.574-0.455,24.477-2.559,24.477-2.559L172.126,164.454"/>
			<path fill="#EAEAEA" d="M122.675,115.189l2.502,3.84c0,0,8.447-4.423,8.613-4.705c0.166-0.28,0.263-13.534,0.263-13.534"/>
			<path fill="#EAEAEA" d="M135.272,71.283c0,0-1.914,0.382-1.497,9.051c0,0,2.825-7.061,2.217-8.048
				c-0.606-0.988-0.49-1.129-0.49-1.129L135.272,71.283z"/>
			<path fill="none" stroke="#FF7042" stroke-width="0.2116" stroke-miterlimit="10" d="M145.666,165.831"/>
			<path fill="none" stroke="#FF7042" stroke-width="0.2116" stroke-miterlimit="10" d="M145.121,165.567
				c0,0,7.119,3.016,15.756,1.395c8.637-1.62,6.773-1.19,11.25-2.432"/>
		</g>
	</g>
</g>
<g>
	<path fill="#FF7042" d="M257.643,133.971c1.396,0.427,2.903,0.71,4.493,0.825c6.033,0.43,13.22-1.568,19.783-7.282
		c0,0,0.52-5.022-1.013-9.542l-0.003-0.001c-1.061-3.136-3.318-7.159-7.113-8.338c-2.447-0.755-4.453-0.392-6.162,0.356
		c-2.902,1.267-4.951,3.641-6.857,3.492c-1.881-0.142-4.071,0.216-6.09,1.068c-0.331,0.139-0.656,0.29-0.975,0.459v0.001
		c-0.132,0.067-0.263,0.137-0.395,0.21c-0.001,0.001-0.006,0.003-0.008,0.006c-2.854,1.61-5.07,4.311-5.026,8.044
		c0.012,0.866,0.151,1.803,0.452,2.816C249.8,129.698,253.137,132.591,257.643,133.971z"/>
	<path fill="#FFBB99" d="M271.361,111.053c0,0,3.646-0.15,4.598,2.318c0.952,2.467-1.523,3.066-3.187,2.214
		C271.109,114.731,269.382,111.642,271.361,111.053z"/>
	<path fill="#FF4A1E" d="M248.279,123.269c0.012,0.865,0.151,1.803,0.452,2.816c1.069,3.612,5.397,11.922,9.905,13.303
		c0,0,8.963,3.869,13.991,1.858c5.613-2.246,8.995-6.801,9.293-13.733c0,0,0.519-5.021-1.013-9.541l0,0
		c0,0-5.422,10.229-18.911,10.049C255.872,127.941,251.37,125.696,248.279,123.269z"/>
	<g>
		<path fill="#F2A245" d="M257.822,109.153c0.662-1.958,2.995-1.995,5.115-2.729c2.116-0.735,5.161-3.357,5.161-3.357
			s-2.8-0.737-6.396-0.775C258.11,102.254,257.822,109.153,257.822,109.153z"/>
		<path fill="#FF9F23" d="M257.822,109.153c0.38-2.126,2.217-4.73,3.764-5.239c1.548-0.51,6.512-0.845,6.512-0.845
			s-2.799-0.737-6.395-0.775C258.11,102.254,257.822,109.153,257.822,109.153z"/>
	</g>
	<path fill="#FF4A1E" d="M260.771,113.482c-1.88-0.146-4.071,0.215-6.09,1.065c3.564-1.29,7.973,0.861,8.659-0.411
		c0.734-1.364,4.158-4.045,4.288-4.146C264.726,111.254,262.676,113.63,260.771,113.482z"/>
	<path fill="#EE8914" d="M253.312,115.218c0.108-0.05,0.237-0.119,0.394-0.209C253.574,115.075,253.444,115.146,253.312,115.218z"/>
	<g>
		<path fill="#FF9F23" d="M263.091,114.23L263.091,114.23c-0.768-2.652-3.262-4.623-5.218-5.813
			c-1.558-0.945-3.907-2.013-5.035-2.508c-0.241-0.104-0.482,0.136-0.385,0.376l0.263,0.639c0.262,0.641,0.786,1.135,1.443,1.353
			c2.018,0.668,6.457,2.467,7.976,5.776C262.304,114.424,263.231,114.704,263.091,114.23z"/>
	</g>
</g>
<g>
	<g>
		<path fill="#41B8E1" d="M292.876,88.607c-0.045,0.177-0.07,0.271-0.07,0.271s-0.01-0.097-0.032-0.285
			c-0.17-1.533-0.984-9.1-1.429-17.43c-0.609-11.525-0.514-24.51,2.981-24.99c6.623-0.912,4.153,16.791,1.513,29.683
			C294.54,82.21,293.198,87.394,292.876,88.607z"/>
		<path fill="#41B8E1" d="M301.843,75.658c-3.25,4.485-6.043,8.247-7.665,10.511c-0.71,0.987-1.194,1.688-1.398,2.041
			c0.235-0.594,0.864-2.185,1.766-4.451c0-0.001,0-0.001,0-0.001c1.353-3.396,3.306-8.295,5.438-13.616
			c5.184-12.931,11.418-28.327,12.575-30.472c2.04-3.786,9.383-11.227,11.589-2.979C325.581,42.05,311.639,62.136,301.843,75.658z"
			/>
		<path fill="#41B8E1" d="M300.838,82.808c-2.807,1.956-5.153,3.528-6.457,4.396c-0.715,0.477-1.121,0.741-1.121,0.741
			s0.851-1.137,2.27-2.939c1.342-1.703,3.192-3.997,5.313-6.489c6.954-8.167,16.829-18.435,21.303-16.801
			C327.25,63.578,311.007,75.714,300.838,82.808z"/>
		<path fill="#3193AD" d="M292.876,88.607c-0.03-0.004-0.066-0.008-0.103-0.013c-0.17-1.533-0.984-9.1-1.429-17.43
			c0.668,1.647,2.018,3.95,4.494,4.692C294.54,82.21,293.198,87.394,292.876,88.607z"/>
		<path fill="#3193AD" d="M301.843,75.658c-3.25,4.485-6.043,8.247-7.665,10.511c0.057-0.713,0.186-1.528,0.367-2.411
			c0-0.001,0-0.001,0-0.001c1.353-3.396,3.306-8.295,5.438-13.616C299.976,72.151,300.339,74.454,301.843,75.658z"/>
		<path fill="#3193AD" d="M300.838,82.808c-2.807,1.956-5.153,3.528-6.457,4.396c0.23-0.604,0.644-1.369,1.148-2.198
			c1.342-1.703,3.192-3.997,5.313-6.489C300.635,79.7,300.441,81.489,300.838,82.808z"/>
	</g>
	<path fill="#F2A245" d="M292.775,88.212c-0.063,0.167-0.097,0.253-0.097,0.253C292.656,88.449,292.691,88.363,292.775,88.212z"/>
	<path fill="#FF7042" d="M292.208,106.608c-6.124,10.152-13.402,21.104-13.402,21.104l-10.201-5.504c0,0,2.945-7.85,6.677-16.489
		c4.353-10.075,7.786-20.437,12.829-22.276c1.387-0.506,2.788-0.584,4.106-0.413c0.666,0.086,1.317,0.243,1.936,0.459
		c0.147,0.052,0.29,0.104,0.437,0.161c0.363,0.148,0.716,0.312,1.058,0.495c0.133,0.069,0.263,0.143,0.393,0.22
		c0.448,0.262,0.871,0.556,1.269,0.873c1.686,1.345,2.905,3.098,3.18,4.778C301.306,95.065,296.837,98.936,292.208,106.608z"/>
</g>
<g>
	<path fill="#FFDD71" d="M264.179,123.078c0.498,2.503,1.112,4.671,1.822,6.544c5.513,14.524,17.002,11.393,28.219,11.393
		c12.661,0,12.638-8.48,12.638-19.946s-7.017-20.574-19.678-20.574C274.517,100.494,261.94,111.833,264.179,123.078z"/>
	<g>
		<path fill="#EE8914" d="M314.564,124.794c0.078-11.614-8.367-20.947-19.644-24.045c-11.509-3.161-21.064,4.571-21.047,15.837
			c0.019,11.316,9.772,22.525,21.444,24.03C306.606,142.075,314.488,136.092,314.564,124.794z"/>
		<path fill="#EAEAEA" d="M313.549,124.515c0.075-11.037-7.95-19.904-18.665-22.848c-10.934-3.003-20.015,4.342-19.998,15.049
			c0.018,10.751,9.287,21.401,20.378,22.833C305.991,140.934,313.477,135.25,313.549,124.515z"/>
		<g>
			<path fill="#FFC22A" d="M294.036,118.051l3.137-11.803c0.232-0.877-0.452-1.914-1.405-2.119c-1.16-0.253-2.758-0.524-4.457-0.582
				c-1.966-0.066-3.618,0.099-4.761,0.276c-0.884,0.136-1.238,1.13-0.717,2.009l7.235,12.198
				C293.327,118.467,293.922,118.479,294.036,118.051z"/>
			<path fill="#FFC22A" d="M296.752,121.672l11.757,7.351c0.876,0.546,1.874,0.208,2.049-0.696c0.21-1.101,0.422-2.643,0.422-4.364
				c0-1.991-0.218-3.742-0.432-4.974c-0.165-0.955-1.156-1.666-2.007-1.438l-11.802,3.138
				C296.316,120.802,296.325,121.407,296.752,121.672z"/>
			<path fill="#FFC22A" d="M296.026,119.49l11.628-3.093c0.866-0.232,1.141-1.276,0.557-2.145c-0.707-1.059-1.742-2.479-3.02-3.878
				c-1.481-1.619-2.898-2.875-3.924-3.714c-0.797-0.649-1.846-0.462-2.123,0.38l-3.856,11.659
				C295.15,119.114,295.605,119.601,296.026,119.49z"/>
			<path fill="#FFC22A" d="M294.908,122.766l3.595,12.985c0.271,0.966,1.315,1.601,2.147,1.298c1.014-0.369,2.372-0.952,3.698-1.792
				c1.532-0.971,2.709-2,3.491-2.77c0.605-0.599,0.371-1.738-0.472-2.309l-11.711-7.902
				C295.236,121.994,294.776,122.293,294.908,122.766z"/>
			<path fill="#FFC22A" d="M292.053,118.405l-7.856-11.634c-0.584-0.866-1.718-1.103-2.32-0.482
				c-0.735,0.758-1.687,1.857-2.517,3.202c-0.96,1.558-1.594,3.037-1.982,4.105c-0.301,0.831,0.318,1.883,1.254,2.131l12.959,3.455
				C292.054,119.306,292.339,118.829,292.053,118.405z"/>
			<path fill="#FFC22A" d="M291.587,120.245l-12.8-2.225c-0.953-0.165-1.642,0.599-1.41,1.565c0.282,1.184,0.744,2.805,1.456,4.509
				c0.825,1.974,1.732,3.614,2.419,4.743c0.531,0.875,1.649,1.152,2.262,0.561l8.489-8.184
				C292.309,120.921,292.052,120.326,291.587,120.245z"/>
			<path fill="#FFC22A" d="M292.736,122.231l-6.902,9.438c-0.513,0.703-0.149,1.847,0.746,2.343c1.095,0.605,2.623,1.369,4.32,1.979
				c1.965,0.706,3.687,1.102,4.896,1.319c0.937,0.169,1.608-0.596,1.36-1.546l-3.451-13.198
				C293.583,122.093,292.987,121.886,292.736,122.231z"/>
		</g>
	</g>
</g>
<g>
	<g>
		<g>
			<path fill="#FF9F23" d="M284.254,231.82c-0.46,0-0.854-0.376-0.932-0.885l-4.555-29.973l-6.559-43.106l-1.831-12.053l4.669-0.155
				l0.809,6.997l5.691,49.173l3.37,29.146C284.971,231.417,284.659,231.82,284.254,231.82z"/>
		</g>
		<g>
			<path fill="#FF9F23" d="M236.465,145.803l-2.079,13.662v0.001l-5.739,37.734l-5.131,33.734c-0.077,0.509-0.472,0.885-0.93,0.885
				c-0.404,0-0.717-0.403-0.663-0.855l4.425-38.239l4.731-40.906l0.716-6.171L236.465,145.803z"/>
		</g>
		<path fill="#EE8914" d="M234.386,159.465c0.273-5.872-3.307-7.646-3.307-7.646l0.716-6.171l4.67,0.155L234.386,159.465z"/>
		<path fill="#EE8914" d="M275.856,152.645c-3.025,1.549-3.646,5.211-3.646,5.211l-1.831-12.053l4.669-0.155L275.856,152.645z"/>
	</g>
	<path fill="#FF9F23" d="M307,145.803H201.532c-1.678,0-3.051-0.925-3.051-2.055v-0.624c0-1.131,1.373-2.055,3.051-2.055H307
		c1.679,0,3.054,0.924,3.054,2.055v0.624C310.053,144.878,308.678,145.803,307,145.803z"/>
</g>
<g>
	<path fill="#FFFFFF" d="M198.265,62.566c0-0.109,0.072-0.182,0.182-0.182h1.672c0.146,0,0.236,0.055,0.309,0.182l5.034,8.523h0.072
		v-8.523c0-0.109,0.073-0.182,0.183-0.182h1.581c0.108,0,0.182,0.073,0.182,0.182v11.995c0,0.109-0.073,0.182-0.182,0.182h-1.654
		c-0.146,0-0.236-0.055-0.309-0.182l-5.053-8.505h-0.072v8.505c0,0.109-0.073,0.182-0.182,0.182h-1.581
		c-0.109,0-0.182-0.073-0.182-0.182V62.566z"/>
	<path fill="#FFFFFF" d="M217.087,70.363v-7.796c0-0.109,0.072-0.182,0.182-0.182h1.78c0.109,0,0.183,0.073,0.183,0.182v7.833
		c0,2.871-1.945,4.543-4.562,4.543c-2.6,0-4.544-1.672-4.544-4.543v-7.833c0-0.109,0.073-0.182,0.182-0.182h1.781
		c0.109,0,0.182,0.073,0.182,0.182v7.796c0,1.708,1,2.653,2.399,2.653C216.087,73.016,217.087,72.071,217.087,70.363z"/>
	<path fill="#FFFFFF" d="M224.625,74.743c-0.109,0-0.182-0.073-0.182-0.182V64.42c0-0.073-0.037-0.109-0.109-0.109h-3.234
		c-0.109,0-0.183-0.072-0.183-0.182v-1.563c0-0.109,0.073-0.182,0.183-0.182h8.832c0.108,0,0.182,0.073,0.182,0.182v1.563
		c0,0.109-0.073,0.182-0.182,0.182h-3.235c-0.072,0-0.108,0.037-0.108,0.109v10.141c0,0.109-0.073,0.182-0.183,0.182H224.625z"/>
	<path fill="#FFFFFF" d="M238.886,74.743c-0.146,0-0.218-0.055-0.272-0.182l-2.362-4.816h-2.127c-0.072,0-0.108,0.036-0.108,0.109
		v4.707c0,0.109-0.073,0.182-0.182,0.182h-1.781c-0.109,0-0.182-0.073-0.182-0.182V62.566c0-0.109,0.072-0.182,0.182-0.182h4.779
		c2.271,0,3.943,1.508,3.943,3.689c0,1.617-0.927,2.871-2.344,3.398l2.599,5.034c0.072,0.127,0,0.236-0.127,0.236H238.886z
		 M238.65,66.074c0-1.072-0.764-1.763-1.89-1.763h-2.636c-0.072,0-0.108,0.037-0.108,0.109v3.289c0,0.073,0.036,0.109,0.108,0.109
		h2.636C237.886,67.819,238.65,67.128,238.65,66.074z"/>
	<path fill="#FFFFFF" d="M243.116,62.566c0-0.109,0.072-0.182,0.182-0.182h1.781c0.108,0,0.182,0.073,0.182,0.182v11.995
		c0,0.109-0.073,0.182-0.182,0.182h-1.781c-0.109,0-0.182-0.073-0.182-0.182V62.566z"/>
	<path fill="#FFFFFF" d="M250.729,74.743c-0.109,0-0.182-0.073-0.182-0.182V64.42c0-0.073-0.037-0.109-0.109-0.109h-3.235
		c-0.108,0-0.182-0.072-0.182-0.182v-1.563c0-0.109,0.073-0.182,0.182-0.182h8.833c0.108,0,0.182,0.073,0.182,0.182v1.563
		c0,0.109-0.073,0.182-0.182,0.182H252.8c-0.072,0-0.108,0.037-0.108,0.109v10.141c0,0.109-0.073,0.182-0.183,0.182H250.729z"/>
	<path fill="#FFFFFF" d="M257.975,62.566c0-0.109,0.072-0.182,0.182-0.182h1.781c0.108,0,0.182,0.073,0.182,0.182v11.995
		c0,0.109-0.073,0.182-0.182,0.182h-1.781c-0.109,0-0.182-0.073-0.182-0.182V62.566z"/>
	<path fill="#FFFFFF" d="M262.806,71.962c-0.254-0.764-0.326-1.454-0.326-3.398c0-1.945,0.072-2.635,0.326-3.398
		c0.637-1.963,2.235-2.98,4.362-2.98c2.145,0,3.743,1.018,4.38,2.98c0.254,0.763,0.327,1.454,0.327,3.398
		c0,1.944-0.073,2.635-0.327,3.398c-0.637,1.962-2.235,2.98-4.38,2.98C265.042,74.942,263.443,73.925,262.806,71.962z
		 M269.476,71.399c0.146-0.455,0.218-1.09,0.218-2.835c0-1.763-0.072-2.381-0.218-2.835c-0.345-1-1.072-1.618-2.308-1.618
		c-1.218,0-1.944,0.618-2.29,1.618c-0.146,0.454-0.218,1.072-0.218,2.835c0,1.745,0.072,2.38,0.218,2.835
		c0.346,1,1.072,1.617,2.29,1.617C268.404,73.016,269.131,72.398,269.476,71.399z"/>
	<path fill="#FFFFFF" d="M274.234,62.566c0-0.109,0.072-0.182,0.182-0.182h1.672c0.146,0,0.236,0.055,0.309,0.182l5.034,8.523h0.072
		v-8.523c0-0.109,0.073-0.182,0.183-0.182h1.581c0.108,0,0.182,0.073,0.182,0.182v11.995c0,0.109-0.073,0.182-0.182,0.182h-1.654
		c-0.146,0-0.236-0.055-0.309-0.182l-5.053-8.505h-0.072v8.505c0,0.109-0.073,0.182-0.182,0.182h-1.581
		c-0.109,0-0.182-0.073-0.182-0.182V62.566z"/>
</g>
</svg>
