<?xml version="1.0" encoding="utf-8"?>
<!-- Generator: Adobe Illustrator 16.0.3, SVG Export Plug-In . SVG Version: 6.00 Build 0)  -->
<!DOCTYPE svg PUBLIC "-//W3C//DTD SVG 1.1//EN" "http://www.w3.org/Graphics/SVG/1.1/DTD/svg11.dtd">
<svg version="1.1" id="Warstwa_1" xmlns="http://www.w3.org/2000/svg" xmlns:xlink="http://www.w3.org/1999/xlink" x="0px" y="0px"
	 width="339.048px" height="237.015px" viewBox="0 0 339.048 237.015" enable-background="new 0 0 339.048 237.015"
	 xml:space="preserve">
<g>
	<g>
		<g>
			<g>
				<path fill="#74DAEE" d="M21.003,236.437c0,0-40.134-54.426-6.787-113.35C43.803,70.806,78.3,74.379,103.609,95.595
					c10.778,9.036,41.857,1.114,68.31-52.084c36.073-72.548,161.115-28.547,138.315,83.069
					c-11.032,54.015,33.579,55.979,10.849,109.971L21.003,236.437z"/>
				<path fill="#4A2C6A" d="M338.712,237.015H0.335c-0.185,0-0.335-0.149-0.335-0.334v-0.259c0-0.184,0.15-0.334,0.335-0.334
					h338.377c0.186,0,0.336,0.15,0.336,0.334v0.259C339.048,236.865,338.896,237.015,338.712,237.015z"/>
			</g>
		</g>
		
			<ellipse transform="matrix(0.6647 0.7471 -0.7471 0.6647 68.7807 -70.5756)" fill="#74DAEE" cx="113.014" cy="41.336" rx="29.639" ry="41.165"/>
		
			<ellipse transform="matrix(-0.7471 0.6647 -0.6647 -0.7471 132.5093 66.353)" fill="#74DAEE" cx="53.633" cy="58.383" rx="9.156" ry="12.717"/>
		
			<ellipse transform="matrix(-0.9755 0.2202 -0.2202 -0.9755 633.58 12.0443)" fill="#74DAEE" cx="316.119" cy="41.336" rx="9.156" ry="12.717"/>
	</g>
	<g>
		<g>
			<g>
				<g>
					<path fill="#7C409C" d="M172.935,84.908c-0.014,0.258-0.023,0.393-0.023,0.393s-0.042-0.131-0.123-0.382
						c-0.673-2.071-3.955-12.295-6.943-23.679c-4.13-15.75-7.697-33.719-3.004-35.38c8.89-3.149,10.529,22.016,10.552,40.584
						C173.409,75.594,173.03,83.139,172.935,84.908z"/>
					<path fill="#7C409C" d="M181.633,64.458c-3.214,7.125-6,13.12-7.599,16.711c-0.695,1.565-1.166,2.672-1.348,3.217
						c0.154-0.887,0.574-3.267,1.172-6.653c0-0.002,0-0.002,0-0.004c0.898-5.075,2.203-12.403,3.633-20.364
						c3.473-19.346,7.699-42.394,8.688-45.689c1.74-5.813,9.766-18.188,15.165-7.421C204.852,11.252,191.314,42.981,181.633,64.458z
						"/>
					<path fill="#7C409C" d="M182.281,74.625c-3.32,3.503-6.111,6.344-7.67,7.915c-0.852,0.861-1.336,1.34-1.336,1.34
						s0.85-1.813,2.299-4.707c1.367-2.734,3.27-6.434,5.491-10.481c7.28-13.266,17.999-30.27,24.646-29.288
						C213.294,40.524,194.313,61.923,182.281,74.625z"/>
					<path fill="#4A2C6A" d="M172.935,84.908c-0.047,0.002-0.098,0.007-0.146,0.011c-0.673-2.071-3.955-12.295-6.943-23.679
						c1.395,2.087,3.914,4.885,7.548,5.205C173.409,75.594,173.03,83.139,172.935,84.908z"/>
					<path fill="#4A2C6A" d="M181.633,64.458c-3.214,7.125-6,13.12-7.599,16.711c-0.122-1.002-0.176-2.165-0.176-3.436
						c0-0.002,0-0.002,0-0.004c0.898-5.075,2.203-12.403,3.633-20.364C178.051,60.145,179.214,63.223,181.633,64.458z"/>
					<path fill="#4A2C6A" d="M182.281,74.625c-3.32,3.503-6.111,6.344-7.67,7.915c0.15-0.903,0.502-2.074,0.963-3.367
						c1.367-2.734,3.27-6.434,5.491-10.481C181.117,70.388,181.357,72.917,182.281,74.625z"/>
				</g>
				<path fill="#F2A245" d="M172.683,84.391c-0.044,0.25-0.066,0.379-0.066,0.379C172.583,84.753,172.607,84.625,172.683,84.391z"/>
				<path fill="#FF7042" d="M177.142,109.972c-5.568,15.776-12.504,32.98-12.504,32.98l-15.667-4.696c0,0,1.834-11.685,4.526-24.688
					c3.141-15.161,4.933-30.458,11.375-34.438c1.773-1.096,3.688-1.604,5.561-1.741c0.943-0.07,1.885-0.04,2.803,0.083
					c0.221,0.029,0.435,0.062,0.652,0.099c0.543,0.098,1.077,0.224,1.599,0.38c0.204,0.058,0.405,0.122,0.606,0.192
					c0.693,0.236,1.363,0.52,2.002,0.844c2.712,1.379,4.896,3.454,5.754,5.697C186.421,91.427,181.351,98.05,177.142,109.972z"/>
			</g>
			<g>
				<path fill="#FFC22A" d="M169.482,125.383c-4.639,14.069-6.016,29.509-4.111,45.982c0.318,2.747,1.848,5.133,4.061,6.597
					c0.99,0.654,2.115,1.124,3.331,1.363c2.726-0.016,8.101-4.969,11.175-11.29c0.846-1.738,1.518-3.578,1.912-5.451
					c3.082-14.621,8.789-32.227,15.868-41.225c7.239-9.203,16.993-20.202,30.402-27.767c0,0,0.001-0.002,0.004-0.003
					c1.295-0.741,31.72-22.896,31.72-22.896c3.026-3.2-0.559-6.786-0.559-6.786s-2.891,2.534-11.705,7.61
					c-8.814,5.073-24.293-0.874-24.299-0.874c-4.337-1.961-9.484-1.762-13.746,0.825c-6.576,3.991-15.332,10.287-23.637,19.35
					C180.554,101.017,173.684,112.646,169.482,125.383z"/>
				<path fill="#FF9F23" d="M185.849,162.584c3.082-14.621,8.789-32.227,15.868-41.225c7.239-9.203,16.993-20.202,30.402-27.767
					c0,0,0.001-0.002,0.004-0.003c0.233-0.17,9.304-6.859-0.749-12.917c-9.84-5.927-50.002,38.235-47.438,87.363
					C184.783,166.297,185.455,164.457,185.849,162.584z"/>
			</g>
			<g>
				<path fill="#6139BC" d="M151.331,111.567c-1.127,1.771-2.511,3.487-4.144,5.096c-6.189,6.096-15.901,10.616-28.406,10.498
					c0,0-5.248-5.004-7.793-11.371l0.001-0.003c-1.765-4.416-3.053-10.92-0.001-15.746c1.966-3.111,4.495-4.583,7.059-5.358
					c4.354-1.326,8.808-0.643,10.753-2.582c1.92-1.912,4.65-3.564,7.649-4.515c0.49-0.156,0.988-0.295,1.49-0.408h0.002
					c0.209-0.05,0.415-0.095,0.626-0.136c0.005-0.001,0.009-0.001,0.013-0.001c4.625-0.903,9.563-0.019,12.997,4.103
					c0.797,0.956,1.52,2.109,2.135,3.499C155.913,99.586,154.968,105.858,151.331,111.567z"/>
				<path fill="#744DA5" d="M114.964,99.324c0,0-4.125,3.24-2.862,6.822c1.265,3.584,4.526,1.93,5.546-0.554
					C118.669,103.111,117.677,98.121,114.964,99.324z"/>
				<path fill="#4A2C76" d="M151.579,91.143c0.797,0.955,1.52,2.111,2.135,3.499c2.2,4.945,5.221,18.063,1.585,23.772l-4.876,4.461
					c-6.189,6.096-19.137,4.404-31.639,4.285c0,0-5.249-5.004-7.795-11.37l0.001-0.003c0,0,15.467,6.12,30.036-6.656
					C147.64,103.328,150.465,96.676,151.579,91.143z"/>
				<g>
					<path fill="#F2A245" d="M127.988,84.619c-2.553-1.521-5.138,0.616-8.136,1.788c-3.001,1.174-8.771,1.15-8.771,1.15
						s2.373-3.417,6.265-6.812C121.236,77.351,127.988,84.619,127.988,84.619z"/>
					<path fill="#FF9F23" d="M127.988,84.619c-2.4-1.97-6.837-3.099-9.002-2.213s-7.905,5.151-7.905,5.151s2.373-3.417,6.265-6.812
						C121.236,77.351,127.988,84.619,127.988,84.619z"/>
				</g>
				<path fill="#4A2C76" d="M128.801,92.101c1.92-1.912,4.65-3.564,7.649-4.515c-5.099,1.913-7.913,8.375-9.848,7.626
					c-2.075-0.805-8.317-0.542-8.555-0.53C122.401,93.356,126.855,94.04,128.801,92.101z"/>
				<path fill="#EE8914" d="M138.569,87.042c-0.162,0.045-0.367,0.091-0.626,0.136C138.152,87.128,138.358,87.083,138.569,87.042z"
					/>
				<g>
					<path fill="#FF9F23" d="M126.964,95.082L126.964,95.082c-1.635-3.613-0.751-8.095,0.277-11.218
						c0.82-2.486,2.391-5.843,3.164-7.438c0.163-0.337,0.652-0.303,0.77,0.052l0.312,0.941c0.312,0.944,0.196,1.976-0.317,2.826
						c-1.582,2.613-4.755,8.721-3.326,13.749C128.005,94.56,127.253,95.73,126.964,95.082z"/>
				</g>
			</g>
		</g>
		<g>
			<g>
				<path fill="#74DAEE" d="M165.187,111.37l-0.51-0.204c2.253-3.351,5.747-5.649,8.498-6.712c2.409-0.932,4.336-1.237,5.026-1.327
					c0.168-0.021,0.335,0.043,0.444,0.171l0.426,0.497c0.213,0.246,0.066,0.638-0.256,0.684
					C176.355,104.832,168.588,106.309,165.187,111.37z"/>
			</g>
			<path fill="#41B8E1" d="M155.605,112.327c2.583-6.452,6.218-4.997,10.703-3.201c4.483,1.794,8.119,3.25,5.536,9.702
				c-1.851,4.624-6.987,6.917-11.471,5.122C155.89,122.155,153.754,116.951,155.605,112.327z"/>
			<path fill="#74DAEE" d="M158.326,110.993c0.161-1.155,2.023-2.372,3.179-2.212c1.157,0.163,1.696,1.454,1.533,2.611
				c-0.162,1.156-1.754,2.15-2.911,1.988C158.971,113.218,158.165,112.15,158.326,110.993z"/>
		</g>
		<path fill="#FF7042" d="M213.298,113.952l13.85,98.658c1.719,12.237-7.783,23.165-20.141,23.165h-20.865
			c-10.536,0-18.74-9.149-17.594-19.623l11.721-91.775L213.298,113.952z"/>
		<path fill="#FF7042" d="M140.563,113.952c0,0,33.57,11.446,72.736,0l-11.539,122.136h-73.085L140.563,113.952z"/>
		<path fill="#FF4A1E" d="M140.563,113.952l13.852,98.911c1.717,12.269-7.785,23.225-20.141,23.225h-20.867
			c-10.537,0-18.74-9.173-17.593-19.675l9.92-102.461c0,0,4.887,0.953,16.777,0.953
			C134.285,114.905,140.563,113.952,140.563,113.952z"/>
		<path fill="#6139BC" d="M202.68,124.951c0-1.436-1.164-2.6-2.601-2.6c-1.436,0-2.6,1.164-2.6,2.6c0,0.96,0.521,1.798,1.296,2.248
			c1.103,8.752-0.636,15.905-4.977,20.288c-3.946,3.984-9.931,5.462-17.306,4.271c-6.486-1.047-10.755-8.224-13.193-14.06
			c-1.754-4.197-2.836-8.331-3.395-10.784c0.55-0.477,0.898-1.179,0.898-1.963c0-1.436-1.164-2.6-2.601-2.6
			c-1.436,0-2.6,1.164-2.6,2.6c0,0.969,0.53,1.811,1.314,2.259c1.398,6.416,6.575,25.461,19.101,27.482
			c1.822,0.294,3.574,0.44,5.25,0.44c6.006,0,11.006-1.883,14.643-5.555c4.975-5.024,7.012-13,5.828-22.626
			C202.314,126.476,202.68,125.756,202.68,124.951z"/>
	</g>
	<g>
		<g>
			<path fill="#FF7042" d="M246.876,150.749c1.758,0.583,3.66,0.985,5.674,1.176c7.632,0.721,16.798-1.602,25.285-8.651
				c0,0,0.803-6.35-1.006-12.124l-0.002-0.001c-1.254-4.006-3.998-9.173-8.775-10.775c-3.08-1.03-5.631-0.628-7.818,0.27
				c-3.717,1.521-6.383,4.472-8.795,4.229c-2.38-0.238-5.168,0.154-7.75,1.176c-0.424,0.165-0.84,0.348-1.248,0.551l-0.001,0.002
				c-0.17,0.082-0.338,0.166-0.505,0.256c-0.003,0.001-0.008,0.003-0.01,0.006c-3.667,1.959-6.553,5.317-6.604,10.052
				c-0.013,1.097,0.137,2.29,0.49,3.583C237.062,145.105,241.205,148.869,246.876,150.749z"/>
			<path fill="#FFBB99" d="M264.931,122.102c0,0,4.629-0.085,5.762,3.072c1.133,3.156-2.021,3.842-4.104,2.712
				S262.405,122.789,264.931,122.102z"/>
			<path fill="#FF4A1E" d="M235.322,136.912c-0.013,1.098,0.137,2.291,0.49,3.584c1.25,4.609,6.494,15.268,12.166,17.148
				c0,0,11.246,5.167,17.677,2.763c7.18-2.684,11.6-8.357,12.181-17.134c0,0,0.803-6.35-1.006-12.124h-0.001
				c0,0-7.171,12.808-24.259,12.187C244.808,143.054,239.167,140.078,235.322,136.912z"/>
			<g>
				<path fill="#F2A245" d="M247.825,119.299c0.899-2.463,3.856-2.442,6.563-3.312c2.705-0.868,6.641-4.102,6.641-4.102
					s-3.527-1.015-8.082-1.169C248.393,110.563,247.825,119.299,247.825,119.299z"/>
				<path fill="#FF9F23" d="M247.825,119.299c0.543-2.684,2.95-5.932,4.925-6.531c1.977-0.601,8.279-0.882,8.279-0.882
					s-3.527-1.015-8.082-1.169C248.393,110.563,247.825,119.299,247.825,119.299z"/>
			</g>
			<path fill="#FF4A1E" d="M251.439,124.871c-2.38-0.238-5.168,0.154-7.75,1.176c4.555-1.534,10.08,1.319,10.988-0.271
				c0.97-1.707,5.389-5.009,5.557-5.133C256.517,122.164,253.851,125.114,251.439,124.871z"/>
			<path fill="#EE8914" d="M241.935,126.855c0.137-0.061,0.303-0.143,0.505-0.256C242.27,126.682,242.102,126.766,241.935,126.855z"
				/>
			<g>
				<path fill="#FF9F23" d="M254.358,125.888L254.358,125.888c-0.896-3.384-3.999-5.958-6.444-7.521
					c-1.947-1.244-4.893-2.664-6.309-3.326c-0.301-0.139-0.615,0.158-0.498,0.466l0.313,0.817c0.313,0.819,0.965,1.462,1.791,1.758
					c2.537,0.906,8.113,3.315,9.939,7.553C253.355,126.11,254.52,126.492,254.358,125.888z"/>
			</g>
		</g>
		<path fill="#4A2C6A" d="M234.996,226.782c0,0-3.4,2.549-8.613,1.202c0,0-4.205-0.958-5.126,1.139c0,0,6.446,3.274,8.077,4.169
			c1.229,0.676,2.512,1.742,3.418,2.565c0.719,0.651,1.838,0.563,2.449-0.188c0.282-0.35,0.607-0.765,0.963-1.246
			c0.994-1.348,3.311-5.698,3.311-5.698L234.996,226.782z"/>
		<path fill="#6139BC" d="M232.998,225.487c0,0,2.072,4.777,6.854,3.898c0,0,9.758-8.058,16.452-16.429
			c2.173-2.719,4.024-5.471,5.112-7.989c4.438-10.276,16.418-25.603,24.034-33.371l-19.058-6.893c0,0-6.104,12.277-14.224,27.359
			C246.315,202.931,239.417,215.253,232.998,225.487z"/>
		<path fill="#4A2C6A" d="M252.168,192.063l4.135,20.894c2.173-2.719,4.024-5.471,5.112-7.989
			c4.438-10.276,16.418-25.603,24.034-33.371l-19.058-6.893C266.392,164.704,260.289,176.981,252.168,192.063z"/>
		<path fill="#4A2C6A" d="M267.744,229.555c0,0,0.209,3.811-4.412,4.319c0,0-2.641,0.014-2.646,2.439l13.427,0.044
			c0,0,0.392-0.979,0.484-3.075c0.073-1.609-1.558-5.817-1.558-5.817L267.744,229.555z"/>
		<path fill="#6139BC" d="M272.644,164.704c0,0-8.49,9.327-13.879,26.133c-2.932,9.145,5.375,32.133,6.994,40.121
			c0,0,5.572,0.472,9.382-1.001c0,0,0.289-16.497-1.939-29.213c-1.247-7.116,11.177-15.219,16.606-28.077
			c3.693-8.747-0.801-8.599-6.321-8.809L272.644,164.704z"/>
		<path fill="#FFB792" d="M282.444,123.086c4.724,2.667,14.394,0.208,14.394,0.208s-3.928-4.489-2.145-11.72l-3.708,1.884
			l-3.983,2.022c0,0-0.257,1.276-0.437,3.57c-0.044,0.591-0.087,1.251-0.114,1.972C284.025,121.756,282.444,123.086,282.444,123.086
			z"/>
		<path fill="#EAEAEA" d="M265.125,164.223c0,0.83,0.957,1.227,1.158,1.267c1.906,0.349,7.225,2.418,12.018,2.893
			c4.033,0.422,7.78,0.021,11.895-0.806c0.545-0.109,1.826-0.454,1.916-0.977c0.113-0.57,15.873-32.129,3.623-45.686
			c-0.289-0.318-2.707,0.255-4.92,0.78c-2.041,0.484-3.916,0.214-5.588-0.457l-2.074,1.09c-2.547,1.421-7.367,6.464-7.93,10.42
			c-0.287,2.012-1.438,3.502-1.77,5.272c-0.125,0.655-0.252,1.295-0.38,1.918c-0.252,1.223-0.51,2.386-0.775,3.492
			c-0.722,2.993-1.481,5.568-2.228,7.795c-0.797,2.362-1.576,4.328-2.271,5.973c-0.904,2.132-1.668,3.726-2.144,4.945
			C265.317,163.002,265.125,163.675,265.125,164.223z"/>
		<path fill="#C8D1CE" d="M265.655,162.143c22.248-10.482,29.952-30.609,29.952-30.609s-18.075,6.668-22.534,8.404
			c-0.252,1.223-0.51,2.386-0.775,3.492c-0.722,2.993-1.481,5.568-2.228,7.795c-0.797,2.362-1.576,4.328-2.271,5.973
			C266.894,159.329,266.13,160.923,265.655,162.143z"/>
		<g>
			<path fill="#FFB792" d="M250.566,156.604c0,0-3.094-1.268-3.803-1.167c-0.711,0.102-2.676-0.391-2.564,0.254
				c0.076,0.444,2.614,0.913,2.614,0.913s-2.835-0.638-2.614,0.024c0.15,0.457,0.752,2.272,1.689,2.866
				c1.121,0.709,3.151,0.366,5.53,0.022C255.789,158.886,250.566,156.604,250.566,156.604z"/>
			<path fill="#EAEAEA" d="M251.056,158.787c-0.711-1.854-1.035-2.695-1.035-2.695s14.525-11.84,16.006-12.856
				c1.01-0.692,11.051-8.197,15.945-14.048c2.429-2.901,6.258-4.228,9.962-3.45l3.05,0.64c3.681,0.771,4.877,5.432,2.021,7.881
				c-8.045,6.896-21.613,14.896-24.145,16.56c-6.279,4.13-20.17,9.919-20.17,9.919S251.613,160.243,251.056,158.787z"/>
		</g>
		<path fill="#F2AC8C" d="M286.565,119.051c4.646,0.261,7.665-3.574,7.665-3.574s-2.1-1.163-3.245-2.019l-3.983,2.022
			C287.001,115.48,286.745,116.757,286.565,119.051z"/>
		<path fill="#FFB792" d="M284.587,114.282c0,0,7.037,5.051,10.113,0.62c3.079-4.432,6.06-6.764,1.697-10.176
			c-4.364-3.412-6.421-2.333-7.807-1.104C287.203,104.851,282.835,112.854,284.587,114.282z"/>
		<path fill="#4A2C6A" d="M287.847,99.62c0.252-1.703,0.819-2.901,0.819-2.901s0.442,1.829,3.784,1.576
			c3.344-0.252,8.644,0.329,10.41,4.14c0.112,0.242,0.212,0.491,0.301,0.746c0.319-0.844,0.396-2.11,0.396-2.11
			c0.637,1.64,0,3.692,0,3.692l0,0c0.01,0.061,0.018,0.12,0.026,0.179c0.739,0.625,1.358,2.563,1.358,2.563
			c-0.223-0.54-0.767-0.895-1.252-1.111c0.017,2.966-1.186,5.862-3.297,6.726c-3.084,1.262-3.061,0.3-6.164,2.357
			c0,0-0.832-1.032-0.264-1.727c0.566-0.693,2.711-1.703,1.514-2.712c-1.199-1.01-1.641,0.126-2.082-0.567
			c-0.441-0.695,1.766-2.713-1.072-4.605S287.593,101.323,287.847,99.62z"/>
	</g>
	<g>
		<path fill="#4E306D" d="M80.248,16.267c-0.011-0.334-0.271-3.933-5.751-4.12c0,0,2.695,0.321,3.161,1.506
			c0,0-1.835-1.464-3.329-0.993c-1.495,0.471-2.372,3.09-2.382,3.951c-0.008,0.861,0.822,3.638,1.771,3.874
			c0.359,0.089,0.773,0.065,1.149,0.001c-0.253,0.394-0.5,0.829-0.737,1.314c-2.187,4.489,0.069,8.877,1.92,8.392
			c1.188-0.31,1.524,1.716,1.524,1.716l11.536-9.339C89.109,22.567,84.872,13.799,80.248,16.267z"/>
		<path fill="#6139BC" d="M84.265,148.525l-2.451,0.914c0,0-10.642-14.764-11.953-27.751c-0.234-2.319-0.155-4.565,0.35-6.64
			c0,0-0.104-0.595-0.286-1.645c-0.083-0.49-0.188-1.08-0.306-1.757c-0.348-1.981-0.823-4.695-1.367-7.783
			C67,96.755,65.377,87.668,64.118,80.989l0.66-0.213l7.144-2.305l1.476-4.689l5.32-1.4c0,0,1.188,2.325,2.25,13.306
			c0.196,1.44,0.373,3.028,0.508,4.751c0.414,5.257,0.444,11.779-0.506,19.235c-0.244,1.909-0.551,3.879-0.934,5.904
			c-0.28,1.485-0.322,3.507-0.204,5.829C80.367,132.025,84.265,148.525,84.265,148.525z"/>
		<path fill="#4A2C76" d="M81.476,90.44l-11.551,22.964c-0.083-0.49-0.188-1.08-0.306-1.757c-0.348-1.981-0.823-4.695-1.367-7.783
			C67,96.755,65.377,87.668,64.118,80.989l0.66-0.213l7.144-2.305l1.476-4.689l5.32-1.4c0,0,1.188,2.325,2.25,13.306
			C81.164,87.129,81.341,88.717,81.476,90.44z"/>
		<path fill="#6139BC" d="M76.395,75.329l-0.268-2.293c-4.48,1.19-16.45-3.325-16.45-3.325s-4.34,3.815-3.771,12.96
			c0.279,4.463,0.786,23.431,1.317,29.044c0.192,2.033,0.36,3.481,0.429,4.06c0.001,0.003,0.001,0.004,0.001,0.004
			c0.021,0.179-0.041,0.345-0.129,0.499c-0.782,1.326-1.429,2.706-1.959,4.119c-5.209,13.877,0.802,30.97,0.802,30.97l1.561-0.629
			c0,0,3.419-19.021,6.199-27.423c0.471-1.426,0.924-2.546,1.338-3.215c1.208-1.95,2.33-5.137,3.347-8.928
			c1.923-7.164,3.472-16.486,4.502-23.681C73.456,87.498,76.395,75.329,76.395,75.329z"/>
		<path fill="#FFB894" d="M111.69,72.4c-0.965,0.853-3.523-2.077-3.876-2.467c-0.019-0.037-0.037-0.056-0.037-0.056l0.779-2.169
			c0,0,3.355-0.13,3.913,0.426C113.025,68.691,112.747,71.491,111.69,72.4z"/>
		<path fill="#FFB894" d="M108.556,67.708l-0.334,2.244c0,0-0.148,0-0.408-0.019c-0.816-0.056-2.801-0.167-5.043-0.408
			c-3.376-0.334-7.382-0.927-8.977-1.91c-2.43-1.483-6.416-6.027-9.012-10.57c-0.075-0.111-0.13-0.223-0.186-0.333
			c-1.354-2.411-2.299-4.804-2.373-6.714c-0.057-1.169,0.074-2.169,0.315-3.041c0.316-1.15,0.834-2.059,1.373-2.745
			c0.074-0.111,0.149-0.224,0.259-0.315c0.891-1.057,1.762-1.502,1.762-1.502c0.445-0.185,0.927,0.038,1.429,0.575v0.019
			c0.407,0.427,0.852,1.076,1.279,1.891c0.019,0.019,0.037,0.037,0.037,0.056c0.093,0.167,0.186,0.352,0.297,0.556
			c0.036,0.037,0.057,0.093,0.075,0.13c0.203,0.427,0.407,0.871,0.611,1.335c2.281,4.97,4.711,12.499,6.732,14.743
			c0.872,0.964,4.858,2.855,8.029,4.265C106.7,66.966,108.556,67.708,108.556,67.708z"/>
		<path fill="#FFB894" d="M84.953,47.515c-1.407,0.652-3.105,1.096-5.159,1.208c-7.702,0.422-9.451-6.33-9.77-10.811
			c1.111-0.401,2.083-0.365,2.644-0.334c0.546,0.03,1.115,0.086,1.585,0.144c0.943-0.492,2.635-2.882,3.613-6.881l0.333,0.154
			l5.558,2.613c0,0-0.591,1.809-1.026,3.539c-0.341,1.354-0.584,2.663-0.38,3.029c0.438,0.178,0.7,0.29,0.7,0.29
			s0,0.002,0.001,0.006C83.109,40.613,84.317,43.692,84.953,47.515z"/>
		<path fill="#FF7042" d="M86.879,52.568c-0.058,0.154-0.122,0.305-0.191,0.459c-1.951,4.201-5.562,21.603-5.562,21.603
			c0.513,3.129-23.516-0.614-23.579-3.462c-0.845-3.021,3.004-7.874,5.174-10.31c0.272-0.306,0.516-0.634,0.729-0.979
			c0.536-0.869,0.876-1.849,0.983-2.873c0.427-4.039,0.265-7.823,0.301-10.125v0c0.424-0.313,0.834-0.604,1.216-0.879
			c0.583-0.427,1.1-0.825,1.481-1.229c0.417-0.44,0.679-0.89,0.709-1.399c0.022-0.384,0.011-0.778-0.03-1.172
			c-0.018-0.186-0.042-0.372-0.069-0.558c-0.3-1.954-1.117-3.728-1.117-3.728c2.067-0.836,5.742-0.338,5.742-0.338
			s-0.004,0.203-0.007,0.538c-0.012,1.343,0,4.79,0.431,5.441c0.538,0.813,10.383,4.372,10.902,3.269
			c0.512-1.084-0.89-6.164-0.942-6.356c-0.001-0.004-0.001-0.006-0.001-0.006c3.297,1.294,4.475,2.38,4.475,2.38
			C85.539,44.134,88.417,48.493,86.879,52.568z"/>
		<path fill="#F2AC8C" d="M83.757,33.608c0,0-0.591,1.806-1.026,3.539c-3.248-0.906-4.235-4.32-4.531-6.151L83.757,33.608z"/>
		<path fill="#FFB894" d="M84.441,35.521c0,0-7.772-1.799-6.578-6.622c1.194-4.823,0.996-8.303,6.008-7.359
			c5.013,0.944,5.519,3.023,5.511,4.729C89.376,27.978,86.493,35.865,84.441,35.521z"/>
		<path fill="#4E306D" d="M89.819,23.532c-0.835-1.748-1.819-1.655-2.434-1.345c-3.651-3.379-7.233-0.618-7.233-0.618
			c-1.38,3.331-4.367,4.691-4.367,4.691s1.194,1.223,4.654,1.196c1.057-0.009,2.12-0.494,3.087-1.163
			c-1.866,1.88-4.052,3.022-4.052,3.022c4.33-0.829,7.236-5.844,7.533-6.376c0.368,0.542,1.07,1.696,1.128,2.669
			c0.08,1.324-0.374,3.895,0.384,3.992C88.52,29.602,91.073,26.154,89.819,23.532z"/>
		<path fill="#FF7042" d="M87.526,42.845c0,0,1.873,3.265,2.152,4.104c0,0-2.427-0.094-3.407,1.773
			C86.271,48.723,86.036,43.285,87.526,42.845z"/>
		<path fill="#FF4A1E" d="M74.657,68.783c-4.74-0.05-8.753-4.972-11.206-8.904c0.536-0.869,0.876-1.849,0.983-2.873
			c0.427-4.039,0.265-7.823,0.301-10.125v0c0.424-0.313,0.834-0.604,1.216-0.879c0.583-0.427,1.1-0.825,1.481-1.229
			C71.313,51.332,81.082,68.852,74.657,68.783z"/>
		<path fill="#4A2C6A" d="M65.435,152.64H53.092c0,0-0.296-1.882,0.349-3.308c0.618-1.369,1.586-1.992,1.354-3.648
			c0.784,0.807,2.062,1.712,3.846,1.472c0.218,0.354,1.412,2.251,2.141,2.775C61.588,150.511,65.186,150.304,65.435,152.64z"/>
		<path fill="#4A2C6A" d="M91.933,152.64h-12.34c0,0-0.462-1.968,0.348-3.308c0.718-1.186,0.442-1.86-0.089-2.841
			c0.559,0.229,1.283,0.437,2.079,0.392c0.615-0.036,1.265-0.315,1.836-0.646c0.532,0.605,2.805,3.183,3.516,3.693
			C88.089,150.511,91.685,150.304,91.933,152.64z"/>
		<g>
			<g>
				<path fill="#4A2C76" d="M104.271,64.506l-0.604-0.149c2.005-4.123,5.573-7.258,8.501-8.886c2.562-1.426,4.682-2.073,5.443-2.281
					c0.186-0.051,0.382-0.004,0.525,0.123l0.56,0.491c0.275,0.243,0.173,0.709-0.181,0.811
					C115.8,55.397,107.3,58.279,104.271,64.506z"/>
			</g>
			<path fill="#FF4A1E" d="M93.646,67.09c1.889-7.663,6.207-6.598,11.531-5.284c5.326,1.313,9.642,2.377,7.752,10.04
				c-1.354,5.491-6.769,8.878-12.095,7.565C95.511,78.098,92.292,72.581,93.646,67.09z"/>
			<path fill="#EAEAEA" d="M96.495,65.162c0-1.325,1.902-2.987,3.229-2.987s2.134,1.369,2.134,2.693
				c0,1.327-1.635,2.696-2.961,2.696S96.495,66.489,96.495,65.162z"/>
		</g>
		<path fill="#FFB894" d="M92.57,71.361l-0.649,2.373c0,0-0.815-0.148-2.114-0.389c-0.389-0.075-0.611-0.129-0.611-0.129
			c-1.039-0.205-2.28-0.483-3.634-0.779h-0.02c-2.317-0.557-4.914-1.225-7.101-1.966c-1.54-0.538-2.875-1.112-3.784-1.687
			c-0.093-0.056-0.167-0.112-0.261-0.186c-2.169-1.576-4.746-6.212-6.749-11.183c-0.278-0.686-0.538-1.372-0.798-2.039
			c-0.927-2.485-1.668-4.933-2.113-7.047c-0.278-1.261-0.463-2.412-0.5-3.357c-0.02-0.334-0.038-0.649-0.02-0.946
			c0.038-5.377,2.707-6.12,2.707-6.12c0.057-0.018,0.111-0.037,0.186-0.055c0.463-0.075,0.946,0.241,1.447,0.853
			c0.63,0.761,1.299,2.002,1.985,3.505c1.056,2.393,2.169,5.489,3.208,8.568c0.574,1.687,1.13,3.375,1.688,4.932
			c0.315,0.947,0.629,1.836,0.927,2.652c0.574,1.557,1.094,2.819,1.558,3.616c0.297,0.521,1.149,1.243,2.28,2.059
			c1.965,1.428,4.84,3.153,7.343,4.563c1.039,0.593,2.021,1.131,2.838,1.576C91.699,70.897,92.57,71.361,92.57,71.361z"/>
		<path fill="#FF7042" d="M70.533,42.218c-3.57-0.984-6.324,1.803-6.324,1.803c0.044-5.368,2.718-6.104,2.718-6.104
			C68.002,37.471,69.248,39.333,70.533,42.218z"/>
		<path fill="#FFB894" d="M92.57,71.361c0,0,1.165,0.026,1.822-0.377c0.659-0.402,2.525-0.951,3.367-0.859c0,0,0.311,0.128,0.2,0.42
			c-0.108,0.292-1.48,0.53-1.48,1.08c0,0,1.719-0.055,2.231-0.275c0.513-0.22,2.489,0.285,2.873,0.512
			c0.385,0.228-2.506,1.968-3.787,2.671c-1.28,0.702-5.875-0.8-5.875-0.8L92.57,71.361z"/>
	</g>
	<g>
		<g>
			<g>
				<path fill="#FF9F23" d="M91.699,236.363c-0.421,0-0.781-0.345-0.853-0.812l-4.175-27.459l-6.008-39.49l-1.678-11.043
					l4.278-0.142l0.741,6.41l5.213,45.049l3.09,26.703C92.354,235.994,92.069,236.363,91.699,236.363z"/>
			</g>
			<g>
				<path fill="#FF9F23" d="M47.918,157.56l-1.904,12.517v0.001l-5.258,34.57l-4.702,30.904c-0.07,0.467-0.431,0.812-0.851,0.812
					c-0.371,0-0.657-0.369-0.608-0.783l4.054-35.033l4.335-37.476l0.655-5.653L47.918,157.56z"/>
			</g>
			<path fill="#EE8914" d="M46.014,170.076c0.25-5.379-3.029-7.005-3.029-7.005l0.655-5.653l4.278,0.142L46.014,170.076z"/>
			<path fill="#EE8914" d="M84.004,163.828c-2.772,1.42-3.341,4.774-3.341,4.774l-1.678-11.043l4.278-0.142L84.004,163.828z"/>
		</g>
		<path fill="#FF9F23" d="M95.955,157.56H30.946c-1.034,0-1.881-0.847-1.881-1.882v-0.571c0-1.036,0.847-1.883,1.881-1.883h65.008
			c1.034,0,1.881,0.847,1.881,1.883v0.571C97.836,156.713,96.989,157.56,95.955,157.56z"/>
	</g>
	<path fill="#FF9F23" d="M308.033,235.984h-15.811c-0.848-0.719,0.586-2.351,2.084-2.461c0.65-0.049,1.473,0.087,2.413,0.286
		c0.218-2.891,1.461-15.882,6.144-15.361c5.266,0.585,0,5.723-1.488,8.764c-1.102,2.253-2.266,5.483-2.797,7.009
		c0.428,0.092,0.87,0.183,1.322,0.266c0.697-2.144,3.295-9.351,6.596-8.932c3.879,0.492,2.319,3.382-0.429,5.099
		c-2.017,1.261-4.491,3.054-5.669,3.92c0.997,0.163,2.037,0.272,3.093,0.247C306.199,234.757,307.521,235.555,308.033,235.984z"/>
	<g>
		<path fill="#FFDD71" d="M149.325,211.639c0.678,3.402,1.51,6.347,2.475,8.891c7.488,19.728,23.094,15.475,38.331,15.475
			c17.198,0,17.166-11.52,17.166-27.093c0-15.574-9.529-27.947-26.728-27.947C163.369,180.964,146.284,196.367,149.325,211.639z"/>
		<g>
			<path fill="#EE8914" d="M217.763,213.973c0.105-15.777-11.365-28.452-26.683-32.661c-15.63-4.293-28.61,6.21-28.586,21.511
				c0.024,15.372,13.273,30.596,29.128,32.642C206.956,237.443,217.66,229.317,217.763,213.973z"/>
			<path fill="#EAEAEA" d="M216.386,213.592c0.102-14.991-10.799-27.035-25.354-31.033c-14.852-4.079-27.186,5.898-27.162,20.439
				c0.023,14.604,12.613,29.07,27.678,31.015C206.119,235.894,216.288,228.173,216.386,213.592z"/>
			<g>
				<path fill="#FFC22A" d="M189.88,204.813l4.26-16.031c0.316-1.192-0.613-2.6-1.906-2.88c-1.578-0.344-3.748-0.711-6.057-0.789
					c-2.67-0.091-4.914,0.134-6.465,0.375c-1.201,0.185-1.684,1.533-0.974,2.729l9.827,16.568
					C188.917,205.378,189.726,205.395,189.88,204.813z"/>
				<path fill="#FFC22A" d="M193.57,209.732l15.971,9.982c1.188,0.742,2.545,0.283,2.781-0.944c0.285-1.496,0.573-3.592,0.573-5.929
					c0-2.705-0.296-5.082-0.585-6.755c-0.225-1.298-1.57-2.264-2.727-1.955l-16.03,4.265
					C192.978,208.549,192.99,209.37,193.57,209.732z"/>
				<path fill="#FFC22A" d="M192.583,206.766l15.795-4.201c1.176-0.313,1.547-1.733,0.757-2.912
					c-0.962-1.438-2.368-3.367-4.104-5.268c-2.012-2.199-3.935-3.905-5.329-5.044c-1.081-0.882-2.506-0.628-2.884,0.515
					l-5.236,15.836C191.394,206.257,192.01,206.918,192.583,206.766z"/>
				<path fill="#FFC22A" d="M191.065,211.217l4.884,17.638c0.365,1.313,1.787,2.174,2.916,1.763
					c1.377-0.502,3.221-1.293,5.021-2.433c2.082-1.32,3.681-2.718,4.742-3.764c0.824-0.813,0.506-2.36-0.641-3.135l-15.906-10.734
					C191.511,210.168,190.886,210.575,191.065,211.217z"/>
				<path fill="#FFC22A" d="M187.187,205.294l-10.672-15.803c-0.793-1.177-2.331-1.498-3.15-0.655
					c-0.999,1.028-2.291,2.522-3.418,4.351c-1.306,2.114-2.165,4.123-2.693,5.576c-0.408,1.127,0.433,2.556,1.703,2.895
					l17.602,4.691C187.188,206.516,187.575,205.868,187.187,205.294z"/>
				<path fill="#FFC22A" d="M186.554,207.793l-17.385-3.023c-1.295-0.225-2.23,0.813-1.916,2.129
					c0.383,1.606,1.01,3.808,1.979,6.123c1.121,2.68,2.352,4.908,3.284,6.441c0.723,1.188,2.239,1.565,3.073,0.763l11.531-11.116
					C187.535,208.712,187.186,207.902,186.554,207.793z"/>
				<path fill="#FFC22A" d="M188.115,210.489l-9.375,12.821c-0.697,0.955-0.203,2.508,1.014,3.183
					c1.486,0.821,3.563,1.859,5.867,2.688c2.67,0.957,5.008,1.495,6.651,1.79c1.272,0.23,2.185-0.808,1.847-2.101l-4.686-17.926
					C189.266,210.303,188.456,210.022,188.115,210.489z"/>
			</g>
		</g>
	</g>
	<g>
		<path fill="#4E306D" d="M149.809,130.66c0.072-0.286-6.217,2.842-6.536,3.195c-2.949,3.271-2.108,7.541-0.42,7.581
			c1.082,0.026,0.873,1.826,0.873,1.826l12.058-5.101C155.782,138.162,154.33,129.697,149.809,130.66z"/>
		<path fill="#4E306D" d="M151.294,131.32c0,0,0.431-4.697-4.817-4.697c0,0,1.59,0.433,2.412,1.295c0,0-3.347-1.966-6.989,1.054
			c-3.643,3.021-1.378,10.593-2.486,12.03s-5.421,1.726-4.895,6.374c0.528,4.649,13.69,10.472,12.844,14.318
			c0,0,5.16-7.583,1.47-11.043c0,0,1.799,1.693,1.981,3.706c0,0,0.488-3.931-2.012-5.187c-2.213-1.112-4.026-5.181-3.834-5.908
			C145.159,142.535,151.294,131.32,151.294,131.32z"/>
		<path fill="#F2AC8C" d="M146.529,153.417c-0.81-3.896-5.863-5.104-8.253-1.923c-0.43,0.571-0.732,1.249-0.83,2.048
			c-0.547,4.424,6.525,22.438,7.538,24.07c1.844,2.971,12.702,13.15,12.702,13.15l2.002-1.212c0,0-7.702-13.038-8.895-14.259
			C149.414,173.881,148.064,160.816,146.529,153.417z"/>
		<path fill="#F2AC8C" d="M156.925,189.557c0,0,2.919-1.918,4.025-1.795c1.105,0.124,4.307,1.044,4.346,1.515
			c0.037,0.471-3.567,0.764-3.809,1.021c-0.241,0.257-2.689,1.891-3.577,1.379C157.024,191.164,156.925,189.557,156.925,189.557z"/>
		<path fill="#EAEAEA" d="M136.553,232.879l-2.609-0.384c0,0-8.772-6.972-10.08-19.979c-0.132-1.324-0.16-2.668-0.061-4.022
			c0.012-0.156-0.007-0.313-0.091-0.444c0,0-0.001-0.002-0.004-0.004c-0.28-0.43-0.979-1.509-1.926-3.042
			c-0.932-1.511-2.528-4.366-4.284-7.572c-3.163-5.772-6.847-12.677-8.109-14.875c-4.025-7.008-2.085-11.72-2.085-11.72
			s11.229-1.109,14.305-3.802l1.108,1.708c0,0,2.432,10.77,2.318,10.819c0.119,0.367,0.241,0.74,0.365,1.119
			c1.92,5.926,4.128,13.332,5.331,19.364c0.679,3.395,1.036,6.352,0.844,8.366c-0.065,0.691,0.014,1.753,0.199,3.064
			C132.861,219.206,136.553,232.879,136.553,232.879z"/>
		<path fill="#4A2C6A" d="M142.025,236.179h-10.885c0,0-0.261-1.658,0.307-2.917c0.545-1.208,1.321-1.246,0.1-3.14
			c0.691,0.712,2.916,1.008,4.49,0.795c0.192,0.313,1.242,2.411,1.886,2.873C138.636,234.301,141.806,234.119,142.025,236.179z"/>
		<path fill="#C8D1CE" d="M125.4,180.681c-0.951,5.244-3.197,13.972-7.902,16.75c-3.163-5.772-6.847-12.677-8.109-14.875
			c-4.025-7.008-2.085-11.72-2.085-11.72s11.229-1.109,14.305-3.802l1.108,1.708c0,0,2.432,10.77,2.318,10.819
			C125.154,179.929,125.276,180.302,125.4,180.681z"/>
		<path fill="#744DA5" d="M145.363,151c0,0,1.54,1.601,2.243,3.518c0,0-2.457,7.05-8.193,7.934
			C139.413,162.451,143.952,150.996,145.363,151z"/>
		<path fill="#EAEAEA" d="M117.766,171.646l0.038-2.036c-4.057,0.512-13.986-4.847-13.986-4.847s-4.244,2.822-4.825,10.882
			c-0.283,3.935-2.077,20.573-2.276,25.541c-0.072,1.801-0.095,3.086-0.104,3.6c0.001,0.003,0.001,0.004,0.001,0.004
			c-0.002,0.157-0.076,0.296-0.173,0.42c-0.839,1.066-1.567,2.196-2.198,3.369c-6.19,11.517-2.952,27.163-2.952,27.163l1.438-0.365
			c0,0,5.232-16.221,8.653-23.237c0.58-1.19,1.108-2.116,1.549-2.652c1.286-1.562,2.642-4.215,3.98-7.407
			c2.525-6.035,4.979-14,6.729-20.167C113.762,181.935,117.766,171.646,117.766,171.646z"/>
		<path fill="#FFB894" d="M141.503,158.058c-6.631-1.521-2.395-10.84-2.01-10.676c0.919-0.188,2.937-1.8,4.743-4.951l0.243,0.211
			l4.073,3.571c0,0-0.943,1.39-1.735,2.749c-0.618,1.065-1.145,2.114-1.06,2.475C146.083,151.694,143.271,158.464,141.503,158.058z"
			/>
		<path fill="#F2AC8C" d="M148.55,146.214c0,0-0.941,1.387-1.733,2.75c-2.532-1.563-2.534-4.696-2.338-6.321L148.55,146.214z"/>
		<path fill="#FFB894" d="M148.664,148.002c0,0-6.148-3.42-3.959-7.218c2.189-3.795,2.871-6.792,6.889-4.77
			c4.018,2.024,3.938,3.909,3.515,5.354C154.686,142.813,150.32,148.794,148.664,148.002z"/>
		<path fill="#4E306D" d="M156.149,139.154c-0.283-1.686-1.139-1.847-1.736-1.734c-2.27-3.754-5.979-2.289-5.979-2.289
			c-1.982,2.486-4.847,2.911-4.847,2.911s0.713,1.327,3.654,2.148c0.897,0.252,1.917,0.1,2.898-0.231
			c-2.038,1.138-4.171,1.573-4.171,1.573c3.874,0.354,7.56-3.188,7.941-3.565c0.178,0.549,0.492,1.697,0.305,2.537
			c-0.255,1.142-1.269,3.209-0.65,3.478C153.564,143.981,156.57,141.682,156.149,139.154z"/>
		<path fill="#4A2C6A" d="M99.946,236.179H89.06c0,0-0.26-1.658,0.308-2.917c0.544-1.208,1.398-1.757,1.193-3.218
			c0.691,0.713,1.819,1.51,3.393,1.298c0.194,0.313,1.245,1.986,1.889,2.448C96.554,234.301,99.726,234.119,99.946,236.179z"/>
		<path fill="#744DA5" d="M142.283,165.444c-1.4,0.489-3.366,0.758-5.377,0.976c-2.863,0.313-5.818,0.525-7.365,1.143
			c-0.566,0.226-0.943,0.504-1.061,0.859c-0.671,2.018-3.628,5.131-3.628,5.131c-18.955-0.862-21.035-8.791-21.035-8.791
			c12.751-14.828,34.344-19.121,34.344-19.121s1.542-0.653,5.426,2.434c2.591,2.061,2.25,2.852,2.25,2.852
			S146.406,164.008,142.283,165.444z"/>
		<path fill="#56309E" d="M136.906,166.42c-2.863,0.313-5.818,0.525-7.365,1.143c-0.634-9.452,3.828-16.563,3.828-16.563
			S136.279,162.843,136.906,166.42z"/>
		<path fill="#FFB894" d="M139.852,149.171c0,0-7.174,0.709-7.749,5.37c-0.575,4.66,6.878,23.646,7.945,25.365
			c1.943,3.129,13.386,13.857,13.386,13.857l2.107-1.277c0,0-8.116-13.74-9.372-15.025
			C144.196,175.442,142.28,150.784,139.852,149.171z"/>
		<path fill="#744DA5" d="M132.31,157.345c0.02,0.106,6.62,2.156,10.87,0c0,0,0.908-9.802-4.163-9.271
			c-5.073,0.532-8.077,2.13-8.204,4.558C130.685,155.06,132.31,157.345,132.31,157.345z"/>
		<path fill="#FFB894" d="M152.78,192.401c0,0,2.574-2.363,3.686-2.419c1.111-0.057,4.417,0.336,4.531,0.794
			c0.113,0.458-3.396,1.329-3.594,1.621c-0.197,0.293-2.349,2.3-3.307,1.938C153.137,193.973,152.78,192.401,152.78,192.401z"/>
	</g>
</g>
<g>
	<g>
		<g>
			<g>
				<path fill="#74DAEE" d="M21.003,236.437c0,0-40.134-54.426-6.787-113.35C43.803,70.806,78.3,74.379,103.609,95.595
					c10.778,9.036,41.857,1.114,68.31-52.084c36.073-72.548,161.115-28.547,138.315,83.069
					c-11.032,54.015,33.579,55.979,10.849,109.971L21.003,236.437z"/>
				<path fill="#4A2C6A" d="M338.712,237.015H0.335c-0.185,0-0.335-0.149-0.335-0.334v-0.259c0-0.184,0.15-0.334,0.335-0.334
					h338.377c0.186,0,0.336,0.15,0.336,0.334v0.259C339.048,236.865,338.896,237.015,338.712,237.015z"/>
			</g>
		</g>
		
			<ellipse transform="matrix(0.6647 0.7471 -0.7471 0.6647 68.7807 -70.5756)" fill="#74DAEE" cx="113.014" cy="41.336" rx="29.639" ry="41.165"/>
		
			<ellipse transform="matrix(-0.7471 0.6647 -0.6647 -0.7471 132.5093 66.353)" fill="#74DAEE" cx="53.633" cy="58.383" rx="9.156" ry="12.717"/>
		
			<ellipse transform="matrix(-0.9755 0.2202 -0.2202 -0.9755 633.58 12.0443)" fill="#74DAEE" cx="316.119" cy="41.336" rx="9.156" ry="12.717"/>
	</g>
	<g>
		<g>
			<g>
				<g>
					<path fill="#7C409C" d="M172.935,84.908c-0.014,0.258-0.023,0.393-0.023,0.393s-0.042-0.131-0.123-0.382
						c-0.673-2.071-3.955-12.295-6.943-23.679c-4.13-15.75-7.697-33.719-3.004-35.38c8.89-3.149,10.529,22.016,10.552,40.584
						C173.409,75.594,173.03,83.139,172.935,84.908z"/>
					<path fill="#7C409C" d="M181.633,64.458c-3.214,7.125-6,13.12-7.599,16.711c-0.695,1.565-1.166,2.672-1.348,3.217
						c0.154-0.887,0.574-3.267,1.172-6.653c0-0.002,0-0.002,0-0.004c0.898-5.075,2.203-12.403,3.633-20.364
						c3.473-19.346,7.699-42.394,8.688-45.689c1.74-5.813,9.766-18.188,15.165-7.421C204.852,11.252,191.314,42.981,181.633,64.458z
						"/>
					<path fill="#7C409C" d="M182.281,74.625c-3.32,3.503-6.111,6.344-7.67,7.915c-0.852,0.861-1.336,1.34-1.336,1.34
						s0.85-1.813,2.299-4.707c1.367-2.734,3.27-6.434,5.491-10.481c7.28-13.266,17.999-30.27,24.646-29.288
						C213.294,40.524,194.313,61.923,182.281,74.625z"/>
					<path fill="#4A2C6A" d="M172.935,84.908c-0.047,0.002-0.098,0.007-0.146,0.011c-0.673-2.071-3.955-12.295-6.943-23.679
						c1.395,2.087,3.914,4.885,7.548,5.205C173.409,75.594,173.03,83.139,172.935,84.908z"/>
					<path fill="#4A2C6A" d="M181.633,64.458c-3.214,7.125-6,13.12-7.599,16.711c-0.122-1.002-0.176-2.165-0.176-3.436
						c0-0.002,0-0.002,0-0.004c0.898-5.075,2.203-12.403,3.633-20.364C178.051,60.145,179.214,63.223,181.633,64.458z"/>
					<path fill="#4A2C6A" d="M182.281,74.625c-3.32,3.503-6.111,6.344-7.67,7.915c0.15-0.903,0.502-2.074,0.963-3.367
						c1.367-2.734,3.27-6.434,5.491-10.481C181.117,70.388,181.357,72.917,182.281,74.625z"/>
				</g>
				<path fill="#F2A245" d="M172.683,84.391c-0.044,0.25-0.066,0.379-0.066,0.379C172.583,84.753,172.607,84.625,172.683,84.391z"/>
				<path fill="#FF7042" d="M177.142,109.972c-5.568,15.776-12.504,32.98-12.504,32.98l-15.667-4.696c0,0,1.834-11.685,4.526-24.688
					c3.141-15.161,4.933-30.458,11.375-34.438c1.773-1.096,3.688-1.604,5.561-1.741c0.943-0.07,1.885-0.04,2.803,0.083
					c0.221,0.029,0.435,0.062,0.652,0.099c0.543,0.098,1.077,0.224,1.599,0.38c0.204,0.058,0.405,0.122,0.606,0.192
					c0.693,0.236,1.363,0.52,2.002,0.844c2.712,1.379,4.896,3.454,5.754,5.697C186.421,91.427,181.351,98.05,177.142,109.972z"/>
			</g>
			<g>
				<path fill="#FFC22A" d="M169.482,125.383c-4.639,14.069-6.016,29.509-4.111,45.982c0.318,2.747,1.848,5.133,4.061,6.597
					c0.99,0.654,2.115,1.124,3.331,1.363c2.726-0.016,8.101-4.969,11.175-11.29c0.846-1.738,1.518-3.578,1.912-5.451
					c3.082-14.621,8.789-32.227,15.868-41.225c7.239-9.203,16.993-20.202,30.402-27.767c0,0,0.001-0.002,0.004-0.003
					c1.295-0.741,31.72-22.896,31.72-22.896c3.026-3.2-0.559-6.786-0.559-6.786s-2.891,2.534-11.705,7.61
					c-8.814,5.073-24.293-0.874-24.299-0.874c-4.337-1.961-9.484-1.762-13.746,0.825c-6.576,3.991-15.332,10.287-23.637,19.35
					C180.554,101.017,173.684,112.646,169.482,125.383z"/>
				<path fill="#FF9F23" d="M185.849,162.584c3.082-14.621,8.789-32.227,15.868-41.225c7.239-9.203,16.993-20.202,30.402-27.767
					c0,0,0.001-0.002,0.004-0.003c0.233-0.17,9.304-6.859-0.749-12.917c-9.84-5.927-50.002,38.235-47.438,87.363
					C184.783,166.297,185.455,164.457,185.849,162.584z"/>
			</g>
			<g>
				<path fill="#6139BC" d="M151.331,111.567c-1.127,1.771-2.511,3.487-4.144,5.096c-6.189,6.096-15.901,10.616-28.406,10.498
					c0,0-5.248-5.004-7.793-11.371l0.001-0.003c-1.765-4.416-3.053-10.92-0.001-15.746c1.966-3.111,4.495-4.583,7.059-5.358
					c4.354-1.326,8.808-0.643,10.753-2.582c1.92-1.912,4.65-3.564,7.649-4.515c0.49-0.156,0.988-0.295,1.49-0.408h0.002
					c0.209-0.05,0.415-0.095,0.626-0.136c0.005-0.001,0.009-0.001,0.013-0.001c4.625-0.903,9.563-0.019,12.997,4.103
					c0.797,0.956,1.52,2.109,2.135,3.499C155.913,99.586,154.968,105.858,151.331,111.567z"/>
				<path fill="#744DA5" d="M114.964,99.324c0,0-4.125,3.24-2.862,6.822c1.265,3.584,4.526,1.93,5.546-0.554
					C118.669,103.111,117.677,98.121,114.964,99.324z"/>
				<path fill="#4A2C76" d="M151.579,91.143c0.797,0.955,1.52,2.111,2.135,3.499c2.2,4.945,5.221,18.063,1.585,23.772l-4.876,4.461
					c-6.189,6.096-19.137,4.404-31.639,4.285c0,0-5.249-5.004-7.795-11.37l0.001-0.003c0,0,15.467,6.12,30.036-6.656
					C147.64,103.328,150.465,96.676,151.579,91.143z"/>
				<g>
					<path fill="#F2A245" d="M127.988,84.619c-2.553-1.521-5.138,0.616-8.136,1.788c-3.001,1.174-8.771,1.15-8.771,1.15
						s2.373-3.417,6.265-6.812C121.236,77.351,127.988,84.619,127.988,84.619z"/>
					<path fill="#FF9F23" d="M127.988,84.619c-2.4-1.97-6.837-3.099-9.002-2.213s-7.905,5.151-7.905,5.151s2.373-3.417,6.265-6.812
						C121.236,77.351,127.988,84.619,127.988,84.619z"/>
				</g>
				<path fill="#4A2C76" d="M128.801,92.101c1.92-1.912,4.65-3.564,7.649-4.515c-5.099,1.913-7.913,8.375-9.848,7.626
					c-2.075-0.805-8.317-0.542-8.555-0.53C122.401,93.356,126.855,94.04,128.801,92.101z"/>
				<path fill="#EE8914" d="M138.569,87.042c-0.162,0.045-0.367,0.091-0.626,0.136C138.152,87.128,138.358,87.083,138.569,87.042z"
					/>
				<g>
					<path fill="#FF9F23" d="M126.964,95.082L126.964,95.082c-1.635-3.613-0.751-8.095,0.277-11.218
						c0.82-2.486,2.391-5.843,3.164-7.438c0.163-0.337,0.652-0.303,0.77,0.052l0.312,0.941c0.312,0.944,0.196,1.976-0.317,2.826
						c-1.582,2.613-4.755,8.721-3.326,13.749C128.005,94.56,127.253,95.73,126.964,95.082z"/>
				</g>
			</g>
		</g>
		<g>
			<g>
				<path fill="#74DAEE" d="M165.187,111.37l-0.51-0.204c2.253-3.351,5.747-5.649,8.498-6.712c2.409-0.932,4.336-1.237,5.026-1.327
					c0.168-0.021,0.335,0.043,0.444,0.171l0.426,0.497c0.213,0.246,0.066,0.638-0.256,0.684
					C176.355,104.832,168.588,106.309,165.187,111.37z"/>
			</g>
			<path fill="#41B8E1" d="M155.605,112.327c2.583-6.452,6.218-4.997,10.703-3.201c4.483,1.794,8.119,3.25,5.536,9.702
				c-1.851,4.624-6.987,6.917-11.471,5.122C155.89,122.155,153.754,116.951,155.605,112.327z"/>
			<path fill="#74DAEE" d="M158.326,110.993c0.161-1.155,2.023-2.372,3.179-2.212c1.157,0.163,1.696,1.454,1.533,2.611
				c-0.162,1.156-1.754,2.15-2.911,1.988C158.971,113.218,158.165,112.15,158.326,110.993z"/>
		</g>
		<path fill="#FF7042" d="M213.298,113.952l13.85,98.658c1.719,12.237-7.783,23.165-20.141,23.165h-20.865
			c-10.536,0-18.74-9.149-17.594-19.623l11.721-91.775L213.298,113.952z"/>
		<path fill="#FF7042" d="M140.563,113.952c0,0,33.57,11.446,72.736,0l-11.539,122.136h-73.085L140.563,113.952z"/>
		<path fill="#FF4A1E" d="M140.563,113.952l13.852,98.911c1.717,12.269-7.785,23.225-20.141,23.225h-20.867
			c-10.537,0-18.74-9.173-17.593-19.675l9.92-102.461c0,0,4.887,0.953,16.777,0.953
			C134.285,114.905,140.563,113.952,140.563,113.952z"/>
		<path fill="#6139BC" d="M202.68,124.951c0-1.436-1.164-2.6-2.601-2.6c-1.436,0-2.6,1.164-2.6,2.6c0,0.96,0.521,1.798,1.296,2.248
			c1.103,8.752-0.636,15.905-4.977,20.288c-3.946,3.984-9.931,5.462-17.306,4.271c-6.486-1.047-10.755-8.224-13.193-14.06
			c-1.754-4.197-2.836-8.331-3.395-10.784c0.55-0.477,0.898-1.179,0.898-1.963c0-1.436-1.164-2.6-2.601-2.6
			c-1.436,0-2.6,1.164-2.6,2.6c0,0.969,0.53,1.811,1.314,2.259c1.398,6.416,6.575,25.461,19.101,27.482
			c1.822,0.294,3.574,0.44,5.25,0.44c6.006,0,11.006-1.883,14.643-5.555c4.975-5.024,7.012-13,5.828-22.626
			C202.314,126.476,202.68,125.756,202.68,124.951z"/>
	</g>
	<g>
		<g>
			<path fill="#FF7042" d="M246.876,150.749c1.758,0.583,3.66,0.985,5.674,1.176c7.632,0.721,16.798-1.602,25.285-8.651
				c0,0,0.803-6.35-1.006-12.124l-0.002-0.001c-1.254-4.006-3.998-9.173-8.775-10.775c-3.08-1.03-5.631-0.628-7.818,0.27
				c-3.717,1.521-6.383,4.472-8.795,4.229c-2.38-0.238-5.168,0.154-7.75,1.176c-0.424,0.165-0.84,0.348-1.248,0.551l-0.001,0.002
				c-0.17,0.082-0.338,0.166-0.505,0.256c-0.003,0.001-0.008,0.003-0.01,0.006c-3.667,1.959-6.553,5.317-6.604,10.052
				c-0.013,1.097,0.137,2.29,0.49,3.583C237.062,145.105,241.205,148.869,246.876,150.749z"/>
			<path fill="#FFBB99" d="M264.931,122.102c0,0,4.629-0.085,5.762,3.072c1.133,3.156-2.021,3.842-4.104,2.712
				S262.405,122.789,264.931,122.102z"/>
			<path fill="#FF4A1E" d="M235.322,136.912c-0.013,1.098,0.137,2.291,0.49,3.584c1.25,4.609,6.494,15.268,12.166,17.148
				c0,0,11.246,5.167,17.677,2.763c7.18-2.684,11.6-8.357,12.181-17.134c0,0,0.803-6.35-1.006-12.124h-0.001
				c0,0-7.171,12.808-24.259,12.187C244.808,143.054,239.167,140.078,235.322,136.912z"/>
			<g>
				<path fill="#F2A245" d="M247.825,119.299c0.899-2.463,3.856-2.442,6.563-3.312c2.705-0.868,6.641-4.102,6.641-4.102
					s-3.527-1.015-8.082-1.169C248.393,110.563,247.825,119.299,247.825,119.299z"/>
				<path fill="#FF9F23" d="M247.825,119.299c0.543-2.684,2.95-5.932,4.925-6.531c1.977-0.601,8.279-0.882,8.279-0.882
					s-3.527-1.015-8.082-1.169C248.393,110.563,247.825,119.299,247.825,119.299z"/>
			</g>
			<path fill="#FF4A1E" d="M251.439,124.871c-2.38-0.238-5.168,0.154-7.75,1.176c4.555-1.534,10.08,1.319,10.988-0.271
				c0.97-1.707,5.389-5.009,5.557-5.133C256.517,122.164,253.851,125.114,251.439,124.871z"/>
			<path fill="#EE8914" d="M241.935,126.855c0.137-0.061,0.303-0.143,0.505-0.256C242.27,126.682,242.102,126.766,241.935,126.855z"
				/>
			<g>
				<path fill="#FF9F23" d="M254.358,125.888L254.358,125.888c-0.896-3.384-3.999-5.958-6.444-7.521
					c-1.947-1.244-4.893-2.664-6.309-3.326c-0.301-0.139-0.615,0.158-0.498,0.466l0.313,0.817c0.313,0.819,0.965,1.462,1.791,1.758
					c2.537,0.906,8.113,3.315,9.939,7.553C253.355,126.11,254.52,126.492,254.358,125.888z"/>
			</g>
		</g>
		<path fill="#4A2C6A" d="M234.996,226.782c0,0-3.4,2.549-8.613,1.202c0,0-4.205-0.958-5.126,1.139c0,0,6.446,3.274,8.077,4.169
			c1.229,0.676,2.512,1.742,3.418,2.565c0.719,0.651,1.838,0.563,2.449-0.188c0.282-0.35,0.607-0.765,0.963-1.246
			c0.994-1.348,3.311-5.698,3.311-5.698L234.996,226.782z"/>
		<path fill="#6139BC" d="M232.998,225.487c0,0,2.072,4.777,6.854,3.898c0,0,9.758-8.058,16.452-16.429
			c2.173-2.719,4.024-5.471,5.112-7.989c4.438-10.276,16.418-25.603,24.034-33.371l-19.058-6.893c0,0-6.104,12.277-14.224,27.359
			C246.315,202.931,239.417,215.253,232.998,225.487z"/>
		<path fill="#4A2C6A" d="M252.168,192.063l4.135,20.894c2.173-2.719,4.024-5.471,5.112-7.989
			c4.438-10.276,16.418-25.603,24.034-33.371l-19.058-6.893C266.392,164.704,260.289,176.981,252.168,192.063z"/>
		<path fill="#4A2C6A" d="M267.744,229.555c0,0,0.209,3.811-4.412,4.319c0,0-2.641,0.014-2.646,2.439l13.427,0.044
			c0,0,0.392-0.979,0.484-3.075c0.073-1.609-1.558-5.817-1.558-5.817L267.744,229.555z"/>
		<path fill="#6139BC" d="M272.644,164.704c0,0-8.49,9.327-13.879,26.133c-2.932,9.145,5.375,32.133,6.994,40.121
			c0,0,5.572,0.472,9.382-1.001c0,0,0.289-16.497-1.939-29.213c-1.247-7.116,11.177-15.219,16.606-28.077
			c3.693-8.747-0.801-8.599-6.321-8.809L272.644,164.704z"/>
		<path fill="#FFB792" d="M282.444,123.086c4.724,2.667,14.394,0.208,14.394,0.208s-3.928-4.489-2.145-11.72l-3.708,1.884
			l-3.983,2.022c0,0-0.257,1.276-0.437,3.57c-0.044,0.591-0.087,1.251-0.114,1.972C284.025,121.756,282.444,123.086,282.444,123.086
			z"/>
		<path fill="#EAEAEA" d="M265.125,164.223c0,0.83,0.957,1.227,1.158,1.267c1.906,0.349,7.225,2.418,12.018,2.893
			c4.033,0.422,7.78,0.021,11.895-0.806c0.545-0.109,1.826-0.454,1.916-0.977c0.113-0.57,15.873-32.129,3.623-45.686
			c-0.289-0.318-2.707,0.255-4.92,0.78c-2.041,0.484-3.916,0.214-5.588-0.457l-2.074,1.09c-2.547,1.421-7.367,6.464-7.93,10.42
			c-0.287,2.012-1.438,3.502-1.77,5.272c-0.125,0.655-0.252,1.295-0.38,1.918c-0.252,1.223-0.51,2.386-0.775,3.492
			c-0.722,2.993-1.481,5.568-2.228,7.795c-0.797,2.362-1.576,4.328-2.271,5.973c-0.904,2.132-1.668,3.726-2.144,4.945
			C265.317,163.002,265.125,163.675,265.125,164.223z"/>
		<path fill="#C8D1CE" d="M265.655,162.143c22.248-10.482,29.952-30.609,29.952-30.609s-18.075,6.668-22.534,8.404
			c-0.252,1.223-0.51,2.386-0.775,3.492c-0.722,2.993-1.481,5.568-2.228,7.795c-0.797,2.362-1.576,4.328-2.271,5.973
			C266.894,159.329,266.13,160.923,265.655,162.143z"/>
		<g>
			<path fill="#FFB792" d="M250.566,156.604c0,0-3.094-1.268-3.803-1.167c-0.711,0.102-2.676-0.391-2.564,0.254
				c0.076,0.444,2.614,0.913,2.614,0.913s-2.835-0.638-2.614,0.024c0.15,0.457,0.752,2.272,1.689,2.866
				c1.121,0.709,3.151,0.366,5.53,0.022C255.789,158.886,250.566,156.604,250.566,156.604z"/>
			<path fill="#EAEAEA" d="M251.056,158.787c-0.711-1.854-1.035-2.695-1.035-2.695s14.525-11.84,16.006-12.856
				c1.01-0.692,11.051-8.197,15.945-14.048c2.429-2.901,6.258-4.228,9.962-3.45l3.05,0.64c3.681,0.771,4.877,5.432,2.021,7.881
				c-8.045,6.896-21.613,14.896-24.145,16.56c-6.279,4.13-20.17,9.919-20.17,9.919S251.613,160.243,251.056,158.787z"/>
		</g>
		<path fill="#F2AC8C" d="M286.565,119.051c4.646,0.261,7.665-3.574,7.665-3.574s-2.1-1.163-3.245-2.019l-3.983,2.022
			C287.001,115.48,286.745,116.757,286.565,119.051z"/>
		<path fill="#FFB792" d="M284.587,114.282c0,0,7.037,5.051,10.113,0.62c3.079-4.432,6.06-6.764,1.697-10.176
			c-4.364-3.412-6.421-2.333-7.807-1.104C287.203,104.851,282.835,112.854,284.587,114.282z"/>
		<path fill="#4A2C6A" d="M287.847,99.62c0.252-1.703,0.819-2.901,0.819-2.901s0.442,1.829,3.784,1.576
			c3.344-0.252,8.644,0.329,10.41,4.14c0.112,0.242,0.212,0.491,0.301,0.746c0.319-0.844,0.396-2.11,0.396-2.11
			c0.637,1.64,0,3.692,0,3.692l0,0c0.01,0.061,0.018,0.12,0.026,0.179c0.739,0.625,1.358,2.563,1.358,2.563
			c-0.223-0.54-0.767-0.895-1.252-1.111c0.017,2.966-1.186,5.862-3.297,6.726c-3.084,1.262-3.061,0.3-6.164,2.357
			c0,0-0.832-1.032-0.264-1.727c0.566-0.693,2.711-1.703,1.514-2.712c-1.199-1.01-1.641,0.126-2.082-0.567
			c-0.441-0.695,1.766-2.713-1.072-4.605S287.593,101.323,287.847,99.62z"/>
	</g>
	<g>
		<path fill="#4E306D" d="M80.248,16.267c-0.011-0.334-0.271-3.933-5.751-4.12c0,0,2.695,0.321,3.161,1.506
			c0,0-1.835-1.464-3.329-0.993c-1.495,0.471-2.372,3.09-2.382,3.951c-0.008,0.861,0.822,3.638,1.771,3.874
			c0.359,0.089,0.773,0.065,1.149,0.001c-0.253,0.394-0.5,0.829-0.737,1.314c-2.187,4.489,0.069,8.877,1.92,8.392
			c1.188-0.31,1.524,1.716,1.524,1.716l11.536-9.339C89.109,22.567,84.872,13.799,80.248,16.267z"/>
		<path fill="#6139BC" d="M84.265,148.525l-2.451,0.914c0,0-10.642-14.764-11.953-27.751c-0.234-2.319-0.155-4.565,0.35-6.64
			c0,0-0.104-0.595-0.286-1.645c-0.083-0.49-0.188-1.08-0.306-1.757c-0.348-1.981-0.823-4.695-1.367-7.783
			C67,96.755,65.377,87.668,64.118,80.989l0.66-0.213l7.144-2.305l1.476-4.689l5.32-1.4c0,0,1.188,2.325,2.25,13.306
			c0.196,1.44,0.373,3.028,0.508,4.751c0.414,5.257,0.444,11.779-0.506,19.235c-0.244,1.909-0.551,3.879-0.934,5.904
			c-0.28,1.485-0.322,3.507-0.204,5.829C80.367,132.025,84.265,148.525,84.265,148.525z"/>
		<path fill="#4A2C76" d="M81.476,90.44l-11.551,22.964c-0.083-0.49-0.188-1.08-0.306-1.757c-0.348-1.981-0.823-4.695-1.367-7.783
			C67,96.755,65.377,87.668,64.118,80.989l0.66-0.213l7.144-2.305l1.476-4.689l5.32-1.4c0,0,1.188,2.325,2.25,13.306
			C81.164,87.129,81.341,88.717,81.476,90.44z"/>
		<path fill="#6139BC" d="M76.395,75.329l-0.268-2.293c-4.48,1.19-16.45-3.325-16.45-3.325s-4.34,3.815-3.771,12.96
			c0.279,4.463,0.786,23.431,1.317,29.044c0.192,2.033,0.36,3.481,0.429,4.06c0.001,0.003,0.001,0.004,0.001,0.004
			c0.021,0.179-0.041,0.345-0.129,0.499c-0.782,1.326-1.429,2.706-1.959,4.119c-5.209,13.877,0.802,30.97,0.802,30.97l1.561-0.629
			c0,0,3.419-19.021,6.199-27.423c0.471-1.426,0.924-2.546,1.338-3.215c1.208-1.95,2.33-5.137,3.347-8.928
			c1.923-7.164,3.472-16.486,4.502-23.681C73.456,87.498,76.395,75.329,76.395,75.329z"/>
		<path fill="#FFB894" d="M111.69,72.4c-0.965,0.853-3.523-2.077-3.876-2.467c-0.019-0.037-0.037-0.056-0.037-0.056l0.779-2.169
			c0,0,3.355-0.13,3.913,0.426C113.025,68.691,112.747,71.491,111.69,72.4z"/>
		<path fill="#FFB894" d="M108.556,67.708l-0.334,2.244c0,0-0.148,0-0.408-0.019c-0.816-0.056-2.801-0.167-5.043-0.408
			c-3.376-0.334-7.382-0.927-8.977-1.91c-2.43-1.483-6.416-6.027-9.012-10.57c-0.075-0.111-0.13-0.223-0.186-0.333
			c-1.354-2.411-2.299-4.804-2.373-6.714c-0.057-1.169,0.074-2.169,0.315-3.041c0.316-1.15,0.834-2.059,1.373-2.745
			c0.074-0.111,0.149-0.224,0.259-0.315c0.891-1.057,1.762-1.502,1.762-1.502c0.445-0.185,0.927,0.038,1.429,0.575v0.019
			c0.407,0.427,0.852,1.076,1.279,1.891c0.019,0.019,0.037,0.037,0.037,0.056c0.093,0.167,0.186,0.352,0.297,0.556
			c0.036,0.037,0.057,0.093,0.075,0.13c0.203,0.427,0.407,0.871,0.611,1.335c2.281,4.97,4.711,12.499,6.732,14.743
			c0.872,0.964,4.858,2.855,8.029,4.265C106.7,66.966,108.556,67.708,108.556,67.708z"/>
		<path fill="#FFB894" d="M84.953,47.515c-1.407,0.652-3.105,1.096-5.159,1.208c-7.702,0.422-9.451-6.33-9.77-10.811
			c1.111-0.401,2.083-0.365,2.644-0.334c0.546,0.03,1.115,0.086,1.585,0.144c0.943-0.492,2.635-2.882,3.613-6.881l0.333,0.154
			l5.558,2.613c0,0-0.591,1.809-1.026,3.539c-0.341,1.354-0.584,2.663-0.38,3.029c0.438,0.178,0.7,0.29,0.7,0.29
			s0,0.002,0.001,0.006C83.109,40.613,84.317,43.692,84.953,47.515z"/>
		<path fill="#FF7042" d="M86.879,52.568c-0.058,0.154-0.122,0.305-0.191,0.459c-1.951,4.201-5.562,21.603-5.562,21.603
			c0.513,3.129-23.516-0.614-23.579-3.462c-0.845-3.021,3.004-7.874,5.174-10.31c0.272-0.306,0.516-0.634,0.729-0.979
			c0.536-0.869,0.876-1.849,0.983-2.873c0.427-4.039,0.265-7.823,0.301-10.125v0c0.424-0.313,0.834-0.604,1.216-0.879
			c0.583-0.427,1.1-0.825,1.481-1.229c0.417-0.44,0.679-0.89,0.709-1.399c0.022-0.384,0.011-0.778-0.03-1.172
			c-0.018-0.186-0.042-0.372-0.069-0.558c-0.3-1.954-1.117-3.728-1.117-3.728c2.067-0.836,5.742-0.338,5.742-0.338
			s-0.004,0.203-0.007,0.538c-0.012,1.343,0,4.79,0.431,5.441c0.538,0.813,10.383,4.372,10.902,3.269
			c0.512-1.084-0.89-6.164-0.942-6.356c-0.001-0.004-0.001-0.006-0.001-0.006c3.297,1.294,4.475,2.38,4.475,2.38
			C85.539,44.134,88.417,48.493,86.879,52.568z"/>
		<path fill="#F2AC8C" d="M83.757,33.608c0,0-0.591,1.806-1.026,3.539c-3.248-0.906-4.235-4.32-4.531-6.151L83.757,33.608z"/>
		<path fill="#FFB894" d="M84.441,35.521c0,0-7.772-1.799-6.578-6.622c1.194-4.823,0.996-8.303,6.008-7.359
			c5.013,0.944,5.519,3.023,5.511,4.729C89.376,27.978,86.493,35.865,84.441,35.521z"/>
		<path fill="#4E306D" d="M89.819,23.532c-0.835-1.748-1.819-1.655-2.434-1.345c-3.651-3.379-7.233-0.618-7.233-0.618
			c-1.38,3.331-4.367,4.691-4.367,4.691s1.194,1.223,4.654,1.196c1.057-0.009,2.12-0.494,3.087-1.163
			c-1.866,1.88-4.052,3.022-4.052,3.022c4.33-0.829,7.236-5.844,7.533-6.376c0.368,0.542,1.07,1.696,1.128,2.669
			c0.08,1.324-0.374,3.895,0.384,3.992C88.52,29.602,91.073,26.154,89.819,23.532z"/>
		<path fill="#FF7042" d="M87.526,42.845c0,0,1.873,3.265,2.152,4.104c0,0-2.427-0.094-3.407,1.773
			C86.271,48.723,86.036,43.285,87.526,42.845z"/>
		<path fill="#FF4A1E" d="M74.657,68.783c-4.74-0.05-8.753-4.972-11.206-8.904c0.536-0.869,0.876-1.849,0.983-2.873
			c0.427-4.039,0.265-7.823,0.301-10.125v0c0.424-0.313,0.834-0.604,1.216-0.879c0.583-0.427,1.1-0.825,1.481-1.229
			C71.313,51.332,81.082,68.852,74.657,68.783z"/>
		<path fill="#4A2C6A" d="M65.435,152.64H53.092c0,0-0.296-1.882,0.349-3.308c0.618-1.369,1.586-1.992,1.354-3.648
			c0.784,0.807,2.062,1.712,3.846,1.472c0.218,0.354,1.412,2.251,2.141,2.775C61.588,150.511,65.186,150.304,65.435,152.64z"/>
		<path fill="#4A2C6A" d="M91.933,152.64h-12.34c0,0-0.462-1.968,0.348-3.308c0.718-1.186,0.442-1.86-0.089-2.841
			c0.559,0.229,1.283,0.437,2.079,0.392c0.615-0.036,1.265-0.315,1.836-0.646c0.532,0.605,2.805,3.183,3.516,3.693
			C88.089,150.511,91.685,150.304,91.933,152.64z"/>
		<g>
			<g>
				<path fill="#4A2C76" d="M104.271,64.506l-0.604-0.149c2.005-4.123,5.573-7.258,8.501-8.886c2.562-1.426,4.682-2.073,5.443-2.281
					c0.186-0.051,0.382-0.004,0.525,0.123l0.56,0.491c0.275,0.243,0.173,0.709-0.181,0.811
					C115.8,55.397,107.3,58.279,104.271,64.506z"/>
			</g>
			<path fill="#FF4A1E" d="M93.646,67.09c1.889-7.663,6.207-6.598,11.531-5.284c5.326,1.313,9.642,2.377,7.752,10.04
				c-1.354,5.491-6.769,8.878-12.095,7.565C95.511,78.098,92.292,72.581,93.646,67.09z"/>
			<path fill="#EAEAEA" d="M96.495,65.162c0-1.325,1.902-2.987,3.229-2.987s2.134,1.369,2.134,2.693
				c0,1.327-1.635,2.696-2.961,2.696S96.495,66.489,96.495,65.162z"/>
		</g>
		<path fill="#FFB894" d="M92.57,71.361l-0.649,2.373c0,0-0.815-0.148-2.114-0.389c-0.389-0.075-0.611-0.129-0.611-0.129
			c-1.039-0.205-2.28-0.483-3.634-0.779h-0.02c-2.317-0.557-4.914-1.225-7.101-1.966c-1.54-0.538-2.875-1.112-3.784-1.687
			c-0.093-0.056-0.167-0.112-0.261-0.186c-2.169-1.576-4.746-6.212-6.749-11.183c-0.278-0.686-0.538-1.372-0.798-2.039
			c-0.927-2.485-1.668-4.933-2.113-7.047c-0.278-1.261-0.463-2.412-0.5-3.357c-0.02-0.334-0.038-0.649-0.02-0.946
			c0.038-5.377,2.707-6.12,2.707-6.12c0.057-0.018,0.111-0.037,0.186-0.055c0.463-0.075,0.946,0.241,1.447,0.853
			c0.63,0.761,1.299,2.002,1.985,3.505c1.056,2.393,2.169,5.489,3.208,8.568c0.574,1.687,1.13,3.375,1.688,4.932
			c0.315,0.947,0.629,1.836,0.927,2.652c0.574,1.557,1.094,2.819,1.558,3.616c0.297,0.521,1.149,1.243,2.28,2.059
			c1.965,1.428,4.84,3.153,7.343,4.563c1.039,0.593,2.021,1.131,2.838,1.576C91.699,70.897,92.57,71.361,92.57,71.361z"/>
		<path fill="#FF7042" d="M70.533,42.218c-3.57-0.984-6.324,1.803-6.324,1.803c0.044-5.368,2.718-6.104,2.718-6.104
			C68.002,37.471,69.248,39.333,70.533,42.218z"/>
		<path fill="#FFB894" d="M92.57,71.361c0,0,1.165,0.026,1.822-0.377c0.659-0.402,2.525-0.951,3.367-0.859c0,0,0.311,0.128,0.2,0.42
			c-0.108,0.292-1.48,0.53-1.48,1.08c0,0,1.719-0.055,2.231-0.275c0.513-0.22,2.489,0.285,2.873,0.512
			c0.385,0.228-2.506,1.968-3.787,2.671c-1.28,0.702-5.875-0.8-5.875-0.8L92.57,71.361z"/>
	</g>
	<g>
		<g>
			<g>
				<path fill="#FF9F23" d="M91.699,236.363c-0.421,0-0.781-0.345-0.853-0.812l-4.175-27.459l-6.008-39.49l-1.678-11.043
					l4.278-0.142l0.741,6.41l5.213,45.049l3.09,26.703C92.354,235.994,92.069,236.363,91.699,236.363z"/>
			</g>
			<g>
				<path fill="#FF9F23" d="M47.918,157.56l-1.904,12.517v0.001l-5.258,34.57l-4.702,30.904c-0.07,0.467-0.431,0.812-0.851,0.812
					c-0.371,0-0.657-0.369-0.608-0.783l4.054-35.033l4.335-37.476l0.655-5.653L47.918,157.56z"/>
			</g>
			<path fill="#EE8914" d="M46.014,170.076c0.25-5.379-3.029-7.005-3.029-7.005l0.655-5.653l4.278,0.142L46.014,170.076z"/>
			<path fill="#EE8914" d="M84.004,163.828c-2.772,1.42-3.341,4.774-3.341,4.774l-1.678-11.043l4.278-0.142L84.004,163.828z"/>
		</g>
		<path fill="#FF9F23" d="M95.955,157.56H30.946c-1.034,0-1.881-0.847-1.881-1.882v-0.571c0-1.036,0.847-1.883,1.881-1.883h65.008
			c1.034,0,1.881,0.847,1.881,1.883v0.571C97.836,156.713,96.989,157.56,95.955,157.56z"/>
	</g>
	<path fill="#FF9F23" d="M308.033,235.984h-15.811c-0.848-0.719,0.586-2.351,2.084-2.461c0.65-0.049,1.473,0.087,2.413,0.286
		c0.218-2.891,1.461-15.882,6.144-15.361c5.266,0.585,0,5.723-1.488,8.764c-1.102,2.253-2.266,5.483-2.797,7.009
		c0.428,0.092,0.87,0.183,1.322,0.266c0.697-2.144,3.295-9.351,6.596-8.932c3.879,0.492,2.319,3.382-0.429,5.099
		c-2.017,1.261-4.491,3.054-5.669,3.92c0.997,0.163,2.037,0.272,3.093,0.247C306.199,234.757,307.521,235.555,308.033,235.984z"/>
	<g>
		<path fill="#FFDD71" d="M149.325,211.639c0.678,3.402,1.51,6.347,2.475,8.891c7.488,19.728,23.094,15.475,38.331,15.475
			c17.198,0,17.166-11.52,17.166-27.093c0-15.574-9.529-27.947-26.728-27.947C163.369,180.964,146.284,196.367,149.325,211.639z"/>
		<g>
			<path fill="#EE8914" d="M217.763,213.973c0.105-15.777-11.365-28.452-26.683-32.661c-15.63-4.293-28.61,6.21-28.586,21.511
				c0.024,15.372,13.273,30.596,29.128,32.642C206.956,237.443,217.66,229.317,217.763,213.973z"/>
			<path fill="#EAEAEA" d="M216.386,213.592c0.102-14.991-10.799-27.035-25.354-31.033c-14.852-4.079-27.186,5.898-27.162,20.439
				c0.023,14.604,12.613,29.07,27.678,31.015C206.119,235.894,216.288,228.173,216.386,213.592z"/>
			<g>
				<path fill="#FFC22A" d="M189.88,204.813l4.26-16.031c0.316-1.192-0.613-2.6-1.906-2.88c-1.578-0.344-3.748-0.711-6.057-0.789
					c-2.67-0.091-4.914,0.134-6.465,0.375c-1.201,0.185-1.684,1.533-0.974,2.729l9.827,16.568
					C188.917,205.378,189.726,205.395,189.88,204.813z"/>
				<path fill="#FFC22A" d="M193.57,209.732l15.971,9.982c1.188,0.742,2.545,0.283,2.781-0.944c0.285-1.496,0.573-3.592,0.573-5.929
					c0-2.705-0.296-5.082-0.585-6.755c-0.225-1.298-1.57-2.264-2.727-1.955l-16.03,4.265
					C192.978,208.549,192.99,209.37,193.57,209.732z"/>
				<path fill="#FFC22A" d="M192.583,206.766l15.795-4.201c1.176-0.313,1.547-1.733,0.757-2.912
					c-0.962-1.438-2.368-3.367-4.104-5.268c-2.012-2.199-3.935-3.905-5.329-5.044c-1.081-0.882-2.506-0.628-2.884,0.515
					l-5.236,15.836C191.394,206.257,192.01,206.918,192.583,206.766z"/>
				<path fill="#FFC22A" d="M191.065,211.217l4.884,17.638c0.365,1.313,1.787,2.174,2.916,1.763
					c1.377-0.502,3.221-1.293,5.021-2.433c2.082-1.32,3.681-2.718,4.742-3.764c0.824-0.813,0.506-2.36-0.641-3.135l-15.906-10.734
					C191.511,210.168,190.886,210.575,191.065,211.217z"/>
				<path fill="#FFC22A" d="M187.187,205.294l-10.672-15.803c-0.793-1.177-2.331-1.498-3.15-0.655
					c-0.999,1.028-2.291,2.522-3.418,4.351c-1.306,2.114-2.165,4.123-2.693,5.576c-0.408,1.127,0.433,2.556,1.703,2.895
					l17.602,4.691C187.188,206.516,187.575,205.868,187.187,205.294z"/>
				<path fill="#FFC22A" d="M186.554,207.793l-17.385-3.023c-1.295-0.225-2.23,0.813-1.916,2.129
					c0.383,1.606,1.01,3.808,1.979,6.123c1.121,2.68,2.352,4.908,3.284,6.441c0.723,1.188,2.239,1.565,3.073,0.763l11.531-11.116
					C187.535,208.712,187.186,207.902,186.554,207.793z"/>
				<path fill="#FFC22A" d="M188.115,210.489l-9.375,12.821c-0.697,0.955-0.203,2.508,1.014,3.183
					c1.486,0.821,3.563,1.859,5.867,2.688c2.67,0.957,5.008,1.495,6.651,1.79c1.272,0.23,2.185-0.808,1.847-2.101l-4.686-17.926
					C189.266,210.303,188.456,210.022,188.115,210.489z"/>
			</g>
		</g>
	</g>
	<g>
		<path fill="#4E306D" d="M149.809,130.66c0.072-0.286-6.217,2.842-6.536,3.195c-2.949,3.271-2.108,7.541-0.42,7.581
			c1.082,0.026,0.873,1.826,0.873,1.826l12.058-5.101C155.782,138.162,154.33,129.697,149.809,130.66z"/>
		<path fill="#4E306D" d="M151.294,131.32c0,0,0.431-4.697-4.817-4.697c0,0,1.59,0.433,2.412,1.295c0,0-3.347-1.966-6.989,1.054
			c-3.643,3.021-1.378,10.593-2.486,12.03s-5.421,1.726-4.895,6.374c0.528,4.649,13.69,10.472,12.844,14.318
			c0,0,5.16-7.583,1.47-11.043c0,0,1.799,1.693,1.981,3.706c0,0,0.488-3.931-2.012-5.187c-2.213-1.112-4.026-5.181-3.834-5.908
			C145.159,142.535,151.294,131.32,151.294,131.32z"/>
		<path fill="#F2AC8C" d="M146.529,153.417c-0.81-3.896-5.863-5.104-8.253-1.923c-0.43,0.571-0.732,1.249-0.83,2.048
			c-0.547,4.424,6.525,22.438,7.538,24.07c1.844,2.971,12.702,13.15,12.702,13.15l2.002-1.212c0,0-7.702-13.038-8.895-14.259
			C149.414,173.881,148.064,160.816,146.529,153.417z"/>
		<path fill="#F2AC8C" d="M156.925,189.557c0,0,2.919-1.918,4.025-1.795c1.105,0.124,4.307,1.044,4.346,1.515
			c0.037,0.471-3.567,0.764-3.809,1.021c-0.241,0.257-2.689,1.891-3.577,1.379C157.024,191.164,156.925,189.557,156.925,189.557z"/>
		<path fill="#EAEAEA" d="M136.553,232.879l-2.609-0.384c0,0-8.772-6.972-10.08-19.979c-0.132-1.324-0.16-2.668-0.061-4.022
			c0.012-0.156-0.007-0.313-0.091-0.444c0,0-0.001-0.002-0.004-0.004c-0.28-0.43-0.979-1.509-1.926-3.042
			c-0.932-1.511-2.528-4.366-4.284-7.572c-3.163-5.772-6.847-12.677-8.109-14.875c-4.025-7.008-2.085-11.72-2.085-11.72
			s11.229-1.109,14.305-3.802l1.108,1.708c0,0,2.432,10.77,2.318,10.819c0.119,0.367,0.241,0.74,0.365,1.119
			c1.92,5.926,4.128,13.332,5.331,19.364c0.679,3.395,1.036,6.352,0.844,8.366c-0.065,0.691,0.014,1.753,0.199,3.064
			C132.861,219.206,136.553,232.879,136.553,232.879z"/>
		<path fill="#4A2C6A" d="M142.025,236.179h-10.885c0,0-0.261-1.658,0.307-2.917c0.545-1.208,1.321-1.246,0.1-3.14
			c0.691,0.712,2.916,1.008,4.49,0.795c0.192,0.313,1.242,2.411,1.886,2.873C138.636,234.301,141.806,234.119,142.025,236.179z"/>
		<path fill="#C8D1CE" d="M125.4,180.681c-0.951,5.244-3.197,13.972-7.902,16.75c-3.163-5.772-6.847-12.677-8.109-14.875
			c-4.025-7.008-2.085-11.72-2.085-11.72s11.229-1.109,14.305-3.802l1.108,1.708c0,0,2.432,10.77,2.318,10.819
			C125.154,179.929,125.276,180.302,125.4,180.681z"/>
		<path fill="#744DA5" d="M145.363,151c0,0,1.54,1.601,2.243,3.518c0,0-2.457,7.05-8.193,7.934
			C139.413,162.451,143.952,150.996,145.363,151z"/>
		<path fill="#EAEAEA" d="M117.766,171.646l0.038-2.036c-4.057,0.512-13.986-4.847-13.986-4.847s-4.244,2.822-4.825,10.882
			c-0.283,3.935-2.077,20.573-2.276,25.541c-0.072,1.801-0.095,3.086-0.104,3.6c0.001,0.003,0.001,0.004,0.001,0.004
			c-0.002,0.157-0.076,0.296-0.173,0.42c-0.839,1.066-1.567,2.196-2.198,3.369c-6.19,11.517-2.952,27.163-2.952,27.163l1.438-0.365
			c0,0,5.232-16.221,8.653-23.237c0.58-1.19,1.108-2.116,1.549-2.652c1.286-1.562,2.642-4.215,3.98-7.407
			c2.525-6.035,4.979-14,6.729-20.167C113.762,181.935,117.766,171.646,117.766,171.646z"/>
		<path fill="#FFB894" d="M141.503,158.058c-6.631-1.521-2.395-10.84-2.01-10.676c0.919-0.188,2.937-1.8,4.743-4.951l0.243,0.211
			l4.073,3.571c0,0-0.943,1.39-1.735,2.749c-0.618,1.065-1.145,2.114-1.06,2.475C146.083,151.694,143.271,158.464,141.503,158.058z"
			/>
		<path fill="#F2AC8C" d="M148.55,146.214c0,0-0.941,1.387-1.733,2.75c-2.532-1.563-2.534-4.696-2.338-6.321L148.55,146.214z"/>
		<path fill="#FFB894" d="M148.664,148.002c0,0-6.148-3.42-3.959-7.218c2.189-3.795,2.871-6.792,6.889-4.77
			c4.018,2.024,3.938,3.909,3.515,5.354C154.686,142.813,150.32,148.794,148.664,148.002z"/>
		<path fill="#4E306D" d="M156.149,139.154c-0.283-1.686-1.139-1.847-1.736-1.734c-2.27-3.754-5.979-2.289-5.979-2.289
			c-1.982,2.486-4.847,2.911-4.847,2.911s0.713,1.327,3.654,2.148c0.897,0.252,1.917,0.1,2.898-0.231
			c-2.038,1.138-4.171,1.573-4.171,1.573c3.874,0.354,7.56-3.188,7.941-3.565c0.178,0.549,0.492,1.697,0.305,2.537
			c-0.255,1.142-1.269,3.209-0.65,3.478C153.564,143.981,156.57,141.682,156.149,139.154z"/>
		<path fill="#4A2C6A" d="M99.946,236.179H89.06c0,0-0.26-1.658,0.308-2.917c0.544-1.208,1.398-1.757,1.193-3.218
			c0.691,0.713,1.819,1.51,3.393,1.298c0.194,0.313,1.245,1.986,1.889,2.448C96.554,234.301,99.726,234.119,99.946,236.179z"/>
		<path fill="#744DA5" d="M142.283,165.444c-1.4,0.489-3.366,0.758-5.377,0.976c-2.863,0.313-5.818,0.525-7.365,1.143
			c-0.566,0.226-0.943,0.504-1.061,0.859c-0.671,2.018-3.628,5.131-3.628,5.131c-18.955-0.862-21.035-8.791-21.035-8.791
			c12.751-14.828,34.344-19.121,34.344-19.121s1.542-0.653,5.426,2.434c2.591,2.061,2.25,2.852,2.25,2.852
			S146.406,164.008,142.283,165.444z"/>
		<path fill="#56309E" d="M136.906,166.42c-2.863,0.313-5.818,0.525-7.365,1.143c-0.634-9.452,3.828-16.563,3.828-16.563
			S136.279,162.843,136.906,166.42z"/>
		<path fill="#FFB894" d="M139.852,149.171c0,0-7.174,0.709-7.749,5.37c-0.575,4.66,6.878,23.646,7.945,25.365
			c1.943,3.129,13.386,13.857,13.386,13.857l2.107-1.277c0,0-8.116-13.74-9.372-15.025
			C144.196,175.442,142.28,150.784,139.852,149.171z"/>
		<path fill="#744DA5" d="M132.31,157.345c0.02,0.106,6.62,2.156,10.87,0c0,0,0.908-9.802-4.163-9.271
			c-5.073,0.532-8.077,2.13-8.204,4.558C130.685,155.06,132.31,157.345,132.31,157.345z"/>
		<path fill="#FFB894" d="M152.78,192.401c0,0,2.574-2.363,3.686-2.419c1.111-0.057,4.417,0.336,4.531,0.794
			c0.113,0.458-3.396,1.329-3.594,1.621c-0.197,0.293-2.349,2.3-3.307,1.938C153.137,193.973,152.78,192.401,152.78,192.401z"/>
	</g>
</g>
<g>
	<g>
		<g>
			<g>
				<path fill="#74DAEE" d="M21.003,236.437c0,0-40.134-54.426-6.787-113.35C43.803,70.806,78.3,74.379,103.609,95.595
					c10.778,9.036,41.857,1.114,68.31-52.084c36.073-72.548,161.115-28.547,138.315,83.069
					c-11.032,54.015,33.579,55.979,10.849,109.971L21.003,236.437z"/>
				<path fill="#4A2C6A" d="M338.712,237.015H0.335c-0.185,0-0.335-0.149-0.335-0.334v-0.259c0-0.184,0.15-0.334,0.335-0.334
					h338.377c0.186,0,0.336,0.15,0.336,0.334v0.259C339.048,236.865,338.896,237.015,338.712,237.015z"/>
			</g>
		</g>
		
			<ellipse transform="matrix(0.6647 0.7471 -0.7471 0.6647 68.7807 -70.5756)" fill="#74DAEE" cx="113.014" cy="41.336" rx="29.639" ry="41.165"/>
		
			<ellipse transform="matrix(-0.7471 0.6647 -0.6647 -0.7471 132.5093 66.353)" fill="#74DAEE" cx="53.633" cy="58.383" rx="9.156" ry="12.717"/>
		
			<ellipse transform="matrix(-0.9755 0.2202 -0.2202 -0.9755 633.58 12.0443)" fill="#74DAEE" cx="316.119" cy="41.336" rx="9.156" ry="12.717"/>
	</g>
	<g>
		<g>
			<g>
				<g>
					<path fill="#7C409C" d="M172.935,84.908c-0.014,0.258-0.023,0.393-0.023,0.393s-0.042-0.131-0.123-0.382
						c-0.673-2.071-3.955-12.295-6.943-23.679c-4.13-15.75-7.697-33.719-3.004-35.38c8.89-3.149,10.529,22.016,10.552,40.584
						C173.409,75.594,173.03,83.139,172.935,84.908z"/>
					<path fill="#7C409C" d="M181.633,64.458c-3.214,7.125-6,13.12-7.599,16.711c-0.695,1.565-1.166,2.672-1.348,3.217
						c0.154-0.887,0.574-3.267,1.172-6.653c0-0.002,0-0.002,0-0.004c0.898-5.075,2.203-12.403,3.633-20.364
						c3.473-19.346,7.699-42.394,8.688-45.689c1.74-5.813,9.766-18.188,15.165-7.421C204.852,11.252,191.314,42.981,181.633,64.458z
						"/>
					<path fill="#7C409C" d="M182.281,74.625c-3.32,3.503-6.111,6.344-7.67,7.915c-0.852,0.861-1.336,1.34-1.336,1.34
						s0.85-1.813,2.299-4.707c1.367-2.734,3.27-6.434,5.491-10.481c7.28-13.266,17.999-30.27,24.646-29.288
						C213.294,40.524,194.313,61.923,182.281,74.625z"/>
					<path fill="#4A2C6A" d="M172.935,84.908c-0.047,0.002-0.098,0.007-0.146,0.011c-0.673-2.071-3.955-12.295-6.943-23.679
						c1.395,2.087,3.914,4.885,7.548,5.205C173.409,75.594,173.03,83.139,172.935,84.908z"/>
					<path fill="#4A2C6A" d="M181.633,64.458c-3.214,7.125-6,13.12-7.599,16.711c-0.122-1.002-0.176-2.165-0.176-3.436
						c0-0.002,0-0.002,0-0.004c0.898-5.075,2.203-12.403,3.633-20.364C178.051,60.145,179.214,63.223,181.633,64.458z"/>
					<path fill="#4A2C6A" d="M182.281,74.625c-3.32,3.503-6.111,6.344-7.67,7.915c0.15-0.903,0.502-2.074,0.963-3.367
						c1.367-2.734,3.27-6.434,5.491-10.481C181.117,70.388,181.357,72.917,182.281,74.625z"/>
				</g>
				<path fill="#F2A245" d="M172.683,84.391c-0.044,0.25-0.066,0.379-0.066,0.379C172.583,84.753,172.607,84.625,172.683,84.391z"/>
				<path fill="#FF7042" d="M177.142,109.972c-5.568,15.776-12.504,32.98-12.504,32.98l-15.667-4.696c0,0,1.834-11.685,4.526-24.688
					c3.141-15.161,4.933-30.458,11.375-34.438c1.773-1.096,3.688-1.604,5.561-1.741c0.943-0.07,1.885-0.04,2.803,0.083
					c0.221,0.029,0.435,0.062,0.652,0.099c0.543,0.098,1.077,0.224,1.599,0.38c0.204,0.058,0.405,0.122,0.606,0.192
					c0.693,0.236,1.363,0.52,2.002,0.844c2.712,1.379,4.896,3.454,5.754,5.697C186.421,91.427,181.351,98.05,177.142,109.972z"/>
			</g>
			<g>
				<path fill="#FFC22A" d="M169.482,125.383c-4.639,14.069-6.016,29.509-4.111,45.982c0.318,2.747,1.848,5.133,4.061,6.597
					c0.99,0.654,2.115,1.124,3.331,1.363c2.726-0.016,8.101-4.969,11.175-11.29c0.846-1.738,1.518-3.578,1.912-5.451
					c3.082-14.621,8.789-32.227,15.868-41.225c7.239-9.203,16.993-20.202,30.402-27.767c0,0,0.001-0.002,0.004-0.003
					c1.295-0.741,31.72-22.896,31.72-22.896c3.026-3.2-0.559-6.786-0.559-6.786s-2.891,2.534-11.705,7.61
					c-8.814,5.073-24.293-0.874-24.299-0.874c-4.337-1.961-9.484-1.762-13.746,0.825c-6.576,3.991-15.332,10.287-23.637,19.35
					C180.554,101.017,173.684,112.646,169.482,125.383z"/>
				<path fill="#FF9F23" d="M185.849,162.584c3.082-14.621,8.789-32.227,15.868-41.225c7.239-9.203,16.993-20.202,30.402-27.767
					c0,0,0.001-0.002,0.004-0.003c0.233-0.17,9.304-6.859-0.749-12.917c-9.84-5.927-50.002,38.235-47.438,87.363
					C184.783,166.297,185.455,164.457,185.849,162.584z"/>
			</g>
			<g>
				<path fill="#6139BC" d="M151.331,111.567c-1.127,1.771-2.511,3.487-4.144,5.096c-6.189,6.096-15.901,10.616-28.406,10.498
					c0,0-5.248-5.004-7.793-11.371l0.001-0.003c-1.765-4.416-3.053-10.92-0.001-15.746c1.966-3.111,4.495-4.583,7.059-5.358
					c4.354-1.326,8.808-0.643,10.753-2.582c1.92-1.912,4.65-3.564,7.649-4.515c0.49-0.156,0.988-0.295,1.49-0.408h0.002
					c0.209-0.05,0.415-0.095,0.626-0.136c0.005-0.001,0.009-0.001,0.013-0.001c4.625-0.903,9.563-0.019,12.997,4.103
					c0.797,0.956,1.52,2.109,2.135,3.499C155.913,99.586,154.968,105.858,151.331,111.567z"/>
				<path fill="#744DA5" d="M114.964,99.324c0,0-4.125,3.24-2.862,6.822c1.265,3.584,4.526,1.93,5.546-0.554
					C118.669,103.111,117.677,98.121,114.964,99.324z"/>
				<path fill="#4A2C76" d="M151.579,91.143c0.797,0.955,1.52,2.111,2.135,3.499c2.2,4.945,5.221,18.063,1.585,23.772l-4.876,4.461
					c-6.189,6.096-19.137,4.404-31.639,4.285c0,0-5.249-5.004-7.795-11.37l0.001-0.003c0,0,15.467,6.12,30.036-6.656
					C147.64,103.328,150.465,96.676,151.579,91.143z"/>
				<g>
					<path fill="#F2A245" d="M127.988,84.619c-2.553-1.521-5.138,0.616-8.136,1.788c-3.001,1.174-8.771,1.15-8.771,1.15
						s2.373-3.417,6.265-6.812C121.236,77.351,127.988,84.619,127.988,84.619z"/>
					<path fill="#FF9F23" d="M127.988,84.619c-2.4-1.97-6.837-3.099-9.002-2.213s-7.905,5.151-7.905,5.151s2.373-3.417,6.265-6.812
						C121.236,77.351,127.988,84.619,127.988,84.619z"/>
				</g>
				<path fill="#4A2C76" d="M128.801,92.101c1.92-1.912,4.65-3.564,7.649-4.515c-5.099,1.913-7.913,8.375-9.848,7.626
					c-2.075-0.805-8.317-0.542-8.555-0.53C122.401,93.356,126.855,94.04,128.801,92.101z"/>
				<path fill="#EE8914" d="M138.569,87.042c-0.162,0.045-0.367,0.091-0.626,0.136C138.152,87.128,138.358,87.083,138.569,87.042z"
					/>
				<g>
					<path fill="#FF9F23" d="M126.964,95.082L126.964,95.082c-1.635-3.613-0.751-8.095,0.277-11.218
						c0.82-2.486,2.391-5.843,3.164-7.438c0.163-0.337,0.652-0.303,0.77,0.052l0.312,0.941c0.312,0.944,0.196,1.976-0.317,2.826
						c-1.582,2.613-4.755,8.721-3.326,13.749C128.005,94.56,127.253,95.73,126.964,95.082z"/>
				</g>
			</g>
		</g>
		<g>
			<g>
				<path fill="#74DAEE" d="M165.187,111.37l-0.51-0.204c2.253-3.351,5.747-5.649,8.498-6.712c2.409-0.932,4.336-1.237,5.026-1.327
					c0.168-0.021,0.335,0.043,0.444,0.171l0.426,0.497c0.213,0.246,0.066,0.638-0.256,0.684
					C176.355,104.832,168.588,106.309,165.187,111.37z"/>
			</g>
			<path fill="#41B8E1" d="M155.605,112.327c2.583-6.452,6.218-4.997,10.703-3.201c4.483,1.794,8.119,3.25,5.536,9.702
				c-1.851,4.624-6.987,6.917-11.471,5.122C155.89,122.155,153.754,116.951,155.605,112.327z"/>
			<path fill="#74DAEE" d="M158.326,110.993c0.161-1.155,2.023-2.372,3.179-2.212c1.157,0.163,1.696,1.454,1.533,2.611
				c-0.162,1.156-1.754,2.15-2.911,1.988C158.971,113.218,158.165,112.15,158.326,110.993z"/>
		</g>
		<path fill="#FF7042" d="M213.298,113.952l13.85,98.658c1.719,12.237-7.783,23.165-20.141,23.165h-20.865
			c-10.536,0-18.74-9.149-17.594-19.623l11.721-91.775L213.298,113.952z"/>
		<path fill="#FF7042" d="M140.563,113.952c0,0,33.57,11.446,72.736,0l-11.539,122.136h-73.085L140.563,113.952z"/>
		<path fill="#FF4A1E" d="M140.563,113.952l13.852,98.911c1.717,12.269-7.785,23.225-20.141,23.225h-20.867
			c-10.537,0-18.74-9.173-17.593-19.675l9.92-102.461c0,0,4.887,0.953,16.777,0.953
			C134.285,114.905,140.563,113.952,140.563,113.952z"/>
		<path fill="#6139BC" d="M202.68,124.951c0-1.436-1.164-2.6-2.601-2.6c-1.436,0-2.6,1.164-2.6,2.6c0,0.96,0.521,1.798,1.296,2.248
			c1.103,8.752-0.636,15.905-4.977,20.288c-3.946,3.984-9.931,5.462-17.306,4.271c-6.486-1.047-10.755-8.224-13.193-14.06
			c-1.754-4.197-2.836-8.331-3.395-10.784c0.55-0.477,0.898-1.179,0.898-1.963c0-1.436-1.164-2.6-2.601-2.6
			c-1.436,0-2.6,1.164-2.6,2.6c0,0.969,0.53,1.811,1.314,2.259c1.398,6.416,6.575,25.461,19.101,27.482
			c1.822,0.294,3.574,0.44,5.25,0.44c6.006,0,11.006-1.883,14.643-5.555c4.975-5.024,7.012-13,5.828-22.626
			C202.314,126.476,202.68,125.756,202.68,124.951z"/>
	</g>
	<g>
		<g>
			<path fill="#FF7042" d="M246.876,150.749c1.758,0.583,3.66,0.985,5.674,1.176c7.632,0.721,16.798-1.602,25.285-8.651
				c0,0,0.803-6.35-1.006-12.124l-0.002-0.001c-1.254-4.006-3.998-9.173-8.775-10.775c-3.08-1.03-5.631-0.628-7.818,0.27
				c-3.717,1.521-6.383,4.472-8.795,4.229c-2.38-0.238-5.168,0.154-7.75,1.176c-0.424,0.165-0.84,0.348-1.248,0.551l-0.001,0.002
				c-0.17,0.082-0.338,0.166-0.505,0.256c-0.003,0.001-0.008,0.003-0.01,0.006c-3.667,1.959-6.553,5.317-6.604,10.052
				c-0.013,1.097,0.137,2.29,0.49,3.583C237.062,145.105,241.205,148.869,246.876,150.749z"/>
			<path fill="#FFBB99" d="M264.931,122.102c0,0,4.629-0.085,5.762,3.072c1.133,3.156-2.021,3.842-4.104,2.712
				S262.405,122.789,264.931,122.102z"/>
			<path fill="#FF4A1E" d="M235.322,136.912c-0.013,1.098,0.137,2.291,0.49,3.584c1.25,4.609,6.494,15.268,12.166,17.148
				c0,0,11.246,5.167,17.677,2.763c7.18-2.684,11.6-8.357,12.181-17.134c0,0,0.803-6.35-1.006-12.124h-0.001
				c0,0-7.171,12.808-24.259,12.187C244.808,143.054,239.167,140.078,235.322,136.912z"/>
			<g>
				<path fill="#F2A245" d="M247.825,119.299c0.899-2.463,3.856-2.442,6.563-3.312c2.705-0.868,6.641-4.102,6.641-4.102
					s-3.527-1.015-8.082-1.169C248.393,110.563,247.825,119.299,247.825,119.299z"/>
				<path fill="#FF9F23" d="M247.825,119.299c0.543-2.684,2.95-5.932,4.925-6.531c1.977-0.601,8.279-0.882,8.279-0.882
					s-3.527-1.015-8.082-1.169C248.393,110.563,247.825,119.299,247.825,119.299z"/>
			</g>
			<path fill="#FF4A1E" d="M251.439,124.871c-2.38-0.238-5.168,0.154-7.75,1.176c4.555-1.534,10.08,1.319,10.988-0.271
				c0.97-1.707,5.389-5.009,5.557-5.133C256.517,122.164,253.851,125.114,251.439,124.871z"/>
			<path fill="#EE8914" d="M241.935,126.855c0.137-0.061,0.303-0.143,0.505-0.256C242.27,126.682,242.102,126.766,241.935,126.855z"
				/>
			<g>
				<path fill="#FF9F23" d="M254.358,125.888L254.358,125.888c-0.896-3.384-3.999-5.958-6.444-7.521
					c-1.947-1.244-4.893-2.664-6.309-3.326c-0.301-0.139-0.615,0.158-0.498,0.466l0.313,0.817c0.313,0.819,0.965,1.462,1.791,1.758
					c2.537,0.906,8.113,3.315,9.939,7.553C253.355,126.11,254.52,126.492,254.358,125.888z"/>
			</g>
		</g>
		<path fill="#4A2C6A" d="M234.996,226.782c0,0-3.4,2.549-8.613,1.202c0,0-4.205-0.958-5.126,1.139c0,0,6.446,3.274,8.077,4.169
			c1.229,0.676,2.512,1.742,3.418,2.565c0.719,0.651,1.838,0.563,2.449-0.188c0.282-0.35,0.607-0.765,0.963-1.246
			c0.994-1.348,3.311-5.698,3.311-5.698L234.996,226.782z"/>
		<path fill="#6139BC" d="M232.998,225.487c0,0,2.072,4.777,6.854,3.898c0,0,9.758-8.058,16.452-16.429
			c2.173-2.719,4.024-5.471,5.112-7.989c4.438-10.276,16.418-25.603,24.034-33.371l-19.058-6.893c0,0-6.104,12.277-14.224,27.359
			C246.315,202.931,239.417,215.253,232.998,225.487z"/>
		<path fill="#4A2C6A" d="M252.168,192.063l4.135,20.894c2.173-2.719,4.024-5.471,5.112-7.989
			c4.438-10.276,16.418-25.603,24.034-33.371l-19.058-6.893C266.392,164.704,260.289,176.981,252.168,192.063z"/>
		<path fill="#4A2C6A" d="M267.744,229.555c0,0,0.209,3.811-4.412,4.319c0,0-2.641,0.014-2.646,2.439l13.427,0.044
			c0,0,0.392-0.979,0.484-3.075c0.073-1.609-1.558-5.817-1.558-5.817L267.744,229.555z"/>
		<path fill="#6139BC" d="M272.644,164.704c0,0-8.49,9.327-13.879,26.133c-2.932,9.145,5.375,32.133,6.994,40.121
			c0,0,5.572,0.472,9.382-1.001c0,0,0.289-16.497-1.939-29.213c-1.247-7.116,11.177-15.219,16.606-28.077
			c3.693-8.747-0.801-8.599-6.321-8.809L272.644,164.704z"/>
		<path fill="#FFB792" d="M282.444,123.086c4.724,2.667,14.394,0.208,14.394,0.208s-3.928-4.489-2.145-11.72l-3.708,1.884
			l-3.983,2.022c0,0-0.257,1.276-0.437,3.57c-0.044,0.591-0.087,1.251-0.114,1.972C284.025,121.756,282.444,123.086,282.444,123.086
			z"/>
		<path fill="#EAEAEA" d="M265.125,164.223c0,0.83,0.957,1.227,1.158,1.267c1.906,0.349,7.225,2.418,12.018,2.893
			c4.033,0.422,7.78,0.021,11.895-0.806c0.545-0.109,1.826-0.454,1.916-0.977c0.113-0.57,15.873-32.129,3.623-45.686
			c-0.289-0.318-2.707,0.255-4.92,0.78c-2.041,0.484-3.916,0.214-5.588-0.457l-2.074,1.09c-2.547,1.421-7.367,6.464-7.93,10.42
			c-0.287,2.012-1.438,3.502-1.77,5.272c-0.125,0.655-0.252,1.295-0.38,1.918c-0.252,1.223-0.51,2.386-0.775,3.492
			c-0.722,2.993-1.481,5.568-2.228,7.795c-0.797,2.362-1.576,4.328-2.271,5.973c-0.904,2.132-1.668,3.726-2.144,4.945
			C265.317,163.002,265.125,163.675,265.125,164.223z"/>
		<path fill="#C8D1CE" d="M265.655,162.143c22.248-10.482,29.952-30.609,29.952-30.609s-18.075,6.668-22.534,8.404
			c-0.252,1.223-0.51,2.386-0.775,3.492c-0.722,2.993-1.481,5.568-2.228,7.795c-0.797,2.362-1.576,4.328-2.271,5.973
			C266.894,159.329,266.13,160.923,265.655,162.143z"/>
		<g>
			<path fill="#FFB792" d="M250.566,156.604c0,0-3.094-1.268-3.803-1.167c-0.711,0.102-2.676-0.391-2.564,0.254
				c0.076,0.444,2.614,0.913,2.614,0.913s-2.835-0.638-2.614,0.024c0.15,0.457,0.752,2.272,1.689,2.866
				c1.121,0.709,3.151,0.366,5.53,0.022C255.789,158.886,250.566,156.604,250.566,156.604z"/>
			<path fill="#EAEAEA" d="M251.056,158.787c-0.711-1.854-1.035-2.695-1.035-2.695s14.525-11.84,16.006-12.856
				c1.01-0.692,11.051-8.197,15.945-14.048c2.429-2.901,6.258-4.228,9.962-3.45l3.05,0.64c3.681,0.771,4.877,5.432,2.021,7.881
				c-8.045,6.896-21.613,14.896-24.145,16.56c-6.279,4.13-20.17,9.919-20.17,9.919S251.613,160.243,251.056,158.787z"/>
		</g>
		<path fill="#F2AC8C" d="M286.565,119.051c4.646,0.261,7.665-3.574,7.665-3.574s-2.1-1.163-3.245-2.019l-3.983,2.022
			C287.001,115.48,286.745,116.757,286.565,119.051z"/>
		<path fill="#FFB792" d="M284.587,114.282c0,0,7.037,5.051,10.113,0.62c3.079-4.432,6.06-6.764,1.697-10.176
			c-4.364-3.412-6.421-2.333-7.807-1.104C287.203,104.851,282.835,112.854,284.587,114.282z"/>
		<path fill="#4A2C6A" d="M287.847,99.62c0.252-1.703,0.819-2.901,0.819-2.901s0.442,1.829,3.784,1.576
			c3.344-0.252,8.644,0.329,10.41,4.14c0.112,0.242,0.212,0.491,0.301,0.746c0.319-0.844,0.396-2.11,0.396-2.11
			c0.637,1.64,0,3.692,0,3.692l0,0c0.01,0.061,0.018,0.12,0.026,0.179c0.739,0.625,1.358,2.563,1.358,2.563
			c-0.223-0.54-0.767-0.895-1.252-1.111c0.017,2.966-1.186,5.862-3.297,6.726c-3.084,1.262-3.061,0.3-6.164,2.357
			c0,0-0.832-1.032-0.264-1.727c0.566-0.693,2.711-1.703,1.514-2.712c-1.199-1.01-1.641,0.126-2.082-0.567
			c-0.441-0.695,1.766-2.713-1.072-4.605S287.593,101.323,287.847,99.62z"/>
	</g>
	<g>
		<path fill="#4E306D" d="M80.248,16.267c-0.011-0.334-0.271-3.933-5.751-4.12c0,0,2.695,0.321,3.161,1.506
			c0,0-1.835-1.464-3.329-0.993c-1.495,0.471-2.372,3.09-2.382,3.951c-0.008,0.861,0.822,3.638,1.771,3.874
			c0.359,0.089,0.773,0.065,1.149,0.001c-0.253,0.394-0.5,0.829-0.737,1.314c-2.187,4.489,0.069,8.877,1.92,8.392
			c1.188-0.31,1.524,1.716,1.524,1.716l11.536-9.339C89.109,22.567,84.872,13.799,80.248,16.267z"/>
		<path fill="#6139BC" d="M84.265,148.525l-2.451,0.914c0,0-10.642-14.764-11.953-27.751c-0.234-2.319-0.155-4.565,0.35-6.64
			c0,0-0.104-0.595-0.286-1.645c-0.083-0.49-0.188-1.08-0.306-1.757c-0.348-1.981-0.823-4.695-1.367-7.783
			C67,96.755,65.377,87.668,64.118,80.989l0.66-0.213l7.144-2.305l1.476-4.689l5.32-1.4c0,0,1.188,2.325,2.25,13.306
			c0.196,1.44,0.373,3.028,0.508,4.751c0.414,5.257,0.444,11.779-0.506,19.235c-0.244,1.909-0.551,3.879-0.934,5.904
			c-0.28,1.485-0.322,3.507-0.204,5.829C80.367,132.025,84.265,148.525,84.265,148.525z"/>
		<path fill="#4A2C76" d="M81.476,90.44l-11.551,22.964c-0.083-0.49-0.188-1.08-0.306-1.757c-0.348-1.981-0.823-4.695-1.367-7.783
			C67,96.755,65.377,87.668,64.118,80.989l0.66-0.213l7.144-2.305l1.476-4.689l5.32-1.4c0,0,1.188,2.325,2.25,13.306
			C81.164,87.129,81.341,88.717,81.476,90.44z"/>
		<path fill="#6139BC" d="M76.395,75.329l-0.268-2.293c-4.48,1.19-16.45-3.325-16.45-3.325s-4.34,3.815-3.771,12.96
			c0.279,4.463,0.786,23.431,1.317,29.044c0.192,2.033,0.36,3.481,0.429,4.06c0.001,0.003,0.001,0.004,0.001,0.004
			c0.021,0.179-0.041,0.345-0.129,0.499c-0.782,1.326-1.429,2.706-1.959,4.119c-5.209,13.877,0.802,30.97,0.802,30.97l1.561-0.629
			c0,0,3.419-19.021,6.199-27.423c0.471-1.426,0.924-2.546,1.338-3.215c1.208-1.95,2.33-5.137,3.347-8.928
			c1.923-7.164,3.472-16.486,4.502-23.681C73.456,87.498,76.395,75.329,76.395,75.329z"/>
		<path fill="#FFB894" d="M111.69,72.4c-0.965,0.853-3.523-2.077-3.876-2.467c-0.019-0.037-0.037-0.056-0.037-0.056l0.779-2.169
			c0,0,3.355-0.13,3.913,0.426C113.025,68.691,112.747,71.491,111.69,72.4z"/>
		<path fill="#FFB894" d="M108.556,67.708l-0.334,2.244c0,0-0.148,0-0.408-0.019c-0.816-0.056-2.801-0.167-5.043-0.408
			c-3.376-0.334-7.382-0.927-8.977-1.91c-2.43-1.483-6.416-6.027-9.012-10.57c-0.075-0.111-0.13-0.223-0.186-0.333
			c-1.354-2.411-2.299-4.804-2.373-6.714c-0.057-1.169,0.074-2.169,0.315-3.041c0.316-1.15,0.834-2.059,1.373-2.745
			c0.074-0.111,0.149-0.224,0.259-0.315c0.891-1.057,1.762-1.502,1.762-1.502c0.445-0.185,0.927,0.038,1.429,0.575v0.019
			c0.407,0.427,0.852,1.076,1.279,1.891c0.019,0.019,0.037,0.037,0.037,0.056c0.093,0.167,0.186,0.352,0.297,0.556
			c0.036,0.037,0.057,0.093,0.075,0.13c0.203,0.427,0.407,0.871,0.611,1.335c2.281,4.97,4.711,12.499,6.732,14.743
			c0.872,0.964,4.858,2.855,8.029,4.265C106.7,66.966,108.556,67.708,108.556,67.708z"/>
		<path fill="#FFB894" d="M84.953,47.515c-1.407,0.652-3.105,1.096-5.159,1.208c-7.702,0.422-9.451-6.33-9.77-10.811
			c1.111-0.401,2.083-0.365,2.644-0.334c0.546,0.03,1.115,0.086,1.585,0.144c0.943-0.492,2.635-2.882,3.613-6.881l0.333,0.154
			l5.558,2.613c0,0-0.591,1.809-1.026,3.539c-0.341,1.354-0.584,2.663-0.38,3.029c0.438,0.178,0.7,0.29,0.7,0.29
			s0,0.002,0.001,0.006C83.109,40.613,84.317,43.692,84.953,47.515z"/>
		<path fill="#FF7042" d="M86.879,52.568c-0.058,0.154-0.122,0.305-0.191,0.459c-1.951,4.201-5.562,21.603-5.562,21.603
			c0.513,3.129-23.516-0.614-23.579-3.462c-0.845-3.021,3.004-7.874,5.174-10.31c0.272-0.306,0.516-0.634,0.729-0.979
			c0.536-0.869,0.876-1.849,0.983-2.873c0.427-4.039,0.265-7.823,0.301-10.125v0c0.424-0.313,0.834-0.604,1.216-0.879
			c0.583-0.427,1.1-0.825,1.481-1.229c0.417-0.44,0.679-0.89,0.709-1.399c0.022-0.384,0.011-0.778-0.03-1.172
			c-0.018-0.186-0.042-0.372-0.069-0.558c-0.3-1.954-1.117-3.728-1.117-3.728c2.067-0.836,5.742-0.338,5.742-0.338
			s-0.004,0.203-0.007,0.538c-0.012,1.343,0,4.79,0.431,5.441c0.538,0.813,10.383,4.372,10.902,3.269
			c0.512-1.084-0.89-6.164-0.942-6.356c-0.001-0.004-0.001-0.006-0.001-0.006c3.297,1.294,4.475,2.38,4.475,2.38
			C85.539,44.134,88.417,48.493,86.879,52.568z"/>
		<path fill="#F2AC8C" d="M83.757,33.608c0,0-0.591,1.806-1.026,3.539c-3.248-0.906-4.235-4.32-4.531-6.151L83.757,33.608z"/>
		<path fill="#FFB894" d="M84.441,35.521c0,0-7.772-1.799-6.578-6.622c1.194-4.823,0.996-8.303,6.008-7.359
			c5.013,0.944,5.519,3.023,5.511,4.729C89.376,27.978,86.493,35.865,84.441,35.521z"/>
		<path fill="#4E306D" d="M89.819,23.532c-0.835-1.748-1.819-1.655-2.434-1.345c-3.651-3.379-7.233-0.618-7.233-0.618
			c-1.38,3.331-4.367,4.691-4.367,4.691s1.194,1.223,4.654,1.196c1.057-0.009,2.12-0.494,3.087-1.163
			c-1.866,1.88-4.052,3.022-4.052,3.022c4.33-0.829,7.236-5.844,7.533-6.376c0.368,0.542,1.07,1.696,1.128,2.669
			c0.08,1.324-0.374,3.895,0.384,3.992C88.52,29.602,91.073,26.154,89.819,23.532z"/>
		<path fill="#FF7042" d="M87.526,42.845c0,0,1.873,3.265,2.152,4.104c0,0-2.427-0.094-3.407,1.773
			C86.271,48.723,86.036,43.285,87.526,42.845z"/>
		<path fill="#FF4A1E" d="M74.657,68.783c-4.74-0.05-8.753-4.972-11.206-8.904c0.536-0.869,0.876-1.849,0.983-2.873
			c0.427-4.039,0.265-7.823,0.301-10.125v0c0.424-0.313,0.834-0.604,1.216-0.879c0.583-0.427,1.1-0.825,1.481-1.229
			C71.313,51.332,81.082,68.852,74.657,68.783z"/>
		<path fill="#4A2C6A" d="M65.435,152.64H53.092c0,0-0.296-1.882,0.349-3.308c0.618-1.369,1.586-1.992,1.354-3.648
			c0.784,0.807,2.062,1.712,3.846,1.472c0.218,0.354,1.412,2.251,2.141,2.775C61.588,150.511,65.186,150.304,65.435,152.64z"/>
		<path fill="#4A2C6A" d="M91.933,152.64h-12.34c0,0-0.462-1.968,0.348-3.308c0.718-1.186,0.442-1.86-0.089-2.841
			c0.559,0.229,1.283,0.437,2.079,0.392c0.615-0.036,1.265-0.315,1.836-0.646c0.532,0.605,2.805,3.183,3.516,3.693
			C88.089,150.511,91.685,150.304,91.933,152.64z"/>
		<g>
			<g>
				<path fill="#4A2C76" d="M104.271,64.506l-0.604-0.149c2.005-4.123,5.573-7.258,8.501-8.886c2.562-1.426,4.682-2.073,5.443-2.281
					c0.186-0.051,0.382-0.004,0.525,0.123l0.56,0.491c0.275,0.243,0.173,0.709-0.181,0.811
					C115.8,55.397,107.3,58.279,104.271,64.506z"/>
			</g>
			<path fill="#FF4A1E" d="M93.646,67.09c1.889-7.663,6.207-6.598,11.531-5.284c5.326,1.313,9.642,2.377,7.752,10.04
				c-1.354,5.491-6.769,8.878-12.095,7.565C95.511,78.098,92.292,72.581,93.646,67.09z"/>
			<path fill="#EAEAEA" d="M96.495,65.162c0-1.325,1.902-2.987,3.229-2.987s2.134,1.369,2.134,2.693
				c0,1.327-1.635,2.696-2.961,2.696S96.495,66.489,96.495,65.162z"/>
		</g>
		<path fill="#FFB894" d="M92.57,71.361l-0.649,2.373c0,0-0.815-0.148-2.114-0.389c-0.389-0.075-0.611-0.129-0.611-0.129
			c-1.039-0.205-2.28-0.483-3.634-0.779h-0.02c-2.317-0.557-4.914-1.225-7.101-1.966c-1.54-0.538-2.875-1.112-3.784-1.687
			c-0.093-0.056-0.167-0.112-0.261-0.186c-2.169-1.576-4.746-6.212-6.749-11.183c-0.278-0.686-0.538-1.372-0.798-2.039
			c-0.927-2.485-1.668-4.933-2.113-7.047c-0.278-1.261-0.463-2.412-0.5-3.357c-0.02-0.334-0.038-0.649-0.02-0.946
			c0.038-5.377,2.707-6.12,2.707-6.12c0.057-0.018,0.111-0.037,0.186-0.055c0.463-0.075,0.946,0.241,1.447,0.853
			c0.63,0.761,1.299,2.002,1.985,3.505c1.056,2.393,2.169,5.489,3.208,8.568c0.574,1.687,1.13,3.375,1.688,4.932
			c0.315,0.947,0.629,1.836,0.927,2.652c0.574,1.557,1.094,2.819,1.558,3.616c0.297,0.521,1.149,1.243,2.28,2.059
			c1.965,1.428,4.84,3.153,7.343,4.563c1.039,0.593,2.021,1.131,2.838,1.576C91.699,70.897,92.57,71.361,92.57,71.361z"/>
		<path fill="#FF7042" d="M70.533,42.218c-3.57-0.984-6.324,1.803-6.324,1.803c0.044-5.368,2.718-6.104,2.718-6.104
			C68.002,37.471,69.248,39.333,70.533,42.218z"/>
		<path fill="#FFB894" d="M92.57,71.361c0,0,1.165,0.026,1.822-0.377c0.659-0.402,2.525-0.951,3.367-0.859c0,0,0.311,0.128,0.2,0.42
			c-0.108,0.292-1.48,0.53-1.48,1.08c0,0,1.719-0.055,2.231-0.275c0.513-0.22,2.489,0.285,2.873,0.512
			c0.385,0.228-2.506,1.968-3.787,2.671c-1.28,0.702-5.875-0.8-5.875-0.8L92.57,71.361z"/>
	</g>
	<g>
		<g>
			<g>
				<path fill="#FF9F23" d="M91.699,236.363c-0.421,0-0.781-0.345-0.853-0.812l-4.175-27.459l-6.008-39.49l-1.678-11.043
					l4.278-0.142l0.741,6.41l5.213,45.049l3.09,26.703C92.354,235.994,92.069,236.363,91.699,236.363z"/>
			</g>
			<g>
				<path fill="#FF9F23" d="M47.918,157.56l-1.904,12.517v0.001l-5.258,34.57l-4.702,30.904c-0.07,0.467-0.431,0.812-0.851,0.812
					c-0.371,0-0.657-0.369-0.608-0.783l4.054-35.033l4.335-37.476l0.655-5.653L47.918,157.56z"/>
			</g>
			<path fill="#EE8914" d="M46.014,170.076c0.25-5.379-3.029-7.005-3.029-7.005l0.655-5.653l4.278,0.142L46.014,170.076z"/>
			<path fill="#EE8914" d="M84.004,163.828c-2.772,1.42-3.341,4.774-3.341,4.774l-1.678-11.043l4.278-0.142L84.004,163.828z"/>
		</g>
		<path fill="#FF9F23" d="M95.955,157.56H30.946c-1.034,0-1.881-0.847-1.881-1.882v-0.571c0-1.036,0.847-1.883,1.881-1.883h65.008
			c1.034,0,1.881,0.847,1.881,1.883v0.571C97.836,156.713,96.989,157.56,95.955,157.56z"/>
	</g>
	<path fill="#FF9F23" d="M308.033,235.984h-15.811c-0.848-0.719,0.586-2.351,2.084-2.461c0.65-0.049,1.473,0.087,2.413,0.286
		c0.218-2.891,1.461-15.882,6.144-15.361c5.266,0.585,0,5.723-1.488,8.764c-1.102,2.253-2.266,5.483-2.797,7.009
		c0.428,0.092,0.87,0.183,1.322,0.266c0.697-2.144,3.295-9.351,6.596-8.932c3.879,0.492,2.319,3.382-0.429,5.099
		c-2.017,1.261-4.491,3.054-5.669,3.92c0.997,0.163,2.037,0.272,3.093,0.247C306.199,234.757,307.521,235.555,308.033,235.984z"/>
	<g>
		<path fill="#FFDD71" d="M149.325,211.639c0.678,3.402,1.51,6.347,2.475,8.891c7.488,19.728,23.094,15.475,38.331,15.475
			c17.198,0,17.166-11.52,17.166-27.093c0-15.574-9.529-27.947-26.728-27.947C163.369,180.964,146.284,196.367,149.325,211.639z"/>
		<g>
			<path fill="#EE8914" d="M217.763,213.973c0.105-15.777-11.365-28.452-26.683-32.661c-15.63-4.293-28.61,6.21-28.586,21.511
				c0.024,15.372,13.273,30.596,29.128,32.642C206.956,237.443,217.66,229.317,217.763,213.973z"/>
			<path fill="#EAEAEA" d="M216.386,213.592c0.102-14.991-10.799-27.035-25.354-31.033c-14.852-4.079-27.186,5.898-27.162,20.439
				c0.023,14.604,12.613,29.07,27.678,31.015C206.119,235.894,216.288,228.173,216.386,213.592z"/>
			<g>
				<path fill="#FFC22A" d="M189.88,204.813l4.26-16.031c0.316-1.192-0.613-2.6-1.906-2.88c-1.578-0.344-3.748-0.711-6.057-0.789
					c-2.67-0.091-4.914,0.134-6.465,0.375c-1.201,0.185-1.684,1.533-0.974,2.729l9.827,16.568
					C188.917,205.378,189.726,205.395,189.88,204.813z"/>
				<path fill="#FFC22A" d="M193.57,209.732l15.971,9.982c1.188,0.742,2.545,0.283,2.781-0.944c0.285-1.496,0.573-3.592,0.573-5.929
					c0-2.705-0.296-5.082-0.585-6.755c-0.225-1.298-1.57-2.264-2.727-1.955l-16.03,4.265
					C192.978,208.549,192.99,209.37,193.57,209.732z"/>
				<path fill="#FFC22A" d="M192.583,206.766l15.795-4.201c1.176-0.313,1.547-1.733,0.757-2.912
					c-0.962-1.438-2.368-3.367-4.104-5.268c-2.012-2.199-3.935-3.905-5.329-5.044c-1.081-0.882-2.506-0.628-2.884,0.515
					l-5.236,15.836C191.394,206.257,192.01,206.918,192.583,206.766z"/>
				<path fill="#FFC22A" d="M191.065,211.217l4.884,17.638c0.365,1.313,1.787,2.174,2.916,1.763
					c1.377-0.502,3.221-1.293,5.021-2.433c2.082-1.32,3.681-2.718,4.742-3.764c0.824-0.813,0.506-2.36-0.641-3.135l-15.906-10.734
					C191.511,210.168,190.886,210.575,191.065,211.217z"/>
				<path fill="#FFC22A" d="M187.187,205.294l-10.672-15.803c-0.793-1.177-2.331-1.498-3.15-0.655
					c-0.999,1.028-2.291,2.522-3.418,4.351c-1.306,2.114-2.165,4.123-2.693,5.576c-0.408,1.127,0.433,2.556,1.703,2.895
					l17.602,4.691C187.188,206.516,187.575,205.868,187.187,205.294z"/>
				<path fill="#FFC22A" d="M186.554,207.793l-17.385-3.023c-1.295-0.225-2.23,0.813-1.916,2.129
					c0.383,1.606,1.01,3.808,1.979,6.123c1.121,2.68,2.352,4.908,3.284,6.441c0.723,1.188,2.239,1.565,3.073,0.763l11.531-11.116
					C187.535,208.712,187.186,207.902,186.554,207.793z"/>
				<path fill="#FFC22A" d="M188.115,210.489l-9.375,12.821c-0.697,0.955-0.203,2.508,1.014,3.183
					c1.486,0.821,3.563,1.859,5.867,2.688c2.67,0.957,5.008,1.495,6.651,1.79c1.272,0.23,2.185-0.808,1.847-2.101l-4.686-17.926
					C189.266,210.303,188.456,210.022,188.115,210.489z"/>
			</g>
		</g>
	</g>
	<g>
		<path fill="#4E306D" d="M149.809,130.66c0.072-0.286-6.217,2.842-6.536,3.195c-2.949,3.271-2.108,7.541-0.42,7.581
			c1.082,0.026,0.873,1.826,0.873,1.826l12.058-5.101C155.782,138.162,154.33,129.697,149.809,130.66z"/>
		<path fill="#4E306D" d="M151.294,131.32c0,0,0.431-4.697-4.817-4.697c0,0,1.59,0.433,2.412,1.295c0,0-3.347-1.966-6.989,1.054
			c-3.643,3.021-1.378,10.593-2.486,12.03s-5.421,1.726-4.895,6.374c0.528,4.649,13.69,10.472,12.844,14.318
			c0,0,5.16-7.583,1.47-11.043c0,0,1.799,1.693,1.981,3.706c0,0,0.488-3.931-2.012-5.187c-2.213-1.112-4.026-5.181-3.834-5.908
			C145.159,142.535,151.294,131.32,151.294,131.32z"/>
		<path fill="#F2AC8C" d="M146.529,153.417c-0.81-3.896-5.863-5.104-8.253-1.923c-0.43,0.571-0.732,1.249-0.83,2.048
			c-0.547,4.424,6.525,22.438,7.538,24.07c1.844,2.971,12.702,13.15,12.702,13.15l2.002-1.212c0,0-7.702-13.038-8.895-14.259
			C149.414,173.881,148.064,160.816,146.529,153.417z"/>
		<path fill="#F2AC8C" d="M156.925,189.557c0,0,2.919-1.918,4.025-1.795c1.105,0.124,4.307,1.044,4.346,1.515
			c0.037,0.471-3.567,0.764-3.809,1.021c-0.241,0.257-2.689,1.891-3.577,1.379C157.024,191.164,156.925,189.557,156.925,189.557z"/>
		<path fill="#EAEAEA" d="M136.553,232.879l-2.609-0.384c0,0-8.772-6.972-10.08-19.979c-0.132-1.324-0.16-2.668-0.061-4.022
			c0.012-0.156-0.007-0.313-0.091-0.444c0,0-0.001-0.002-0.004-0.004c-0.28-0.43-0.979-1.509-1.926-3.042
			c-0.932-1.511-2.528-4.366-4.284-7.572c-3.163-5.772-6.847-12.677-8.109-14.875c-4.025-7.008-2.085-11.72-2.085-11.72
			s11.229-1.109,14.305-3.802l1.108,1.708c0,0,2.432,10.77,2.318,10.819c0.119,0.367,0.241,0.74,0.365,1.119
			c1.92,5.926,4.128,13.332,5.331,19.364c0.679,3.395,1.036,6.352,0.844,8.366c-0.065,0.691,0.014,1.753,0.199,3.064
			C132.861,219.206,136.553,232.879,136.553,232.879z"/>
		<path fill="#4A2C6A" d="M142.025,236.179h-10.885c0,0-0.261-1.658,0.307-2.917c0.545-1.208,1.321-1.246,0.1-3.14
			c0.691,0.712,2.916,1.008,4.49,0.795c0.192,0.313,1.242,2.411,1.886,2.873C138.636,234.301,141.806,234.119,142.025,236.179z"/>
		<path fill="#C8D1CE" d="M125.4,180.681c-0.951,5.244-3.197,13.972-7.902,16.75c-3.163-5.772-6.847-12.677-8.109-14.875
			c-4.025-7.008-2.085-11.72-2.085-11.72s11.229-1.109,14.305-3.802l1.108,1.708c0,0,2.432,10.77,2.318,10.819
			C125.154,179.929,125.276,180.302,125.4,180.681z"/>
		<path fill="#744DA5" d="M145.363,151c0,0,1.54,1.601,2.243,3.518c0,0-2.457,7.05-8.193,7.934
			C139.413,162.451,143.952,150.996,145.363,151z"/>
		<path fill="#EAEAEA" d="M117.766,171.646l0.038-2.036c-4.057,0.512-13.986-4.847-13.986-4.847s-4.244,2.822-4.825,10.882
			c-0.283,3.935-2.077,20.573-2.276,25.541c-0.072,1.801-0.095,3.086-0.104,3.6c0.001,0.003,0.001,0.004,0.001,0.004
			c-0.002,0.157-0.076,0.296-0.173,0.42c-0.839,1.066-1.567,2.196-2.198,3.369c-6.19,11.517-2.952,27.163-2.952,27.163l1.438-0.365
			c0,0,5.232-16.221,8.653-23.237c0.58-1.19,1.108-2.116,1.549-2.652c1.286-1.562,2.642-4.215,3.98-7.407
			c2.525-6.035,4.979-14,6.729-20.167C113.762,181.935,117.766,171.646,117.766,171.646z"/>
		<path fill="#FFB894" d="M141.503,158.058c-6.631-1.521-2.395-10.84-2.01-10.676c0.919-0.188,2.937-1.8,4.743-4.951l0.243,0.211
			l4.073,3.571c0,0-0.943,1.39-1.735,2.749c-0.618,1.065-1.145,2.114-1.06,2.475C146.083,151.694,143.271,158.464,141.503,158.058z"
			/>
		<path fill="#F2AC8C" d="M148.55,146.214c0,0-0.941,1.387-1.733,2.75c-2.532-1.563-2.534-4.696-2.338-6.321L148.55,146.214z"/>
		<path fill="#FFB894" d="M148.664,148.002c0,0-6.148-3.42-3.959-7.218c2.189-3.795,2.871-6.792,6.889-4.77
			c4.018,2.024,3.938,3.909,3.515,5.354C154.686,142.813,150.32,148.794,148.664,148.002z"/>
		<path fill="#4E306D" d="M156.149,139.154c-0.283-1.686-1.139-1.847-1.736-1.734c-2.27-3.754-5.979-2.289-5.979-2.289
			c-1.982,2.486-4.847,2.911-4.847,2.911s0.713,1.327,3.654,2.148c0.897,0.252,1.917,0.1,2.898-0.231
			c-2.038,1.138-4.171,1.573-4.171,1.573c3.874,0.354,7.56-3.188,7.941-3.565c0.178,0.549,0.492,1.697,0.305,2.537
			c-0.255,1.142-1.269,3.209-0.65,3.478C153.564,143.981,156.57,141.682,156.149,139.154z"/>
		<path fill="#4A2C6A" d="M99.946,236.179H89.06c0,0-0.26-1.658,0.308-2.917c0.544-1.208,1.398-1.757,1.193-3.218
			c0.691,0.713,1.819,1.51,3.393,1.298c0.194,0.313,1.245,1.986,1.889,2.448C96.554,234.301,99.726,234.119,99.946,236.179z"/>
		<path fill="#744DA5" d="M142.283,165.444c-1.4,0.489-3.366,0.758-5.377,0.976c-2.863,0.313-5.818,0.525-7.365,1.143
			c-0.566,0.226-0.943,0.504-1.061,0.859c-0.671,2.018-3.628,5.131-3.628,5.131c-18.955-0.862-21.035-8.791-21.035-8.791
			c12.751-14.828,34.344-19.121,34.344-19.121s1.542-0.653,5.426,2.434c2.591,2.061,2.25,2.852,2.25,2.852
			S146.406,164.008,142.283,165.444z"/>
		<path fill="#56309E" d="M136.906,166.42c-2.863,0.313-5.818,0.525-7.365,1.143c-0.634-9.452,3.828-16.563,3.828-16.563
			S136.279,162.843,136.906,166.42z"/>
		<path fill="#FFB894" d="M139.852,149.171c0,0-7.174,0.709-7.749,5.37c-0.575,4.66,6.878,23.646,7.945,25.365
			c1.943,3.129,13.386,13.857,13.386,13.857l2.107-1.277c0,0-8.116-13.74-9.372-15.025
			C144.196,175.442,142.28,150.784,139.852,149.171z"/>
		<path fill="#744DA5" d="M132.31,157.345c0.02,0.106,6.62,2.156,10.87,0c0,0,0.908-9.802-4.163-9.271
			c-5.073,0.532-8.077,2.13-8.204,4.558C130.685,155.06,132.31,157.345,132.31,157.345z"/>
		<path fill="#FFB894" d="M152.78,192.401c0,0,2.574-2.363,3.686-2.419c1.111-0.057,4.417,0.336,4.531,0.794
			c0.113,0.458-3.396,1.329-3.594,1.621c-0.197,0.293-2.349,2.3-3.307,1.938C153.137,193.973,152.78,192.401,152.78,192.401z"/>
	</g>
</g>
</svg>
