<?xml version="1.0" encoding="utf-8"?>
<!-- Generator: Adobe Illustrator 16.0.3, SVG Export Plug-In . SVG Version: 6.00 Build 0)  -->
<!DOCTYPE svg PUBLIC "-//W3C//DTD SVG 1.1//EN" "http://www.w3.org/Graphics/SVG/1.1/DTD/svg11.dtd">
<svg version="1.1" id="Warstwa_1" xmlns="http://www.w3.org/2000/svg" xmlns:xlink="http://www.w3.org/1999/xlink" x="0px" y="0px"
	 width="339.047px" height="237.016px" viewBox="0 0 339.047 237.016" enable-background="new 0 0 339.047 237.016"
	 xml:space="preserve">
<g>
	<g>
		<g>
			<path fill="#009DE0" d="M21.017,236.438c0,0-40.131-54.233-6.786-112.949c29.586-52.098,64.081-48.537,89.388-27.395
				c10.779,9.003,41.858,1.109,68.307-51.901c36.072-72.291,161.109-28.446,138.311,82.777
				c-11.033,53.823,33.576,55.778,10.848,109.582L21.017,236.438z"/>
			<path fill="#7C409C" d="M338.711,237.015H0.351c-0.184,0-0.334-0.151-0.334-0.335v-0.257c0-0.184,0.15-0.333,0.334-0.333h338.361
				c0.184,0,0.336,0.149,0.336,0.333v0.257C339.047,236.864,338.895,237.015,338.711,237.015z"/>
		</g>
	</g>
	<path fill="#009DE0" d="M132.724,64.092c-16.986,15.06-39.574,17.386-50.454,5.198c-10.881-12.186-5.929-34.273,11.055-49.33
		c16.986-15.057,39.574-17.384,50.455-5.198C154.658,26.948,149.708,49.034,132.724,64.092z"/>
	<path fill="#009DE0" d="M46.805,65.077c-4.667-5.228-5.389-12.183-1.612-15.531c3.778-3.35,10.626-1.826,15.292,3.403
		c4.668,5.229,5.39,12.183,1.612,15.533C58.32,71.83,51.472,70.308,46.805,65.077z"/>
	<path fill="#009DE0" d="M307.187,44.035c-1.546-6.826,1.199-13.26,6.132-14.369c4.932-1.11,10.185,3.525,11.731,10.351
		c1.546,6.828-1.198,13.26-6.13,14.371C313.988,55.496,308.735,50.863,307.187,44.035z"/>
</g>
<g>
	<g>
		<g>
			<g>
				<g>
					<path fill="#7C409C" d="M172.935,84.787c-0.015,0.257-0.022,0.393-0.022,0.393s-0.041-0.131-0.123-0.382
						c-0.672-2.07-3.956-12.295-6.943-23.679c-4.13-15.75-7.697-33.719-3.004-35.38c8.89-3.149,10.53,22.016,10.552,40.584
						C173.411,75.472,173.032,83.017,172.935,84.787z"/>
					<path fill="#7C409C" d="M181.633,64.337c-3.215,7.125-6,13.12-7.6,16.711c-0.695,1.565-1.166,2.672-1.348,3.217
						c0.154-0.887,0.574-3.266,1.172-6.652c0-0.002,0-0.002,0-0.004c0.898-5.075,2.203-12.404,3.633-20.364
						c3.473-19.346,7.699-42.395,8.688-45.69c1.74-5.813,9.767-18.188,15.166-7.421C204.853,11.13,191.314,42.86,181.633,64.337z"/>
					<path fill="#7C409C" d="M182.282,74.503c-3.32,3.503-6.111,6.344-7.671,7.915c-0.853,0.861-1.336,1.34-1.336,1.34
						s0.851-1.813,2.3-4.707c1.366-2.733,3.27-6.433,5.491-10.48c7.279-13.267,17.998-30.271,24.646-29.288
						C213.293,40.402,194.314,61.802,182.282,74.503z"/>
					<path fill="#4A2C6A" d="M172.935,84.787c-0.047,0.002-0.099,0.006-0.146,0.011c-0.672-2.07-3.956-12.295-6.943-23.679
						c1.395,2.087,3.914,4.885,7.548,5.205C173.411,75.472,173.032,83.017,172.935,84.787z"/>
					<path fill="#4A2C6A" d="M181.633,64.337c-3.215,7.125-6,13.12-7.6,16.711c-0.121-1.003-0.176-2.165-0.176-3.436
						c0-0.002,0-0.002,0-0.004c0.898-5.075,2.203-12.404,3.633-20.364C178.051,60.024,179.213,63.102,181.633,64.337z"/>
					<path fill="#4A2C6A" d="M182.282,74.503c-3.32,3.503-6.111,6.344-7.671,7.915c0.149-0.903,0.503-2.074,0.964-3.367
						c1.366-2.733,3.27-6.433,5.491-10.48C181.118,70.267,181.357,72.796,182.282,74.503z"/>
				</g>
				<path fill="#F2A245" d="M172.683,84.27c-0.043,0.249-0.065,0.379-0.065,0.379C172.583,84.631,172.607,84.503,172.683,84.27z"/>
				<path fill="#FF7042" d="M177.142,109.85c-5.567,15.775-12.503,32.98-12.503,32.98l-15.666-4.696c0,0,1.834-11.686,4.525-24.688
					c3.141-15.161,4.934-30.458,11.375-34.438c1.773-1.096,3.688-1.604,5.561-1.74c0.943-0.071,1.884-0.041,2.802,0.082
					c0.222,0.028,0.437,0.062,0.652,0.1c0.543,0.098,1.077,0.224,1.6,0.38c0.203,0.058,0.404,0.122,0.604,0.192
					c0.693,0.234,1.363,0.519,2.002,0.843c2.714,1.38,4.896,3.455,5.755,5.697C186.42,91.304,181.351,97.928,177.142,109.85z"/>
			</g>
			<g>
				<path fill="#FFC22A" d="M169.482,125.26c-4.639,14.069-6.016,29.511-4.111,45.982c0.318,2.748,1.848,5.133,4.061,6.598
					c0.99,0.654,2.115,1.123,3.332,1.363c2.725-0.016,8.1-4.969,11.174-11.291c0.846-1.738,1.518-3.578,1.912-5.451
					c3.082-14.621,8.789-32.227,15.869-41.225c7.238-9.203,16.992-20.202,30.402-27.767c0,0,0-0.002,0.004-0.003
					c1.295-0.74,31.719-22.896,31.719-22.896c3.027-3.199-0.559-6.786-0.559-6.786s-2.892,2.535-11.705,7.611
					c-8.814,5.073-24.293-0.874-24.299-0.874c-4.337-1.961-9.484-1.763-13.746,0.824c-6.576,3.992-15.332,10.287-23.638,19.351
					C180.554,100.895,173.685,112.524,169.482,125.26z"/>
				<path fill="#FF9F23" d="M185.849,162.462c3.082-14.621,8.789-32.227,15.868-41.225c7.238-9.203,16.992-20.202,30.402-27.767
					c0,0,0-0.002,0.004-0.003c0.232-0.17,9.303-6.859-0.75-12.917c-9.84-5.927-50.002,38.234-47.438,87.362
					C184.784,166.175,185.456,164.335,185.849,162.462z"/>
			</g>
			<g>
				<path fill="#6139BC" d="M151.331,111.446c-1.128,1.771-2.511,3.487-4.144,5.095c-6.189,6.097-15.901,10.616-28.406,10.499
					c0,0-5.248-5.005-7.793-11.372l0.002-0.002c-1.766-4.417-3.053-10.92-0.002-15.747c1.967-3.11,4.496-4.583,7.06-5.357
					c4.354-1.325,8.808-0.644,10.753-2.582c1.92-1.912,4.65-3.563,7.65-4.515c0.49-0.155,0.987-0.295,1.49-0.408h0.002
					c0.209-0.05,0.415-0.095,0.626-0.137c0.005-0.002,0.009-0.002,0.013-0.002c4.625-0.903,9.563-0.019,12.997,4.104
					c0.797,0.955,1.52,2.108,2.136,3.498C155.914,99.464,154.969,105.737,151.331,111.446z"/>
				<path fill="#744DA5" d="M114.965,99.202c0,0-4.125,3.24-2.862,6.823c1.265,3.584,4.526,1.929,5.546-0.555
					C118.67,102.989,117.678,97.999,114.965,99.202z"/>
				<path fill="#4A2C76" d="M151.579,91.021c0.797,0.955,1.52,2.111,2.136,3.5c2.199,4.943,5.221,18.062,1.584,23.771l-4.876,4.46
					c-6.188,6.096-19.137,4.404-31.64,4.285c0,0-5.248-5.004-7.795-11.37l0.002-0.002c0,0,15.467,6.12,30.035-6.657
					C147.641,103.206,150.465,96.554,151.579,91.021z"/>
				<g>
					<path fill="#F2A245" d="M127.988,84.498c-2.553-1.521-5.138,0.616-8.135,1.788c-3.002,1.174-8.771,1.15-8.771,1.15
						s2.373-3.417,6.264-6.813C121.236,77.229,127.988,84.498,127.988,84.498z"/>
					<path fill="#FF9F23" d="M127.988,84.498c-2.399-1.97-6.836-3.098-9.002-2.213c-2.166,0.887-7.904,5.151-7.904,5.151
						s2.373-3.417,6.264-6.813C121.236,77.229,127.988,84.498,127.988,84.498z"/>
				</g>
				<path fill="#4A2C76" d="M128.801,91.979c1.92-1.912,4.65-3.563,7.65-4.515c-5.1,1.913-7.913,8.375-9.848,7.626
					c-2.075-0.805-8.318-0.542-8.556-0.529C122.402,93.235,126.855,93.918,128.801,91.979z"/>
				<path fill="#EE8914" d="M138.569,86.92c-0.161,0.046-0.366,0.091-0.626,0.137C138.152,87.006,138.358,86.962,138.569,86.92z"/>
				<g>
					<path fill="#FF9F23" d="M126.965,94.961L126.965,94.961c-1.636-3.613-0.752-8.095,0.277-11.219
						c0.819-2.486,2.391-5.842,3.163-7.438c0.163-0.337,0.651-0.303,0.77,0.054l0.312,0.94c0.313,0.944,0.196,1.977-0.316,2.826
						c-1.582,2.613-4.756,8.722-3.326,13.749C128.006,94.439,127.254,95.609,126.965,94.961z"/>
				</g>
			</g>
		</g>
		<g>
			<g>
				<path fill="#74DAEE" d="M165.188,111.248l-0.51-0.204c2.253-3.351,5.747-5.648,8.499-6.712c2.41-0.932,4.336-1.237,5.027-1.326
					c0.168-0.021,0.334,0.043,0.442,0.171l0.427,0.497c0.213,0.246,0.065,0.639-0.257,0.685
					C176.355,104.71,168.589,106.187,165.188,111.248z"/>
			</g>
			<path fill="#41B8E1" d="M155.605,112.206c2.583-6.453,6.218-4.997,10.703-3.201c4.483,1.794,8.118,3.25,5.536,9.702
				c-1.85,4.623-6.987,6.917-11.471,5.122C155.891,122.033,153.754,116.83,155.605,112.206z"/>
			<path fill="#74DAEE" d="M158.326,110.872c0.161-1.156,2.023-2.373,3.18-2.213c1.156,0.164,1.695,1.454,1.532,2.611
				c-0.162,1.155-1.755,2.149-2.911,1.987C158.972,113.096,158.165,112.029,158.326,110.872z"/>
		</g>
		<path fill="#FF7042" d="M213.297,113.831l13.851,98.658c1.72,12.236-7.782,23.164-20.142,23.164h-20.864
			c-10.535,0-18.74-9.148-17.593-19.623l11.72-91.775L213.297,113.831z"/>
		<path fill="#FF7042" d="M140.563,113.831c0,0,33.57,11.445,72.736,0L201.76,235.966h-73.085L140.563,113.831z"/>
		<path fill="#FF4A1E" d="M140.563,113.831l13.852,98.91c1.718,12.27-7.784,23.225-20.141,23.225h-20.867
			c-10.536,0-18.739-9.172-17.593-19.674l9.92-102.461c0,0,4.888,0.953,16.776,0.953
			C134.285,114.784,140.563,113.831,140.563,113.831z"/>
		<path fill="#6139BC" d="M202.681,124.83c0-1.437-1.164-2.601-2.603-2.601c-1.436,0-2.6,1.164-2.6,2.601
			c0,0.96,0.521,1.797,1.297,2.247c1.102,8.752-0.637,15.906-4.977,20.289c-3.947,3.984-9.932,5.461-17.307,4.27
			c-6.487-1.047-10.755-8.223-13.194-14.06c-1.754-4.197-2.836-8.33-3.395-10.784c0.551-0.477,0.898-1.178,0.898-1.962
			c0-1.437-1.164-2.601-2.601-2.601c-1.436,0-2.6,1.164-2.6,2.601c0,0.968,0.53,1.812,1.314,2.259
			c1.397,6.416,6.575,25.461,19.1,27.482c1.821,0.293,3.573,0.438,5.25,0.438c6.006,0,11.006-1.883,14.644-5.555
			c4.975-5.022,7.012-13,5.827-22.625C202.314,126.354,202.681,125.635,202.681,124.83z"/>
	</g>
	<g>
		<g>
			<path fill="#FF7042" d="M246.875,150.628c1.758,0.582,3.66,0.984,5.674,1.176c7.634,0.722,16.8-1.602,25.285-8.651
				c0,0,0.804-6.35-1.006-12.124l-0.002-0.001c-1.254-4.005-3.998-9.172-8.775-10.775c-3.079-1.029-5.631-0.627-7.817,0.271
				c-3.717,1.521-6.383,4.471-8.795,4.228c-2.379-0.237-5.168,0.154-7.75,1.176c-0.424,0.166-0.84,0.349-1.248,0.553v0.001
				c-0.17,0.082-0.338,0.166-0.506,0.256c-0.002,0.001-0.009,0.004-0.011,0.006c-3.666,1.959-6.553,5.318-6.604,10.052
				c-0.012,1.097,0.137,2.29,0.49,3.583C237.062,144.983,241.206,148.747,246.875,150.628z"/>
			<path fill="#FFBB99" d="M264.931,121.98c0,0,4.629-0.084,5.762,3.071c1.134,3.156-2.021,3.843-4.104,2.712
				C264.506,126.635,262.407,122.668,264.931,121.98z"/>
			<path fill="#FF4A1E" d="M235.323,136.79c-0.013,1.098,0.137,2.291,0.489,3.584c1.25,4.609,6.494,15.269,12.166,17.148
				c0,0,11.246,5.168,17.679,2.764c7.18-2.684,11.6-8.357,12.18-17.135c0,0,0.803-6.35-1.006-12.124l0,0
				c0,0-7.172,12.808-24.261,12.187C244.808,142.933,239.167,139.956,235.323,136.79z"/>
			<g>
				<path fill="#F2A245" d="M247.827,119.177c0.897-2.463,3.854-2.442,6.563-3.312c2.705-0.869,6.641-4.104,6.641-4.104
					s-3.527-1.015-8.082-1.168C248.394,110.442,247.827,119.177,247.827,119.177z"/>
				<path fill="#FF9F23" d="M247.827,119.177c0.543-2.685,2.948-5.932,4.924-6.531c1.977-0.602,8.278-0.883,8.278-0.883
					s-3.526-1.015-8.081-1.168C248.394,110.442,247.827,119.177,247.827,119.177z"/>
			</g>
			<path fill="#FF4A1E" d="M251.439,124.749c-2.379-0.237-5.168,0.154-7.75,1.176c4.556-1.533,10.08,1.32,10.987-0.271
				c0.972-1.707,5.39-5.008,5.558-5.132C256.517,122.042,253.851,124.992,251.439,124.749z"/>
			<path fill="#EE8914" d="M241.935,126.733c0.138-0.061,0.303-0.144,0.506-0.256C242.271,126.56,242.103,126.644,241.935,126.733z"
				/>
			<g>
				<path fill="#FF9F23" d="M254.359,125.766L254.359,125.766c-0.896-3.385-4-5.957-6.444-7.521
					c-1.947-1.243-4.894-2.664-6.31-3.325c-0.302-0.14-0.614,0.157-0.498,0.465l0.313,0.818c0.313,0.818,0.965,1.461,1.791,1.757
					c2.537,0.906,8.113,3.315,9.938,7.553C253.355,125.989,254.521,126.37,254.359,125.766z"/>
			</g>
		</g>
		<path fill="#4A2C6A" d="M234.997,226.661c0,0-3.4,2.549-8.613,1.201c0,0-4.205-0.957-5.125,1.139c0,0,6.445,3.275,8.076,4.17
			c1.229,0.676,2.512,1.742,3.418,2.564c0.719,0.651,1.838,0.563,2.449-0.188c0.282-0.35,0.606-0.766,0.963-1.246
			c0.994-1.348,3.311-5.698,3.311-5.698L234.997,226.661z"/>
		<path fill="#6139BC" d="M232.999,225.366c0,0,2.071,4.777,6.854,3.897c0,0,9.758-8.059,16.453-16.43
			c2.172-2.719,4.023-5.471,5.111-7.988c4.438-10.276,16.418-25.604,24.035-33.371l-19.06-6.893c0,0-6.104,12.277-14.224,27.359
			C246.316,202.81,239.417,215.132,232.999,225.366z"/>
		<path fill="#4A2C6A" d="M252.168,191.942l4.136,20.893c2.172-2.719,4.022-5.471,5.11-7.988
			c4.438-10.276,16.418-25.604,24.035-33.37l-19.059-6.894C266.392,164.583,260.29,176.86,252.168,191.942z"/>
		<path fill="#4A2C6A" d="M267.745,229.433c0,0,0.209,3.811-4.412,4.319c0,0-2.642,0.015-2.646,2.439l13.428,0.043
			c0,0,0.391-0.979,0.484-3.074c0.072-1.609-1.559-5.818-1.559-5.818L267.745,229.433z"/>
		<path fill="#6139BC" d="M272.644,164.583c0,0-8.489,9.326-13.879,26.133c-2.933,9.146,5.375,32.133,6.993,40.121
			c0,0,5.572,0.472,9.384-1.002c0,0,0.289-16.496-1.938-29.213c-1.248-7.115,11.176-15.219,16.604-28.076
			c3.692-8.748-0.802-8.6-6.319-8.809L272.644,164.583z"/>
		<path fill="#FFB792" d="M282.445,122.964c4.724,2.668,14.394,0.209,14.394,0.209s-3.928-4.489-2.146-11.72l-3.707,1.883
			l-3.983,2.023c0,0-0.256,1.275-0.437,3.568c-0.045,0.592-0.088,1.251-0.114,1.973
			C284.025,121.635,282.445,122.964,282.445,122.964z"/>
		<path fill="#EAEAEA" d="M265.125,164.101c0,0.829,0.957,1.227,1.158,1.268c1.905,0.348,7.225,2.418,12.018,2.893
			c4.033,0.423,7.781,0.021,11.895-0.807c0.545-0.109,1.826-0.453,1.916-0.977c0.113-0.57,15.873-32.13,3.623-45.687
			c-0.289-0.318-2.707,0.256-4.92,0.781c-2.041,0.483-3.916,0.214-5.588-0.458l-2.074,1.091c-2.547,1.42-7.367,6.463-7.93,10.419
			c-0.287,2.013-1.438,3.502-1.77,5.272c-0.125,0.654-0.252,1.295-0.379,1.918c-0.253,1.223-0.511,2.387-0.775,3.491
			c-0.723,2.994-1.482,5.568-2.229,7.796c-0.797,2.362-1.575,4.327-2.271,5.973c-0.904,2.133-1.668,3.727-2.144,4.945
			C265.318,162.88,265.125,163.553,265.125,164.101z"/>
		<path fill="#C8D1CE" d="M265.657,162.021c22.247-10.482,29.95-30.609,29.95-30.609s-18.073,6.668-22.532,8.404
			c-0.252,1.223-0.511,2.387-0.775,3.492c-0.723,2.993-1.482,5.567-2.229,7.795c-0.797,2.362-1.575,4.327-2.271,5.973
			C266.894,159.208,266.129,160.802,265.657,162.021z"/>
		<g>
			<path fill="#FFB792" d="M250.566,156.482c0,0-3.094-1.269-3.803-1.166c-0.712,0.102-2.677-0.392-2.563,0.254
				c0.075,0.442,2.614,0.912,2.614,0.912s-2.836-0.638-2.614,0.024c0.149,0.457,0.752,2.271,1.688,2.865
				c1.12,0.709,3.151,0.367,5.53,0.023C255.79,158.764,250.566,156.482,250.566,156.482z"/>
			<path fill="#EAEAEA" d="M251.056,158.665c-0.712-1.854-1.035-2.695-1.035-2.695s14.524-11.84,16.006-12.854
				c1.011-0.693,11.052-8.198,15.945-14.048c2.43-2.902,6.258-4.229,9.963-3.451l3.049,0.64c3.683,0.771,4.878,5.434,2.021,7.882
				c-8.045,6.896-21.612,14.896-24.145,16.561c-6.279,4.129-20.17,9.918-20.17,9.918S251.614,160.122,251.056,158.665z"/>
		</g>
		<path fill="#F2AC8C" d="M286.566,118.928c4.646,0.263,7.664-3.572,7.664-3.572s-2.101-1.164-3.244-2.02l-3.983,2.023
			C287,115.359,286.747,116.635,286.566,118.928z"/>
		<path fill="#FFB792" d="M284.586,114.16c0,0,7.037,5.052,10.113,0.621c3.08-4.433,6.061-6.764,1.697-10.176
			s-6.42-2.333-7.807-1.104C287.204,104.73,282.834,112.733,284.586,114.16z"/>
		<path fill="#4A2C6A" d="M287.847,99.498c0.252-1.703,0.819-2.901,0.819-2.901s0.441,1.829,3.783,1.576
			c3.344-0.252,8.645,0.33,10.41,4.141c0.113,0.242,0.213,0.49,0.301,0.746c0.32-0.845,0.396-2.109,0.396-2.109
			c0.637,1.64,0,3.691,0,3.691l0,0c0.01,0.061,0.018,0.119,0.027,0.179c0.738,0.625,1.356,2.563,1.356,2.563
			c-0.224-0.541-0.767-0.895-1.252-1.11c0.019,2.965-1.187,5.861-3.297,6.725c-3.084,1.261-3.062,0.299-6.164,2.358
			c0,0-0.832-1.033-0.265-1.728c0.566-0.693,2.711-1.703,1.515-2.712c-1.199-1.009-1.642,0.126-2.082-0.566
			c-0.44-0.695,1.767-2.714-1.071-4.605C289.486,103.853,287.592,101.202,287.847,99.498z"/>
	</g>
	<g>
		<path fill="#4E306D" d="M80.248,16.145c-0.011-0.334-0.271-3.933-5.751-4.12c0,0,2.694,0.32,3.161,1.506
			c0,0-1.836-1.463-3.33-0.993s-2.371,3.089-2.381,3.95c-0.008,0.859,0.822,3.638,1.77,3.873c0.359,0.09,0.773,0.064,1.15,0.001
			c-0.254,0.394-0.5,0.829-0.737,1.313c-2.187,4.49,0.069,8.877,1.92,8.393c1.188-0.312,1.524,1.716,1.524,1.716l11.535-9.339
			C89.109,22.446,84.873,13.677,80.248,16.145z"/>
		<path fill="#6139BC" d="M84.266,148.403l-2.451,0.914c0,0-10.643-14.764-11.953-27.75c-0.234-2.319-0.155-4.565,0.35-6.642
			c0,0-0.104-0.595-0.285-1.644c-0.084-0.491-0.189-1.081-0.307-1.758c-0.348-1.981-0.822-4.695-1.367-7.783
			c-1.251-7.108-2.875-16.195-4.134-22.875l0.659-0.212l7.145-2.304l1.477-4.69l5.32-1.4c0,0,1.188,2.325,2.25,13.307
			c0.195,1.44,0.373,3.028,0.508,4.752c0.414,5.258,0.443,11.778-0.506,19.234c-0.244,1.909-0.551,3.879-0.934,5.903
			c-0.281,1.485-0.322,3.508-0.205,5.83C80.367,131.903,84.266,148.403,84.266,148.403z"/>
		<path fill="#4A2C76" d="M81.477,90.318l-11.551,22.965c-0.084-0.491-0.189-1.081-0.307-1.758
			c-0.348-1.981-0.822-4.695-1.367-7.783c-1.251-7.108-2.875-16.195-4.134-22.875l0.659-0.212l7.145-2.304l1.477-4.69l5.32-1.4
			c0,0,1.188,2.325,2.25,13.307C81.164,87.008,81.342,88.594,81.477,90.318z"/>
		<path fill="#6139BC" d="M76.395,75.208l-0.268-2.293c-4.479,1.19-16.449-3.324-16.449-3.324s-4.34,3.815-3.771,12.96
			c0.279,4.463,0.786,23.432,1.317,29.043c0.192,2.034,0.36,3.481,0.429,4.061c0.001,0.003,0.001,0.005,0.001,0.005
			c0.021,0.178-0.04,0.344-0.13,0.498c-0.781,1.326-1.428,2.706-1.959,4.119c-5.209,13.878,0.803,30.971,0.803,30.971l1.561-0.629
			c0,0,3.418-19.021,6.198-27.424c0.472-1.426,0.925-2.546,1.339-3.215c1.207-1.95,2.33-5.138,3.347-8.928
			c1.923-7.165,3.472-16.485,4.503-23.681C73.457,87.377,76.395,75.208,76.395,75.208z"/>
		<path fill="#FFB894" d="M111.69,72.278c-0.966,0.854-3.523-2.077-3.876-2.467c-0.02-0.036-0.037-0.057-0.037-0.057l0.779-2.169
			c0,0,3.354-0.13,3.912,0.426C113.025,68.57,112.747,71.37,111.69,72.278z"/>
		<path fill="#FFB894" d="M108.557,67.587l-0.334,2.244c0,0-0.148,0-0.408-0.02c-0.816-0.057-2.801-0.167-5.043-0.408
			c-3.377-0.334-7.383-0.927-8.977-1.91c-2.43-1.483-6.416-6.027-9.013-10.571c-0.075-0.11-0.13-0.222-0.187-0.333
			c-1.354-2.411-2.299-4.803-2.373-6.714c-0.057-1.168,0.074-2.169,0.315-3.041c0.315-1.149,0.835-2.059,1.372-2.744
			c0.074-0.111,0.15-0.224,0.26-0.315c0.891-1.058,1.762-1.502,1.762-1.502c0.445-0.186,0.928,0.037,1.429,0.574v0.02
			c0.407,0.427,0.853,1.075,1.278,1.891c0.02,0.02,0.037,0.038,0.037,0.057c0.094,0.167,0.186,0.353,0.297,0.556
			c0.037,0.038,0.057,0.094,0.075,0.131c0.202,0.427,0.407,0.871,0.61,1.335c2.281,4.97,4.711,12.499,6.732,14.742
			c0.872,0.965,4.859,2.856,8.029,4.266C106.701,66.844,108.557,67.587,108.557,67.587z"/>
		<path fill="#FFB894" d="M84.953,47.394c-1.406,0.651-3.105,1.096-5.158,1.208c-7.703,0.422-9.451-6.33-9.77-10.812
			c1.11-0.402,2.082-0.365,2.643-0.335c0.547,0.031,1.115,0.087,1.586,0.146c0.943-0.492,2.635-2.883,3.613-6.883l0.332,0.153
			l5.559,2.613c0,0-0.592,1.809-1.027,3.539c-0.34,1.354-0.584,2.663-0.379,3.028c0.438,0.179,0.699,0.29,0.699,0.29
			s0,0.002,0.002,0.006C83.109,40.491,84.318,43.57,84.953,47.394z"/>
		<path fill="#FF7042" d="M86.88,52.447c-0.058,0.154-0.122,0.304-0.191,0.458c-1.95,4.201-5.562,21.604-5.562,21.604
			c0.514,3.129-23.516-0.613-23.578-3.462c-0.846-3.021,3.004-7.874,5.174-10.31c0.271-0.306,0.516-0.633,0.729-0.98
			c0.536-0.868,0.877-1.849,0.984-2.873c0.426-4.039,0.264-7.823,0.301-10.125l0,0c0.424-0.313,0.834-0.604,1.216-0.88
			c0.583-0.426,1.101-0.824,1.481-1.228c0.417-0.441,0.679-0.892,0.709-1.399c0.022-0.384,0.011-0.777-0.03-1.172
			c-0.019-0.186-0.042-0.372-0.069-0.557c-0.3-1.955-1.117-3.729-1.117-3.729c2.068-0.837,5.742-0.339,5.742-0.339
			s-0.004,0.204-0.006,0.539c-0.012,1.342,0,4.79,0.431,5.441c0.538,0.813,10.383,4.372,10.902,3.27
			c0.513-1.084-0.89-6.164-0.942-6.355c-0.002-0.004-0.002-0.007-0.002-0.007c3.297,1.294,4.476,2.382,4.476,2.382
			C85.539,44.011,88.417,48.372,86.88,52.447z"/>
		<path fill="#F2AC8C" d="M83.758,33.486c0,0-0.592,1.807-1.027,3.539c-3.248-0.906-4.234-4.321-4.531-6.151L83.758,33.486z"/>
		<path fill="#FFB894" d="M84.441,35.4c0,0-7.771-1.799-6.577-6.621c1.194-4.823,0.995-8.303,6.009-7.359
			c5.012,0.945,5.518,3.023,5.51,4.73C89.377,27.856,86.494,35.743,84.441,35.4z"/>
		<path fill="#4E306D" d="M89.82,23.411c-0.836-1.748-1.82-1.655-2.434-1.345c-3.651-3.379-7.234-0.619-7.234-0.619
			c-1.379,3.332-4.367,4.691-4.367,4.691s1.194,1.223,4.654,1.196c1.057-0.008,2.12-0.493,3.088-1.163
			c-1.866,1.879-4.053,3.022-4.053,3.022c4.33-0.829,7.236-5.844,7.533-6.376c0.368,0.542,1.07,1.695,1.129,2.669
			c0.08,1.325-0.375,3.896,0.383,3.993C88.52,29.48,91.073,26.032,89.82,23.411z"/>
		<path fill="#FF7042" d="M87.526,42.722c0,0,1.872,3.265,2.152,4.104c0,0-2.427-0.094-3.407,1.773
			C86.271,48.601,86.037,43.163,87.526,42.722z"/>
		<path fill="#FF4A1E" d="M74.657,68.662c-4.739-0.05-8.753-4.972-11.206-8.905c0.536-0.868,0.877-1.849,0.984-2.873
			c0.426-4.039,0.264-7.823,0.301-10.125l0,0c0.424-0.313,0.834-0.604,1.216-0.88c0.583-0.426,1.101-0.824,1.481-1.228
			C71.313,51.211,81.082,68.73,74.657,68.662z"/>
		<path fill="#4A2C6A" d="M65.436,152.519H53.092c0,0-0.295-1.884,0.35-3.31c0.617-1.369,1.586-1.992,1.354-3.647
			c0.785,0.807,2.063,1.713,3.847,1.473c0.218,0.354,1.411,2.25,2.142,2.775C61.588,150.389,65.187,150.183,65.436,152.519z"/>
		<path fill="#4A2C6A" d="M91.934,152.519H79.593c0,0-0.462-1.97,0.349-3.31c0.717-1.186,0.441-1.858-0.09-2.84
			c0.56,0.229,1.283,0.436,2.079,0.391c0.615-0.034,1.265-0.313,1.836-0.645c0.532,0.604,2.806,3.182,3.517,3.693
			C88.09,150.389,91.686,150.183,91.934,152.519z"/>
		<g>
			<g>
				<path fill="#4A2C76" d="M104.271,64.385l-0.605-0.148c2.006-4.123,5.573-7.257,8.502-8.886c2.563-1.427,4.682-2.072,5.443-2.281
					c0.186-0.051,0.381-0.004,0.525,0.123l0.559,0.491c0.275,0.242,0.174,0.708-0.18,0.81
					C115.801,55.275,107.301,58.158,104.271,64.385z"/>
			</g>
			<path fill="#FF4A1E" d="M93.646,66.969c1.89-7.662,6.207-6.598,11.531-5.283c5.326,1.313,9.643,2.378,7.752,10.041
				c-1.354,5.49-6.768,8.878-12.094,7.564C95.512,77.977,92.292,72.46,93.646,66.969z"/>
			<path fill="#EAEAEA" d="M96.496,65.041c0-1.325,1.902-2.987,3.229-2.987c1.327,0,2.133,1.369,2.133,2.693
				c0,1.326-1.635,2.695-2.961,2.695C97.571,67.442,96.496,66.367,96.496,65.041z"/>
		</g>
		<path fill="#FFB894" d="M92.57,71.24l-0.648,2.373c0,0-0.816-0.148-2.115-0.39c-0.389-0.074-0.611-0.13-0.611-0.13
			c-1.038-0.204-2.279-0.482-3.634-0.778h-0.021c-2.316-0.557-4.913-1.225-7.1-1.967c-1.541-0.537-2.876-1.111-3.784-1.688
			c-0.093-0.056-0.167-0.111-0.261-0.186c-2.17-1.575-4.746-6.212-6.749-11.183c-0.278-0.686-0.538-1.372-0.798-2.04
			c-0.928-2.484-1.668-4.933-2.113-7.047c-0.279-1.261-0.464-2.411-0.5-3.355c-0.02-0.334-0.039-0.649-0.02-0.946
			c0.037-5.377,2.707-6.12,2.707-6.12c0.057-0.018,0.111-0.037,0.186-0.055c0.463-0.075,0.945,0.24,1.447,0.853
			c0.629,0.76,1.299,2.002,1.984,3.505c1.057,2.394,2.17,5.488,3.208,8.567c0.573,1.687,1.13,3.375,1.688,4.932
			c0.315,0.946,0.629,1.836,0.927,2.652c0.574,1.558,1.094,2.818,1.558,3.616c0.298,0.52,1.149,1.241,2.28,2.059
			c1.965,1.428,4.84,3.152,7.344,4.563c1.038,0.593,2.021,1.132,2.838,1.576C91.699,70.776,92.57,71.24,92.57,71.24z"/>
		<path fill="#FF7042" d="M70.533,42.095c-3.57-0.982-6.324,1.805-6.324,1.805c0.045-5.369,2.719-6.104,2.719-6.104
			C68.002,37.35,69.248,39.212,70.533,42.095z"/>
		<path fill="#FFB894" d="M92.57,71.24c0,0,1.166,0.024,1.822-0.377c0.659-0.402,2.525-0.951,3.367-0.859
			c0,0,0.311,0.127,0.201,0.42c-0.109,0.292-1.48,0.53-1.48,1.08c0,0,1.719-0.055,2.23-0.274c0.514-0.221,2.488,0.284,2.873,0.513
			c0.385,0.228-2.507,1.968-3.787,2.671c-1.279,0.703-5.875-0.799-5.875-0.799L92.57,71.24z"/>
	</g>
	<g>
		<g>
			<g>
				<path fill="#FF9F23" d="M91.699,236.241c-0.421,0-0.781-0.344-0.854-0.812l-4.174-27.459l-6.008-39.489l-1.678-11.043
					l4.277-0.144l0.741,6.41l5.213,45.049l3.09,26.703C92.355,235.872,92.069,236.241,91.699,236.241z"/>
			</g>
			<g>
				<path fill="#FF9F23" d="M47.918,157.439l-1.904,12.516v0.002l-5.258,34.57l-4.701,30.903c-0.07,0.468-0.432,0.812-0.852,0.812
					c-0.371,0-0.656-0.369-0.607-0.783l4.054-35.033l4.335-37.475l0.656-5.654L47.918,157.439z"/>
			</g>
			<path fill="#EE8914" d="M46.014,169.954c0.25-5.379-3.029-7.004-3.029-7.004l0.656-5.654l4.277,0.144L46.014,169.954z"/>
			<path fill="#EE8914" d="M84.005,163.706c-2.772,1.42-3.341,4.775-3.341,4.775l-1.678-11.043l4.277-0.144L84.005,163.706z"/>
		</g>
		<path fill="#FF9F23" d="M95.955,157.439H30.947c-1.035,0-1.881-0.849-1.881-1.884v-0.569c0-1.037,0.846-1.883,1.881-1.883h65.008
			c1.034,0,1.881,0.846,1.881,1.883v0.569C97.836,156.591,96.989,157.439,95.955,157.439z"/>
	</g>
	<path fill="#FF9F23" d="M308.034,235.862h-15.812c-0.849-0.719,0.586-2.351,2.084-2.461c0.649-0.049,1.473,0.088,2.413,0.287
		c0.218-2.892,1.462-15.884,6.145-15.361c5.266,0.584,0,5.723-1.488,8.764c-1.103,2.252-2.267,5.482-2.797,7.009
		c0.428,0.092,0.871,0.184,1.321,0.266c0.697-2.144,3.295-9.351,6.597-8.932c3.879,0.491,2.319,3.383-0.429,5.1
		c-2.019,1.26-4.491,3.053-5.67,3.92c0.998,0.162,2.037,0.271,3.095,0.246C306.2,234.635,307.521,235.433,308.034,235.862z"/>
	<g>
		<path fill="#FFDD71" d="M149.326,211.517c0.678,3.401,1.51,6.348,2.475,8.891c7.488,19.729,23.093,15.475,38.331,15.475
			c17.199,0,17.166-11.52,17.166-27.092c0-15.574-9.529-27.947-26.728-27.947C163.369,180.843,146.285,196.245,149.326,211.517z"/>
		<g>
			<path fill="#EE8914" d="M217.763,213.851c0.104-15.777-11.365-28.451-26.683-32.66c-15.631-4.293-28.611,6.209-28.585,21.51
				c0.024,15.373,13.274,30.596,29.126,32.643C206.958,237.321,217.661,229.196,217.763,213.851z"/>
			<path fill="#EAEAEA" d="M216.385,213.469c0.104-14.989-10.799-27.034-25.354-31.032c-14.852-4.078-27.185,5.897-27.162,20.438
				c0.023,14.605,12.613,29.07,27.677,31.017C206.12,235.773,216.29,228.052,216.385,213.469z"/>
			<g>
				<path fill="#FFC22A" d="M189.879,204.691l4.261-16.031c0.315-1.191-0.613-2.6-1.906-2.879c-1.577-0.344-3.748-0.711-6.058-0.789
					c-2.67-0.092-4.913,0.133-6.465,0.375c-1.201,0.184-1.684,1.533-0.973,2.729l9.826,16.568
					C188.917,205.257,189.726,205.273,189.879,204.691z"/>
				<path fill="#FFC22A" d="M193.57,209.61l15.972,9.981c1.188,0.742,2.545,0.283,2.781-0.942c0.284-1.496,0.573-3.592,0.573-5.931
					c0-2.705-0.297-5.082-0.586-6.754c-0.226-1.299-1.569-2.264-2.728-1.955l-16.028,4.265
					C192.978,208.427,192.991,209.249,193.57,209.61z"/>
				<path fill="#FFC22A" d="M192.583,206.644l15.795-4.201c1.176-0.313,1.547-1.732,0.758-2.912
					c-0.963-1.438-2.368-3.367-4.104-5.269c-2.013-2.198-3.935-3.903-5.328-5.043c-1.082-0.883-2.506-0.629-2.886,0.515
					l-5.235,15.836C191.394,206.135,192.01,206.796,192.583,206.644z"/>
				<path fill="#FFC22A" d="M191.066,211.094l4.884,17.64c0.364,1.313,1.786,2.174,2.916,1.762c1.377-0.502,3.221-1.293,5.02-2.432
					c2.082-1.32,3.683-2.72,4.742-3.765c0.824-0.813,0.506-2.36-0.641-3.135l-15.906-10.734
					C191.51,210.046,190.885,210.454,191.066,211.094z"/>
				<path fill="#FFC22A" d="M187.187,205.173l-10.672-15.803c-0.793-1.178-2.33-1.498-3.149-0.656
					c-0.998,1.029-2.291,2.523-3.417,4.353c-1.306,2.112-2.165,4.123-2.693,5.576c-0.408,1.127,0.433,2.555,1.703,2.895
					l17.601,4.691C187.189,206.394,187.577,205.747,187.187,205.173z"/>
				<path fill="#FFC22A" d="M186.554,207.671l-17.384-3.022c-1.295-0.226-2.23,0.813-1.916,2.129
					c0.383,1.606,1.01,3.809,1.979,6.123c1.121,2.68,2.352,4.908,3.285,6.44c0.723,1.189,2.238,1.566,3.072,0.765l11.531-11.117
					C187.536,208.591,187.187,207.78,186.554,207.671z"/>
				<path fill="#FFC22A" d="M188.116,210.368l-9.375,12.82c-0.697,0.955-0.203,2.508,1.014,3.184
					c1.486,0.82,3.563,1.859,5.867,2.688c2.67,0.957,5.008,1.493,6.651,1.789c1.271,0.229,2.185-0.808,1.847-2.101l-4.687-17.926
					C189.267,210.18,188.458,209.901,188.116,210.368z"/>
			</g>
		</g>
	</g>
	<g>
		<path fill="#4E306D" d="M149.809,130.538c0.072-0.286-6.217,2.842-6.535,3.196c-2.949,3.271-2.108,7.54-0.421,7.581
			c1.082,0.024,0.872,1.825,0.872,1.825l12.059-5.101C155.783,138.041,154.33,129.575,149.809,130.538z"/>
		<path fill="#4E306D" d="M151.295,131.199c0,0,0.43-4.697-4.818-4.697c0,0,1.591,0.433,2.412,1.294c0,0-3.346-1.966-6.988,1.056
			c-3.643,3.02-1.379,10.592-2.486,12.028c-1.108,1.438-5.422,1.728-4.896,6.375c0.528,4.648,13.69,10.472,12.845,14.318
			c0,0,5.16-7.584,1.47-11.043c0,0,1.799,1.692,1.981,3.705c0,0,0.488-3.931-2.013-5.187c-2.214-1.112-4.026-5.182-3.835-5.908
			C145.16,142.413,151.295,131.199,151.295,131.199z"/>
		<path fill="#F2AC8C" d="M146.529,153.296c-0.81-3.896-5.863-5.104-8.254-1.924c-0.43,0.572-0.731,1.25-0.83,2.049
			c-0.547,4.424,6.525,22.438,7.539,24.07c1.844,2.971,12.701,13.149,12.701,13.149l2.002-1.213c0,0-7.701-13.037-8.895-14.258
			C149.414,173.759,148.064,160.694,146.529,153.296z"/>
		<path fill="#F2AC8C" d="M156.926,189.435c0,0,2.919-1.918,4.025-1.796c1.105,0.125,4.307,1.046,4.346,1.517
			c0.037,0.471-3.566,0.764-3.809,1.021c-0.242,0.257-2.689,1.892-3.577,1.379C157.024,191.042,156.926,189.435,156.926,189.435z"/>
		<path fill="#EAEAEA" d="M136.553,232.757l-2.609-0.383c0,0-8.771-6.973-10.079-19.979c-0.132-1.324-0.159-2.668-0.063-4.021
			c0.012-0.156-0.006-0.313-0.09-0.445c0,0-0.002-0.002-0.004-0.004c-0.281-0.43-0.979-1.508-1.926-3.041
			c-0.932-1.512-2.529-4.366-4.284-7.571c-3.163-5.773-6.847-12.679-8.108-14.875c-4.025-7.009-2.086-11.722-2.086-11.722
			s11.229-1.108,14.305-3.801l1.108,1.707c0,0,2.433,10.771,2.318,10.82c0.118,0.367,0.241,0.739,0.364,1.119
			c1.92,5.926,4.129,13.332,5.332,19.362c0.678,3.396,1.035,6.353,0.844,8.367c-0.066,0.691,0.014,1.752,0.199,3.064
			C132.861,219.085,136.553,232.757,136.553,232.757z"/>
		<path fill="#4A2C6A" d="M142.025,236.058H131.14c0,0-0.26-1.658,0.308-2.919c0.545-1.206,1.321-1.245,0.1-3.139
			c0.691,0.711,2.915,1.008,4.489,0.795c0.192,0.313,1.242,2.41,1.887,2.873C138.637,234.178,141.807,233.997,142.025,236.058z"/>
		<path fill="#C8D1CE" d="M125.4,180.56c-0.951,5.243-3.196,13.971-7.901,16.75c-3.163-5.773-6.847-12.679-8.108-14.875
			c-4.025-7.009-2.086-11.722-2.086-11.722s11.229-1.108,14.305-3.801l1.108,1.707c0,0,2.433,10.77,2.318,10.82
			C125.154,179.808,125.277,180.18,125.4,180.56z"/>
		<path fill="#744DA5" d="M145.363,150.878c0,0,1.54,1.603,2.244,3.519c0,0-2.457,7.051-8.193,7.934
			C139.414,162.329,143.953,150.874,145.363,150.878z"/>
		<path fill="#EAEAEA" d="M117.766,171.525l0.039-2.037c-4.058,0.512-13.986-4.846-13.986-4.846s-4.244,2.821-4.826,10.881
			c-0.282,3.936-2.076,20.573-2.275,25.541c-0.072,1.801-0.096,3.086-0.104,3.6c0.001,0.004,0.001,0.004,0.001,0.004
			c-0.002,0.158-0.076,0.297-0.173,0.42c-0.839,1.066-1.567,2.197-2.198,3.369c-6.189,11.519-2.951,27.164-2.951,27.164l1.438-0.365
			c0,0,5.232-16.221,8.652-23.237c0.58-1.189,1.108-2.115,1.549-2.652c1.287-1.562,2.643-4.215,3.98-7.406
			c2.525-6.035,4.979-14,6.729-20.168C113.763,181.814,117.766,171.525,117.766,171.525z"/>
		<path fill="#FFB894" d="M141.504,157.937c-6.631-1.521-2.396-10.841-2.011-10.677c0.919-0.188,2.937-1.801,4.743-4.95l0.242,0.211
			l4.073,3.569c0,0-0.942,1.392-1.735,2.75c-0.617,1.064-1.145,2.113-1.06,2.476C146.084,151.573,143.271,158.343,141.504,157.937z"
			/>
		<path fill="#F2AC8C" d="M148.551,146.093c0,0-0.941,1.388-1.734,2.75c-2.531-1.563-2.533-4.696-2.338-6.321L148.551,146.093z"/>
		<path fill="#FFB894" d="M148.664,147.88c0,0-6.147-3.42-3.959-7.217c2.189-3.796,2.871-6.793,6.89-4.771
			c4.019,2.023,3.938,3.908,3.515,5.354C154.687,142.691,150.32,148.673,148.664,147.88z"/>
		<path fill="#4E306D" d="M156.149,139.032c-0.283-1.687-1.14-1.847-1.736-1.733c-2.271-3.755-5.979-2.29-5.979-2.29
			c-1.982,2.487-4.846,2.912-4.846,2.912s0.713,1.326,3.653,2.148c0.897,0.252,1.917,0.1,2.898-0.232
			c-2.038,1.14-4.171,1.574-4.171,1.574c3.873,0.354,7.56-3.188,7.941-3.566c0.178,0.55,0.492,1.697,0.305,2.537
			c-0.254,1.144-1.268,3.209-0.65,3.479C153.564,143.86,156.57,141.56,156.149,139.032z"/>
		<path fill="#4A2C6A" d="M99.947,236.058H89.061c0,0-0.26-1.658,0.309-2.919c0.543-1.206,1.397-1.756,1.193-3.217
			c0.691,0.713,1.818,1.511,3.393,1.297c0.193,0.313,1.244,1.986,1.889,2.449C96.555,234.178,99.727,233.997,99.947,236.058z"/>
		<path fill="#744DA5" d="M142.283,165.323c-1.399,0.488-3.365,0.758-5.377,0.975c-2.863,0.313-5.818,0.525-7.365,1.144
			c-0.565,0.227-0.942,0.504-1.061,0.858c-0.67,2.019-3.627,5.131-3.627,5.131c-18.955-0.86-21.035-8.791-21.035-8.791
			c12.751-14.827,34.344-19.12,34.344-19.12s1.543-0.652,5.426,2.434c2.592,2.061,2.251,2.852,2.251,2.852
			S146.406,163.885,142.283,165.323z"/>
		<path fill="#56309E" d="M136.906,166.298c-2.863,0.313-5.818,0.525-7.365,1.144c-0.633-9.451,3.828-16.563,3.828-16.563
			S136.279,162.721,136.906,166.298z"/>
		<path fill="#FFB894" d="M139.852,149.05c0,0-7.174,0.709-7.748,5.369c-0.575,4.66,6.878,23.646,7.945,25.365
			c1.943,3.129,13.385,13.857,13.385,13.857l2.107-1.277c0,0-8.115-13.74-9.371-15.025
			C144.196,175.321,142.281,150.663,139.852,149.05z"/>
		<path fill="#744DA5" d="M132.311,157.223c0.02,0.105,6.619,2.156,10.869,0c0,0,0.908-9.803-4.162-9.271
			c-5.074,0.533-8.077,2.131-8.204,4.559C130.686,154.939,132.311,157.223,132.311,157.223z"/>
		<path fill="#FFB894" d="M152.781,192.28c0,0,2.573-2.363,3.686-2.42c1.111-0.058,4.416,0.336,4.531,0.795
			c0.113,0.457-3.396,1.328-3.595,1.621c-0.196,0.293-2.349,2.299-3.308,1.938C153.138,193.851,152.781,192.28,152.781,192.28z"/>
	</g>
</g>
</svg>
