<?xml version="1.0" encoding="utf-8"?>
<!-- Generator: Adobe Illustrator 16.0.3, SVG Export Plug-In . SVG Version: 6.00 Build 0)  -->
<!DOCTYPE svg PUBLIC "-//W3C//DTD SVG 1.1//EN" "http://www.w3.org/Graphics/SVG/1.1/DTD/svg11.dtd">
<svg version="1.1" id="Warstwa_1" xmlns="http://www.w3.org/2000/svg" xmlns:xlink="http://www.w3.org/1999/xlink" x="0px" y="0px"
	 width="137.5px" height="66.373px" viewBox="0 0 137.5 66.373" enable-background="new 0 0 137.5 66.373" xml:space="preserve">
<g>
	<path fill="#242021" d="M46.915,47.515H44.1v8.867h-1.655v-8.867H39.63v-1.636h7.284V47.515z"/>
	<path fill="#242021" d="M53.998,56.382l-2.828-4.065h-1.29v4.065h-1.648l-0.007-10.503h3.264c1.955,0,3.558,1.505,3.558,3.375
		c0,1.355-0.873,2.534-2.078,2.926l3.056,4.202H53.998z M51.528,50.948c0.99,0.006,1.817-0.795,1.817-1.733
		c0-0.978-0.84-1.7-1.817-1.7h-1.655v3.434H51.528z"/>
	<path fill="#242021" d="M58.781,47.501v2.691h3.975v1.642h-3.975v2.906h4.606v1.642h-6.255V45.879h6.255v1.622H58.781z"/>
	<path fill="#242021" d="M64.495,54.538l1.303-0.932c0.469,0.82,1.342,1.29,2.352,1.29c1.179,0,2.072-0.567,2.072-1.368
		c0-0.971-1.381-1.558-2.606-2.085c-1.231-0.548-2.6-1.187-2.6-2.835c0-1.72,1.492-2.919,3.381-2.919
		c1.499,0,2.619,0.724,3.049,1.877l-1.225,0.847c-0.326-0.71-1.049-1.107-1.811-1.107c-0.964,0-1.733,0.6-1.733,1.342
		c0,0.821,0.971,1.114,2.248,1.662c1.662,0.729,2.952,1.531,2.952,3.186c0,1.864-1.616,3.063-3.747,3.063
		C66.404,56.558,65.095,55.75,64.495,54.538z"/>
	<path fill="#242021" d="M77.651,47.515h-4.763v-1.636h7.389l-4.756,8.861h4.756v1.642h-7.389L77.651,47.515z"/>
	<path fill="#242021" d="M81.065,51.137c0-2.958,2.469-5.44,5.421-5.44c1.362,0.02,2.619,0.6,3.648,1.603l-0.958,1.297
		c-0.736-0.736-1.694-1.225-2.724-1.225c-1.902,0-3.72,1.668-3.72,3.772c0,2.117,1.844,3.753,3.727,3.753
		c1.075,0,2-0.534,2.724-1.251l0.951,1.329c-0.905,0.893-2.059,1.576-3.623,1.576C83.535,56.551,81.065,54.102,81.065,51.137z"/>
	<path fill="#242021" d="M95.804,47.515h-4.763v-1.636h7.389l-4.756,8.861h4.756v1.642h-7.389L95.804,47.515z"/>
	<path fill="#242021" d="M99.219,51.144c0-2.997,2.437-5.447,5.427-5.447c2.984,0,5.434,2.45,5.434,5.447
		c0,2.971-2.45,5.407-5.44,5.407C101.656,56.551,99.219,54.114,99.219,51.144z M108.413,51.13c0-2.078-1.701-3.772-3.772-3.772
		c-2.072,0-3.76,1.694-3.76,3.772c0,2.065,1.688,3.753,3.76,3.753C106.712,54.883,108.413,53.195,108.413,51.13z"/>
	<path fill="#242021" d="M117.652,47.515h-2.814v8.867h-1.655v-8.867h-2.815v-1.636h7.284V47.515z"/>
	<path fill="#242021" d="M124.488,56.382l-3.883-5.082v5.082h-1.642V45.879h1.642v5.03l3.609-5.03h1.916l-3.727,5.153l4.098,5.35
		H124.488z"/>
	<path fill="#242021" d="M126.137,51.144c0-2.997,2.437-5.447,5.427-5.447c2.984,0,5.434,2.45,5.434,5.447
		c0,2.971-2.45,5.407-5.44,5.407C128.573,56.551,126.137,54.114,126.137,51.144z M135.33,51.13c0-2.078-1.701-3.772-3.772-3.772
		s-3.76,1.694-3.76,3.772c0,2.065,1.688,3.753,3.76,3.753S135.33,53.195,135.33,51.13z"/>
</g>
<g>
	<path fill="#C0D69F" d="M45.539,61.372l0.423-1.991h0.62l-1.179,5.557h-0.621l0.118-0.563c-0.487,0.403-1.012,0.606-1.576,0.606
		c-0.571,0-1.015-0.209-1.335-0.62c-0.314-0.411-0.412-0.907-0.29-1.486c0.125-0.582,0.433-1.079,0.925-1.492
		c0.493-0.41,1.024-0.615,1.595-0.615C44.782,60.768,45.222,60.969,45.539,61.372z M44.572,63.922
		c0.345-0.287,0.561-0.638,0.647-1.047c0.087-0.407,0.02-0.76-0.202-1.054c-0.22-0.289-0.531-0.434-0.933-0.434
		c-0.398,0-0.771,0.145-1.119,0.434c-0.345,0.294-0.561,0.646-0.646,1.054c-0.086,0.409-0.019,0.76,0.201,1.047
		c0.227,0.291,0.539,0.435,0.936,0.435C43.858,64.356,44.23,64.213,44.572,63.922z"/>
	<path fill="#C0D69F" d="M47.157,60.808h0.609l-0.879,4.13h-0.609L47.157,60.808z M47.998,59.493
		c0.056,0.073,0.073,0.161,0.053,0.262c-0.022,0.102-0.076,0.188-0.163,0.261s-0.182,0.109-0.286,0.109
		c-0.101,0-0.18-0.037-0.238-0.109c-0.057-0.072-0.073-0.159-0.051-0.261c0.02-0.101,0.074-0.188,0.161-0.262
		c0.088-0.071,0.183-0.107,0.285-0.107C47.862,59.386,47.941,59.422,47.998,59.493z"/>
	<path fill="#C0D69F" d="M50.59,60.768c0.568,0,1.012,0.205,1.331,0.615c0.316,0.415,0.411,0.912,0.286,1.492l-0.064,0.313h-3.49
		c0,0.339,0.107,0.617,0.323,0.838c0.218,0.222,0.501,0.336,0.848,0.336c0.27,0,0.536-0.072,0.797-0.214
		c0.258-0.145,0.478-0.34,0.658-0.587l0.495,0.281c-0.253,0.354-0.567,0.631-0.94,0.834c-0.371,0.203-0.75,0.306-1.137,0.306
		c-0.574,0-1.02-0.206-1.34-0.617c-0.314-0.413-0.411-0.91-0.29-1.489c0.124-0.58,0.433-1.077,0.925-1.492
		C49.483,60.973,50.017,60.768,50.59,60.768z M51.625,62.563c0-0.338-0.108-0.617-0.327-0.838c-0.218-0.225-0.499-0.338-0.841-0.338
		c-0.349,0-0.679,0.113-0.994,0.338c-0.31,0.221-0.536,0.5-0.677,0.838H51.625z"/>
	<path fill="#C0D69F" d="M54.293,60.808h0.598l-0.13,0.61h-0.598l-0.749,3.52h-0.61l0.75-3.52h-0.597l0.129-0.61h0.598l0.299-1.427
		h0.61L54.293,60.808z"/>
	<path fill="#C0D69F" d="M57.449,60.768c0.569,0,1.013,0.205,1.333,0.615c0.314,0.415,0.409,0.912,0.285,1.492l-0.065,0.313h-3.49
		c0,0.339,0.107,0.617,0.323,0.838c0.217,0.222,0.5,0.336,0.849,0.336c0.268,0,0.534-0.072,0.795-0.214
		c0.259-0.145,0.478-0.34,0.659-0.587l0.495,0.281c-0.254,0.354-0.567,0.631-0.941,0.834c-0.371,0.203-0.75,0.306-1.137,0.306
		c-0.574,0-1.02-0.206-1.34-0.617c-0.313-0.413-0.41-0.91-0.289-1.489c0.125-0.58,0.433-1.077,0.924-1.492
		C56.342,60.973,56.876,60.768,57.449,60.768z M58.485,62.563c0-0.338-0.11-0.617-0.328-0.838c-0.218-0.225-0.499-0.338-0.841-0.338
		c-0.349,0-0.679,0.113-0.993,0.338c-0.311,0.221-0.536,0.5-0.678,0.838H58.485z"/>
	<path fill="#C0D69F" d="M61.152,60.808h0.598l-0.13,0.61h-0.597l-0.75,3.52h-0.609l0.75-3.52h-0.598l0.13-0.61h0.598l0.299-1.427
		h0.61L61.152,60.808z"/>
	<path fill="#C0D69F" d="M62.413,62.845c-0.081,0.383-0.011,0.721,0.209,1.012c0.216,0.287,0.503,0.433,0.86,0.435
		c0.373,0,0.718-0.144,1.035-0.435c0.348-0.291,0.563-0.629,0.644-1.012l0.434-2.037h0.621l-0.754,3.549l-0.072,0.229
		c-0.186,0.511-0.506,0.935-0.964,1.273c-0.436,0.345-0.897,0.515-1.385,0.515c-0.337,0-0.642-0.091-0.913-0.273
		c-0.292-0.182-0.501-0.422-0.628-0.727l0.594-0.332c0.091,0.216,0.229,0.388,0.415,0.515c0.211,0.128,0.432,0.193,0.666,0.193
		c0.365,0,0.705-0.139,1.02-0.419c0.34-0.279,0.558-0.622,0.654-1.019c-0.49,0.399-0.989,0.6-1.5,0.6
		c-0.548,0-0.969-0.204-1.26-0.615c-0.316-0.411-0.415-0.895-0.297-1.451l0.435-2.037h0.621L62.413,62.845z"/>
	<path fill="#C0D69F" d="M68.445,64.938l-1.287-1.781l-0.377,1.778h-0.608l1.184-5.557h0.608l-0.685,3.209l1.926-1.779h0.814
		l-2.26,2.063l1.5,2.066H68.445z"/>
	<path fill="#C0D69F" d="M73.648,64.938h-0.621l0.119-0.559c-0.487,0.401-1.011,0.603-1.573,0.603c-0.573,0-1.019-0.206-1.339-0.617
		c-0.314-0.413-0.411-0.91-0.29-1.489c0.125-0.58,0.433-1.077,0.925-1.492c0.493-0.41,1.025-0.615,1.599-0.615
		c0.561,0,1,0.201,1.317,0.604l0.122-0.564h0.62L73.648,64.938z M71.704,64.361c0.398,0,0.77-0.146,1.115-0.439
		c0.345-0.287,0.561-0.638,0.647-1.047v-0.004c0.089-0.407,0.021-0.756-0.202-1.045c-0.221-0.293-0.53-0.438-0.93-0.438
		c-0.4,0-0.774,0.146-1.119,0.438c-0.347,0.29-0.564,0.642-0.65,1.049c-0.087,0.409-0.017,0.76,0.206,1.047
		C70.992,64.216,71.304,64.361,71.704,64.361z"/>
	<path fill="#C0D69F" d="M78.988,64.938l-1.286-1.781l-0.376,1.778h-0.61l1.184-5.557h0.608l-0.685,3.209l1.926-1.779h0.815
		l-2.262,2.063l1.501,2.066H78.988z"/>
	<path fill="#C0D69F" d="M81.478,59.381h0.61l-1.18,5.557h-0.61L81.478,59.381z"/>
	<path fill="#C0D69F" d="M82.737,60.808h0.61l-0.879,4.13h-0.609L82.737,60.808z M83.579,59.493
		c0.056,0.073,0.074,0.161,0.053,0.262c-0.022,0.102-0.077,0.188-0.163,0.261c-0.087,0.072-0.182,0.109-0.287,0.109
		c-0.101,0-0.18-0.037-0.237-0.109c-0.056-0.072-0.073-0.159-0.051-0.261c0.02-0.101,0.073-0.188,0.161-0.262
		c0.087-0.071,0.182-0.107,0.284-0.107C83.443,59.386,83.524,59.422,83.579,59.493z"/>
	<path fill="#C0D69F" d="M86.125,60.768c0.523,0,0.926,0.201,1.211,0.604c0.281,0.403,0.363,0.89,0.243,1.462l-0.449,2.104h-0.61
		l0.45-2.104c0.083-0.401,0.03-0.744-0.16-1.031c-0.19-0.285-0.462-0.426-0.815-0.426c-0.356,0-0.689,0.141-1,0.426
		c-0.313,0.284-0.511,0.626-0.594,1.028l-0.449,2.106h-0.609l0.879-4.13h0.609l-0.11,0.512
		C85.163,60.95,85.631,60.768,86.125,60.768z"/>
	<path fill="#C0D69F" d="M88.847,60.808h0.609l-0.879,4.13h-0.609L88.847,60.808z M89.688,59.493
		c0.056,0.073,0.074,0.161,0.053,0.262c-0.022,0.102-0.078,0.188-0.164,0.261s-0.181,0.109-0.285,0.109
		c-0.102,0-0.18-0.037-0.238-0.109c-0.057-0.072-0.073-0.159-0.051-0.261c0.02-0.101,0.074-0.188,0.162-0.262
		c0.087-0.071,0.182-0.107,0.285-0.107C89.552,59.386,89.633,59.422,89.688,59.493z"/>
	<path fill="#C0D69F" d="M92.147,61.388c-0.401,0-0.773,0.146-1.119,0.438c-0.347,0.29-0.564,0.642-0.651,1.049
		c-0.086,0.409-0.018,0.76,0.206,1.047c0.221,0.294,0.531,0.439,0.933,0.439c0.487,0,0.92-0.205,1.298-0.611l0.239-0.253
		l0.423,0.359l-0.237,0.253c-0.535,0.582-1.153,0.872-1.853,0.872c-0.573,0-1.021-0.206-1.339-0.617
		c-0.314-0.413-0.411-0.91-0.289-1.489c0.123-0.58,0.431-1.077,0.925-1.492c0.491-0.41,1.024-0.615,1.597-0.615
		c0.701,0,1.196,0.291,1.484,0.87l0.13,0.252l-0.579,0.361l-0.129-0.255C92.98,61.59,92.635,61.388,92.147,61.388z"/>
	<path fill="#C0D69F" d="M98.012,61.312l-3.216,3.019h2.646l-0.129,0.607h-3.536l0.107-0.496l3.216-3.023h-2.646l0.13-0.61h3.536
		L98.012,61.312z"/>
	<path fill="#C0D69F" d="M100.761,60.768c0.521,0,0.925,0.201,1.21,0.604c0.282,0.403,0.364,0.89,0.244,1.462l-0.449,2.104h-0.609
		l0.449-2.104c0.083-0.401,0.03-0.744-0.161-1.031c-0.189-0.285-0.461-0.426-0.813-0.426c-0.356,0-0.688,0.141-1.001,0.426
		c-0.313,0.284-0.51,0.626-0.594,1.028l-0.45,2.106h-0.608l0.878-4.13h0.61l-0.111,0.512
		C99.797,60.95,100.265,60.768,100.761,60.768z"/>
	<path fill="#C0D69F" d="M106.536,64.938h-0.622l0.118-0.559c-0.488,0.401-1.011,0.603-1.572,0.603c-0.574,0-1.02-0.206-1.34-0.617
		c-0.315-0.413-0.41-0.91-0.288-1.489c0.123-0.58,0.431-1.077,0.924-1.492c0.492-0.41,1.024-0.615,1.599-0.615
		c0.56,0,1,0.201,1.316,0.604l0.123-0.564h0.62L106.536,64.938z M104.59,64.361c0.398,0,0.769-0.146,1.115-0.439
		c0.345-0.287,0.56-0.638,0.646-1.047v-0.004c0.089-0.407,0.021-0.756-0.202-1.045c-0.221-0.293-0.531-0.438-0.928-0.438
		c-0.402,0-0.775,0.146-1.12,0.438c-0.349,0.29-0.564,0.642-0.651,1.049c-0.087,0.409-0.018,0.76,0.205,1.047
		C103.878,64.216,104.189,64.361,104.59,64.361z"/>
</g>
<g>
	
		<linearGradient id="SVGID_1_" gradientUnits="userSpaceOnUse" x1="15.5508" y1="-303.2866" x2="14.5545" y2="-362.2346" gradientTransform="matrix(0.6791 -0.734 0.734 0.6791 275.244 262.5531)">
		<stop  offset="0" style="stop-color:#434994"/>
		<stop  offset="0.4916" style="stop-color:#55959C"/>
		<stop  offset="1" style="stop-color:#D7E1A0"/>
	</linearGradient>
	<path fill="url(#SVGID_1_)" d="M47.06,22.78c0.002,0.002,0.004,0.003,0.004,0.008c1.963,5.264,2.903,11.736,2.323,19.686
		l-0.092-0.085C42.171,7.822,11.739,6.477,10.474,6.436C37.606,5.243,46.829,22.346,47.06,22.78z"/>
	
		<linearGradient id="SVGID_2_" gradientUnits="userSpaceOnUse" x1="13.3145" y1="-314.2798" x2="11.3296" y2="-373.8251" gradientTransform="matrix(0.6791 -0.734 0.734 0.6791 275.244 262.5531)">
		<stop  offset="0" style="stop-color:#D7E1A0"/>
		<stop  offset="0.5084" style="stop-color:#55959C"/>
		<stop  offset="1" style="stop-color:#434994"/>
	</linearGradient>
	<path fill="url(#SVGID_2_)" d="M49.296,42.389C38.348,13.35,10.474,6.436,10.474,6.436C11.739,6.477,42.171,7.822,49.296,42.389z"
		/>
	<linearGradient id="SVGID_3_" gradientUnits="userSpaceOnUse" x1="48.3682" y1="39.2793" x2="76.9001" y2="5.7418">
		<stop  offset="0" style="stop-color:#434994"/>
		<stop  offset="0.4916" style="stop-color:#55959C"/>
		<stop  offset="1" style="stop-color:#D7E1A0"/>
	</linearGradient>
	<path fill="url(#SVGID_3_)" d="M51.335,39.614l0.048-0.075C74.46,30.78,72.01,9.62,71.897,8.741
		c0.001-0.006,0.001-0.016-0.003-0.021c-0.001-0.002-0.001-0.002-0.001-0.002c-0.001-0.003-0.001-0.006-0.001-0.006L71.771,8.63
		c-18.665,3.645-22.13,16.797-22.214,17.128c0-0.017,0.004-0.031,0.004-0.05c0.031-0.242,0.063-0.477,0.099-0.711
		c0.023-0.159,0.051-0.317,0.075-0.474c0.038-0.191,0.071-0.38,0.111-0.57l0.07-0.338c0.026-0.113,0.049-0.226,0.074-0.336
		c0.026-0.114,0.054-0.229,0.082-0.341c0.03-0.113,0.058-0.226,0.087-0.337c0.027-0.103,0.058-0.204,0.084-0.308
		c0.017-0.061,0.034-0.123,0.05-0.181c0.034-0.105,0.063-0.208,0.093-0.31c0.083-0.265,0.168-0.524,0.259-0.777
		c0.035-0.106,0.07-0.208,0.11-0.312c0.036-0.102,0.074-0.204,0.114-0.305c0.076-0.201,0.157-0.403,0.239-0.599
		c0.043-0.099,0.086-0.195,0.125-0.295c0.022-0.047,0.045-0.097,0.067-0.146c0.021-0.047,0.042-0.097,0.063-0.144
		c0.1-0.218,0.2-0.432,0.304-0.64c0.046-0.093,0.09-0.182,0.138-0.273c0.057-0.111,0.119-0.224,0.177-0.336
		c0.12-0.218,0.241-0.434,0.363-0.645c0.063-0.106,0.124-0.211,0.189-0.317c0.032-0.055,0.067-0.112,0.102-0.165
		c0.006-0.013,0.013-0.022,0.02-0.035c0.223-0.361,0.458-0.711,0.696-1.05c0.11-0.158,0.221-0.313,0.337-0.47
		c0.088-0.117,0.178-0.235,0.27-0.353c0.029-0.039,0.063-0.083,0.094-0.124c0.112-0.141,0.224-0.281,0.338-0.419l0.003-0.005
		c0.112-0.137,0.229-0.271,0.343-0.407c0.01-0.01,0.017-0.021,0.028-0.031c0.123-0.143,0.244-0.278,0.368-0.416
		c0.1-0.108,0.202-0.219,0.304-0.325c0.042-0.05,0.086-0.101,0.135-0.144c0.095-0.102,0.188-0.199,0.286-0.296
		c0.022-0.025,0.048-0.049,0.071-0.068c0.12-0.125,0.244-0.247,0.365-0.364c0.005-0.007,0.013-0.01,0.016-0.015
		c0.104-0.102,0.211-0.198,0.316-0.299c0.066-0.063,0.135-0.123,0.201-0.184c0.111-0.106,0.227-0.207,0.343-0.307
		c0.117-0.106,0.24-0.214,0.364-0.315c0.121-0.105,0.243-0.21,0.367-0.312c0.05-0.039,0.103-0.08,0.153-0.122
		c0.093-0.075,0.187-0.151,0.282-0.227c0.492-0.39,0.996-0.761,1.502-1.111c0.094-0.064,0.187-0.125,0.281-0.19
		c0.807-0.548,1.623-1.045,2.441-1.499c0.1-0.059,0.198-0.111,0.301-0.166c0.336-0.187,0.673-0.362,1.007-0.53
		c0.133-0.068,0.264-0.136,0.395-0.2c0.4-0.2,0.8-0.386,1.195-0.563c0.125-0.06,0.248-0.11,0.371-0.166
		c0.091-0.043,0.185-0.082,0.279-0.12c0.117-0.055,0.232-0.102,0.347-0.15c0.186-0.079,0.369-0.152,0.551-0.225
		c0.147-0.063,0.296-0.117,0.441-0.177c0.146-0.058,0.292-0.114,0.437-0.17c0.144-0.052,0.287-0.106,0.428-0.16
		c0.144-0.051,0.281-0.102,0.422-0.151c0.141-0.049,0.279-0.097,0.415-0.146c0.019-0.009,0.042-0.013,0.061-0.021
		c0.394-0.135,0.768-0.255,1.135-0.372c0.002-0.002,0.002-0.002,0.002-0.002c0.128-0.04,0.253-0.078,0.376-0.115
		c0.268-0.083,0.528-0.158,0.779-0.227c0.1-0.028,0.201-0.06,0.299-0.086c0.455-0.125,0.881-0.236,1.269-0.333
		c0.057-0.013,0.114-0.028,0.169-0.039c0.135-0.033,0.262-0.063,0.386-0.091c0.087-0.021,0.168-0.041,0.254-0.06
		c0.245-0.053,0.468-0.102,0.67-0.143c0.066-0.014,0.129-0.026,0.189-0.035c0.359-0.074,0.613-0.113,0.743-0.138l0.003-0.002
		c0.036,0.155,0.107,0.471,0.199,0.93c0.014,0.069,0.028,0.14,0.04,0.21c0.111,0.572,0.242,1.332,0.365,2.235
		c0.031,0.227,0.059,0.46,0.09,0.703c0.014,0.125,0.028,0.247,0.042,0.375c0.025,0.249,0.053,0.51,0.079,0.777
		c0.099,1.071,0.171,2.264,0.187,3.542c0.004,0.16,0.004,0.32,0.004,0.481c0,0.327-0.006,0.655-0.013,0.99
		c-0.002,0.165-0.006,0.332-0.014,0.503l0.001,0.003c-0.028,0.785-0.083,1.595-0.164,2.415c-0.008,0.125-0.022,0.246-0.037,0.366
		c-0.044,0.417-0.096,0.836-0.157,1.258c-0.016,0.117-0.035,0.231-0.055,0.349c-0.104,0.665-0.229,1.34-0.377,2.013v0.003
		c-0.084,0.367-0.171,0.731-0.268,1.097c-0.091,0.343-0.188,0.688-0.29,1.032c-0.103,0.342-0.215,0.683-0.332,1.023
		c-0.032,0.093-0.063,0.187-0.099,0.275c-0.731,2.046-1.732,4.052-3.086,5.913c-0.129,0.182-0.267,0.361-0.407,0.543
		c-0.138,0.18-0.279,0.356-0.427,0.531c-0.073,0.089-0.147,0.174-0.22,0.262c-0.15,0.176-0.303,0.348-0.459,0.521
		c-0.077,0.085-0.157,0.171-0.237,0.254c-0.07,0.074-0.143,0.148-0.215,0.227l-0.673,0.661c-0.075,0.073-0.155,0.146-0.234,0.216
		c-0.079,0.071-0.158,0.145-0.238,0.214c-0.078,0.073-0.158,0.143-0.24,0.211c-0.244,0.211-0.496,0.419-0.753,0.62
		c-0.26,0.202-0.526,0.402-0.799,0.596c-0.105,0.075-0.204,0.147-0.31,0.219c-0.081,0.055-0.164,0.111-0.248,0.166
		c-0.092,0.063-0.187,0.128-0.286,0.189c-0.094,0.06-0.19,0.125-0.289,0.185c-0.193,0.122-0.393,0.242-0.593,0.36
		c-0.099,0.057-0.198,0.116-0.299,0.172c-0.002,0.002-0.002,0.002-0.005,0.002C61.254,37.761,56.888,39.13,51.335,39.614z"/>
	<linearGradient id="SVGID_4_" gradientUnits="userSpaceOnUse" x1="-4.603" y1="55.9131" x2="36.0452" y2="8.1337">
		<stop  offset="0" style="stop-color:#55959C"/>
		<stop  offset="1" style="stop-color:#D7E1A0"/>
	</linearGradient>
	<path fill="url(#SVGID_4_)" d="M10.432,6.438l-0.146,0.154c0.841,25.288,16.298,33.866,18.804,35.094
		c0.026,0.005,0.056,0.01,0.082,0.013c0.012,0.005,0.029,0.005,0.046,0.014h-0.073c0.155,0.073,0.25,0.116,0.279,0.128
		c-0.026-0.004-0.048-0.012-0.069-0.017c-0.128-0.038-0.257-0.077-0.381-0.116c-1.919-0.012-14.295,0.557-22.672,16.185l0.043,0.136
		l0.004,0.005c0,0,0,0,0.004,0c0.005,0.004,0.014,0.009,0.018,0.009c0.747,0.343,17.581,7.749,32.125-6.725
		C23.091,73.523,0.396,60.064,0.005,59.834C0,59.829,0,59.829,0,59.829c0.065-0.115,0.176-0.347,0.352-0.669
		c0.027-0.056,0.056-0.11,0.09-0.172c0.1-0.18,0.211-0.378,0.335-0.597c0.043-0.072,0.086-0.146,0.129-0.223
		c0.063-0.112,0.129-0.223,0.202-0.344c0.03-0.052,0.06-0.099,0.085-0.149c0.21-0.343,0.438-0.717,0.695-1.116
		C1.94,56.474,2,56.388,2.056,56.297c0.142-0.219,0.288-0.445,0.446-0.674c0.073-0.106,0.146-0.213,0.223-0.325c0,0,0,0,0-0.005
		c0.224-0.313,0.446-0.635,0.691-0.974c0.013-0.013,0.026-0.033,0.04-0.052c0.084-0.115,0.171-0.231,0.261-0.352
		c0.09-0.122,0.181-0.236,0.271-0.361c0.09-0.119,0.184-0.239,0.279-0.359c0.094-0.123,0.193-0.244,0.291-0.369
		c0.099-0.12,0.194-0.245,0.296-0.369c0.125-0.149,0.25-0.305,0.378-0.459c0.081-0.101,0.162-0.194,0.249-0.288
		c0.063-0.078,0.124-0.157,0.197-0.231c0.086-0.103,0.172-0.201,0.266-0.306c0.284-0.325,0.58-0.65,0.889-0.978
		c0.103-0.103,0.206-0.209,0.309-0.317c0.257-0.271,0.528-0.541,0.803-0.807c0.081-0.083,0.164-0.159,0.249-0.237
		c0.674-0.647,1.391-1.282,2.151-1.892c0.089-0.068,0.176-0.142,0.265-0.209c0.485-0.384,0.987-0.755,1.502-1.111
		c0.103-0.069,0.206-0.135,0.3-0.202c0.056-0.034,0.113-0.073,0.164-0.107c0.136-0.091,0.27-0.177,0.407-0.263
		c0.133-0.086,0.27-0.171,0.407-0.254c0.129-0.081,0.262-0.161,0.396-0.235c0.077-0.047,0.154-0.094,0.236-0.141
		c0.123-0.072,0.248-0.143,0.376-0.216c0.005,0,0.009-0.003,0.017-0.007c0.147-0.081,0.301-0.164,0.456-0.242
		c0.025-0.016,0.059-0.034,0.085-0.047c0.124-0.068,0.245-0.128,0.37-0.188c0.056-0.031,0.115-0.061,0.175-0.088
		c0.133-0.063,0.267-0.133,0.404-0.191c0.167-0.077,0.331-0.153,0.502-0.231c0.013-0.005,0.026-0.01,0.039-0.018
		c0.163-0.07,0.325-0.138,0.493-0.206h0.005c0.163-0.069,0.33-0.138,0.498-0.202c0.047-0.017,0.099-0.037,0.146-0.052
		c0.142-0.056,0.279-0.102,0.42-0.152c0.18-0.066,0.361-0.13,0.545-0.187c0.396-0.13,0.798-0.248,1.21-0.356
		c0.013,0,0.025-0.005,0.039-0.008c0.061-0.018,0.124-0.034,0.189-0.047c0.12-0.031,0.235-0.061,0.355-0.091
		c0.241-0.056,0.481-0.106,0.726-0.153c0.125-0.021,0.25-0.048,0.373-0.074c0.104-0.018,0.198-0.03,0.301-0.047
		c0.231-0.039,0.463-0.072,0.699-0.102c0.052-0.008,0.106-0.013,0.159-0.018c0.051-0.01,0.107-0.018,0.159-0.021
		c0.108-0.012,0.21-0.022,0.318-0.035c0.214-0.021,0.428-0.039,0.643-0.052c0.107-0.009,0.215-0.017,0.326-0.021
		c0.108-0.005,0.219-0.008,0.327-0.013c0.271-0.013,0.544-0.017,0.819-0.017c0.107,0,0.214,0.004,0.327,0
		c0.061,0.004,0.125,0.004,0.184,0.008c0.107,0.004,0.215,0.004,0.323,0.009c0.111,0.005,0.227,0.008,0.342,0.018
		c0.12,0.005,0.237,0.013,0.353,0.021c0.116,0.008,0.227,0.018,0.342,0.025l0.343,0.034c0.194,0.016,0.387,0.044,0.579,0.062
		c0.156,0.024,0.313,0.045,0.473,0.066c0.077,0.013,0.155,0.022,0.236,0.039c-0.107-0.034-0.22-0.068-0.326-0.103
		c-0.215-0.067-0.435-0.141-0.649-0.215c-0.262-0.09-0.519-0.186-0.777-0.279l-0.467-0.18c-0.151-0.06-0.302-0.12-0.456-0.18
		c-0.155-0.064-0.309-0.129-0.463-0.192c-0.151-0.069-0.305-0.135-0.456-0.198c-0.136-0.064-0.274-0.129-0.415-0.189
		c-0.082-0.038-0.163-0.078-0.241-0.116c-0.142-0.068-0.279-0.133-0.421-0.201c-0.351-0.175-0.699-0.356-1.038-0.541
		c-0.137-0.073-0.274-0.15-0.411-0.222c-0.138-0.078-0.271-0.156-0.404-0.233c-0.266-0.154-0.533-0.313-0.794-0.477
		c-0.124-0.08-0.253-0.162-0.386-0.244c-0.059-0.043-0.124-0.086-0.189-0.123c-0.06-0.044-0.128-0.086-0.188-0.127
		c-0.283-0.188-0.558-0.38-0.832-0.573c-0.121-0.088-0.241-0.172-0.356-0.258c-0.146-0.104-0.292-0.215-0.435-0.325
		c-0.283-0.216-0.558-0.434-0.829-0.657c-0.137-0.11-0.27-0.224-0.402-0.341c-0.073-0.056-0.146-0.118-0.21-0.178
		c-0.018-0.014-0.035-0.026-0.047-0.039c-0.455-0.396-0.901-0.809-1.328-1.224c-0.196-0.189-0.39-0.382-0.582-0.579
		c-0.147-0.154-0.292-0.305-0.438-0.459c-0.052-0.052-0.103-0.106-0.15-0.163c-0.176-0.188-0.348-0.378-0.515-0.57
		c-0.004-0.005-0.004-0.005-0.004-0.005c-0.171-0.193-0.339-0.386-0.502-0.578c-0.013-0.018-0.026-0.033-0.035-0.047
		c-0.176-0.203-0.343-0.41-0.506-0.616c-0.132-0.165-0.262-0.334-0.389-0.5c-0.061-0.073-0.121-0.147-0.173-0.226
		c-0.121-0.152-0.241-0.308-0.352-0.467c-0.03-0.042-0.056-0.083-0.086-0.119c-0.145-0.198-0.288-0.396-0.424-0.597
		c-0.008-0.008-0.012-0.018-0.017-0.026c-0.12-0.166-0.236-0.34-0.352-0.515c-0.074-0.108-0.147-0.214-0.215-0.327
		c-0.121-0.18-0.24-0.364-0.356-0.553c-0.125-0.188-0.245-0.387-0.366-0.583c-0.116-0.194-0.235-0.392-0.353-0.588
		c-0.042-0.081-0.089-0.164-0.137-0.246c-0.084-0.149-0.17-0.3-0.257-0.45c-0.437-0.784-0.845-1.578-1.222-2.372
		c-0.074-0.147-0.142-0.293-0.207-0.438c-0.592-1.266-1.107-2.532-1.566-3.789c-0.056-0.154-0.112-0.307-0.168-0.459
		c-0.184-0.52-0.354-1.035-0.519-1.545c-0.064-0.201-0.128-0.404-0.188-0.604c-0.193-0.611-0.365-1.215-0.528-1.813
		c-0.052-0.188-0.099-0.376-0.15-0.565c-0.034-0.138-0.072-0.275-0.107-0.416c-0.042-0.175-0.09-0.354-0.129-0.523
		c-0.068-0.284-0.133-0.559-0.192-0.828c-0.056-0.229-0.103-0.446-0.15-0.671c-0.048-0.214-0.095-0.433-0.139-0.65
		c-0.043-0.218-0.09-0.43-0.129-0.641c-0.042-0.216-0.081-0.421-0.12-0.63C4.415,9.836,4.377,9.629,4.343,9.423
		c-0.008-0.025-0.008-0.06-0.018-0.089C4.227,8.754,4.137,8.191,4.06,7.646c-0.005,0-0.005,0-0.005,0
		C4.03,7.458,4.004,7.269,3.979,7.086C3.923,6.695,3.875,6.308,3.832,5.94C3.814,5.788,3.798,5.64,3.781,5.496
		c-0.073-0.672-0.134-1.299-0.18-1.871c-0.004-0.08-0.013-0.163-0.019-0.244C3.566,3.184,3.553,2.996,3.54,2.813
		C3.536,2.688,3.527,2.566,3.519,2.441C3.498,2.085,3.48,1.759,3.466,1.468C3.463,1.369,3.458,1.28,3.458,1.192
		C3.441,0.669,3.438,0.3,3.432,0.107h0.006C3.66,0.091,4.125,0.061,4.793,0.034c0.099-0.005,0.202-0.008,0.301-0.008
		c0.836-0.029,1.939-0.039,3.239-0.005C8.66,0.026,9,0.039,9.351,0.052c0.175,0.009,0.352,0.017,0.532,0.026
		c0.359,0.018,0.739,0.037,1.119,0.064c1.538,0.102,3.236,0.27,5.043,0.539c0.228,0.031,0.455,0.065,0.682,0.103
		c0.46,0.074,0.923,0.157,1.391,0.241c0.235,0.044,0.471,0.086,0.708,0.133h0.004c1.103,0.222,2.236,0.481,3.377,0.78
		c0.172,0.045,0.339,0.087,0.506,0.139c0.575,0.153,1.159,0.325,1.742,0.505c0.159,0.054,0.318,0.105,0.477,0.16
		c0.918,0.292,1.836,0.626,2.754,0.987h0.004c0.499,0.2,0.996,0.411,1.489,0.625c0.464,0.207,0.931,0.423,1.391,0.645
		c0.459,0.224,0.914,0.458,1.37,0.705c0.124,0.063,0.249,0.133,0.368,0.201c2.725,1.493,5.326,3.362,7.647,5.7
		c0.228,0.227,0.45,0.458,0.673,0.693c0.219,0.241,0.438,0.48,0.652,0.726c0.108,0.125,0.214,0.245,0.322,0.369
		c0.209,0.253,0.42,0.51,0.626,0.768c0.104,0.128,0.206,0.261,0.31,0.396c0.091,0.117,0.176,0.231,0.271,0.352
		c0.266,0.361,0.523,0.726,0.781,1.099c0.086,0.128,0.167,0.252,0.249,0.382c0.084,0.128,0.167,0.253,0.249,0.386
		c0.086,0.125,0.167,0.258,0.245,0.386c0.24,0.396,0.477,0.795,0.705,1.207c0.227,0.411,0.45,0.832,0.66,1.262
		c0.082,0.162,0.159,0.322,0.24,0.484c0.055,0.128,0.116,0.258,0.176,0.387c0.068,0.145,0.132,0.295,0.202,0.446
		c0.064,0.148,0.127,0.296,0.192,0.45c0.13,0.301,0.253,0.61,0.378,0.918c0.056,0.154,0.116,0.31,0.171,0.464
		c-0.228-0.433-9.455-17.534-36.583-16.341c-0.013-0.005-0.026-0.005-0.035-0.005c0,0.005,0,0.005,0,0.005
		C10.436,6.438,10.432,6.438,10.432,6.438z"/>
	<linearGradient id="SVGID_5_" gradientUnits="userSpaceOnUse" x1="40.5322" y1="51.7529" x2="40.542" y2="51.7529">
		<stop  offset="0" style="stop-color:#55959C"/>
		<stop  offset="1" style="stop-color:#D7E1A0"/>
	</linearGradient>
	<path fill="url(#SVGID_5_)" d="M40.542,51.745c-0.005,0.006-0.005,0.011-0.01,0.016"/>
</g>
</svg>
