<?xml version="1.0" encoding="utf-8"?>
<!-- Generator: Adobe Illustrator 16.0.3, SVG Export Plug-In . SVG Version: 6.00 Build 0)  -->
<!DOCTYPE svg PUBLIC "-//W3C//DTD SVG 1.1//EN" "http://www.w3.org/Graphics/SVG/1.1/DTD/svg11.dtd">
<svg version="1.1" id="Warstwa_1" xmlns="http://www.w3.org/2000/svg" xmlns:xlink="http://www.w3.org/1999/xlink" x="0px" y="0px"
	 width="339.356px" height="231.09px" viewBox="0 0 339.356 231.09" enable-background="new 0 0 339.356 231.09"
	 xml:space="preserve">
<g>
	<path fill="#4E306D" d="M319.678,129.831c0,6.375-5.217,11.591-11.592,11.591H201.071c-6.375,0-11.591-5.216-11.591-11.591V63.856
		c0-6.375,5.216-11.591,11.591-11.591h107.018c6.375,0,11.59,5.216,11.59,11.591V129.831L319.678,129.831z"/>
</g>
<g>
	<g>
		<g>
			<g>
				<path fill="#4A2C6A" d="M0.336,231.09h338.688c0.186,0,0.334-0.148,0.334-0.336v-0.258c0-0.184-0.148-0.336-0.334-0.336H0.336
					c-0.185,0-0.336,0.152-0.336,0.336v0.258C0,230.939,0.151,231.09,0.336,231.09z"/>
			</g>
		</g>
	</g>
	<g>
		<g>
			<path fill="#4E306D" d="M55.247,45.148c-0.101-0.434-1.349-5.078-8.567-3.938c0,0,3.606-0.261,4.516,1.171
				c0,0-2.771-1.451-4.608-0.457c-1.836,0.994-2.323,4.643-2.116,5.772c0.207,1.129,1.995,4.553,3.296,4.622
				c0.492,0.027,1.027-0.11,1.504-0.288c-0.232,0.579-0.445,1.21-0.632,1.906c-1.726,6.428,2.335,11.6,4.636,10.497
				c1.477-0.707,2.428,1.859,2.428,1.859l12.736-15.14C68.437,51.153,60.674,40.75,55.247,45.148z"/>
			<path fill="#6139BC" d="M66.79,224.316L62,222.482c0,0-2.811-15.75-4.558-33.063c-0.312-3.092-0.208-6.086,0.468-8.854
				c0,0-0.14-0.789-0.382-2.188c-0.112-0.651-0.251-1.438-0.409-2.342c-0.459-2.644-1.095-6.261-1.82-10.375
				c-1.668-9.478-3.832-21.591-5.51-30.492l0.879-0.28l9.522-3.072l1.968-6.252l8.659-3.289c0,0,0.016,4.521,1.432,19.16
				c0.263,1.92,0.5,4.037,0.678,6.332c0.554,7.008,0.593,15.7-0.676,25.641c-0.324,2.546-0.736,5.173-1.246,7.871
				c-0.371,1.979-0.428,4.675-0.271,7.771C71.449,203.2,66.79,224.316,66.79,224.316z"/>
			<path fill="#4A2C76" d="M72.925,147.768l-15.396,30.609c-0.112-0.652-0.251-1.438-0.409-2.342
				c-0.459-2.641-1.095-6.258-1.82-10.375c-1.668-9.477-3.832-21.588-5.51-30.492l0.879-0.279l9.522-3.072l1.79-7.334l8.837-2.209
				c0,0,0.016,4.523,1.432,19.16C72.511,143.354,72.75,145.473,72.925,147.768z"/>
			<path fill="#6139BC" d="M66.153,127.625l-0.484-3.65c-5.969,1.586-21.799-3.838-21.799-3.838s-5.785,5.088-5.025,17.275
				c0.371,5.949,1.048,31.23,1.755,38.711c0.255,2.715,0.479,4.645,0.569,5.414c0.002,0.004,0.002,0.006,0.002,0.008
				c0.029,0.234-0.053,0.457-0.172,0.662c-1.043,1.768-1.904,3.605-2.611,5.488c-6.941,18.5,1.07,41.283,1.07,41.283l2.078-0.84
				c0,0,4.561-25.354,8.264-36.555c0.629-1.898,1.23-3.395,1.785-4.285c1.609-2.602,3.104-6.848,4.461-11.896
				c2.565-9.551,4.627-21.979,6.002-31.566C62.236,143.846,66.153,127.625,66.153,127.625z"/>
			<g>
				<path fill="#FFB894" d="M85.246,128.723c-1.645,0.488-3.09-4.49-3.295-5.16c-0.002-0.055-0.014-0.09-0.014-0.09l2.161-2.184
					c0,0,4.13,1.732,4.489,2.717C88.947,124.993,87.035,128.221,85.246,128.723z"/>
				<path fill="#FFB894" d="M84.098,121.29l-1.665,2.522c0,0-0.18-0.082-0.482-0.25c-0.955-0.528-3.289-1.776-5.865-3.332
					c-3.891-2.303-8.397-5.273-9.771-7.358c-2.103-3.159-4.364-10.894-4.942-17.844c-0.027-0.176-0.033-0.341-0.037-0.507
					c-0.279-3.675-0.078-7.098,0.91-9.447c0.588-1.444,1.311-2.582,2.09-3.498c1.028-1.213,2.168-2.02,3.203-2.545
					c0.151-0.093,0.305-0.187,0.491-0.235c1.671-0.776,2.975-0.824,2.975-0.824c0.642,0.026,1.1,0.567,1.401,1.499l-0.011,0.022
					c0.253,0.745,0.427,1.779,0.482,3.006c0.011,0.032,0.023,0.065,0.012,0.087c0.02,0.254,0.027,0.53,0.046,0.838
					c0.024,0.066,0.015,0.144,0.017,0.2c0.006,0.629,0.002,1.282-0.012,1.958c-0.039,7.29-1.341,17.754-0.161,21.602
					c0.511,1.655,4.265,6.187,7.304,9.673C82.275,119.35,84.098,121.29,84.098,121.29z"/>
			</g>
			<path fill="#FFB894" d="M69.306,84.854c-1.677,1.21-3.788,2.221-6.448,2.887c-9.973,2.5-13.97-5.895-15.518-11.679
				c1.352-0.808,2.634-1.004,3.373-1.105c0.724-0.099,1.482-0.17,2.113-0.213c1.108-0.883,2.721-4.439,2.988-9.921l0.475,0.117
				l7.934,2.015c0,0-0.314,2.516-0.448,4.892c-0.103,1.857-0.092,3.632,0.269,4.06c0.619,0.123,0.99,0.203,0.99,0.203
				s0,0.002,0.004,0.008C65.145,76.289,67.506,80.013,69.306,84.854z"/>
			<path fill="#FF7042" d="M73.104,90.982c-0.036,0.215-0.082,0.428-0.135,0.647c-1.489,5.992-1.815,29.682-1.815,29.682
				c1.465,3.965-30.931,5.145-31.731,1.428c-1.873-3.736,1.939-11.061,4.164-14.798c0.279-0.468,0.516-0.96,0.705-1.467
				c0.483-1.272,0.68-2.641,0.563-4.009c-0.465-5.393-1.634-10.305-2.169-13.325l0,0c0.477-0.52,0.939-1.003,1.37-1.461
				c0.657-0.706,1.231-1.357,1.628-1.982c0.436-0.682,0.665-1.338,0.574-2.009c-0.066-0.509-0.184-1.021-0.336-1.527
				c-0.069-0.239-0.147-0.476-0.232-0.712c-0.886-2.482-2.402-4.596-2.402-4.596c2.494-1.618,7.43-1.894,7.43-1.894
				s0.047,0.268,0.129,0.705c0.322,1.76,1.21,6.269,1.939,7.013c0.908,0.927,14.693,3.095,15.096,1.521
				c0.396-1.548-2.725-7.842-2.842-8.079c-0.004-0.006-0.004-0.008-0.004-0.008c4.644,0.86,6.458,1.983,6.458,1.983
				C69.219,80.282,74.083,85.26,73.104,90.982z"/>
			<path fill="#F2AC8C" d="M64.223,66.956c0,0-0.316,2.514-0.447,4.892c-4.48-0.366-6.636-4.584-7.486-6.906L64.223,66.956z"/>
			<path fill="#FFB894" d="M65.602,69.288c0,0-10.627-0.389-10.283-7.003c0.346-6.614-0.794-11.119,6.006-11.149
				c6.799-0.032,7.983,2.56,8.405,4.795C70.152,58.167,68.375,69.218,65.602,69.288z"/>
			<path fill="#4E306D" d="M69.61,52.238c-1.535-2.078-2.799-1.706-3.525-1.145c-5.633-3.499-9.623,1.019-9.623,1.019
				c-0.963,4.708-4.528,7.245-4.528,7.245s1.871,1.298,6.394,0.388c1.381-0.278,2.65-1.181,3.746-2.301
				c-1.966,2.931-4.539,4.98-4.539,4.98c5.461-2.181,7.994-9.478,8.25-10.25c0.615,0.617,1.825,1.949,2.15,3.209
				c0.439,1.712,0.492,5.192,1.511,5.127C69.444,60.508,71.914,55.352,69.61,52.238z"/>
			<path fill="#4A2C6A" d="M51.543,230.678H35.092c0,0-0.395-2.508,0.466-4.41c0.821-1.824,2.112-2.654,1.804-4.863
				c1.045,1.078,2.75,2.283,5.129,1.965c0.291,0.471,1.879,3,2.854,3.699C46.418,227.838,51.209,227.563,51.543,230.678z"/>
			<path fill="#4A2C6A" d="M78.105,230.678H61.654c0,0-0.616-2.625,0.464-4.408c0.957-1.58,0.59-2.479-0.119-3.787
				c0.748,0.307,1.711,0.582,2.771,0.521c0.82-0.047,1.688-0.42,2.447-0.861c0.707,0.811,3.741,4.244,4.688,4.926
				C72.979,227.838,77.773,227.563,78.105,230.678z"/>
			<path fill="#FF7042" d="M49.093,81.568c-4.919-0.385-7.819,3.958-7.819,3.958c-1.3-7.038,2.012-8.675,2.012-8.675
				C44.583,75.997,46.683,78.118,49.093,81.568z"/>
			<path fill="#FF7042" d="M71.716,82.943c0,0,0.576-0.441,1.193,0c0,0-0.061-3.911-1.418-4.85
				C71.492,78.093,70.057,78.804,71.716,82.943z"/>
			<path fill="#FF7042" d="M39.17,83.437c0,0,4.736-2.389,8.899,0.797c0,0-0.877-7.796-3.017-7.725
				C45.054,76.509,40.897,76.55,39.17,83.437z"/>
			<path fill="#FF4A1E" d="M41.016,112.79c0,0-1.426,2.979-1.741,4.837c-0.315,1.859,11.104,7.336,13.386,7.199l-0.145,0.158
				l-4.13-8.476L41.016,112.79z"/>
			<g>
				<path fill="#FFB894" d="M66.061,128.523l-1.667,2.828c0,0-0.996-0.479-2.582-1.244c-0.476-0.231-0.741-0.381-0.741-0.381
					c-1.266-0.625-2.767-1.42-4.404-2.272l-0.021-0.009c-2.787-1.526-5.893-3.295-8.445-5.016c-1.793-1.23-3.309-2.439-4.275-3.494
					c-0.102-0.104-0.176-0.203-0.27-0.332c-2.238-2.787-3.929-9.65-4.764-16.745c-0.117-0.979-0.211-1.955-0.313-2.904
					c-0.322-3.521-0.416-6.928-0.248-9.803c0.084-1.719,0.248-3.263,0.531-4.493c0.092-0.436,0.18-0.848,0.307-1.223
					c1.932-6.902,5.625-6.921,5.625-6.921c0.078-0.005,0.156-0.009,0.259-0.007c0.622,0.067,1.132,0.642,1.562,1.604
					c0.545,1.198,0.969,3.03,1.323,5.203c0.521,3.446,0.868,7.819,1.127,12.143c0.146,2.371,0.272,4.736,0.44,6.933
					c0.074,1.328,0.168,2.584,0.264,3.736c0.193,2.205,0.419,4.009,0.736,5.198c0.201,0.771,1.043,2,2.211,3.446
					c2.029,2.525,5.123,5.749,7.849,8.439c1.127,1.125,2.202,2.162,3.097,3.021C65.101,127.624,66.061,128.523,66.061,128.523z"/>
				<path fill="#FFB894" d="M66.079,128.538c0,0,0.971,1.209,1.947,1.536c0.975,0.328,3.136,1.763,3.763,2.699
					c0,0,0.135,0.429-0.256,0.563c-0.394,0.142-1.813-1.06-2.372-0.586c0,0,1.529,1.709,2.193,2.043
					c0.663,0.334,1.841,2.783,1.938,3.371c0.097,0.586-4.156-0.873-5.974-1.576c-1.814-0.702-4.219-6.685-4.219-6.685
					L66.079,128.538z"/>
			</g>
		</g>
		<g>
			<path fill="#663402" d="M159.572,49.143c0,0,3.25,25.536,4.725,26.946c1.479,1.41-2.325,1.691-2.325,1.691
				s-5.916-3.668-6.272-5.361c-0.357-1.692-4.103,0.537-6.674,1.397c-2.572,0.86-5.143,3.33-6.163-3.16
				c-1.021-6.49-3.032-18.383-4.659-22.347"/>
			<path fill="#663402" d="M158.479,44.067c0.241,0.604,0.462,1.263,0.658,1.989c1.806,6.713-2.438,12.114-4.839,10.964
				c-1.541-0.738-2.535,1.941-2.535,1.941L138.462,43.15c0,0,8.105-10.864,13.772-6.271"/>
			<path fill="#41B8E1" d="M156.469,33.99"/>
			<path fill="#41B8E1" d="M140.183,223.98l5.001-1.914c0,0,0.302-16.137,2.127-34.217c0.325-3.228,0.217-6.354-0.487-9.24
				c0,0,0.146-0.828,0.397-2.291c0.116-0.682,0.262-1.502,0.426-2.442c0.479-2.763,2.685-9.231,3.442-13.532
				c1.742-9.896,5.094-20.156,6.848-29.455l-0.92-0.295l-9.945-3.207l-2.054-6.527l-9.043-3.438c0,0-0.017,4.725-1.495,20.01
				c-0.271,2.006-0.521,4.217-0.706,6.613c-0.577,7.318-0.618,16.398,0.704,26.775c0.341,2.658,0.77,5.4,1.301,8.221
				c0.391,2.064,0.447,4.881,0.286,8.113C135.316,201.93,140.183,223.98,140.183,223.98z"/>
			<path fill="#41B8E1" d="M140.848,123.012l0.506-3.818c6.235,1.658,22.765-4.002,22.765-4.002s-2.455,0.778,3.496,17.75
				c1.703,4.858-1.531,33.978-2.269,41.791c-0.271,2.83-0.501,4.847-0.597,5.649c-0.002,0.005-0.002,0.009-0.002,0.009
				c-0.029,0.246,0.055,0.477,0.181,0.69c1.088,1.844,1.987,3.769,2.725,5.731c7.251,19.317,1.072,42.039,1.072,42.039l-2.17-0.877
				c0,0-4.761-26.478-8.632-38.174c-0.654-1.982-1.282-3.543-1.861-4.476c-1.682-2.714-1.982-10.397-3.4-15.675
				c-2.68-9.973-6.092-19.698-7.525-29.713C144.937,139.95,140.848,123.012,140.848,123.012z"/>
			<path fill="#3193AD" d="M147.757,173.316c0,0-2.063-8.479-0.934-10.276c1.127-1.8,3.031-0.74,3.031-0.74l-0.064,3.494
				L147.757,173.316z"/>
			<g>
				<path fill="#FFB894" d="M120.908,124.154c1.719,0.511,3.227-4.69,3.44-5.389c0.004-0.06,0.017-0.095,0.017-0.095l-2.26-2.278
					c0,0-4.311,1.81-4.686,2.838C117.042,120.26,119.041,123.629,120.908,124.154z"/>
				<path fill="#FFB894" d="M122.105,116.393l1.741,2.637c0,0,0.187-0.086,0.502-0.264c0.996-0.551,3.437-1.854,6.124-3.479
					c4.064-2.405,8.771-5.508,10.207-7.683c2.193-3.3,4.555-11.376,5.16-18.635c0.027-0.185,0.033-0.358,0.039-0.53
					c0.293-3.839,0.078-7.412-0.949-9.866c-0.617-1.506-1.368-2.695-2.184-3.652c-1.072-1.266-2.265-2.108-3.345-2.657
					c-0.159-0.098-0.319-0.194-0.514-0.246c-1.746-0.812-3.104-0.861-3.104-0.861c-0.672,0.028-1.15,0.592-1.466,1.565l0.011,0.023
					c-0.265,0.778-0.441,1.858-0.502,3.139c-0.013,0.034-0.025,0.068-0.017,0.093c-0.017,0.265-0.026,0.553-0.047,0.876
					c-0.025,0.068-0.017,0.149-0.017,0.208c-0.01,0.657-0.004,1.338,0.012,2.044c0.041,7.61,1.4,18.539,0.168,22.558
					c-0.535,1.729-4.454,6.459-7.629,10.102C124.011,114.367,122.105,116.393,122.105,116.393z"/>
			</g>
			<path fill="#FFB894" d="M137.556,78.345c1.748,1.262,3.953,2.318,6.73,3.014c10.416,2.61,14.59-6.156,16.207-12.197
				c-1.412-0.843-2.75-1.047-3.523-1.155c-0.754-0.103-1.551-0.177-2.205-0.221c-1.158-0.923-2.84-4.637-3.122-10.36l-0.494,0.123
				l-8.284,2.103c0,0,0.326,2.627,0.467,5.108c0.107,1.941,0.094,3.794-0.279,4.24c-0.646,0.128-1.035,0.211-1.035,0.211
				s0,0.004-0.002,0.008C141.898,69.399,139.434,73.288,137.556,78.345z"/>
			<path fill="#EAEAEA" d="M133.587,84.743c0.039,0.225,0.086,0.448,0.142,0.677c1.556,6.257-3.642,78.555-3.642,78.555
				c-0.646,1.754,6.787,2.107,15.578,1.938c9.944-0.197,23.588-1.23,26.067-1.426c0.257-0.021,0.394-0.029,0.394-0.029
				c-3.856-17.76-5.39-58.102-7.711-62.002c-0.291-0.491-0.537-1.002-0.734-1.532c-0.504-1.328-0.713-2.758-0.59-4.186
				c0.486-5.632,1.707-10.762,2.267-13.917l0,0c-0.498-0.542-0.979-1.046-1.431-1.525c-0.686-0.736-1.285-1.416-1.698-2.069
				c-0.456-0.711-0.696-1.396-0.603-2.098c0.072-0.532,0.192-1.067,0.351-1.595c0.073-0.25,0.155-0.498,0.243-0.744
				c0.927-2.593,2.51-4.8,2.51-4.8c-2.604-1.689-7.758-1.979-7.758-1.979s0.086-0.457,0,0c-0.338,1.838-1.764,1.846-3.146,2.243
				c-1.306,0.374-4.8,0.907-7.566,0.528c-1.652-0.226-4.366-1.311-4.243-1.559c0.002-0.004,0.002-0.008,0.002-0.008
				c-4.849,0.899-6.743,2.072-6.743,2.072C137.647,73.569,132.564,78.768,133.587,84.743z"/>
			<path fill="#F2AC8C" d="M142.861,59.654c0,0,0.332,2.625,0.471,5.107c4.678-0.38,6.93-4.788,7.816-7.211L142.861,59.654z"/>
			<path fill="#FFB894" d="M141.421,62.089c0,0,11.098-0.406,10.738-7.313c-0.361-6.907,0.832-11.612-6.27-11.644
				c-7.102-0.033-8.34,2.674-8.779,5.01C136.671,50.475,138.524,62.016,141.421,62.089z"/>
			<path fill="none" stroke="#FF7042" stroke-width="0.2116" stroke-miterlimit="10" d="M145.998,165.947
				c-0.17-0.047-0.349-0.116-0.539-0.206c-2.063-0.97-5.248-4.347-7.145-9.384c-2.072-5.504,2.533-83.208,2.533-83.208
				c3.706,0.591,15.02-3.522,15.02-3.522s0.793-0.221,1.104-1.622"/>
			<path fill="#663402" d="M137.236,44.283c1.605-2.169,2.924-1.782,3.682-1.195c5.885-3.654,10.049,1.064,10.049,1.064
				c1.007,4.916,4.73,7.564,4.73,7.564s-1.955,1.355-6.676,0.405c-1.443-0.291-2.768-1.234-3.912-2.402
				c2.055,3.059,4.74,5.2,4.74,5.2c-5.703-2.277-8.35-9.897-8.615-10.705c-0.645,0.644-1.906,2.035-2.244,3.351
				c-0.461,1.788-0.517,5.421-1.578,5.354C137.412,52.92,134.832,47.535,137.236,44.283z"/>
			<path fill="#C8D1CE" d="M141.787,130.014c6.566,1.58,18.313-20.152,22.582-25.513c-0.548-1.561-0.8-3.229-0.722-4.887
				c0.31-6.534,1.376-12.461,1.841-16.113V83.5c-0.519-0.645-1.021-1.248-1.488-1.817c-0.713-0.878-1.336-1.688-1.772-2.46
				C155.395,88.236,132.882,127.872,141.787,130.014z"/>
			<path fill="#1A6070" d="M156.103,230.625h15.462c0,0,0.238-3.396-0.656-5.381c-0.862-1.908-1.245-0.242-0.923-2.549
				c-1.849,0.455-1.943,0.629-4.426,0.293c-0.305,0.494-1.966,3.135-2.98,3.863C161.457,227.661,156.449,227.374,156.103,230.625z"
				/>
			<path fill="#1A6070" d="M128.367,230.625h17.18c0,0-0.104-2.459-0.485-4.604c-0.317-1.785-0.616-2.592,0.123-3.955
				c-0.779,0.316-1.786,0.606-2.896,0.545c-0.854-0.049-1.76-0.438-2.556-0.898c-0.737,0.844-3.903,4.432-4.894,5.145
				C133.714,227.661,128.71,227.374,128.367,230.625z"/>
			<path fill="#D8D8D8" d="M166.675,117.189c0,0-15.203,10.906-24.771,11.394l1.445-2.838l22.572-14.39h0.144
				C166.064,111.355,166.725,116.59,166.675,117.189z"/>
			<g>
				<path fill="#EAEAEA" d="M138.578,124.042l0.615-0.582c0.01-0.008,1.016-0.953,2.494-2.383c0.954-0.914,2.064-1.988,3.221-3.144
					c1.995-1.97,5.697-5.712,8.119-8.729c1.643-2.029,2.025-2.876,2.109-3.201c0.283-1.063,0.519-2.73,0.74-5.255
					c0.115-1.398,0.205-2.665,0.271-3.867l0.002-0.022c0.123-1.601,0.225-3.256,0.328-5.009c0.043-0.736,0.088-1.476,0.135-2.218
					c0.325-5.479,0.713-9.657,1.184-12.772c0.437-2.659,0.9-4.47,1.467-5.712c0.626-1.408,1.462-2.18,2.48-2.289l0.041-0.004
					c0,0,0.105-0.003,0.133-0.003c0.097,0,0.179,0.004,0.261,0.008l0,0c0.522,0.023,4.72,0.451,6.833,7.974
					c0.145,0.43,0.238,0.868,0.338,1.33l0.007,0.038c0.289,1.253,0.479,2.85,0.578,4.861c0.176,2.987,0.084,6.581-0.267,10.386
					c-0.028,0.291-0.06,0.571-0.086,0.854c-0.074,0.719-0.151,1.464-0.238,2.207c-0.996,8.454-2.934,15.18-5.188,18.005
					c-0.109,0.15-0.214,0.283-0.349,0.424c-1.005,1.098-2.563,2.375-4.64,3.802c-2.918,1.965-6.48,3.963-8.908,5.293l-0.112,0.063
					l-0.035,0.012l-0.728,0.379c-1.366,0.719-2.655,1.393-3.766,1.941c-0.084,0.045-0.361,0.195-0.799,0.408
					c-1.662,0.805-2.705,1.303-2.705,1.303l-0.875,0.42L138.578,124.042z"/>
				<path fill="#FFB894" d="M140.525,123.484c0,0-1.016,1.267-2.035,1.604c-1.018,0.345-3.271,1.843-3.927,2.817
					c0,0-0.144,0.445,0.267,0.593c0.41,0.146,1.895-1.104,2.478-0.612c0,0-1.597,1.782-2.289,2.133s-1.921,2.908-2.022,3.521
					c-0.103,0.612,4.34-0.908,6.233-1.646c1.897-0.733,4.409-6.979,4.409-6.979L140.525,123.484z"/>
				<path fill="#EAEAEA" d="M140.428,122.98l2.631,4.396c0,0,0.666-0.976,2.319-1.771c0.496-0.244,0.775-0.398,0.775-0.398
					c1.32-0.652,2.889-1.48,4.598-2.375l0.023-0.006c2.91-1.598,6.155-3.443,8.822-5.24c1.867-1.283,3.453-2.545,4.461-3.649
					c0.105-0.108,0.184-0.212,0.281-0.343c2.338-2.912,4.104-10.081,4.978-17.488c0.121-1.023,0.22-2.039,0.323-3.031
					c0.336-3.677,0.438-7.236,0.262-10.239c-0.09-1.794-0.26-3.407-0.556-4.69c-0.099-0.456-0.188-0.886-0.321-1.278
					c-2.02-7.208-5.875-7.228-5.875-7.228c-0.082-0.004-0.164-0.01-0.271-0.007c-0.648,0.07-1.182,0.67-1.631,1.674
					c-0.567,1.253-1.008,3.165-1.381,5.434c-0.546,3.6-0.904,8.166-1.175,12.68c-0.155,2.477-0.286,4.948-0.463,7.244
					c-0.077,1.385-0.175,2.697-0.274,3.899c-0.201,2.303-0.438,4.187-0.769,5.428c-0.208,0.806-1.09,2.089-2.312,3.598
					c-2.119,2.639-5.35,6.006-8.193,8.813c-1.178,1.18-2.303,2.262-3.234,3.156C141.945,123.01,140.428,122.98,140.428,122.98z"/>
			</g>
			<ellipse fill="#FF4A1E" cx="142.544" cy="76.089" rx="0.664" ry="0.543"/>
			<ellipse fill="#FF4A1E" cx="140.847" cy="100.245" rx="0.665" ry="0.545"/>
			<ellipse fill="#FF4A1E" cx="141.51" cy="87.322" rx="0.663" ry="0.544"/>
			<ellipse fill="#FF4A1E" cx="140.185" cy="111.355" rx="0.663" ry="0.545"/>
			<path fill="#FF4A1E" d="M140.183,135.674c0,0.303-0.296,0.547-0.661,0.547c-0.369,0-0.665-0.244-0.665-0.547
				c0-0.301,0.296-0.543,0.665-0.543C139.887,135.131,140.183,135.374,140.183,135.674z"/>
			<ellipse fill="#FF4A1E" cx="143.637" cy="161.99" rx="0.663" ry="0.545"/>
			<path fill="#FF4A1E" d="M140.183,152.002c0,0.301-0.296,0.545-0.661,0.545c-0.369,0-0.665-0.244-0.665-0.545
				c0-0.303,0.296-0.545,0.665-0.545C139.887,151.458,140.183,151.7,140.183,152.002z"/>
			<polygon fill="#FFDD71" points="101.339,113.346 115.266,109.584 123.77,130.031 109.841,135.131 			"/>
			<path fill="#FFB894" d="M118.787,118.047c0,0-1.908,1.605-1.942,2.244c-0.037,0.641,1.428-0.203,1.687-0.533
				c0.254-0.33,0.952-0.613,1.502-0.729"/>
			<path fill="#EDAA8C" d="M121.189,123.829c0,0,0.033-1.065-0.404-2.146c-0.44-1.084-1.211-2.397-1.211-2.397l0.459-0.188
				c0,0-0.652,0.125-0.742,0.164C119.201,119.297,121.189,123.829,121.189,123.829z"/>
			
				<line fill="none" stroke="#2C96A8" stroke-width="0.1432" stroke-miterlimit="10" x1="102.787" y1="114.324" x2="114.882" y2="111.06"/>
			
				<line fill="none" stroke="#2C96A8" stroke-width="0.112" stroke-miterlimit="10" x1="103.326" y1="115.247" x2="112.781" y2="112.692"/>
			
				<line fill="none" stroke="#2C96A8" stroke-width="0.1354" stroke-miterlimit="10" x1="104.303" y1="117.415" x2="115.736" y2="114.324"/>
			
				<line fill="none" stroke="#2C96A8" stroke-width="0.1354" stroke-miterlimit="10" x1="104.71" y1="118.42" x2="116.147" y2="115.332"/>
			
				<line fill="none" stroke="#2C96A8" stroke-width="0.1354" stroke-miterlimit="10" x1="105.22" y1="119.592" x2="116.656" y2="116.502"/>
			<path fill="#EAEAEA" d="M172.125,164.454c0,0-10.419,3.325-18.729,2.922c-1.389-0.088-7.162-1.088-7.732-1.545
				c-0.574-0.455,24.477-2.56,24.477-2.56L172.125,164.454"/>
			<path fill="#EAEAEA" d="M122.675,115.189l2.502,3.84c0,0,8.447-4.423,8.613-4.707c0.166-0.28,0.263-13.534,0.263-13.534"/>
			<path fill="#EAEAEA" d="M135.272,71.283c0,0-1.914,0.382-1.497,9.051c0,0,2.825-7.061,2.217-8.048
				c-0.606-0.988-0.49-1.129-0.49-1.129L135.272,71.283z"/>
			<path fill="none" stroke="#FF7042" stroke-width="0.2116" stroke-miterlimit="10" d="M145.666,165.831"/>
			<path fill="none" stroke="#FF7042" stroke-width="0.2116" stroke-miterlimit="10" d="M145.121,165.566
				c0,0,7.119,3.017,15.756,1.396c8.637-1.62,6.773-1.19,11.25-2.433"/>
		</g>
	</g>
</g>
<g>
	<path fill="#FF7042" d="M257.643,133.971c1.396,0.428,2.902,0.711,4.493,0.825c6.032,0.431,13.22-1.567,19.782-7.282
		c0,0,0.521-5.021-1.012-9.541l-0.005-0.002c-1.062-3.136-3.317-7.159-7.112-8.338c-2.447-0.755-4.453-0.392-6.162,0.356
		c-2.901,1.267-4.95,3.641-6.856,3.492c-1.881-0.142-4.071,0.216-6.09,1.068c-0.331,0.139-0.656,0.29-0.976,0.459v0.001
		c-0.131,0.067-0.264,0.137-0.396,0.21c-0.001,0.001-0.006,0.003-0.008,0.006c-2.854,1.61-5.07,4.311-5.026,8.044
		c0.014,0.864,0.151,1.803,0.452,2.814C249.799,129.697,253.137,132.591,257.643,133.971z"/>
	<path fill="#FFBB99" d="M271.361,111.053c0,0,3.646-0.15,4.599,2.318c0.951,2.467-1.522,3.066-3.188,2.214
		C271.109,114.731,269.381,111.642,271.361,111.053z"/>
	<path fill="#FF4A1E" d="M248.279,123.27c0.013,0.864,0.151,1.803,0.452,2.815c1.068,3.612,5.396,11.922,9.905,13.304
		c0,0,8.963,3.868,13.991,1.857c5.613-2.246,8.994-6.801,9.293-13.732c0,0,0.519-5.021-1.014-9.541l0,0
		c0,0-5.423,10.229-18.91,10.049C255.872,127.941,251.37,125.695,248.279,123.27z"/>
	<g>
		<path fill="#F2A245" d="M257.822,109.153c0.662-1.958,2.995-1.995,5.115-2.729c2.116-0.735,5.161-3.357,5.161-3.357
			s-2.801-0.737-6.396-0.775C258.11,102.254,257.822,109.153,257.822,109.153z"/>
		<path fill="#FF9F23" d="M257.822,109.153c0.38-2.126,2.218-4.73,3.765-5.239c1.547-0.51,6.513-0.845,6.513-0.845
			s-2.8-0.737-6.396-0.775C258.11,102.254,257.822,109.153,257.822,109.153z"/>
	</g>
	<path fill="#FF4A1E" d="M260.771,113.482c-1.88-0.146-4.071,0.215-6.09,1.065c3.563-1.29,7.973,0.861,8.659-0.411
		c0.734-1.364,4.158-4.045,4.287-4.146C264.726,111.254,262.676,113.63,260.771,113.482z"/>
	<path fill="#EE8914" d="M253.312,115.218c0.108-0.05,0.237-0.119,0.394-0.209C253.575,115.075,253.444,115.146,253.312,115.218z"/>
	<g>
		<path fill="#FF9F23" d="M263.09,114.23L263.09,114.23c-0.769-2.652-3.262-4.623-5.217-5.813c-1.56-0.945-3.908-2.013-5.035-2.508
			c-0.241-0.104-0.482,0.136-0.385,0.376l0.262,0.639c0.263,0.641,0.787,1.135,1.443,1.353c2.018,0.668,6.456,2.467,7.977,5.776
			C262.304,114.424,263.231,114.704,263.09,114.23z"/>
	</g>
</g>
<g>
	<g>
		<path fill="#41B8E1" d="M292.875,88.607c-0.045,0.177-0.069,0.271-0.069,0.271s-0.011-0.097-0.032-0.285
			c-0.17-1.533-0.984-9.1-1.429-17.43c-0.609-11.525-0.515-24.51,2.981-24.99c6.623-0.912,4.15,16.791,1.512,29.683
			C294.54,82.21,293.198,87.394,292.875,88.607z"/>
		<path fill="#41B8E1" d="M301.842,75.658c-3.25,4.485-6.043,8.247-7.664,10.511c-0.711,0.987-1.194,1.688-1.398,2.041
			c0.235-0.594,0.864-2.185,1.766-4.451c0-0.001,0-0.001,0-0.001c1.354-3.396,3.308-8.295,5.439-13.616
			c5.184-12.931,11.418-28.327,12.574-30.472c2.039-3.786,9.383-11.227,11.588-2.979C325.581,42.05,311.639,62.136,301.842,75.658z"
			/>
		<path fill="#41B8E1" d="M300.838,82.808c-2.807,1.956-5.153,3.528-6.457,4.396c-0.715,0.477-1.121,0.741-1.121,0.741
			s0.851-1.137,2.27-2.939c1.342-1.703,3.191-3.997,5.313-6.489c6.955-8.167,16.83-18.435,21.303-16.801
			C327.25,63.578,311.006,75.714,300.838,82.808z"/>
		<path fill="#3193AD" d="M292.875,88.607c-0.029-0.004-0.065-0.008-0.104-0.013c-0.17-1.533-0.982-9.1-1.43-17.43
			c0.669,1.647,2.019,3.95,4.494,4.692C294.54,82.21,293.198,87.394,292.875,88.607z"/>
		<path fill="#3193AD" d="M301.842,75.658c-3.25,4.485-6.043,8.247-7.664,10.511c0.057-0.713,0.186-1.528,0.367-2.411
			c0-0.001,0-0.001,0-0.001c1.353-3.396,3.306-8.295,5.438-13.616C299.975,72.151,300.338,74.454,301.842,75.658z"/>
		<path fill="#3193AD" d="M300.838,82.808c-2.807,1.956-5.153,3.528-6.457,4.396c0.229-0.604,0.644-1.369,1.146-2.198
			c1.344-1.703,3.191-3.997,5.313-6.489C300.635,79.7,300.442,81.489,300.838,82.808z"/>
	</g>
	<path fill="#F2A245" d="M292.775,88.212c-0.063,0.167-0.097,0.253-0.097,0.253C292.657,88.449,292.691,88.363,292.775,88.212z"/>
	<path fill="#FF7042" d="M292.208,106.608c-6.123,10.152-13.4,21.104-13.4,21.104l-10.201-5.504c0,0,2.943-7.85,6.678-16.489
		c4.354-10.075,7.785-20.438,12.828-22.276c1.389-0.506,2.788-0.584,4.105-0.413c0.666,0.086,1.316,0.243,1.937,0.459
		c0.146,0.052,0.29,0.104,0.438,0.161c0.363,0.148,0.716,0.312,1.058,0.495c0.134,0.069,0.263,0.143,0.394,0.22
		c0.447,0.262,0.871,0.556,1.27,0.873c1.688,1.345,2.904,3.098,3.182,4.778C301.305,95.065,296.836,98.936,292.208,106.608z"/>
</g>
<g>
	<path fill="#FFDD71" d="M264.179,123.078c0.497,2.503,1.112,4.671,1.821,6.544c5.514,14.524,17.002,11.394,28.219,11.394
		c12.662,0,12.639-8.479,12.639-19.947c0-11.464-7.018-20.572-19.678-20.572C274.517,100.494,261.94,111.833,264.179,123.078z"/>
	<g>
		<path fill="#EE8914" d="M314.565,124.794c0.076-11.614-8.367-20.947-19.645-24.045c-11.51-3.161-21.064,4.571-21.047,15.837
			c0.019,11.316,9.771,22.525,21.442,24.029C306.606,142.075,314.489,136.092,314.565,124.794z"/>
		<path fill="#EAEAEA" d="M313.549,124.516c0.074-11.038-7.951-19.905-18.666-22.849c-10.934-3.003-20.014,4.342-19.998,15.049
			c0.019,10.751,9.287,21.401,20.379,22.833C305.991,140.934,313.477,135.25,313.549,124.516z"/>
		<g>
			<path fill="#FFC22A" d="M294.036,118.051l3.137-11.803c0.232-0.877-0.45-1.914-1.403-2.119c-1.16-0.253-2.758-0.524-4.457-0.582
				c-1.966-0.066-3.618,0.099-4.763,0.276c-0.883,0.136-1.236,1.13-0.717,2.009l7.235,12.197
				C293.327,118.467,293.922,118.479,294.036,118.051z"/>
			<path fill="#FFC22A" d="M296.752,121.672l11.756,7.352c0.877,0.545,1.875,0.207,2.049-0.695c0.211-1.102,0.424-2.645,0.424-4.364
				c0-1.989-0.219-3.741-0.434-4.976c-0.164-0.953-1.156-1.666-2.006-1.438l-11.803,3.139
				C296.316,120.803,296.325,121.406,296.752,121.672z"/>
			<path fill="#FFC22A" d="M296.026,119.49l11.629-3.094c0.865-0.231,1.141-1.275,0.557-2.146c-0.707-1.059-1.742-2.479-3.02-3.878
				c-1.482-1.619-2.898-2.875-3.926-3.714c-0.797-0.649-1.846-0.462-2.123,0.38l-3.855,11.658
				C295.15,119.113,295.605,119.602,296.026,119.49z"/>
			<path fill="#FFC22A" d="M294.909,122.766l3.594,12.985c0.271,0.966,1.316,1.601,2.148,1.298c1.014-0.369,2.371-0.951,3.697-1.792
				c1.531-0.971,2.709-2,3.49-2.771c0.605-0.598,0.371-1.737-0.471-2.309l-11.712-7.902
				C295.236,121.994,294.776,122.293,294.909,122.766z"/>
			<path fill="#FFC22A" d="M292.053,118.404l-7.855-11.633c-0.585-0.866-1.719-1.103-2.32-0.482
				c-0.734,0.758-1.688,1.857-2.518,3.202c-0.96,1.558-1.594,3.037-1.982,4.105c-0.301,0.831,0.318,1.883,1.254,2.131l12.959,3.455
				C292.054,119.307,292.338,118.829,292.053,118.404z"/>
			<path fill="#FFC22A" d="M291.586,120.245l-12.799-2.226c-0.953-0.164-1.644,0.6-1.41,1.564c0.281,1.186,0.744,2.807,1.455,4.51
				c0.826,1.975,1.731,3.613,2.42,4.742c0.531,0.875,1.647,1.15,2.262,0.563l8.488-8.186
				C292.309,120.921,292.051,120.326,291.586,120.245z"/>
			<path fill="#FFC22A" d="M292.736,122.23l-6.901,9.438c-0.514,0.703-0.148,1.848,0.746,2.344c1.094,0.604,2.623,1.368,4.319,1.979
				c1.966,0.705,3.687,1.104,4.896,1.318c0.938,0.168,1.608-0.597,1.36-1.547l-3.45-13.197
				C293.583,122.094,292.987,121.887,292.736,122.23z"/>
		</g>
	</g>
</g>
<g>
	<g>
		<g>
			<path fill="#FF9F23" d="M284.254,231.82c-0.461,0-0.854-0.377-0.934-0.885l-4.555-29.975l-6.561-43.105l-1.83-12.053l4.668-0.154
				l0.811,6.996l5.689,49.174l3.371,29.146C284.971,231.417,284.659,231.82,284.254,231.82z"/>
		</g>
		<g>
			<path fill="#FF9F23" d="M236.465,145.803l-2.079,13.662v0.001l-5.739,37.734l-5.131,33.733c-0.077,0.51-0.473,0.885-0.93,0.885
				c-0.404,0-0.717-0.402-0.664-0.854l4.426-38.239l4.73-40.906l0.717-6.17L236.465,145.803z"/>
		</g>
		<path fill="#EE8914" d="M234.386,159.465c0.272-5.871-3.308-7.646-3.308-7.646l0.717-6.17l4.67,0.154L234.386,159.465z"/>
		<path fill="#EE8914" d="M275.856,152.645c-3.025,1.549-3.646,5.211-3.646,5.211l-1.83-12.053l4.668-0.154L275.856,152.645z"/>
	</g>
	<path fill="#FF9F23" d="M307,145.803H201.532c-1.678,0-3.051-0.925-3.051-2.055v-0.624c0-1.131,1.373-2.056,3.051-2.056H307
		c1.678,0,3.053,0.925,3.053,2.056v0.624C310.053,144.878,308.678,145.803,307,145.803z"/>
</g>
<g>
	<g>
		<g>
			<path fill="#FFFFFF" d="M208.616,74.744h-2.041l-2.305-7.601l-2.305,7.601h-2.041l-3.344-12.526h2.551l1.937,7.899l2.287-7.899
				h1.83l2.287,7.899l1.952-7.899h2.552L208.616,74.744z"/>
			<path fill="#FFFFFF" d="M220.316,74.744l-0.739-2.217h-4.451l-0.756,2.217h-2.552l4.558-12.526h1.918l4.574,12.526H220.316z
				 M217.395,65.912l-1.583,4.557h3.112L217.395,65.912z"/>
			<path fill="#FFFFFF" d="M231.066,74.744l-2.444-4.997h-1.761v4.997h-2.444V62.217h4.908c2.551,0,4.063,1.742,4.063,3.835
				c0,1.759-1.073,2.85-2.287,3.29l2.798,5.401L231.066,74.744L231.066,74.744z M229.167,64.399h-2.306v3.308h2.306
				c1.072,0,1.776-0.687,1.776-1.654C230.943,65.085,230.239,64.399,229.167,64.399z"/>
			<path fill="#FFFFFF" d="M240.444,64.399v10.345h-2.445V64.399h-3.272v-2.182h8.989v2.182H240.444z"/>
			<path fill="#FFFFFF" d="M252.9,73.53c-0.845,0.844-1.899,1.319-3.343,1.319s-2.516-0.475-3.36-1.319
				c-1.249-1.249-1.267-2.657-1.267-5.049s0.018-3.8,1.267-5.049c0.845-0.845,1.919-1.319,3.36-1.319s2.498,0.475,3.343,1.319
				c1.249,1.249,1.284,2.657,1.284,5.049S254.149,72.281,252.9,73.53z M251.124,64.962c-0.353-0.405-0.896-0.669-1.565-0.669
				s-1.214,0.264-1.583,0.669c-0.458,0.528-0.6,1.126-0.6,3.519s0.142,2.973,0.6,3.501c0.369,0.405,0.914,0.686,1.583,0.686
				s1.214-0.281,1.565-0.686c0.457-0.528,0.615-1.108,0.615-3.501S251.581,65.49,251.124,64.962z"/>
			<path fill="#FFFFFF" d="M260.131,74.849c-1.899,0-3.344-0.405-4.574-1.654l1.584-1.583c0.791,0.792,1.863,1.056,3.008,1.056
				c1.461,0,2.234-0.563,2.234-1.565c0-0.422-0.123-0.774-0.387-1.038c-0.246-0.229-0.492-0.334-1.127-0.422l-1.494-0.229
				c-1.108-0.159-1.865-0.493-2.428-1.038c-0.6-0.581-0.898-1.408-0.898-2.463c0-2.234,1.654-3.8,4.363-3.8
				c1.725,0,2.974,0.422,4.047,1.46l-1.549,1.531c-0.773-0.756-1.742-0.862-2.568-0.862c-1.303,0-1.918,0.722-1.918,1.583
				c0,0.334,0.089,0.651,0.353,0.897c0.246,0.229,0.616,0.404,1.144,0.475l1.496,0.229c1.145,0.158,1.848,0.458,2.394,0.985
				c0.668,0.616,0.967,1.513,0.967,2.639C264.776,73.477,262.771,74.849,260.131,74.849z M261.099,61.003h-1.53l1.126-2.991h2.41
				L261.099,61.003z"/>
			<path fill="#FFFFFF" d="M271.286,74.849c-1.441,0-2.498-0.475-3.359-1.319c-1.249-1.249-1.268-2.657-1.268-5.049
				s0.019-3.8,1.268-5.049c0.861-0.845,1.918-1.319,3.359-1.319c2.34,0,4.135,1.337,4.592,3.958h-2.498
				c-0.246-1.021-0.879-1.777-2.094-1.777c-0.668,0-1.213,0.247-1.564,0.651c-0.458,0.528-0.616,1.144-0.616,3.536
				s0.158,3.008,0.616,3.536c0.352,0.405,0.896,0.651,1.564,0.651c1.215,0,1.865-0.756,2.111-1.777h2.48
				C275.42,73.512,273.608,74.849,271.286,74.849z"/>
			<path fill="#FFFFFF" d="M277.989,74.744V62.217h2.445v12.526L277.989,74.744L277.989,74.744z"/>
		</g>
		<g>
			<path fill="#FFFFFF" d="M201.204,83.743c-0.443,0.443-0.998,0.692-1.754,0.692c-0.758,0-1.32-0.249-1.765-0.692
				c-0.655-0.655-0.664-1.394-0.664-2.649c0-1.255,0.009-1.994,0.664-2.649c0.442-0.443,1.007-0.692,1.765-0.692
				c0.756,0,1.311,0.25,1.754,0.692c0.654,0.656,0.674,1.394,0.674,2.649C201.875,82.349,201.858,83.087,201.204,83.743z
				 M200.27,79.247c-0.186-0.212-0.471-0.351-0.82-0.351c-0.351,0-0.638,0.138-0.832,0.351c-0.24,0.277-0.313,0.591-0.313,1.846
				c0,1.256,0.072,1.561,0.313,1.837c0.194,0.212,0.48,0.36,0.832,0.36c0.35,0,0.637-0.147,0.82-0.36
				c0.24-0.277,0.322-0.582,0.322-1.837C200.592,79.838,200.51,79.524,200.27,79.247z"/>
			<path fill="#FFFFFF" d="M207.543,83.42c-0.471,0.655-1.088,0.96-1.983,0.96h-2.372v-6.573h2.372c0.896,0,1.515,0.305,1.983,0.96
				c0.406,0.563,0.416,1.237,0.416,2.326C207.959,82.182,207.952,82.856,207.543,83.42z M206.411,79.358
				c-0.214-0.268-0.527-0.406-0.961-0.406h-0.979v4.284h0.979c0.434,0,0.747-0.139,0.961-0.406c0.239-0.286,0.268-0.702,0.268-1.736
				C206.676,80.06,206.65,79.644,206.411,79.358z"/>
			<path fill="#FFFFFF" d="M208.875,84.38v-1.034l2.807-4.394h-2.688v-1.145h4.2v1.015l-2.815,4.413h2.815v1.145H208.875z
				 M210.491,76.025h1.063v1.071h-1.063V76.025z"/>
			<path fill="#FFFFFF" d="M216.842,81.684v2.696h-1.274v-2.696l-1.976-3.877h1.395l1.229,2.649l1.209-2.649h1.395L216.842,81.684z"
				/>
			<path fill="#FFFFFF" d="M225.215,84.38h-1.071l-1.209-3.988l-1.21,3.988h-1.07l-1.754-6.573h1.338l1.016,4.145l1.201-4.145h0.959
				l1.201,4.145l1.023-4.145h1.339L225.215,84.38z"/>
			<path fill="#FFFFFF" d="M229.915,84.435c-0.756,0-1.311-0.249-1.764-0.692c-0.654-0.655-0.664-1.394-0.664-2.649
				c0-1.255,0.01-1.994,0.664-2.649c0.453-0.443,1.008-0.692,1.764-0.692c1.229,0,2.17,0.702,2.41,2.077h-1.312
				c-0.13-0.535-0.462-0.932-1.099-0.932c-0.352,0-0.638,0.129-0.822,0.341c-0.239,0.277-0.322,0.6-0.322,1.855
				c0,1.256,0.083,1.579,0.322,1.856c0.186,0.212,0.472,0.341,0.822,0.341c0.637,0,0.979-0.397,1.106-0.932h1.302
				C232.083,83.734,231.133,84.435,229.915,84.435z"/>
			<path fill="#FFFFFF" d="M233.036,84.38v-1.034l2.807-4.394h-2.688v-1.145h4.2v1.015l-2.815,4.413h2.815v1.145H233.036z"/>
			<path fill="#FFFFFF" d="M238.493,84.38v-6.573h4.328v1.145h-3.046v1.542h2.595v1.145h-2.595v1.597h3.046v1.145L238.493,84.38
				L238.493,84.38z"/>
		</g>
	</g>
	<g>
		<g>
			<path fill="#FFFFFF" d="M198.268,93.224c-0.684,0-1.234-0.406-1.234-1.154c0-0.472,0.271-0.726,0.481-0.867
				c-0.195-0.136-0.435-0.39-0.435-0.802c0-0.683,0.543-1.1,1.188-1.1s1.182,0.417,1.182,1.1c0,0.412-0.238,0.666-0.435,0.802
				c0.212,0.141,0.487,0.395,0.487,0.867C199.502,92.817,198.952,93.224,198.268,93.224z M198.268,91.522
				c-0.298,0-0.531,0.238-0.531,0.536s0.233,0.531,0.531,0.531s0.529-0.233,0.529-0.531
				C198.797,91.761,198.566,91.522,198.268,91.522z M198.268,89.936c-0.275,0-0.482,0.211-0.482,0.487
				c0,0.282,0.207,0.488,0.482,0.488s0.477-0.206,0.477-0.488C198.745,90.146,198.543,89.936,198.268,89.936z"/>
			<path fill="#FFFFFF" d="M202.095,91.522l-0.817,1.668h-0.764l0.802-1.593c-0.093,0.038-0.194,0.049-0.287,0.049
				c-0.521,0-1.019-0.428-1.019-1.143c0-0.759,0.52-1.203,1.201-1.203c0.683,0,1.203,0.428,1.203,1.191
				C202.417,90.845,202.269,91.17,202.095,91.522z M201.211,89.936c-0.287,0-0.498,0.206-0.498,0.563
				c0,0.341,0.201,0.563,0.498,0.563c0.287,0,0.5-0.206,0.5-0.563C201.711,90.141,201.5,89.936,201.211,89.936z"/>
			<path fill="#FFFFFF" d="M198.138,100.861v-3.099l-0.786,0.683v-0.758l0.786-0.683h0.704v3.857H198.138z"/>
			<path fill="#FFFFFF" d="M200.102,100.861v-0.802h0.809v0.802H200.102z"/>
			<path fill="#FFFFFF" d="M202.75,100.894c-0.629,0-1.176-0.412-1.176-1.148V98.12c0-0.737,0.547-1.148,1.176-1.148
				c0.627,0,1.17,0.412,1.17,1.148v1.625C203.92,100.481,203.377,100.894,202.75,100.894z M203.215,98.131
				c0-0.325-0.184-0.525-0.465-0.525c-0.283,0-0.473,0.2-0.473,0.525v1.609c0,0.325,0.189,0.521,0.473,0.521
				c0.281,0,0.465-0.195,0.465-0.521V98.131z"/>
			<path fill="#FFFFFF" d="M206.579,99.192l-0.816,1.668h-0.764l0.801-1.593c-0.092,0.038-0.194,0.049-0.286,0.049
				c-0.521,0-1.019-0.428-1.019-1.143c0-0.759,0.52-1.203,1.201-1.203s1.203,0.428,1.203,1.191
				C206.899,98.515,206.752,98.84,206.579,99.192z M205.696,97.605c-0.287,0-0.498,0.206-0.498,0.563c0,0.341,0.2,0.563,0.498,0.563
				c0.287,0,0.499-0.206,0.499-0.563S205.983,97.605,205.696,97.605z"/>
			<path fill="#FFFFFF" d="M208.527,101.928c-0.433,0-0.729-0.086-1.022-0.368l0.438-0.444c0.157,0.152,0.314,0.217,0.553,0.217
				c0.424,0,0.569-0.298,0.569-0.585v-0.287c-0.185,0.206-0.396,0.282-0.672,0.282s-0.515-0.092-0.672-0.249
				c-0.267-0.266-0.287-0.628-0.287-1.122c0-0.493,0.021-0.85,0.287-1.116c0.157-0.157,0.399-0.249,0.677-0.249
				c0.298,0,0.493,0.081,0.688,0.298v-0.266h0.684v2.719C209.768,101.435,209.286,101.928,208.527,101.928z M208.597,98.64
				c-0.417,0-0.46,0.357-0.46,0.731s0.043,0.737,0.46,0.737c0.418,0,0.467-0.363,0.467-0.737
				C209.064,98.998,209.015,98.64,208.597,98.64z"/>
			<path fill="#FFFFFF" d="M231.315,100.661c-0.141,0.141-0.374,0.233-0.648,0.233c-0.299,0-0.531-0.071-0.754-0.353v0.32h-0.391
				v-3.857h0.391v1.5c0.223-0.276,0.461-0.341,0.754-0.341c0.274,0,0.508,0.092,0.648,0.233c0.266,0.266,0.325,0.705,0.325,1.132
				C231.64,99.955,231.581,100.39,231.315,100.661z M230.583,98.51c-0.584,0-0.67,0.499-0.67,1.019c0,0.52,0.086,1.019,0.67,1.019
				c0.58,0,0.668-0.499,0.668-1.019C231.25,99.009,231.165,98.51,230.583,98.51z"/>
			<path fill="#FFFFFF" d="M232.452,97.438v-0.439h0.438v0.439H232.452z M232.473,100.861v-2.665h0.391v2.665H232.473z"/>
			<path fill="#FFFFFF" d="M235.349,100.861v-0.254c-0.212,0.211-0.412,0.287-0.771,0.287c-0.367,0-0.567-0.065-0.752-0.244
				c-0.137-0.13-0.201-0.33-0.201-0.542c0-0.471,0.33-0.769,0.926-0.769h0.798v-0.255c0-0.384-0.188-0.585-0.683-0.585
				c-0.336,0-0.511,0.087-0.672,0.309l-0.267-0.244c0.233-0.309,0.504-0.401,0.942-0.401c0.721,0,1.066,0.314,1.066,0.889v1.809
				H235.349z M235.349,99.631h-0.742c-0.401,0-0.603,0.157-0.603,0.471c0,0.309,0.189,0.455,0.619,0.455
				c0.222,0,0.416-0.022,0.59-0.179c0.092-0.087,0.136-0.238,0.136-0.46V99.631L235.349,99.631z"/>
			<path fill="#FFFFFF" d="M237.422,100.861c-0.467,0-0.684-0.303-0.684-0.709v-1.143l-0.342,0.211v-0.336l0.342-0.211v-1.668h0.391
				v1.43l0.438-0.271V98.5l-0.438,0.271v1.365c0,0.26,0.086,0.39,0.356,0.39h0.218v0.336L237.422,100.861L237.422,100.861z"/>
			<path fill="#FFFFFF" d="M240.145,100.861l-0.846-1.365l-0.52,0.596v0.769h-0.391v-3.857h0.391v2.579l1.202-1.387h0.487
				l-0.904,1.019l1.063,1.646H240.145z"/>
			<path fill="#FFFFFF" d="M242.788,100.59c-0.185,0.19-0.438,0.304-0.764,0.304s-0.58-0.114-0.764-0.304
				c-0.271-0.276-0.325-0.65-0.325-1.062c0-0.412,0.054-0.791,0.325-1.062c0.184-0.19,0.438-0.304,0.764-0.304
				s0.579,0.114,0.764,0.304c0.271,0.271,0.325,0.65,0.325,1.062C243.113,99.94,243.058,100.314,242.788,100.59z M242.511,98.705
				c-0.13-0.13-0.298-0.195-0.487-0.195s-0.354,0.065-0.482,0.195c-0.193,0.195-0.217,0.52-0.217,0.823
				c0,0.298,0.018,0.623,0.217,0.823c0.131,0.13,0.293,0.195,0.482,0.195s0.357-0.065,0.487-0.195
				c0.194-0.2,0.211-0.525,0.211-0.823C242.722,99.225,242.708,98.9,242.511,98.705z"/>
			<path fill="#FFFFFF" d="M198.268,108.564c-0.629,0-1.176-0.412-1.176-1.148v-1.625c0-0.737,0.547-1.148,1.176-1.148
				c0.628,0,1.17,0.412,1.17,1.148v1.625C199.438,108.152,198.896,108.564,198.268,108.564z M198.734,105.801
				c0-0.325-0.185-0.525-0.466-0.525c-0.282,0-0.473,0.2-0.473,0.525v1.609c0,0.325,0.189,0.52,0.473,0.52
				c0.281,0,0.466-0.195,0.466-0.52V105.801z"/>
			<path fill="#FFFFFF" d="M200.102,108.531v-0.802h0.809v0.802H200.102z"/>
			<path fill="#FFFFFF" d="M202.734,108.564c-0.628,0-1.219-0.331-1.229-1.138h0.705c0.011,0.347,0.248,0.504,0.524,0.504
				c0.304,0,0.521-0.19,0.521-0.537c0-0.319-0.194-0.531-0.541-0.531h-0.104v-0.612h0.104c0.341,0,0.486-0.211,0.486-0.482
				c0-0.325-0.217-0.493-0.471-0.493c-0.266,0-0.461,0.173-0.479,0.466h-0.703c0.017-0.688,0.531-1.1,1.182-1.1
				c0.682,0,1.175,0.455,1.175,1.105c0,0.417-0.188,0.655-0.444,0.791c0.276,0.146,0.5,0.412,0.5,0.878
				C203.958,108.185,203.395,108.564,202.734,108.564z"/>
			<path fill="#FFFFFF" d="M205.674,108.564c-0.629,0-1.219-0.331-1.229-1.138h0.704c0.012,0.347,0.249,0.504,0.525,0.504
				c0.304,0,0.521-0.19,0.521-0.537c0-0.319-0.194-0.531-0.542-0.531h-0.104v-0.612h0.104c0.342,0,0.487-0.211,0.487-0.482
				c0-0.325-0.218-0.493-0.472-0.493c-0.266,0-0.461,0.173-0.478,0.466h-0.704c0.018-0.688,0.531-1.1,1.182-1.1
				c0.683,0,1.176,0.455,1.176,1.105c0,0.417-0.189,0.655-0.444,0.791c0.276,0.146,0.499,0.412,0.499,0.878
				C206.899,108.185,206.334,108.564,205.674,108.564z"/>
			<path fill="#FFFFFF" d="M208.527,109.598c-0.433,0-0.729-0.086-1.022-0.368l0.438-0.444c0.157,0.152,0.314,0.217,0.553,0.217
				c0.424,0,0.569-0.298,0.569-0.585v-0.287c-0.185,0.206-0.396,0.282-0.672,0.282s-0.515-0.092-0.672-0.249
				c-0.267-0.266-0.287-0.628-0.287-1.122c0-0.493,0.021-0.851,0.287-1.116c0.157-0.157,0.399-0.249,0.677-0.249
				c0.298,0,0.493,0.081,0.688,0.298v-0.266h0.684v2.719C209.768,109.105,209.286,109.598,208.527,109.598z M208.597,106.311
				c-0.417,0-0.46,0.357-0.46,0.731s0.043,0.737,0.46,0.737c0.418,0,0.467-0.363,0.467-0.737S209.015,106.311,208.597,106.311z"/>
			<path fill="#FFFFFF" d="M227.575,108.531c-0.455,0-0.684-0.32-0.684-0.715v-1.652h-0.336v-0.298h0.336v-0.818h0.391v0.818h0.568
				v0.298h-0.568v1.641c0,0.244,0.113,0.39,0.362,0.39h0.206v0.336H227.575z"/>
			<path fill="#FFFFFF" d="M229.361,108.531c-0.466,0-0.683-0.303-0.683-0.709v-1.143l-0.342,0.211v-0.336l0.342-0.211v-1.668h0.39
				v1.43l0.438-0.271v0.336l-0.438,0.271v1.365c0,0.26,0.087,0.39,0.356,0.39h0.218v0.336L229.361,108.531L229.361,108.531z"/>
			<path fill="#FFFFFF" d="M232.013,108.531v-0.298c-0.188,0.217-0.455,0.331-0.753,0.331c-0.287,0-0.525-0.087-0.688-0.25
				c-0.188-0.184-0.271-0.438-0.271-0.748v-1.701h0.391v1.641c0,0.471,0.249,0.71,0.648,0.71c0.402,0,0.668-0.244,0.668-0.71v-1.641
				h0.39v2.665L232.013,108.531L232.013,108.531z"/>
			<path fill="#FFFFFF" d="M234.211,108.564c-0.455,0-0.809-0.103-1.094-0.385l0.26-0.26c0.205,0.217,0.498,0.309,0.828,0.309
				c0.443,0,0.709-0.157,0.709-0.471c0-0.239-0.129-0.363-0.443-0.39l-0.438-0.038c-0.521-0.043-0.797-0.271-0.797-0.715
				c0-0.488,0.406-0.78,0.98-0.78c0.384,0,0.715,0.092,0.957,0.287l-0.254,0.255c-0.189-0.146-0.434-0.211-0.709-0.211
				c-0.391,0-0.596,0.163-0.596,0.439c0,0.238,0.145,0.357,0.477,0.39l0.416,0.038c0.467,0.043,0.785,0.217,0.785,0.721
				C235.293,108.266,234.862,108.564,234.211,108.564z"/>
			<path fill="#FFFFFF" d="M235.84,108.531v-0.336l1.484-1.982h-1.402v-0.347h1.853v0.331l-1.489,1.988h1.489v0.347L235.84,108.531
				L235.84,108.531z"/>
			<path fill="#FFFFFF" d="M239.579,108.564c-0.672,0-1.183-0.455-1.183-1.365c0-0.91,0.51-1.365,1.183-1.365
				c0.367,0,0.601,0.098,0.877,0.396l-0.267,0.249c-0.2-0.222-0.356-0.298-0.61-0.298c-0.262,0-0.478,0.103-0.619,0.304
				c-0.123,0.173-0.172,0.379-0.172,0.715c0,0.336,0.049,0.542,0.172,0.715c0.143,0.201,0.357,0.304,0.619,0.304
				c0.254,0,0.41-0.082,0.61-0.304l0.267,0.255C240.178,108.466,239.946,108.564,239.579,108.564z"/>
			<path fill="#FFFFFF" d="M240.978,108.531v-0.336l1.483-1.982h-1.401v-0.347h1.853v0.331l-1.49,1.988h1.49v0.347L240.978,108.531
				L240.978,108.531z"/>
			<path fill="#FFFFFF" d="M197.114,116.201v-0.634l1.441-1.674c0.141-0.168,0.199-0.287,0.199-0.466
				c0-0.287-0.168-0.482-0.465-0.482c-0.233,0-0.473,0.119-0.473,0.493h-0.704c0-0.704,0.515-1.127,1.177-1.127
				c0.683,0,1.17,0.429,1.17,1.122c0,0.373-0.146,0.574-0.412,0.883l-1.077,1.251h1.489v0.634H197.114z"/>
			<path fill="#FFFFFF" d="M200.053,116.201v-0.634l1.441-1.674c0.141-0.168,0.199-0.287,0.199-0.466
				c0-0.287-0.168-0.482-0.466-0.482c-0.233,0-0.472,0.119-0.472,0.493h-0.705c0-0.704,0.516-1.127,1.177-1.127
				c0.683,0,1.17,0.429,1.17,1.122c0,0.373-0.146,0.574-0.411,0.883l-1.078,1.251h1.489v0.634H200.053z"/>
			<path fill="#FFFFFF" d="M203.042,116.201v-0.802h0.809v0.802H203.042z"/>
			<path fill="#FFFFFF" d="M205.691,116.232c-0.683,0-1.235-0.406-1.235-1.153c0-0.472,0.271-0.726,0.482-0.867
				c-0.195-0.135-0.434-0.39-0.434-0.802c0-0.683,0.541-1.1,1.187-1.1s1.181,0.417,1.181,1.1c0,0.412-0.238,0.667-0.434,0.802
				c0.212,0.142,0.486,0.396,0.486,0.867C206.924,115.827,206.374,116.232,205.691,116.232z M205.691,114.533
				c-0.298,0-0.53,0.238-0.53,0.536c0,0.298,0.232,0.53,0.53,0.53s0.53-0.232,0.53-0.53
				C206.221,114.771,205.989,114.533,205.691,114.533z M205.691,112.945c-0.276,0-0.481,0.212-0.481,0.488
				c0,0.281,0.205,0.487,0.481,0.487s0.478-0.206,0.478-0.487C206.167,113.157,205.967,112.945,205.691,112.945z"/>
			<path fill="#FFFFFF" d="M209.579,115.654v0.547h-0.678v-0.547h-1.576v-0.667l1.321-2.643h0.771l-1.321,2.643h0.807v-0.72h0.677
				v0.72h0.354v0.667H209.579z"/>
			<path fill="#FFFFFF" d="M233.34,116.201h-0.362l-0.699-2.07l-0.692,2.07h-0.363l-0.846-2.666h0.424l0.611,2.14l0.698-2.14h0.336
				l0.704,2.14l0.605-2.14h0.424L233.34,116.201z"/>
			<path fill="#FFFFFF" d="M234.917,114.971c0,0.585,0.271,0.921,0.785,0.921c0.309,0,0.486-0.092,0.698-0.304l0.265,0.233
				c-0.271,0.271-0.524,0.412-0.975,0.412c-0.71,0-1.165-0.421-1.165-1.365c0-0.866,0.418-1.364,1.095-1.364
				c0.693,0,1.094,0.492,1.094,1.294v0.174H234.917z M236.243,114.234c-0.113-0.243-0.336-0.4-0.623-0.4s-0.509,0.157-0.623,0.4
				c-0.064,0.142-0.07,0.228-0.08,0.444h1.414C236.313,114.461,236.307,114.375,236.243,114.234z M235.864,117.371h-0.429
				l0.385-0.807h0.363L235.864,117.371z"/>
			<path fill="#FFFFFF" d="M238.397,117.426c-0.4,0-0.623-0.104-0.904-0.357l0.254-0.25c0.195,0.175,0.33,0.267,0.641,0.267
				c0.514,0,0.73-0.362,0.73-0.817v-0.417c-0.218,0.277-0.461,0.347-0.748,0.347c-0.271,0-0.504-0.098-0.645-0.239
				c-0.266-0.265-0.325-0.677-0.325-1.11c0-0.433,0.06-0.845,0.325-1.11c0.141-0.141,0.379-0.232,0.648-0.232
				c0.293,0,0.531,0.064,0.748,0.347v-0.314h0.385v2.747C239.506,116.943,239.095,117.426,238.397,117.426z M238.458,113.85
				c-0.58,0-0.668,0.498-0.668,0.996c0,0.499,0.088,0.997,0.668,0.997c0.578,0,0.66-0.498,0.66-0.997
				C239.118,114.348,239.036,113.85,238.458,113.85z"/>
			<path fill="#FFFFFF" d="M241.147,116.201c-0.466,0-0.677-0.304-0.677-0.71v-3.146h0.391v3.131c0,0.26,0.086,0.39,0.356,0.39
				h0.212v0.336L241.147,116.201L241.147,116.201z"/>
			<path fill="#FFFFFF" d="M242.062,116.201v-0.509h0.51v0.509H242.062z"/>
			<path fill="#FFFFFF" d="M197.114,123.872v-0.634l1.441-1.674c0.141-0.168,0.199-0.287,0.199-0.467
				c0-0.287-0.168-0.482-0.465-0.482c-0.233,0-0.473,0.119-0.473,0.494h-0.704c0-0.705,0.515-1.127,1.177-1.127
				c0.683,0,1.17,0.429,1.17,1.121c0,0.373-0.146,0.574-0.412,0.883l-1.077,1.252h1.489v0.634H197.114z"/>
			<path fill="#FFFFFF" d="M200.102,123.872v-0.802h0.809v0.802H200.102z"/>
			<path fill="#FFFFFF" d="M202.741,123.904c-0.684,0-1.203-0.428-1.203-1.191c0-0.354,0.151-0.677,0.324-1.029l0.813-1.668h0.771
				l-0.802,1.592c0.092-0.037,0.195-0.049,0.287-0.049c0.52,0,1.013,0.43,1.013,1.145
				C203.942,123.46,203.422,123.904,202.741,123.904z M202.741,122.145c-0.287,0-0.5,0.205-0.5,0.563s0.213,0.563,0.5,0.563
				c0.286,0,0.497-0.205,0.497-0.563C203.238,122.365,203.038,122.145,202.741,122.145z"/>
			<path fill="#FFFFFF" d="M205.586,124.939c-0.433,0-0.729-0.088-1.022-0.369l0.438-0.443c0.156,0.15,0.313,0.217,0.553,0.217
				c0.423,0,0.568-0.298,0.568-0.584v-0.287c-0.185,0.205-0.396,0.28-0.672,0.28c-0.275,0-0.515-0.092-0.672-0.249
				c-0.266-0.266-0.287-0.629-0.287-1.121s0.021-0.852,0.287-1.115c0.157-0.158,0.4-0.25,0.678-0.25
				c0.297,0,0.492,0.082,0.688,0.299v-0.267h0.684v2.72C206.829,124.445,206.346,124.939,205.586,124.939z M205.659,121.65
				c-0.418,0-0.461,0.357-0.461,0.731c0,0.373,0.043,0.736,0.461,0.736s0.467-0.363,0.467-0.736
				C206.125,122.01,206.077,121.65,205.659,121.65z"/>
			<path fill="#FFFFFF" d="M228.375,123.672c-0.142,0.141-0.375,0.232-0.649,0.232c-0.298,0-0.531-0.07-0.753-0.352v0.318h-0.391
				v-3.855h0.391v1.5c0.222-0.277,0.46-0.342,0.753-0.342c0.274,0,0.509,0.092,0.649,0.232c0.266,0.266,0.324,0.703,0.324,1.132
				C228.702,122.969,228.641,123.4,228.375,123.672z M227.644,121.521c-0.585,0-0.671,0.498-0.671,1.018
				c0,0.521,0.086,1.02,0.671,1.02c0.58,0,0.667-0.498,0.667-1.02C228.311,122.02,228.224,121.521,227.644,121.521z"/>
			<path fill="#FFFFFF" d="M230.27,123.872c-0.466,0-0.684-0.304-0.684-0.71v-1.143l-0.342,0.211v-0.336l0.342-0.211v-1.668h0.391
				v1.43l0.438-0.271v0.336l-0.438,0.271v1.365c0,0.26,0.087,0.39,0.357,0.39h0.217v0.336H230.27z"/>
			<path fill="#FFFFFF" d="M232.896,123.602c-0.185,0.189-0.438,0.303-0.765,0.303c-0.325,0-0.58-0.112-0.764-0.303
				c-0.271-0.275-0.324-0.649-0.324-1.063c0-0.411,0.054-0.79,0.324-1.063c0.184-0.188,0.438-0.303,0.764-0.303
				c0.326,0,0.58,0.113,0.765,0.303c0.271,0.271,0.325,0.65,0.325,1.063S233.167,123.325,232.896,123.602z M232.62,121.716
				c-0.129-0.13-0.298-0.194-0.486-0.194c-0.189,0-0.354,0.064-0.482,0.194c-0.193,0.195-0.217,0.521-0.217,0.823
				c0,0.299,0.018,0.623,0.217,0.824c0.131,0.13,0.293,0.193,0.482,0.193c0.188,0,0.357-0.063,0.486-0.193
				c0.195-0.201,0.211-0.525,0.211-0.824C232.831,122.236,232.815,121.911,232.62,121.716z"/>
			<path fill="#FFFFFF" d="M235.76,123.872v-1.642c0-0.471-0.254-0.709-0.655-0.709c-0.399,0-0.66,0.242-0.66,0.709v1.642h-0.391
				v-2.665h0.391v0.292c0.188-0.216,0.449-0.324,0.747-0.324c0.287,0,0.521,0.087,0.684,0.249c0.188,0.184,0.275,0.434,0.275,0.742
				v1.706H235.76z"/>
			<path fill="#FFFFFF" d="M238.801,123.872v-1.642c0-0.471-0.254-0.709-0.654-0.709s-0.66,0.242-0.66,0.709v1.642h-0.391v-2.665
				h0.391v0.292c0.189-0.216,0.449-0.324,0.747-0.324c0.287,0,0.521,0.087,0.683,0.249c0.189,0.184,0.276,0.434,0.276,0.742v1.706
				H238.801z"/>
			<path fill="#FFFFFF" d="M240.118,120.447v-0.438h0.438v0.438H240.118z M240.139,123.872v-2.665h0.391v2.665H240.139z"/>
			<path fill="#FFFFFF" d="M243.258,123.872l-0.846-1.365l-0.52,0.597v0.77h-0.391v-3.855h0.391v2.578l1.202-1.388h0.487
				l-0.904,1.019l1.062,1.646L243.258,123.872L243.258,123.872z"/>
		</g>
		<g>
			<rect x="196.793" y="94.581" fill="#FFFFFF" width="46.533" height="0.228"/>
		</g>
		<g>
			<rect x="196.793" y="102.702" fill="#FFFFFF" width="46.533" height="0.228"/>
		</g>
		<g>
			<rect x="196.793" y="110.296" fill="#FFFFFF" width="46.533" height="0.228"/>
		</g>
		<g>
			<rect x="196.793" y="118.493" fill="#FFFFFF" width="46.533" height="0.229"/>
		</g>
		<g>
			<rect x="196.793" y="125.861" fill="#FFFFFF" width="46.533" height="0.229"/>
		</g>
	</g>
</g>
<g>
	<path fill="#FFFFFF" d="M234.362,93.191l-0.84-1.357l-0.517,0.593v0.765h-0.389v-3.835h0.389v2.564l1.195-1.379h0.484l-0.899,1.012
		l1.056,1.638H234.362z"/>
	<path fill="#FFFFFF" d="M236.32,93.223c-0.668,0-1.175-0.452-1.175-1.357c0-0.905,0.507-1.357,1.175-1.357
		c0.366,0,0.598,0.097,0.872,0.394l-0.264,0.248c-0.199-0.221-0.355-0.296-0.608-0.296c-0.259,0-0.474,0.103-0.614,0.302
		c-0.124,0.172-0.172,0.377-0.172,0.711s0.048,0.539,0.172,0.711c0.141,0.2,0.355,0.302,0.614,0.302
		c0.253,0,0.409-0.081,0.608-0.302l0.264,0.253C236.917,93.126,236.686,93.223,236.32,93.223z"/>
	<path fill="#FFFFFF" d="M239.409,93.191v-0.253c-0.21,0.21-0.409,0.285-0.765,0.285c-0.366,0-0.565-0.064-0.749-0.242
		c-0.135-0.129-0.199-0.329-0.199-0.539c0-0.469,0.329-0.765,0.921-0.765h0.792v-0.253c0-0.382-0.188-0.582-0.679-0.582
		c-0.334,0-0.506,0.086-0.668,0.307l-0.264-0.242c0.231-0.307,0.501-0.399,0.938-0.399c0.716,0,1.061,0.313,1.061,0.884v1.799
		H239.409z M239.409,91.968h-0.737c-0.399,0-0.599,0.156-0.599,0.469c0,0.307,0.188,0.452,0.614,0.452
		c0.221,0,0.415-0.021,0.587-0.178c0.092-0.086,0.135-0.237,0.135-0.458V91.968z"/>
	<path fill="#FFFFFF" d="M241.405,93.191c-0.464,0-0.674-0.302-0.674-0.706v-3.129h0.389v3.113c0,0.258,0.086,0.388,0.355,0.388
		h0.21v0.334H241.405z"/>
	<path fill="#FFFFFF" d="M242.316,93.191v-0.506h0.507v0.506H242.316z"/>
</g>
</svg>
