<?xml version="1.0" encoding="utf-8"?>
<!-- Generator: Adobe Illustrator 16.0.3, SVG Export Plug-In . SVG Version: 6.00 Build 0)  -->
<!DOCTYPE svg PUBLIC "-//W3C//DTD SVG 1.1//EN" "http://www.w3.org/Graphics/SVG/1.1/DTD/svg11.dtd">
<svg version="1.1" id="Warstwa_1" xmlns="http://www.w3.org/2000/svg" xmlns:xlink="http://www.w3.org/1999/xlink" x="0px" y="0px"
	 width="311.975px" height="396.447px" viewBox="0 0 311.975 396.447" enable-background="new 0 0 311.975 396.447"
	 xml:space="preserve">
<g>
	<g>
		<g>
			<path fill="#009DE0" d="M19.328,395.917c0,0-36.936-49.915-6.246-103.955c27.229-47.949,58.978-44.671,82.27-25.214
				c9.92,8.287,38.525,1.021,62.868-47.769c33.2-66.534,148.278-26.18,127.295,76.187c-10.151,49.536,30.902,51.336,9.985,100.855
				L19.328,395.917z"/>
			<path fill="#7C409C" d="M311.722,396.447H0.308c-0.17,0-0.308-0.139-0.308-0.308v-0.236c0-0.171,0.138-0.308,0.308-0.308h311.417
				c0.168,0,0.308,0.138,0.308,0.308v0.236C312.032,396.309,311.893,396.447,311.722,396.447z"/>
		</g>
	</g>
	<path fill="#009DE0" d="M122.139,237.294c-15.633,13.862-36.423,16.002-46.437,4.784c-10.014-11.214-5.457-31.544,10.175-45.4
		c15.634-13.859,36.423-16,46.438-4.784C142.327,203.109,137.771,223.436,122.139,237.294z"/>
	<path fill="#009DE0" d="M43.063,238.202c-4.295-4.813-4.96-11.214-1.484-14.295c3.477-3.084,9.779-1.681,14.074,3.133
		c4.296,4.812,4.96,11.213,1.483,14.295C53.66,244.416,47.357,243.016,43.063,238.202z"/>
	<path fill="#009DE0" d="M282.71,218.835c-1.424-6.281,1.103-12.204,5.642-13.224c4.541-1.023,9.376,3.243,10.798,9.525
		c1.424,6.284-1.102,12.204-5.641,13.228C288.968,229.384,284.133,225.118,282.71,218.835z"/>
</g>
<image overflow="visible" width="650" height="826" xlink:href="../img/sama domi.png"  transform="matrix(0.48 0 0 0.48 0 0)">
</image>
</svg>
