<?xml version="1.0" encoding="utf-8"?>
<!-- Generator: Adobe Illustrator 16.0.3, SVG Export Plug-In . SVG Version: 6.00 Build 0)  -->
<!DOCTYPE svg PUBLIC "-//W3C//DTD SVG 1.1//EN" "http://www.w3.org/Graphics/SVG/1.1/DTD/svg11.dtd">
<svg version="1.1" id="Warstwa_1" xmlns="http://www.w3.org/2000/svg" xmlns:xlink="http://www.w3.org/1999/xlink" x="0px" y="0px"
	 width="33.679px" height="30.671px" viewBox="0 0 33.679 30.671" enable-background="new 0 0 33.679 30.671" xml:space="preserve">
<path fill="#FFFFFF" d="M25.985,0.182c-3.713-0.563-7.728,1.408-9.02,4.916c-0.644-1.677-1.988-3.074-3.552-3.949
	c-2.622-1.465-5.198-1.486-8.003-0.304C3.244,1.757,1.544,4.156,0.644,6.243c-1.138,2.636-0.563,5.865,0.145,8.539
	c0.133,0.495,0.903,0.286,0.771-0.214C0.378,10.108,0.573,5.185,4.639,2.199c1.907-1.401,5.193-1.896,7.315-0.925
	c2.228,1.015,4.439,3.004,4.609,5.603c0.034,0.516,0.754,0.509,0.799,0c0.42-4.759,6.258-7.299,10.348-5.36
	c4.348,2.06,6.182,7.894,4.751,12.316c-0.903,2.79-4.485,2.096-6.842,2.11c-1.339,0.01-2.679,0.022-4.017,0.011
	c-0.18-0.001-0.92,0-0.898,0.014c-0.211-0.13-0.754-1.729-0.881-2.053c-0.167-0.434-0.727-0.346-0.783,0.106
	c-0.264,2.07-0.806,4.084-1.234,6.122c-0.414-3.427-0.586-6.881-1.156-10.29c-0.066-0.394-0.686-0.368-0.771,0
	c-0.549,2.38-1.098,4.759-1.648,7.139c-0.246-1.104-0.492-2.21-0.738-3.313c-0.081-0.368-0.708-0.395-0.77,0
	c-0.086,0.547-0.223,2.041-0.594,2.3c-0.253,0.179-1.207-0.008-1.537-0.008c-1.451-0.01-2.902-0.02-4.352-0.028
	c-1.586-0.011-4.076-0.327-4.004,2.05c0.037,1.245,1.189,2.507,1.926,3.428c1.068,1.334,2.344,2.486,3.686,3.537
	c2.764,2.161,5.845,3.835,8.828,5.661c0.123,0.076,0.279,0.068,0.404,0c5.404-2.953,9.766-6.777,13.607-11.592
	c0.316-0.397-0.246-0.966-0.566-0.563c-2.539,3.184-5.346,6.199-8.705,8.525c-1.07,0.742-3.414,2.873-4.747,2.689
	c-0.626-0.087-1.489-0.887-2.038-1.212c-0.838-0.497-1.676-0.996-2.502-1.515c-1.816-1.14-3.6-2.359-5.199-3.794
	c-0.96-0.861-5.754-5.451-2.596-6.429c1.193-0.369,3.141,0.021,4.393,0.029c1.238,0.007,2.479,0.016,3.719,0.022
	c0.182,0.001,0.332-0.125,0.385-0.293c0.096-0.303,0.182-0.604,0.269-0.905c0.247,1.108,0.493,2.215,0.739,3.322
	c0.084,0.383,0.682,0.379,0.771,0c0.521-2.262,1.044-4.522,1.564-6.783c0.453,3.551,0.613,7.136,1.207,10.669
	c0.08,0.486,0.733,0.299,0.783-0.105c0.303-2.412,0.988-4.745,1.429-7.127c0.272,0.597,0.644,1.07,1.374,1.189
	c1.81,0.292,3.928,0.001,5.758-0.012c1.682-0.011,3.916,0.363,5.32-0.771c1.217-0.984,1.461-2.729,1.589-4.188
	C34.065,6.837,31.354,0.995,25.985,0.182z"/>
</svg>
