<?xml version="1.0" encoding="utf-8"?>
<!-- Generator: Adobe Illustrator 16.0.3, SVG Export Plug-In . SVG Version: 6.00 Build 0)  -->
<!DOCTYPE svg PUBLIC "-//W3C//DTD SVG 1.1//EN" "http://www.w3.org/Graphics/SVG/1.1/DTD/svg11.dtd">
<svg version="1.1" id="Warstwa_1" xmlns="http://www.w3.org/2000/svg" xmlns:xlink="http://www.w3.org/1999/xlink" x="0px" y="0px"
	 width="262.25px" height="99.104px" viewBox="0 0 262.25 99.104" enable-background="new 0 0 262.25 99.104" xml:space="preserve">
<g>
	<g enable-background="new    ">
		<path fill="#FFFFFF" d="M70.457,96.763c-0.104,0-0.164-0.055-0.181-0.164l-0.063-0.988c-0.277,0.379-0.602,0.679-0.974,0.9
			c-0.372,0.223-0.789,0.334-1.251,0.334c-0.769,0-1.369-0.267-1.799-0.8s-0.646-1.332-0.646-2.398c0-0.457,0.06-0.884,0.179-1.28
			c0.12-0.396,0.296-0.74,0.53-1.032c0.233-0.291,0.519-0.521,0.857-0.689c0.338-0.167,0.728-0.251,1.169-0.251
			c0.424,0,0.792,0.078,1.103,0.235s0.58,0.388,0.807,0.688v-3.714h0.598v9.159H70.457z M68.158,96.36
			c0.416,0,0.792-0.105,1.129-0.319c0.336-0.214,0.637-0.514,0.901-0.896V91.84c-0.244-0.356-0.512-0.608-0.804-0.755
			c-0.292-0.147-0.624-0.221-0.993-0.221c-0.37,0-0.693,0.066-0.971,0.2c-0.277,0.136-0.509,0.324-0.696,0.57
			c-0.187,0.245-0.328,0.539-0.422,0.881c-0.095,0.342-0.142,0.719-0.142,1.13c0,0.933,0.172,1.617,0.517,2.057
			C67.022,96.141,67.515,96.36,68.158,96.36z"/>
		<path fill="#FFFFFF" d="M73.928,88.34c0,0.076-0.016,0.146-0.047,0.211c-0.031,0.065-0.072,0.123-0.123,0.173
			c-0.051,0.051-0.109,0.091-0.176,0.12s-0.139,0.044-0.214,0.044c-0.075,0-0.147-0.015-0.214-0.044
			c-0.067-0.029-0.126-0.069-0.176-0.12c-0.05-0.05-0.09-0.106-0.12-0.173c-0.029-0.064-0.044-0.135-0.044-0.211
			c0-0.075,0.015-0.147,0.044-0.217c0.029-0.07,0.069-0.129,0.12-0.181c0.05-0.05,0.109-0.09,0.176-0.118
			c0.067-0.029,0.139-0.045,0.214-0.045c0.076,0,0.147,0.016,0.214,0.045c0.067,0.028,0.125,0.068,0.176,0.118
			c0.05,0.052,0.091,0.11,0.123,0.181C73.913,88.193,73.928,88.265,73.928,88.34z M73.663,90.499v6.264h-0.598v-6.264H73.663z"/>
		<path fill="#FFFFFF" d="M78.239,90.399c0.353,0,0.679,0.062,0.979,0.184c0.3,0.122,0.56,0.299,0.78,0.532
			c0.221,0.231,0.393,0.519,0.517,0.858s0.186,0.729,0.186,1.171c0,0.092-0.014,0.155-0.041,0.188
			c-0.027,0.033-0.07,0.05-0.129,0.05h-4.521v0.12c0,0.47,0.055,0.884,0.164,1.24c0.109,0.355,0.265,0.654,0.466,0.896
			c0.202,0.242,0.445,0.423,0.73,0.545s0.604,0.184,0.957,0.184c0.314,0,0.587-0.035,0.818-0.104s0.425-0.146,0.583-0.233
			c0.158-0.086,0.282-0.163,0.375-0.231c0.092-0.069,0.16-0.104,0.202-0.104c0.054,0,0.096,0.021,0.125,0.063l0.164,0.201
			c-0.101,0.126-0.234,0.243-0.4,0.353s-0.351,0.202-0.554,0.28c-0.204,0.077-0.422,0.14-0.655,0.186
			c-0.233,0.047-0.467,0.069-0.702,0.069c-0.428,0-0.818-0.075-1.171-0.224c-0.353-0.149-0.655-0.366-0.907-0.651
			s-0.448-0.635-0.585-1.048c-0.138-0.414-0.207-0.887-0.207-1.42c0-0.449,0.063-0.863,0.192-1.243
			c0.128-0.38,0.313-0.707,0.554-0.982c0.241-0.273,0.537-0.488,0.888-0.645C77.399,90.476,77.794,90.399,78.239,90.399z
			 M78.249,90.846c-0.323,0-0.612,0.05-0.868,0.15c-0.255,0.102-0.477,0.246-0.663,0.435c-0.187,0.189-0.337,0.416-0.452,0.68
			c-0.116,0.266-0.192,0.562-0.229,0.889h4.123c0-0.335-0.046-0.638-0.138-0.903c-0.092-0.266-0.222-0.492-0.39-0.677
			c-0.168-0.186-0.369-0.326-0.604-0.425C78.793,90.895,78.533,90.846,78.249,90.846z"/>
		<path fill="#FFFFFF" d="M84.018,96.865c-0.424,0-0.753-0.117-0.988-0.354c-0.235-0.234-0.354-0.598-0.354-1.089v-4.28h-0.9
			c-0.046,0-0.084-0.013-0.113-0.038c-0.03-0.024-0.044-0.061-0.044-0.106v-0.232l1.07-0.075l0.149-2.24
			c0.004-0.038,0.02-0.071,0.047-0.102c0.027-0.03,0.063-0.044,0.109-0.044h0.28v2.392h1.97v0.447h-1.97v4.249
			c0,0.172,0.022,0.32,0.066,0.443c0.044,0.124,0.105,0.226,0.183,0.306s0.169,0.14,0.274,0.176c0.105,0.038,0.218,0.058,0.34,0.058
			c0.151,0,0.281-0.021,0.391-0.065c0.109-0.044,0.203-0.093,0.283-0.146s0.145-0.102,0.195-0.146c0.05-0.044,0.09-0.065,0.12-0.065
			c0.034,0,0.067,0.021,0.101,0.063l0.164,0.266c-0.16,0.176-0.362,0.316-0.607,0.425C84.538,96.81,84.283,96.865,84.018,96.865z"/>
		<path fill="#FFFFFF" d="M89.161,90.399c0.353,0,0.679,0.062,0.979,0.184c0.3,0.122,0.56,0.299,0.78,0.532
			c0.221,0.231,0.393,0.519,0.517,0.858s0.186,0.729,0.186,1.171c0,0.092-0.014,0.155-0.041,0.188s-0.07,0.05-0.129,0.05h-4.52v0.12
			c0,0.47,0.055,0.884,0.164,1.24c0.109,0.355,0.265,0.654,0.466,0.896c0.202,0.242,0.445,0.423,0.73,0.545s0.604,0.184,0.957,0.184
			c0.314,0,0.587-0.035,0.818-0.104s0.425-0.146,0.583-0.233c0.158-0.086,0.282-0.163,0.375-0.231
			c0.092-0.069,0.16-0.104,0.202-0.104c0.054,0,0.096,0.021,0.125,0.063l0.164,0.201c-0.101,0.126-0.234,0.243-0.4,0.353
			s-0.351,0.202-0.554,0.28c-0.204,0.077-0.422,0.14-0.655,0.186c-0.233,0.047-0.467,0.069-0.702,0.069
			c-0.428,0-0.818-0.075-1.171-0.224c-0.353-0.149-0.655-0.366-0.907-0.651s-0.448-0.635-0.585-1.048
			c-0.138-0.414-0.207-0.887-0.207-1.42c0-0.449,0.063-0.863,0.192-1.243c0.128-0.38,0.313-0.707,0.554-0.982
			c0.241-0.273,0.537-0.488,0.888-0.645S88.716,90.399,89.161,90.399z M89.17,90.846c-0.323,0-0.612,0.05-0.868,0.15
			c-0.255,0.102-0.477,0.246-0.663,0.435c-0.187,0.189-0.337,0.416-0.452,0.68c-0.116,0.266-0.192,0.562-0.229,0.889h4.123
			c0-0.335-0.046-0.638-0.138-0.903c-0.092-0.266-0.222-0.492-0.39-0.677c-0.168-0.186-0.369-0.326-0.604-0.425
			C89.714,90.895,89.455,90.846,89.17,90.846z"/>
		<path fill="#FFFFFF" d="M94.939,96.865c-0.424,0-0.753-0.117-0.988-0.354c-0.235-0.234-0.353-0.598-0.353-1.089v-4.28h-0.9
			c-0.046,0-0.084-0.013-0.113-0.038c-0.03-0.024-0.044-0.061-0.044-0.106v-0.232l1.07-0.075l0.149-2.24
			c0.004-0.038,0.021-0.071,0.047-0.102s0.063-0.044,0.109-0.044h0.28v2.392h1.97v0.447h-1.97v4.249c0,0.172,0.022,0.32,0.066,0.443
			c0.044,0.124,0.105,0.226,0.183,0.306c0.078,0.08,0.169,0.14,0.274,0.176c0.105,0.038,0.218,0.058,0.34,0.058
			c0.151,0,0.281-0.021,0.391-0.065c0.109-0.044,0.203-0.093,0.283-0.146s0.145-0.102,0.195-0.146c0.05-0.044,0.09-0.065,0.12-0.065
			c0.034,0,0.067,0.021,0.101,0.063l0.164,0.266c-0.16,0.176-0.362,0.316-0.607,0.425C95.459,96.81,95.204,96.865,94.939,96.865z"/>
		<path fill="#FFFFFF" d="M99.087,98.778c-0.025,0.06-0.058,0.106-0.098,0.146c-0.04,0.039-0.098,0.057-0.173,0.057h-0.428
			l1.102-2.448l-2.65-6.03h0.497c0.063,0,0.112,0.016,0.148,0.048c0.036,0.031,0.062,0.065,0.079,0.104l2.109,4.872
			c0.025,0.063,0.047,0.127,0.066,0.192c0.019,0.064,0.037,0.131,0.054,0.198c0.021-0.067,0.043-0.134,0.066-0.198
			c0.023-0.065,0.047-0.129,0.073-0.192l2.083-4.872c0.021-0.046,0.05-0.083,0.088-0.109c0.038-0.027,0.08-0.041,0.126-0.041h0.459
			L99.087,98.778z"/>
		<path fill="#FFFFFF" d="M104.514,87.604v5.584h0.29c0.059,0,0.114-0.009,0.167-0.024c0.052-0.018,0.11-0.058,0.173-0.12
			l2.512-2.386c0.046-0.047,0.093-0.084,0.142-0.113c0.049-0.029,0.11-0.044,0.186-0.044h0.529l-2.764,2.625
			c-0.042,0.042-0.082,0.081-0.12,0.116s-0.08,0.065-0.126,0.092c0.067,0.033,0.124,0.073,0.17,0.119
			c0.046,0.047,0.095,0.097,0.145,0.15l2.902,3.16h-0.521c-0.059,0-0.111-0.012-0.157-0.034s-0.092-0.061-0.139-0.109l-2.631-2.82
			c-0.071-0.075-0.136-0.127-0.195-0.154c-0.059-0.026-0.151-0.041-0.277-0.041h-0.283v3.16h-0.598v-9.159L104.514,87.604
			L104.514,87.604z"/>
		<path fill="#FFFFFF" d="M113.138,87.604v5.584h0.29c0.059,0,0.114-0.009,0.167-0.024c0.052-0.018,0.11-0.058,0.173-0.12
			l2.512-2.386c0.046-0.047,0.093-0.084,0.142-0.113c0.049-0.029,0.11-0.044,0.186-0.044h0.529l-2.764,2.625
			c-0.042,0.042-0.082,0.081-0.12,0.116s-0.08,0.065-0.126,0.092c0.067,0.033,0.124,0.073,0.17,0.119
			c0.046,0.047,0.095,0.097,0.145,0.15l2.902,3.16h-0.522c-0.059,0-0.111-0.012-0.157-0.034s-0.092-0.061-0.139-0.109l-2.631-2.82
			c-0.071-0.075-0.136-0.127-0.195-0.154c-0.059-0.026-0.151-0.041-0.277-0.041h-0.283v3.16h-0.598v-9.159L113.138,87.604
			L113.138,87.604z"/>
		<path fill="#FFFFFF" d="M119.445,87.604v9.159h-0.598v-9.159H119.445z"/>
		<path fill="#FFFFFF" d="M122.7,88.34c0,0.076-0.016,0.146-0.047,0.211c-0.031,0.065-0.072,0.123-0.123,0.173
			c-0.051,0.051-0.109,0.091-0.176,0.12s-0.139,0.044-0.214,0.044c-0.075,0-0.147-0.015-0.214-0.044
			c-0.067-0.029-0.126-0.069-0.176-0.12c-0.05-0.05-0.09-0.106-0.12-0.173c-0.029-0.064-0.044-0.135-0.044-0.211
			c0-0.075,0.015-0.147,0.044-0.217c0.029-0.07,0.069-0.129,0.12-0.181c0.05-0.05,0.109-0.09,0.176-0.118
			c0.067-0.029,0.139-0.045,0.214-0.045c0.076,0,0.147,0.016,0.214,0.045c0.067,0.028,0.125,0.068,0.176,0.118
			c0.05,0.052,0.091,0.11,0.123,0.181C122.685,88.193,122.7,88.265,122.7,88.34z M122.435,90.499v6.264h-0.598v-6.264H122.435z"/>
		<path fill="#FFFFFF" d="M124.651,96.763v-6.264h0.327c0.109,0,0.172,0.053,0.189,0.157l0.057,0.943
			c0.285-0.359,0.618-0.65,0.998-0.872c0.38-0.22,0.803-0.33,1.269-0.33c0.344,0,0.647,0.056,0.91,0.164
			c0.262,0.108,0.479,0.268,0.651,0.473c0.172,0.206,0.302,0.452,0.39,0.742c0.088,0.289,0.132,0.616,0.132,0.981v4.004h-0.598
			v-4.004c0-0.587-0.134-1.048-0.403-1.382c-0.269-0.333-0.68-0.5-1.234-0.5c-0.411,0-0.793,0.105-1.146,0.316
			c-0.353,0.214-0.667,0.503-0.944,0.872v4.696h-0.598V96.763z"/>
		<path fill="#FFFFFF" d="M132.5,88.34c0,0.076-0.016,0.146-0.047,0.211s-0.072,0.123-0.123,0.173
			c-0.051,0.051-0.109,0.091-0.176,0.12c-0.067,0.029-0.139,0.044-0.215,0.044c-0.074,0-0.146-0.015-0.213-0.044
			c-0.068-0.029-0.126-0.069-0.178-0.12c-0.05-0.05-0.09-0.106-0.12-0.173c-0.029-0.064-0.044-0.135-0.044-0.211
			c0-0.075,0.015-0.147,0.044-0.217c0.029-0.07,0.069-0.129,0.12-0.181c0.05-0.05,0.108-0.09,0.178-0.118
			c0.065-0.029,0.139-0.045,0.213-0.045c0.076,0,0.146,0.016,0.215,0.045c0.065,0.028,0.125,0.068,0.176,0.118
			c0.051,0.052,0.092,0.11,0.123,0.181C132.484,88.193,132.5,88.265,132.5,88.34z M132.236,90.499v6.264h-0.6v-6.264H132.236z"/>
		<path fill="#FFFFFF" d="M138.574,91.337c-0.021,0.021-0.041,0.038-0.061,0.053c-0.019,0.016-0.045,0.022-0.078,0.022
			c-0.041,0-0.101-0.028-0.172-0.085c-0.074-0.058-0.173-0.119-0.293-0.187c-0.123-0.066-0.274-0.129-0.457-0.186
			c-0.183-0.058-0.404-0.085-0.664-0.085c-0.361,0-0.682,0.063-0.961,0.19c-0.277,0.128-0.515,0.313-0.705,0.551
			c-0.189,0.239-0.336,0.529-0.438,0.869c-0.102,0.341-0.151,0.723-0.151,1.146c0,0.439,0.052,0.831,0.154,1.171
			c0.104,0.34,0.249,0.626,0.438,0.859c0.188,0.231,0.418,0.409,0.687,0.53c0.269,0.122,0.565,0.184,0.894,0.184
			c0.303,0,0.556-0.035,0.76-0.106c0.203-0.071,0.371-0.148,0.504-0.232c0.132-0.084,0.236-0.161,0.313-0.232
			s0.14-0.107,0.188-0.107c0.054,0,0.096,0.021,0.125,0.063l0.163,0.201c-0.096,0.126-0.219,0.243-0.364,0.353
			c-0.146,0.11-0.313,0.203-0.498,0.283s-0.385,0.142-0.601,0.186c-0.217,0.045-0.441,0.066-0.678,0.066
			c-0.397,0-0.763-0.072-1.092-0.218c-0.33-0.146-0.613-0.354-0.85-0.629c-0.238-0.275-0.422-0.611-0.555-1.012
			c-0.133-0.397-0.197-0.852-0.197-1.358c0-0.479,0.063-0.915,0.188-1.311c0.127-0.395,0.311-0.733,0.551-1.02
			c0.242-0.285,0.537-0.507,0.89-0.664c0.35-0.157,0.752-0.236,1.204-0.236c0.406,0,0.771,0.065,1.087,0.195
			c0.315,0.13,0.593,0.307,0.827,0.528L138.574,91.337z"/>
		<path fill="#FFFFFF" d="M144.359,90.751c0,0.088-0.029,0.168-0.088,0.239l-3.922,5.301h3.854v0.472h-4.577v-0.239
			c0-0.07,0.031-0.147,0.095-0.231l3.935-5.319h-3.82V90.5h4.524V90.751L144.359,90.751z"/>
		<path fill="#FFFFFF" d="M145.871,96.763v-6.264h0.326c0.109,0,0.172,0.053,0.188,0.157l0.058,0.943
			c0.285-0.359,0.617-0.65,0.998-0.872c0.379-0.22,0.803-0.33,1.268-0.33c0.344,0,0.646,0.056,0.91,0.164
			c0.262,0.108,0.479,0.268,0.65,0.473c0.172,0.206,0.303,0.452,0.391,0.742c0.089,0.289,0.133,0.616,0.133,0.981v4.004h-0.598
			v-4.004c0-0.587-0.135-1.048-0.403-1.382c-0.269-0.333-0.681-0.5-1.233-0.5c-0.412,0-0.793,0.105-1.146,0.316
			c-0.353,0.214-0.666,0.503-0.942,0.872v4.696h-0.6V96.763z"/>
		<path fill="#FFFFFF" d="M153.891,98.778c-0.024,0.06-0.059,0.106-0.098,0.146c-0.041,0.038-0.098,0.057-0.174,0.057h-0.428
			l1.102-2.448l-2.65-6.03h0.498c0.063,0,0.111,0.016,0.147,0.048c0.036,0.031,0.062,0.065,0.079,0.104l2.107,4.872
			c0.025,0.063,0.049,0.127,0.065,0.192c0.021,0.064,0.037,0.131,0.056,0.198c0.021-0.067,0.043-0.134,0.064-0.198
			c0.023-0.065,0.048-0.129,0.072-0.192l2.084-4.872c0.021-0.046,0.05-0.083,0.088-0.109c0.037-0.027,0.08-0.041,0.126-0.041h0.459
			L153.891,98.778z"/>
	</g>
	<g enable-background="new    ">
		<path fill="#FFFFFF" d="M14.906,41.5c0,1.164-0.174,2.21-0.521,3.139c-0.348,0.93-0.837,1.721-1.468,2.373s-1.387,1.152-2.266,1.5
			s-1.855,0.521-2.926,0.521h-5.49V33.978h5.49c1.071,0,2.046,0.174,2.926,0.521c0.88,0.347,1.635,0.848,2.266,1.5
			s1.121,1.443,1.468,2.373C14.732,39.302,14.906,40.344,14.906,41.5z M13.778,41.5c0-1.05-0.146-1.985-0.436-2.81
			c-0.291-0.822-0.701-1.518-1.229-2.085c-0.528-0.566-1.165-1.001-1.91-1.299s-1.571-0.446-2.479-0.446H3.33V48.15h4.395
			c0.908,0,1.734-0.148,2.479-0.446s1.381-0.73,1.91-1.298c0.529-0.568,0.938-1.264,1.229-2.087
			C13.633,43.497,13.778,42.558,13.778,41.5z"/>
		<path fill="#FFFFFF" d="M31.834,41.5c0,1.164-0.174,2.219-0.521,3.166c-0.347,0.945-0.837,1.755-1.468,2.426
			c-0.631,0.67-1.387,1.188-2.266,1.553c-0.879,0.366-1.855,0.548-2.926,0.548c-1.057,0-2.025-0.182-2.905-0.548
			c-0.879-0.364-1.635-0.883-2.266-1.553c-0.631-0.671-1.123-1.479-1.474-2.426c-0.351-0.947-0.527-2.002-0.527-3.166
			c0-1.156,0.176-2.207,0.527-3.154c0.351-0.947,0.842-1.756,1.474-2.426c0.631-0.671,1.387-1.19,2.266-1.56
			c0.879-0.368,1.848-0.554,2.905-0.554c1.071,0,2.046,0.184,2.926,0.548c0.88,0.365,1.635,0.886,2.266,1.56
			c0.631,0.674,1.121,1.483,1.468,2.432C31.66,39.293,31.834,40.344,31.834,41.5z M30.706,41.5c0-1.05-0.145-1.993-0.436-2.83
			s-0.701-1.546-1.229-2.128c-0.528-0.581-1.165-1.026-1.91-1.335c-0.745-0.31-1.571-0.463-2.479-0.463
			c-0.894,0-1.711,0.153-2.453,0.463c-0.742,0.309-1.379,0.754-1.915,1.335c-0.536,0.582-0.951,1.291-1.245,2.128
			s-0.441,1.78-0.441,2.83c0,1.058,0.147,2.002,0.441,2.836c0.294,0.833,0.709,1.541,1.245,2.122
			c0.536,0.582,1.174,1.024,1.915,1.33c0.741,0.306,1.559,0.458,2.453,0.458c0.908,0,1.734-0.152,2.479-0.458s1.381-0.748,1.91-1.33
			c0.528-0.581,0.938-1.289,1.229-2.122C30.561,43.502,30.706,42.558,30.706,41.5z"/>
		<path fill="#FFFFFF" d="M42.889,45.288c0.042-0.113,0.087-0.227,0.133-0.335c0.046-0.11,0.098-0.216,0.154-0.314l5.916-10.459
			c0.057-0.092,0.113-0.147,0.17-0.17c0.057-0.022,0.135-0.032,0.234-0.032h0.755v15.057h-0.958V36.202
			c0-0.186,0.01-0.38,0.032-0.586L43.399,46.14c-0.1,0.185-0.241,0.276-0.426,0.276h-0.17c-0.178,0-0.319-0.093-0.426-0.276
			l-6.086-10.534c0.021,0.206,0.032,0.404,0.032,0.598v12.831h-0.947V33.978h0.745c0.1,0,0.179,0.012,0.24,0.032
			c0.06,0.021,0.119,0.078,0.175,0.17l6.075,10.47C42.718,44.849,42.811,45.062,42.889,45.288z"/>
		<path fill="#FFFFFF" d="M56.209,49.033h-1.096V33.978h1.096V49.033z"/>
		<path fill="#FFFFFF" d="M61.848,34.016c0.057,0.024,0.117,0.079,0.181,0.164l9.746,13.045c-0.021-0.213-0.032-0.419-0.032-0.617
			v-12.63h0.958v15.057H72.18c-0.163,0-0.294-0.071-0.394-0.214l-9.789-13.064c0.021,0.213,0.032,0.415,0.032,0.605v12.673h-0.947
			V33.978h0.532C61.713,33.978,61.791,33.99,61.848,34.016z"/>
		<path fill="#FFFFFF" d="M78.659,49.033h-1.096V33.978h1.096V49.033z"/>
		<path fill="#FFFFFF" d="M84.936,40.926h0.894c0.134,0,0.251-0.006,0.351-0.016c0.099-0.012,0.189-0.032,0.271-0.064
			c0.082-0.031,0.158-0.072,0.229-0.122c0.071-0.05,0.145-0.113,0.223-0.19l6.076-6.246c0.113-0.113,0.218-0.192,0.313-0.239
			c0.096-0.046,0.215-0.069,0.356-0.069h0.883l-6.575,6.757c-0.135,0.143-0.254,0.252-0.356,0.33
			c-0.103,0.078-0.218,0.143-0.346,0.191c0.149,0.042,0.282,0.108,0.399,0.196c0.117,0.089,0.235,0.204,0.356,0.346l6.938,7.235
			h-0.883c-0.185,0-0.315-0.026-0.394-0.08c-0.078-0.054-0.16-0.122-0.245-0.207l-6.373-6.513c-0.079-0.077-0.149-0.146-0.213-0.201
			c-0.064-0.058-0.137-0.104-0.218-0.145s-0.179-0.066-0.292-0.085c-0.114-0.018-0.255-0.026-0.426-0.026h-0.968v7.257H83.85V33.957
			h1.085L84.936,40.926L84.936,40.926z"/>
		<path fill="#FFFFFF" d="M108.908,49.033h-0.841c-0.1,0-0.181-0.026-0.245-0.08c-0.064-0.054-0.114-0.122-0.149-0.207l-1.777-4.373
			h-7.395l-1.766,4.373c-0.029,0.078-0.079,0.146-0.149,0.202c-0.07,0.056-0.156,0.085-0.255,0.085h-0.83l6.16-15.057h1.085
			L108.908,49.033z M98.832,43.565h6.746l-3.075-7.606c-0.05-0.121-0.1-0.257-0.149-0.41c-0.05-0.152-0.1-0.313-0.149-0.483
			c-0.05,0.17-0.1,0.331-0.149,0.483c-0.05,0.153-0.1,0.293-0.149,0.421L98.832,43.565z"/>
	</g>
	<g>
		<g enable-background="new    ">
			<path fill="#FFFFFF" d="M16.067,61.17v2.688h-5.291v14.9H7.504v-14.9H2.188V61.17H16.067z"/>
			<path fill="#FFFFFF" d="M21.528,71.887v6.872h-3.272V61.17h5.364c1.2,0,2.228,0.124,3.083,0.371
				c0.855,0.248,1.557,0.595,2.104,1.04c0.547,0.445,0.949,0.979,1.205,1.6c0.255,0.62,0.383,1.304,0.383,2.05
				c0,0.593-0.087,1.151-0.261,1.68c-0.175,0.526-0.426,1.005-0.754,1.436c-0.328,0.43-0.734,0.807-1.216,1.131
				s-1.032,0.584-1.648,0.778c0.414,0.235,0.77,0.571,1.07,1.01l4.403,6.495h-2.944c-0.284,0-0.525-0.057-0.724-0.17
				c-0.199-0.114-0.367-0.276-0.505-0.487l-3.698-5.631c-0.138-0.211-0.29-0.361-0.456-0.45c-0.167-0.09-0.412-0.134-0.736-0.134
				L21.528,71.887L21.528,71.887z M21.528,69.539h2.043c0.616,0,1.153-0.077,1.612-0.231c0.458-0.154,0.835-0.366,1.131-0.639
				c0.296-0.271,0.517-0.594,0.663-0.967s0.219-0.782,0.219-1.229c0-0.892-0.294-1.577-0.882-2.056
				C25.726,63.94,24.828,63.7,23.62,63.7h-2.092V69.539z"/>
			<path fill="#FFFFFF" d="M45.174,61.17v2.604h-7.797v4.878h6.143v2.519h-6.143v4.975h7.797v2.615H34.081V61.17H45.174z"/>
			<path fill="#FFFFFF" d="M57.435,64.369c-0.089,0.179-0.193,0.305-0.31,0.377c-0.118,0.072-0.258,0.108-0.42,0.108
				s-0.345-0.063-0.547-0.188c-0.203-0.125-0.442-0.266-0.717-0.419c-0.276-0.154-0.598-0.294-0.967-0.42
				c-0.369-0.126-0.805-0.188-1.308-0.188c-0.454,0-0.85,0.055-1.186,0.164s-0.62,0.262-0.851,0.456s-0.404,0.428-0.517,0.699
				c-0.114,0.271-0.17,0.569-0.17,0.895c0,0.413,0.116,0.758,0.347,1.034c0.231,0.275,0.537,0.511,0.918,0.705
				s0.815,0.369,1.301,0.523c0.487,0.152,0.983,0.316,1.49,0.491c0.507,0.176,1.003,0.377,1.49,0.608
				c0.487,0.229,0.92,0.521,1.302,0.876c0.381,0.353,0.687,0.784,0.918,1.295s0.347,1.131,0.347,1.861
				c0,0.795-0.136,1.538-0.408,2.23c-0.272,0.693-0.669,1.298-1.192,1.813s-1.162,0.921-1.916,1.217s-1.618,0.443-2.591,0.443
				c-0.559,0-1.111-0.056-1.654-0.164c-0.543-0.109-1.064-0.267-1.563-0.469s-0.965-0.445-1.399-0.729
				c-0.434-0.283-0.821-0.6-1.162-0.948l0.949-1.568c0.089-0.113,0.196-0.209,0.322-0.286c0.125-0.077,0.266-0.115,0.419-0.115
				c0.203,0,0.422,0.083,0.657,0.249c0.235,0.167,0.513,0.352,0.833,0.554c0.32,0.203,0.697,0.388,1.131,0.554
				s0.955,0.249,1.563,0.249c0.932,0,1.654-0.221,2.165-0.662c0.511-0.441,0.766-1.076,0.766-1.903c0-0.462-0.115-0.839-0.347-1.131
				c-0.231-0.292-0.537-0.537-0.918-0.736c-0.381-0.198-0.815-0.367-1.302-0.505c-0.487-0.138-0.981-0.287-1.484-0.45
				c-0.503-0.162-0.998-0.355-1.484-0.584c-0.487-0.227-0.92-0.521-1.302-0.888c-0.381-0.364-0.687-0.821-0.918-1.368
				s-0.347-1.223-0.347-2.025c0-0.641,0.127-1.265,0.383-1.873c0.256-0.607,0.628-1.146,1.119-1.617s1.093-0.848,1.806-1.132
				c0.714-0.282,1.529-0.426,2.445-0.426c1.038,0,1.995,0.162,2.871,0.486c0.876,0.325,1.622,0.779,2.238,1.362L57.435,64.369z"/>
			<path fill="#FFFFFF" d="M73.624,61.17v1.205c0,0.373-0.105,0.713-0.316,1.021l-9.025,12.747h9.123v2.615H60.037V77.47
				c0-0.162,0.028-0.318,0.085-0.469c0.057-0.149,0.129-0.29,0.219-0.42l9.05-12.809h-8.782V61.17H73.624z"/>
			<path fill="#FFFFFF" d="M87.563,74.612c0.178,0,0.333,0.068,0.462,0.206l1.29,1.399c-0.714,0.884-1.592,1.561-2.634,2.031
				c-1.042,0.47-2.292,0.705-3.752,0.705c-1.306,0-2.479-0.224-3.521-0.669s-1.932-1.066-2.67-1.86
				c-0.738-0.795-1.304-1.744-1.697-2.847c-0.394-1.104-0.59-2.308-0.59-3.612c0-1.322,0.219-2.532,0.657-3.631
				c0.438-1.1,1.054-2.046,1.849-2.841c0.794-0.794,1.746-1.412,2.853-1.854c1.107-0.44,2.329-0.663,3.667-0.663
				c1.306,0,2.447,0.209,3.424,0.627c0.977,0.417,1.814,0.972,2.512,1.66l-1.095,1.521c-0.065,0.097-0.148,0.183-0.25,0.255
				s-0.241,0.108-0.419,0.108c-0.187,0-0.377-0.071-0.572-0.219c-0.195-0.146-0.442-0.304-0.742-0.475
				c-0.3-0.17-0.679-0.328-1.137-0.475c-0.458-0.146-1.04-0.22-1.746-0.22c-0.827,0-1.587,0.146-2.28,0.433
				c-0.693,0.287-1.29,0.699-1.788,1.234c-0.499,0.535-0.888,1.187-1.168,1.952c-0.28,0.766-0.419,1.628-0.419,2.585
				c0,0.989,0.14,1.869,0.419,2.64c0.279,0.771,0.659,1.419,1.138,1.945c0.478,0.527,1.042,0.931,1.69,1.211
				c0.649,0.279,1.346,0.419,2.092,0.419c0.446,0,0.849-0.022,1.21-0.072c0.361-0.049,0.693-0.126,0.998-0.23
				c0.305-0.105,0.592-0.241,0.864-0.407c0.271-0.166,0.541-0.371,0.809-0.614c0.081-0.072,0.167-0.132,0.256-0.177
				C87.361,74.634,87.458,74.612,87.563,74.612z"/>
			<path fill="#FFFFFF" d="M104.349,61.17v1.205c0,0.373-0.105,0.713-0.316,1.021l-9.025,12.747h9.123v2.615H90.762V77.47
				c0-0.162,0.028-0.318,0.085-0.469c0.057-0.149,0.129-0.29,0.219-0.42l9.05-12.809h-8.782V61.17H104.349z"/>
			<path fill="#FFFFFF" d="M123.068,69.965c0,1.289-0.215,2.483-0.645,3.582c-0.43,1.099-1.034,2.05-1.813,2.853
				c-0.778,0.804-1.715,1.43-2.81,1.879c-1.095,0.45-2.307,0.676-3.637,0.676s-2.544-0.226-3.643-0.676
				c-1.099-0.449-2.04-1.075-2.822-1.879c-0.782-0.803-1.389-1.754-1.818-2.853c-0.429-1.099-0.645-2.293-0.645-3.582
				c0-1.29,0.215-2.483,0.645-3.582c0.43-1.099,1.036-2.05,1.818-2.854c0.783-0.803,1.723-1.43,2.822-1.88
				c1.099-0.448,2.313-0.675,3.643-0.675s2.542,0.229,3.637,0.683c1.095,0.453,2.031,1.079,2.81,1.879
				c0.779,0.799,1.383,1.748,1.813,2.847C122.853,67.482,123.068,68.675,123.068,69.965z M119.711,69.965
				c0-0.965-0.128-1.831-0.383-2.598s-0.622-1.417-1.101-1.952s-1.061-0.944-1.746-1.229c-0.685-0.283-1.458-0.426-2.317-0.426
				c-0.86,0-1.634,0.143-2.323,0.426c-0.689,0.284-1.275,0.693-1.758,1.229s-0.854,1.187-1.113,1.952
				c-0.26,0.767-0.389,1.633-0.389,2.598s0.129,1.83,0.389,2.597c0.259,0.768,0.63,1.415,1.113,1.946s1.068,0.938,1.758,1.223
				c0.689,0.283,1.463,0.427,2.323,0.427c0.859,0,1.632-0.144,2.317-0.427s1.267-0.69,1.746-1.223s0.845-1.18,1.101-1.946
				C119.584,71.796,119.711,70.93,119.711,69.965z"/>
			<path fill="#FFFFFF" d="M137.094,61.17v2.688h-5.291v14.9h-3.271v-14.9h-5.315V61.17H137.094z"/>
			<path fill="#FFFFFF" d="M142.555,68.541h0.766c0.31,0,0.564-0.042,0.768-0.127c0.202-0.086,0.377-0.222,0.521-0.408l4.854-6.144
				c0.203-0.259,0.416-0.438,0.64-0.54c0.223-0.103,0.504-0.152,0.846-0.152h2.822l-5.924,7.311
				c-0.188,0.229-0.365,0.418-0.535,0.572c-0.17,0.153-0.354,0.279-0.549,0.377c0.269,0.097,0.51,0.235,0.725,0.413
				c0.215,0.179,0.424,0.405,0.627,0.682l6.104,8.234h-2.895c-0.39,0-0.681-0.055-0.869-0.164c-0.19-0.109-0.353-0.27-0.479-0.479
				L145,71.62c-0.162-0.211-0.345-0.363-0.548-0.456c-0.202-0.095-0.49-0.142-0.863-0.142h-1.032v7.736h-3.272V61.158h3.272v7.383
				H142.555z"/>
			<path fill="#FFFFFF" d="M172.658,69.965c0,1.289-0.215,2.483-0.645,3.582c-0.431,1.099-1.033,2.05-1.813,2.853
				c-0.777,0.804-1.716,1.43-2.81,1.879c-1.096,0.45-2.308,0.676-3.637,0.676c-1.33,0-2.545-0.226-3.645-0.676
				c-1.099-0.449-2.039-1.075-2.821-1.879c-0.782-0.803-1.39-1.754-1.818-2.853s-0.645-2.293-0.645-3.582
				c0-1.29,0.215-2.483,0.645-3.582c0.431-1.099,1.036-2.05,1.818-2.854c0.782-0.803,1.724-1.43,2.821-1.88
				c1.1-0.448,2.313-0.675,3.645-0.675c1.329,0,2.541,0.229,3.637,0.683c1.094,0.453,2.031,1.079,2.81,1.879
				c0.778,0.799,1.383,1.748,1.813,2.847C172.443,67.482,172.658,68.675,172.658,69.965z M169.302,69.965
				c0-0.965-0.128-1.831-0.384-2.598c-0.255-0.767-0.621-1.417-1.1-1.952c-0.479-0.535-1.062-0.944-1.746-1.229
				c-0.687-0.283-1.457-0.426-2.316-0.426s-1.635,0.143-2.324,0.426c-0.688,0.284-1.274,0.693-1.758,1.229
				c-0.482,0.536-0.854,1.187-1.111,1.952c-0.261,0.767-0.391,1.633-0.391,2.598s0.13,1.83,0.391,2.597
				c0.258,0.768,0.629,1.415,1.111,1.946s1.068,0.938,1.758,1.223c0.689,0.283,1.465,0.427,2.324,0.427s1.631-0.144,2.316-0.427
				s1.268-0.69,1.746-1.223c0.478-0.532,0.845-1.18,1.1-1.946C169.174,71.795,169.302,70.93,169.302,69.965z"/>
		</g>
	</g>
	<g>
		<g>
			<path fill="#009DE0" d="M224.842,94.511c2.229,1.32,4.458,1.819,6.732,1.684c3.732-0.271,7.462-2.271,10.965-5.412l0.047-0.047
				c3.548-3.141,6.823-7.463,9.555-12.193c5.506-9.418,8.963-20.565,8.418-28.254c-0.593-9.146-3.595-18.836-8.509-25.438
				c-1.956-2.547-4.142-4.641-6.598-6.049c-2.457-1.365-5.142-2.049-8.099-1.868c-3.551,0.273-7.463,1.774-11.693,4.96l-3.959,2.912
				c-0.135,0.092-0.272,0.137-0.362,0.186h-0.229c-2.91-0.094-5.822-0.685-8.555-1.775h-0.045c-2.639-1.047-5.188-2.592-7.462-4.596
				c-0.317-0.318-0.683-0.64-1.001-0.957l-0.729-0.729c-5.643,0.273-10.373,3.958-13.969,9.373
				c-4.32,6.507-6.959,15.47-7.507,23.979c-0.547,7.688,2.911,18.836,8.416,28.254c2.729,4.775,6.054,9.1,9.601,12.24l0.047,0.045
				c3.504,3.096,7.188,5.096,10.92,5.367c2.275,0.138,4.55-0.361,6.779-1.684c1.272-0.729,1.957-1.273,2.41-1.592l0.047-0.045
				c0.453-0.364,0.683-0.547,1.139-0.547c0.454,0,0.727,0.183,1.183,0.592C222.84,93.237,223.521,93.782,224.842,94.511
				L224.842,94.511z M231.666,97.786c-2.549,0.183-5.143-0.365-7.645-1.865c-1.412-0.773-2.186-1.365-2.641-1.73
				c-0.181-0.18-0.091-0.225-0.181-0.225c-0.045,0.09-0.093,0.135-0.183,0.225c-0.457,0.365-1.229,0.957-2.641,1.73
				c-2.502,1.5-5.098,2.048-7.645,1.865c-4.097-0.271-8.146-2.412-11.922-5.733l-0.043-0.046c-3.688-3.275-7.102-7.733-9.92-12.648
				c-5.643-9.646-9.191-21.153-8.646-29.209c0.593-8.734,3.275-18.02,7.781-24.752c3.957-5.916,9.234-9.918,15.697-10.1
				c0.228,0,0.453,0.09,0.59,0.271c0.272,0.316,0.592,0.638,0.91,0.953c0.317,0.273,0.637,0.595,0.956,0.866
				c2.138,1.91,4.505,3.321,6.962,4.321h0.045c2.502,1,5.141,1.547,7.776,1.638l3.779-2.772c4.503-3.368,8.688-5.006,12.557-5.232
				c3.277-0.229,6.279,0.545,8.965,2.048c2.686,1.501,5.05,3.729,7.099,6.462c5.142,6.869,8.236,16.877,8.871,26.297
				c0.547,8.008-3.002,19.563-8.645,29.209c-2.82,4.869-6.188,9.328-9.874,12.604l-0.045,0.045
				C239.855,95.374,235.807,97.516,231.666,97.786L231.666,97.786z"/>
		</g>
		<g>
			<path fill="#009DE0" d="M221.109,24.99c-2.911-0.094-5.823-0.685-8.556-1.775h-0.045c-2.639-1.047-5.188-2.592-7.462-4.596
				c-2.273-2.002-4.095-4.322-5.459-6.871c-1.411-2.592-2.365-5.459-2.773-8.325c-0.092-0.454,0.227-0.864,0.682-0.911
				c0.045-0.045,0.137-0.045,0.184-0.045c2.911,0.092,5.822,0.682,8.555,1.773c2.685,1.048,5.23,2.594,7.507,4.597
				c2.274,2.001,4.096,4.368,5.46,6.87c1.408,2.639,2.365,5.46,2.818,8.326c0.047,0.452-0.271,0.863-0.728,0.957
				C221.247,24.99,221.157,24.99,221.109,24.99L221.109,24.99z M213.148,21.712c2.271,0.91,4.687,1.411,7.052,1.593
				c-0.454-2.366-1.274-4.687-2.41-6.825c-1.321-2.363-3.005-4.551-5.144-6.416c-2.139-1.863-4.504-3.319-7.006-4.32
				c-2.275-0.863-4.688-1.41-7.054-1.594c0.454,2.365,1.271,4.688,2.412,6.825c1.317,2.364,3.001,4.55,5.142,6.416
				c2.139,1.91,4.504,3.321,6.961,4.321H213.148z"/>
		</g>
		<g>
			<path fill="#009DE0" d="M234.168,0.008c0.456,0,0.818,0.365,0.773,0.821c0,0.454-0.408,0.816-0.818,0.771
				c-0.045,0-13.516-1.002-12.059,22.066c0.047,0.453-0.316,0.815-0.772,0.863c-0.455,0-0.819-0.317-0.864-0.773
				C218.881-1.13,234.123,0.008,234.168,0.008L234.168,0.008z"/>
		</g>
		<g>
			<path fill="#FF21A4" d="M191.753,53.472c-0.058-0.46,0.298-0.891,0.754-0.902c0.507-0.051,0.886,0.346,0.942,0.807
				c-0.004,0.047,1.143,18.342,12.021,22.83c0.443,0.171,0.634,0.688,0.466,1.086c-0.17,0.441-0.688,0.629-1.131,0.459
				C192.952,72.866,191.749,53.517,191.753,53.472L191.753,53.472z"/>
		</g>
		<g>
			<path fill="#009DE0" d="M192.061,48.886c0.362,0.027,0.655,0.37,0.629,0.732c-0.027,0.361-0.371,0.655-0.731,0.629
				c-0.408-0.031-0.701-0.373-0.674-0.736C191.313,49.147,191.652,48.854,192.061,48.886L192.061,48.886z"/>
		</g>
	</g>
	<g>
		<g>
			<path fill="#009DE0" d="M208.757,96.071c0.549,0,0.983,0.389,0.983,0.875c0,0.485,2.672,0.873,2.126,0.873h-49.71
				c-0.545,0-0.985-0.388-0.985-0.873c0-0.486,0.44-0.875,0.985-0.875H208.757z"/>
		</g>
		<g>
			<path fill="#009DE0" d="M158.592,97.772c-0.379,0-0.717-0.34-0.717-0.823c0-0.439,0.338-0.776,0.717-0.776
				c0.38,0,0.717,0.337,0.717,0.776C159.309,97.433,158.972,97.772,158.592,97.772L158.592,97.772z"/>
		</g>
	</g>
	<g>
		<g>
			<path fill="#FF21A4" d="M170.391,47.649c0.551,0,0.989,0.39,0.989,0.876c0,0.485-0.438,0.873-0.989,0.873h-55.055
				c-0.549,0-0.992-0.388-0.992-0.873c0-0.486,0.443-0.876,0.992-0.876H170.391z"/>
		</g>
		<g>
			<path fill="#FF21A4" d="M111.746,49.351c-0.381,0-0.721-0.34-0.721-0.824c0-0.438,0.34-0.775,0.721-0.775
				c0.383,0,0.723,0.338,0.723,0.775C112.469,49.011,112.129,49.351,111.746,49.351L111.746,49.351z"/>
		</g>
	</g>
	<g>
		<g>
			<path fill="#009DE0" d="M3.066,96.851c-0.539,0-0.967-0.388-0.967-0.876c0-0.483,0.428-0.873,0.967-0.873h55.041
				c0.536,0,0.97,0.39,0.97,0.873c0,0.488-0.434,0.876-0.97,0.876H3.066z"/>
		</g>
		<g>
			<path fill="#009DE0" d="M61.613,95.149c0.372,0,0.704,0.342,0.704,0.824c0,0.439-0.332,0.777-0.704,0.777
				c-0.373,0-0.705-0.338-0.705-0.777C60.908,95.49,61.24,95.149,61.613,95.149L61.613,95.149z"/>
		</g>
	</g>
</g>
</svg>
