<?xml version="1.0" encoding="utf-8"?>
<!-- Generator: Adobe Illustrator 16.0.3, SVG Export Plug-In . SVG Version: 6.00 Build 0)  -->
<!DOCTYPE svg PUBLIC "-//W3C//DTD SVG 1.1//EN" "http://www.w3.org/Graphics/SVG/1.1/DTD/svg11.dtd">
<svg version="1.1" id="Warstwa_1" xmlns="http://www.w3.org/2000/svg" xmlns:xlink="http://www.w3.org/1999/xlink" x="0px" y="0px"
	 width="262.25px" height="99.104px" viewBox="0 0 262.25 99.104" enable-background="new 0 0 262.25 99.104" xml:space="preserve">
<g>
	<g enable-background="new    ">
		<path fill="#3F3E3E" d="M70.457,96.763c-0.104,0-0.164-0.055-0.181-0.164l-0.063-0.988c-0.277,0.378-0.602,0.678-0.974,0.9
			c-0.372,0.223-0.789,0.334-1.251,0.334c-0.769,0-1.369-0.267-1.799-0.8s-0.646-1.332-0.646-2.398c0-0.457,0.06-0.884,0.179-1.281
			c0.12-0.396,0.296-0.74,0.53-1.032c0.233-0.291,0.519-0.521,0.857-0.689c0.338-0.167,0.728-0.251,1.169-0.251
			c0.424,0,0.792,0.078,1.103,0.235s0.58,0.388,0.807,0.689v-3.714h0.598v9.159H70.457z M68.158,96.36
			c0.416,0,0.792-0.106,1.129-0.32c0.336-0.214,0.637-0.513,0.901-0.895V91.84c-0.244-0.356-0.512-0.608-0.804-0.755
			c-0.292-0.147-0.624-0.221-0.993-0.221c-0.37,0-0.693,0.067-0.971,0.201c-0.277,0.135-0.509,0.324-0.696,0.57
			c-0.187,0.245-0.328,0.539-0.422,0.881c-0.095,0.342-0.142,0.719-0.142,1.13c0,0.932,0.172,1.617,0.517,2.056
			S67.515,96.36,68.158,96.36z"/>
		<path fill="#3F3E3E" d="M73.928,88.34c0,0.076-0.016,0.146-0.047,0.211c-0.031,0.065-0.072,0.123-0.123,0.173
			c-0.051,0.051-0.109,0.091-0.176,0.12c-0.067,0.029-0.139,0.044-0.214,0.044c-0.075,0-0.147-0.015-0.214-0.044
			c-0.067-0.029-0.126-0.069-0.176-0.12c-0.05-0.05-0.09-0.107-0.12-0.173c-0.029-0.064-0.044-0.135-0.044-0.211
			c0-0.075,0.015-0.147,0.044-0.217s0.069-0.129,0.12-0.18c0.05-0.05,0.109-0.09,0.176-0.119c0.067-0.029,0.139-0.044,0.214-0.044
			c0.076,0,0.147,0.015,0.214,0.044c0.067,0.029,0.125,0.069,0.176,0.119c0.05,0.051,0.091,0.11,0.123,0.18
			S73.928,88.265,73.928,88.34z M73.663,90.499v6.264h-0.598v-6.264H73.663z"/>
		<path fill="#3F3E3E" d="M78.239,90.399c0.353,0,0.679,0.061,0.979,0.183c0.3,0.122,0.56,0.299,0.78,0.532
			c0.221,0.232,0.393,0.519,0.517,0.859c0.124,0.34,0.186,0.729,0.186,1.171c0,0.092-0.014,0.155-0.041,0.188s-0.07,0.05-0.129,0.05
			h-4.52v0.12c0,0.47,0.055,0.884,0.164,1.24c0.109,0.356,0.265,0.655,0.466,0.896c0.202,0.242,0.445,0.423,0.73,0.545
			c0.285,0.122,0.604,0.183,0.957,0.183c0.314,0,0.587-0.035,0.818-0.104c0.231-0.069,0.425-0.147,0.583-0.233
			s0.282-0.164,0.375-0.232c0.092-0.069,0.16-0.104,0.202-0.104c0.054,0,0.096,0.021,0.125,0.063l0.164,0.201
			c-0.101,0.126-0.234,0.243-0.4,0.353c-0.166,0.109-0.351,0.202-0.554,0.28c-0.204,0.077-0.422,0.14-0.655,0.186
			s-0.467,0.069-0.702,0.069c-0.428,0-0.818-0.075-1.171-0.224c-0.353-0.149-0.655-0.366-0.907-0.651s-0.448-0.635-0.585-1.048
			c-0.138-0.414-0.207-0.887-0.207-1.42c0-0.449,0.063-0.863,0.192-1.243c0.128-0.38,0.313-0.707,0.554-0.982
			c0.241-0.274,0.537-0.489,0.888-0.645S77.794,90.399,78.239,90.399z M78.249,90.846c-0.323,0-0.612,0.05-0.868,0.15
			c-0.255,0.102-0.477,0.246-0.663,0.435c-0.187,0.189-0.337,0.416-0.452,0.68c-0.116,0.265-0.192,0.561-0.229,0.888h4.123
			c0-0.335-0.046-0.637-0.138-0.903s-0.222-0.492-0.39-0.677s-0.369-0.326-0.604-0.425S78.533,90.846,78.249,90.846z"/>
		<path fill="#3F3E3E" d="M84.018,96.864c-0.424,0-0.753-0.117-0.988-0.353c-0.235-0.234-0.353-0.598-0.353-1.089v-4.28h-0.9
			c-0.046,0-0.084-0.013-0.113-0.038c-0.03-0.025-0.044-0.061-0.044-0.107v-0.232l1.07-0.075l0.149-2.241
			c0.004-0.038,0.02-0.071,0.047-0.101s0.063-0.044,0.109-0.044h0.28v2.392h1.97v0.447h-1.97v4.249c0,0.172,0.022,0.32,0.066,0.443
			c0.044,0.124,0.105,0.226,0.183,0.306s0.169,0.139,0.274,0.176c0.105,0.038,0.218,0.057,0.34,0.057
			c0.151,0,0.281-0.021,0.391-0.065c0.109-0.044,0.203-0.093,0.283-0.146c0.08-0.052,0.145-0.101,0.195-0.145s0.09-0.066,0.12-0.066
			c0.034,0,0.067,0.021,0.101,0.063l0.164,0.265c-0.16,0.176-0.362,0.317-0.607,0.425C84.538,96.81,84.283,96.864,84.018,96.864z"/>
		<path fill="#3F3E3E" d="M89.161,90.399c0.353,0,0.679,0.061,0.979,0.183c0.3,0.122,0.56,0.299,0.78,0.532
			c0.221,0.232,0.393,0.519,0.517,0.859c0.124,0.34,0.186,0.729,0.186,1.171c0,0.092-0.014,0.155-0.041,0.188s-0.07,0.05-0.129,0.05
			h-4.52v0.12c0,0.47,0.055,0.884,0.164,1.24c0.109,0.356,0.265,0.655,0.466,0.896c0.202,0.242,0.445,0.423,0.73,0.545
			c0.285,0.122,0.604,0.183,0.957,0.183c0.314,0,0.587-0.035,0.818-0.104c0.231-0.069,0.425-0.147,0.583-0.233
			s0.282-0.164,0.375-0.232c0.092-0.069,0.16-0.104,0.202-0.104c0.054,0,0.096,0.021,0.125,0.063l0.164,0.201
			c-0.101,0.126-0.234,0.243-0.4,0.353c-0.166,0.109-0.351,0.202-0.554,0.28c-0.204,0.077-0.422,0.14-0.655,0.186
			s-0.467,0.069-0.702,0.069c-0.428,0-0.818-0.075-1.171-0.224c-0.353-0.149-0.655-0.366-0.907-0.651s-0.448-0.635-0.585-1.048
			c-0.138-0.414-0.207-0.887-0.207-1.42c0-0.449,0.063-0.863,0.192-1.243c0.128-0.38,0.313-0.707,0.554-0.982
			c0.241-0.274,0.537-0.489,0.888-0.645S88.716,90.399,89.161,90.399z M89.17,90.846c-0.323,0-0.612,0.05-0.868,0.15
			c-0.255,0.102-0.477,0.246-0.663,0.435c-0.187,0.189-0.337,0.416-0.452,0.68c-0.116,0.265-0.192,0.561-0.229,0.888h4.123
			c0-0.335-0.046-0.637-0.138-0.903s-0.222-0.492-0.39-0.677s-0.369-0.326-0.604-0.425S89.455,90.846,89.17,90.846z"/>
		<path fill="#3F3E3E" d="M94.939,96.864c-0.424,0-0.753-0.117-0.988-0.353c-0.235-0.234-0.353-0.598-0.353-1.089v-4.28h-0.9
			c-0.046,0-0.084-0.013-0.113-0.038c-0.03-0.025-0.044-0.061-0.044-0.107v-0.232l1.07-0.075l0.149-2.241
			c0.004-0.038,0.02-0.071,0.047-0.101s0.063-0.044,0.109-0.044h0.28v2.392h1.97v0.447h-1.97v4.249c0,0.172,0.022,0.32,0.066,0.443
			c0.044,0.124,0.105,0.226,0.183,0.306s0.169,0.139,0.274,0.176c0.105,0.038,0.218,0.057,0.34,0.057
			c0.151,0,0.281-0.021,0.391-0.065c0.109-0.044,0.203-0.093,0.283-0.146c0.08-0.052,0.145-0.101,0.195-0.145s0.09-0.066,0.12-0.066
			c0.034,0,0.067,0.021,0.101,0.063l0.164,0.265c-0.16,0.176-0.362,0.317-0.607,0.425C95.459,96.81,95.204,96.864,94.939,96.864z"/>
		<path fill="#3F3E3E" d="M99.087,98.778c-0.025,0.059-0.058,0.106-0.098,0.145s-0.098,0.057-0.173,0.057h-0.428l1.102-2.449
			l-2.65-6.03h0.497c0.063,0,0.112,0.016,0.148,0.048c0.036,0.031,0.062,0.065,0.079,0.104l2.109,4.872
			c0.025,0.063,0.047,0.127,0.066,0.192c0.019,0.064,0.037,0.131,0.054,0.198c0.021-0.067,0.043-0.134,0.066-0.198
			c0.023-0.065,0.047-0.129,0.073-0.192l2.083-4.872c0.021-0.046,0.05-0.083,0.088-0.11c0.038-0.027,0.08-0.041,0.126-0.041h0.459
			L99.087,98.778z"/>
		<path fill="#3F3E3E" d="M104.514,87.604v5.584h0.29c0.059,0,0.114-0.009,0.167-0.025c0.052-0.017,0.11-0.057,0.173-0.12
			l2.512-2.386c0.046-0.046,0.093-0.084,0.142-0.113s0.11-0.044,0.186-0.044h0.529l-2.764,2.625
			c-0.042,0.042-0.082,0.081-0.12,0.116c-0.038,0.036-0.08,0.066-0.126,0.092c0.067,0.033,0.124,0.073,0.17,0.119
			c0.046,0.047,0.095,0.097,0.145,0.151l2.902,3.16h-0.522c-0.059,0-0.111-0.012-0.157-0.034c-0.046-0.023-0.092-0.061-0.139-0.11
			l-2.631-2.82c-0.071-0.075-0.136-0.127-0.195-0.154c-0.059-0.027-0.151-0.041-0.277-0.041h-0.283v3.16h-0.598v-9.159H104.514z"/>
		<path fill="#3F3E3E" d="M113.138,87.604v5.584h0.29c0.059,0,0.114-0.009,0.167-0.025c0.052-0.017,0.11-0.057,0.173-0.12
			l2.512-2.386c0.046-0.046,0.093-0.084,0.142-0.113s0.11-0.044,0.186-0.044h0.529l-2.764,2.625
			c-0.042,0.042-0.082,0.081-0.12,0.116c-0.038,0.036-0.08,0.066-0.126,0.092c0.067,0.033,0.124,0.073,0.17,0.119
			c0.046,0.047,0.095,0.097,0.145,0.151l2.902,3.16h-0.522c-0.059,0-0.111-0.012-0.157-0.034c-0.046-0.023-0.092-0.061-0.139-0.11
			l-2.631-2.82c-0.071-0.075-0.136-0.127-0.195-0.154c-0.059-0.027-0.151-0.041-0.277-0.041h-0.283v3.16h-0.598v-9.159H113.138z"/>
		<path fill="#3F3E3E" d="M119.445,87.604v9.159h-0.598v-9.159H119.445z"/>
		<path fill="#3F3E3E" d="M122.7,88.34c0,0.076-0.016,0.146-0.047,0.211c-0.031,0.065-0.072,0.123-0.123,0.173
			c-0.051,0.051-0.109,0.091-0.176,0.12c-0.067,0.029-0.139,0.044-0.214,0.044c-0.075,0-0.147-0.015-0.214-0.044
			c-0.067-0.029-0.126-0.069-0.176-0.12c-0.05-0.05-0.09-0.107-0.12-0.173c-0.029-0.064-0.044-0.135-0.044-0.211
			c0-0.075,0.015-0.147,0.044-0.217s0.069-0.129,0.12-0.18c0.05-0.05,0.109-0.09,0.176-0.119c0.067-0.029,0.139-0.044,0.214-0.044
			c0.076,0,0.147,0.015,0.214,0.044c0.067,0.029,0.125,0.069,0.176,0.119c0.05,0.051,0.091,0.11,0.123,0.18
			S122.7,88.265,122.7,88.34z M122.435,90.499v6.264h-0.598v-6.264H122.435z"/>
		<path fill="#3F3E3E" d="M124.651,96.763v-6.264h0.327c0.109,0,0.172,0.053,0.189,0.157l0.057,0.944
			c0.285-0.36,0.618-0.651,0.998-0.872c0.38-0.22,0.803-0.33,1.269-0.33c0.344,0,0.647,0.055,0.91,0.164
			c0.262,0.108,0.479,0.267,0.651,0.472c0.172,0.206,0.302,0.453,0.39,0.743c0.088,0.289,0.132,0.616,0.132,0.981v4.004h-0.598
			v-4.004c0-0.587-0.134-1.048-0.403-1.382c-0.269-0.333-0.68-0.5-1.234-0.5c-0.411,0-0.793,0.106-1.146,0.317
			c-0.353,0.213-0.667,0.503-0.944,0.872v4.696H124.651z"/>
		<path fill="#3F3E3E" d="M132.5,88.34c0,0.076-0.016,0.146-0.047,0.211c-0.031,0.065-0.072,0.123-0.123,0.173
			c-0.051,0.051-0.109,0.091-0.176,0.12c-0.067,0.029-0.139,0.044-0.215,0.044c-0.074,0-0.146-0.015-0.213-0.044
			c-0.068-0.029-0.126-0.069-0.177-0.12c-0.05-0.05-0.09-0.107-0.12-0.173c-0.029-0.064-0.044-0.135-0.044-0.211
			c0-0.075,0.015-0.147,0.044-0.217s0.069-0.129,0.12-0.18c0.05-0.05,0.108-0.09,0.177-0.119c0.066-0.029,0.139-0.044,0.213-0.044
			c0.076,0,0.147,0.015,0.215,0.044c0.066,0.029,0.125,0.069,0.176,0.119c0.051,0.051,0.092,0.11,0.123,0.18
			S132.5,88.265,132.5,88.34z M132.236,90.499v6.264h-0.599v-6.264H132.236z"/>
		<path fill="#3F3E3E" d="M138.574,91.337c-0.021,0.021-0.041,0.038-0.06,0.053s-0.045,0.022-0.079,0.022
			c-0.041,0-0.1-0.028-0.172-0.085c-0.074-0.057-0.172-0.119-0.293-0.186c-0.122-0.067-0.274-0.129-0.457-0.186
			c-0.182-0.057-0.404-0.085-0.664-0.085c-0.361,0-0.681,0.063-0.96,0.191c-0.278,0.128-0.515,0.312-0.705,0.551
			s-0.337,0.529-0.438,0.869s-0.151,0.722-0.151,1.146c0,0.44,0.052,0.831,0.154,1.171c0.104,0.34,0.249,0.626,0.438,0.859
			c0.189,0.232,0.418,0.41,0.687,0.531c0.269,0.122,0.566,0.183,0.894,0.183c0.303,0,0.555-0.035,0.759-0.106
			s0.372-0.149,0.504-0.233s0.237-0.161,0.314-0.232s0.14-0.107,0.187-0.107c0.054,0,0.096,0.021,0.125,0.063l0.164,0.201
			c-0.097,0.126-0.219,0.243-0.365,0.353s-0.313,0.203-0.498,0.283c-0.184,0.08-0.385,0.142-0.601,0.186s-0.441,0.066-0.677,0.066
			c-0.398,0-0.763-0.072-1.092-0.218c-0.33-0.145-0.613-0.354-0.85-0.629c-0.238-0.275-0.422-0.611-0.555-1.011
			c-0.132-0.398-0.197-0.852-0.197-1.359c0-0.479,0.063-0.915,0.188-1.31c0.127-0.395,0.311-0.734,0.551-1.02
			c0.242-0.285,0.537-0.507,0.889-0.664c0.35-0.157,0.752-0.236,1.205-0.236c0.406,0,0.77,0.065,1.086,0.195
			s0.593,0.307,0.828,0.528L138.574,91.337z"/>
		<path fill="#3F3E3E" d="M144.359,90.751c0,0.088-0.029,0.168-0.088,0.239l-3.922,5.301h3.854v0.472h-4.577v-0.239
			c0-0.071,0.031-0.148,0.095-0.232l3.934-5.319h-3.82v-0.473h4.525V90.751z"/>
		<path fill="#3F3E3E" d="M145.871,96.763v-6.264h0.326c0.109,0,0.172,0.053,0.189,0.157l0.057,0.944
			c0.285-0.36,0.617-0.651,0.998-0.872c0.379-0.22,0.803-0.33,1.268-0.33c0.344,0,0.647,0.055,0.91,0.164
			c0.262,0.108,0.479,0.267,0.651,0.472c0.172,0.206,0.302,0.453,0.39,0.743c0.089,0.289,0.133,0.616,0.133,0.981v4.004h-0.598
			v-4.004c0-0.587-0.135-1.048-0.403-1.382c-0.269-0.333-0.68-0.5-1.233-0.5c-0.412,0-0.793,0.106-1.146,0.317
			c-0.352,0.213-0.666,0.503-0.943,0.872v4.696H145.871z"/>
		<path fill="#3F3E3E" d="M153.891,98.778c-0.025,0.059-0.059,0.106-0.098,0.145c-0.041,0.038-0.098,0.057-0.174,0.057h-0.428
			l1.102-2.449l-2.65-6.03h0.498c0.063,0,0.111,0.016,0.147,0.048c0.036,0.031,0.062,0.065,0.079,0.104l2.108,4.872
			c0.025,0.063,0.048,0.127,0.065,0.192c0.02,0.064,0.037,0.131,0.055,0.198c0.021-0.067,0.043-0.134,0.065-0.198
			c0.023-0.065,0.048-0.129,0.073-0.192l2.083-4.872c0.021-0.046,0.05-0.083,0.088-0.11s0.08-0.041,0.126-0.041h0.459
			L153.891,98.778z"/>
	</g>
	<g enable-background="new    ">
		<path fill="#3F3E3E" d="M14.906,41.5c0,1.164-0.174,2.21-0.521,3.139c-0.348,0.93-0.837,1.721-1.468,2.373s-1.387,1.152-2.266,1.5
			s-1.855,0.521-2.926,0.521h-5.49V33.978h5.49c1.071,0,2.046,0.174,2.926,0.521s1.635,0.848,2.266,1.5
			c0.631,0.653,1.121,1.444,1.468,2.373C14.732,39.302,14.906,40.344,14.906,41.5z M13.778,41.5c0-1.05-0.146-1.985-0.436-2.809
			c-0.291-0.823-0.701-1.518-1.229-2.085s-1.165-1.001-1.91-1.299c-0.745-0.298-1.571-0.446-2.479-0.446H3.33v13.289h4.395
			c0.908,0,1.734-0.149,2.479-0.447c0.745-0.298,1.381-0.73,1.91-1.298s0.938-1.263,1.229-2.086
			C13.633,43.497,13.778,42.558,13.778,41.5z"/>
		<path fill="#3F3E3E" d="M31.834,41.5c0,1.164-0.174,2.219-0.521,3.166c-0.347,0.946-0.837,1.755-1.468,2.426
			c-0.631,0.67-1.387,1.188-2.266,1.553c-0.879,0.366-1.855,0.548-2.926,0.548c-1.057,0-2.025-0.182-2.905-0.548
			c-0.879-0.365-1.635-0.883-2.266-1.553c-0.631-0.671-1.123-1.479-1.474-2.426c-0.351-0.947-0.527-2.002-0.527-3.166
			c0-1.156,0.176-2.207,0.527-3.154s0.842-1.756,1.474-2.426c0.631-0.671,1.387-1.19,2.266-1.559
			c0.879-0.369,1.848-0.554,2.905-0.554c1.071,0,2.046,0.183,2.926,0.548s1.635,0.885,2.266,1.559s1.121,1.484,1.468,2.432
			C31.66,39.293,31.834,40.344,31.834,41.5z M30.706,41.5c0-1.05-0.145-1.993-0.436-2.83s-0.701-1.546-1.229-2.128
			c-0.528-0.581-1.165-1.026-1.91-1.335s-1.571-0.463-2.479-0.463c-0.894,0-1.711,0.154-2.453,0.463s-1.379,0.754-1.915,1.335
			c-0.536,0.582-0.951,1.291-1.245,2.128s-0.441,1.78-0.441,2.83c0,1.058,0.147,2.002,0.441,2.836
			c0.294,0.833,0.709,1.541,1.245,2.122c0.536,0.582,1.174,1.025,1.915,1.33c0.741,0.306,1.559,0.458,2.453,0.458
			c0.908,0,1.734-0.152,2.479-0.458c0.745-0.305,1.381-0.748,1.91-1.33c0.528-0.581,0.938-1.289,1.229-2.122
			C30.561,43.502,30.706,42.558,30.706,41.5z"/>
		<path fill="#3F3E3E" d="M42.889,45.288c0.042-0.113,0.087-0.226,0.133-0.335c0.046-0.11,0.098-0.215,0.154-0.314l5.916-10.459
			c0.057-0.092,0.113-0.148,0.17-0.17s0.135-0.032,0.234-0.032h0.755v15.056h-0.958V36.202c0-0.185,0.01-0.38,0.032-0.586
			L43.399,46.14c-0.1,0.184-0.241,0.276-0.426,0.276h-0.17c-0.178,0-0.319-0.093-0.426-0.276l-6.086-10.534
			c0.021,0.206,0.032,0.404,0.032,0.597v12.831h-0.947V33.978h0.745c0.1,0,0.179,0.011,0.24,0.032
			c0.06,0.021,0.119,0.078,0.175,0.17l6.075,10.47C42.718,44.849,42.811,45.062,42.889,45.288z"/>
		<path fill="#3F3E3E" d="M56.209,49.033h-1.096V33.978h1.096V49.033z"/>
		<path fill="#3F3E3E" d="M61.848,34.016c0.057,0.024,0.117,0.079,0.181,0.164l9.746,13.045c-0.021-0.213-0.032-0.419-0.032-0.617
			v-12.63h0.958v15.056h-0.521c-0.163,0-0.294-0.071-0.394-0.213l-9.789-13.065c0.021,0.213,0.032,0.415,0.032,0.606v12.672h-0.947
			V33.978h0.532C61.713,33.978,61.791,33.99,61.848,34.016z"/>
		<path fill="#3F3E3E" d="M78.659,49.033h-1.096V33.978h1.096V49.033z"/>
		<path fill="#3F3E3E" d="M84.936,40.926h0.894c0.134,0,0.251-0.006,0.351-0.016c0.099-0.011,0.189-0.032,0.271-0.064
			c0.082-0.031,0.158-0.072,0.229-0.122c0.071-0.05,0.145-0.113,0.223-0.191l6.076-6.246c0.113-0.113,0.218-0.192,0.313-0.239
			c0.096-0.046,0.215-0.069,0.356-0.069h0.883l-6.575,6.757c-0.135,0.142-0.254,0.252-0.356,0.33
			c-0.103,0.078-0.218,0.142-0.346,0.191c0.149,0.042,0.282,0.108,0.399,0.196c0.117,0.089,0.235,0.204,0.356,0.346l6.937,7.235
			h-0.883c-0.185,0-0.315-0.026-0.394-0.08c-0.078-0.053-0.16-0.122-0.245-0.207l-6.373-6.512c-0.079-0.078-0.149-0.146-0.213-0.202
			c-0.064-0.057-0.137-0.104-0.218-0.144s-0.179-0.067-0.292-0.085c-0.114-0.018-0.255-0.026-0.426-0.026h-0.968v7.256h-1.085
			V33.957h1.085V40.926z"/>
		<path fill="#3F3E3E" d="M108.908,49.033h-0.841c-0.1,0-0.181-0.026-0.245-0.08c-0.064-0.053-0.114-0.122-0.149-0.207l-1.777-4.373
			h-7.395l-1.766,4.373c-0.029,0.078-0.079,0.146-0.149,0.202s-0.156,0.085-0.255,0.085h-0.83l6.16-15.056h1.085L108.908,49.033z
			 M98.832,43.565h6.746l-3.075-7.607c-0.05-0.121-0.1-0.257-0.149-0.41c-0.05-0.152-0.1-0.313-0.149-0.483
			c-0.05,0.17-0.1,0.331-0.149,0.483c-0.05,0.153-0.1,0.293-0.149,0.421L98.832,43.565z"/>
	</g>
	<g>
		<g enable-background="new    ">
			<path fill="#3F3E3E" d="M16.067,61.17v2.688h-5.291v14.9H7.504v-14.9H2.188V61.17H16.067z"/>
			<path fill="#3F3E3E" d="M21.528,71.887v6.872h-3.272V61.17h5.364c1.2,0,2.228,0.124,3.083,0.371
				c0.855,0.248,1.557,0.595,2.104,1.04c0.547,0.446,0.949,0.979,1.205,1.6c0.255,0.62,0.383,1.304,0.383,2.05
				c0,0.592-0.087,1.151-0.261,1.679c-0.175,0.527-0.426,1.005-0.754,1.436c-0.328,0.43-0.734,0.807-1.216,1.131
				s-1.032,0.584-1.648,0.778c0.414,0.235,0.77,0.571,1.07,1.01l4.403,6.495h-2.944c-0.284,0-0.525-0.057-0.724-0.17
				c-0.199-0.114-0.367-0.276-0.505-0.487l-3.698-5.631c-0.138-0.211-0.29-0.361-0.456-0.45c-0.167-0.09-0.412-0.134-0.736-0.134
				H21.528z M21.528,69.539h2.043c0.616,0,1.153-0.077,1.612-0.231c0.458-0.154,0.835-0.366,1.131-0.639
				c0.296-0.271,0.517-0.594,0.663-0.967s0.219-0.782,0.219-1.229c0-0.892-0.294-1.577-0.882-2.056
				C25.726,63.94,24.828,63.7,23.62,63.7h-2.092V69.539z"/>
			<path fill="#3F3E3E" d="M45.174,61.17v2.604h-7.797v4.878h6.143v2.518h-6.143v4.975h7.797v2.615H34.081V61.17H45.174z"/>
			<path fill="#3F3E3E" d="M57.435,64.369c-0.089,0.179-0.193,0.305-0.31,0.377c-0.118,0.073-0.258,0.109-0.42,0.109
				s-0.345-0.063-0.547-0.188c-0.203-0.125-0.442-0.265-0.717-0.419c-0.276-0.154-0.598-0.294-0.967-0.42s-0.805-0.188-1.308-0.188
				c-0.454,0-0.85,0.055-1.186,0.164s-0.62,0.262-0.851,0.456c-0.231,0.194-0.404,0.428-0.517,0.699
				c-0.114,0.272-0.17,0.57-0.17,0.895c0,0.413,0.116,0.758,0.347,1.034c0.231,0.275,0.537,0.511,0.918,0.705
				c0.381,0.194,0.815,0.369,1.301,0.523c0.487,0.153,0.983,0.317,1.49,0.492s1.003,0.377,1.49,0.608
				c0.487,0.23,0.92,0.522,1.302,0.876c0.381,0.353,0.687,0.784,0.918,1.295c0.231,0.511,0.347,1.131,0.347,1.861
				c0,0.795-0.136,1.538-0.408,2.231s-0.669,1.298-1.192,1.813c-0.523,0.516-1.162,0.921-1.916,1.217
				c-0.754,0.296-1.618,0.443-2.591,0.443c-0.559,0-1.111-0.055-1.654-0.164c-0.543-0.109-1.064-0.266-1.563-0.468
				c-0.499-0.203-0.965-0.446-1.399-0.73c-0.434-0.283-0.821-0.6-1.162-0.948l0.949-1.569c0.089-0.113,0.196-0.209,0.322-0.286
				c0.125-0.077,0.266-0.115,0.419-0.115c0.203,0,0.422,0.083,0.657,0.249c0.235,0.167,0.513,0.352,0.833,0.554
				c0.32,0.203,0.697,0.388,1.131,0.554c0.434,0.166,0.955,0.249,1.563,0.249c0.932,0,1.654-0.221,2.165-0.663
				c0.511-0.441,0.766-1.076,0.766-1.903c0-0.462-0.115-0.839-0.347-1.131c-0.231-0.292-0.537-0.537-0.918-0.736
				c-0.381-0.198-0.815-0.367-1.302-0.505s-0.981-0.287-1.484-0.45c-0.503-0.162-0.998-0.356-1.484-0.584
				c-0.487-0.227-0.92-0.522-1.302-0.888c-0.381-0.364-0.687-0.821-0.918-1.368c-0.231-0.547-0.347-1.223-0.347-2.025
				c0-0.641,0.127-1.265,0.383-1.873s0.628-1.147,1.119-1.618c0.491-0.47,1.093-0.847,1.806-1.131
				c0.714-0.283,1.529-0.426,2.445-0.426c1.038,0,1.995,0.162,2.871,0.486c0.876,0.325,1.622,0.779,2.238,1.362L57.435,64.369z"/>
			<path fill="#3F3E3E" d="M73.624,61.17v1.205c0,0.373-0.105,0.713-0.316,1.021l-9.025,12.747h9.123v2.615H60.037V77.47
				c0-0.162,0.028-0.318,0.085-0.469c0.057-0.149,0.129-0.29,0.219-0.42l9.05-12.808h-8.782V61.17H73.624z"/>
			<path fill="#3F3E3E" d="M87.563,74.612c0.178,0,0.333,0.068,0.462,0.206l1.29,1.399c-0.714,0.884-1.592,1.561-2.634,2.031
				s-2.292,0.705-3.752,0.705c-1.306,0-2.479-0.223-3.521-0.669c-1.042-0.445-1.932-1.066-2.67-1.86
				c-0.738-0.795-1.304-1.744-1.697-2.847c-0.394-1.103-0.59-2.307-0.59-3.612c0-1.322,0.219-2.532,0.657-3.631
				c0.438-1.099,1.054-2.046,1.849-2.841c0.794-0.794,1.746-1.412,2.853-1.854c1.107-0.441,2.329-0.663,3.667-0.663
				c1.306,0,2.447,0.209,3.424,0.627c0.977,0.417,1.814,0.971,2.512,1.66l-1.095,1.521c-0.065,0.097-0.148,0.183-0.25,0.255
				c-0.102,0.073-0.241,0.109-0.419,0.109c-0.187,0-0.377-0.072-0.572-0.219c-0.195-0.146-0.442-0.304-0.742-0.475
				c-0.3-0.17-0.679-0.328-1.137-0.474c-0.458-0.146-1.04-0.22-1.746-0.22c-0.827,0-1.587,0.145-2.28,0.433
				c-0.693,0.287-1.29,0.699-1.788,1.234c-0.499,0.535-0.888,1.186-1.168,1.952s-0.419,1.628-0.419,2.585
				c0,0.989,0.14,1.869,0.419,2.64s0.659,1.419,1.138,1.945c0.478,0.527,1.042,0.931,1.69,1.211
				c0.649,0.279,1.346,0.419,2.092,0.419c0.446,0,0.849-0.023,1.21-0.072s0.693-0.126,0.998-0.231s0.592-0.241,0.864-0.407
				c0.271-0.166,0.541-0.371,0.809-0.614c0.081-0.073,0.167-0.132,0.256-0.177C87.361,74.634,87.458,74.612,87.563,74.612z"/>
			<path fill="#3F3E3E" d="M104.349,61.17v1.205c0,0.373-0.105,0.713-0.316,1.021l-9.025,12.747h9.123v2.615H90.762V77.47
				c0-0.162,0.028-0.318,0.085-0.469c0.057-0.149,0.129-0.29,0.219-0.42l9.05-12.808h-8.782V61.17H104.349z"/>
			<path fill="#3F3E3E" d="M123.068,69.965c0,1.289-0.215,2.483-0.645,3.582s-1.034,2.05-1.813,2.853
				c-0.778,0.803-1.715,1.429-2.81,1.879s-2.307,0.675-3.637,0.675c-1.33,0-2.544-0.225-3.643-0.675
				c-1.099-0.45-2.04-1.076-2.822-1.879c-0.782-0.803-1.389-1.754-1.818-2.853s-0.645-2.293-0.645-3.582
				c0-1.29,0.215-2.483,0.645-3.582s1.036-2.05,1.818-2.853c0.783-0.803,1.723-1.43,2.822-1.88c1.099-0.449,2.313-0.675,3.643-0.675
				c1.33,0,2.542,0.228,3.637,0.682s2.031,1.08,2.81,1.879c0.779,0.799,1.383,1.748,1.813,2.847S123.068,68.675,123.068,69.965z
				 M119.711,69.965c0-0.965-0.128-1.831-0.383-2.598c-0.255-0.766-0.622-1.417-1.101-1.952s-1.061-0.944-1.746-1.229
				c-0.685-0.283-1.458-0.426-2.317-0.426c-0.86,0-1.634,0.143-2.323,0.426c-0.689,0.284-1.275,0.693-1.758,1.229
				s-0.854,1.187-1.113,1.952c-0.26,0.767-0.389,1.633-0.389,2.598s0.129,1.83,0.389,2.597c0.259,0.767,0.63,1.415,1.113,1.946
				s1.068,0.938,1.758,1.223c0.689,0.283,1.463,0.426,2.323,0.426c0.859,0,1.632-0.143,2.317-0.426
				c0.685-0.284,1.267-0.691,1.746-1.223s0.845-1.18,1.101-1.946S119.711,70.93,119.711,69.965z"/>
			<path fill="#3F3E3E" d="M137.094,61.17v2.688h-5.291v14.9h-3.272v-14.9h-5.315V61.17H137.094z"/>
			<path fill="#3F3E3E" d="M142.555,68.541h0.766c0.309,0,0.564-0.042,0.767-0.127c0.202-0.086,0.377-0.221,0.522-0.408l4.854-6.143
				c0.203-0.259,0.416-0.439,0.639-0.541s0.505-0.152,0.846-0.152h2.822l-5.924,7.311c-0.188,0.228-0.365,0.418-0.535,0.572
				c-0.17,0.153-0.354,0.279-0.548,0.377c0.268,0.097,0.509,0.235,0.724,0.413c0.215,0.179,0.424,0.405,0.627,0.682l6.105,8.234
				h-2.895c-0.389,0-0.68-0.055-0.869-0.164c-0.191-0.109-0.352-0.27-0.48-0.48l-4.976-6.495c-0.162-0.211-0.345-0.363-0.548-0.456
				c-0.202-0.094-0.49-0.141-0.863-0.141h-1.033v7.736h-3.272V61.158h3.272V68.541z"/>
			<path fill="#3F3E3E" d="M172.658,69.965c0,1.289-0.215,2.483-0.645,3.582s-1.033,2.05-1.813,2.853
				c-0.777,0.803-1.715,1.429-2.809,1.879c-1.096,0.45-2.308,0.675-3.637,0.675c-1.33,0-2.545-0.225-3.644-0.675
				s-2.04-1.076-2.822-1.879s-1.389-1.754-1.818-2.853s-0.645-2.293-0.645-3.582c0-1.29,0.215-2.483,0.645-3.582
				s1.036-2.05,1.818-2.853s1.724-1.43,2.822-1.88c1.099-0.449,2.313-0.675,3.644-0.675c1.329,0,2.541,0.228,3.637,0.682
				c1.094,0.454,2.031,1.08,2.809,1.879c0.779,0.799,1.383,1.748,1.813,2.847S172.658,68.675,172.658,69.965z M169.302,69.965
				c0-0.965-0.128-1.831-0.384-2.598c-0.255-0.766-0.621-1.417-1.1-1.952s-1.061-0.944-1.746-1.229
				c-0.686-0.283-1.457-0.426-2.316-0.426c-0.86,0-1.635,0.143-2.324,0.426c-0.689,0.284-1.275,0.693-1.758,1.229
				s-0.854,1.187-1.112,1.952c-0.26,0.767-0.39,1.633-0.39,2.598s0.13,1.83,0.39,2.597c0.259,0.767,0.63,1.415,1.112,1.946
				s1.068,0.938,1.758,1.223c0.689,0.283,1.464,0.426,2.324,0.426c0.859,0,1.631-0.143,2.316-0.426
				c0.686-0.284,1.268-0.691,1.746-1.223s0.845-1.18,1.1-1.946C169.174,71.795,169.302,70.93,169.302,69.965z"/>
		</g>
	</g>
	<g>
		<g>
			<path fill="#009DE0" d="M224.842,94.511c2.229,1.32,4.458,1.819,6.732,1.684c3.732-0.272,7.462-2.272,10.965-5.413l0.047-0.046
				c3.548-3.141,6.823-7.463,9.555-12.194c5.506-9.418,8.963-20.565,8.418-28.254c-0.593-9.146-3.595-18.836-8.509-25.437
				c-1.956-2.547-4.142-4.641-6.598-6.049c-2.457-1.365-5.142-2.049-8.099-1.868c-3.55,0.273-7.463,1.774-11.693,4.96l-3.959,2.912
				c-0.135,0.092-0.272,0.137-0.362,0.185h-0.229c-2.911-0.093-5.823-0.684-8.555-1.775h-0.045
				c-2.639-1.047-5.188-2.592-7.462-4.596c-0.317-0.318-0.683-0.639-1.001-0.957l-0.729-0.729
				c-5.642,0.273-10.373,3.958-13.969,9.373c-4.32,6.507-6.959,15.47-7.506,23.979c-0.547,7.688,2.911,18.836,8.416,28.254
				c2.729,4.776,6.053,9.1,9.6,12.24l0.047,0.045c3.504,3.096,7.189,5.096,10.92,5.368c2.275,0.137,4.55-0.362,6.779-1.684
				c1.273-0.729,1.957-1.273,2.41-1.592l0.047-0.045c0.453-0.364,0.683-0.547,1.139-0.547c0.454,0,0.727,0.183,1.183,0.592
				C222.84,93.237,223.521,93.782,224.842,94.511L224.842,94.511z M231.666,97.786c-2.549,0.183-5.143-0.365-7.645-1.865
				c-1.412-0.773-2.185-1.365-2.64-1.73c-0.181-0.18-0.091-0.225-0.181-0.225c-0.045,0.09-0.092,0.135-0.182,0.225
				c-0.457,0.365-1.229,0.957-2.641,1.73c-2.502,1.5-5.098,2.048-7.645,1.865c-4.096-0.271-8.146-2.412-11.922-5.733l-0.043-0.046
				c-3.688-3.275-7.101-7.733-9.92-12.648c-5.642-9.646-9.191-21.154-8.646-29.209c0.593-8.735,3.275-18.02,7.781-24.752
				c3.957-5.916,9.235-9.918,15.697-10.1c0.228,0,0.454,0.09,0.59,0.272c0.273,0.316,0.593,0.637,0.91,0.953
				c0.318,0.273,0.637,0.594,0.957,0.866c2.137,1.91,4.504,3.321,6.961,4.321h0.045c2.502,1,5.141,1.547,7.777,1.638l3.779-2.773
				c4.503-3.368,8.689-5.005,12.557-5.232c3.277-0.229,6.279,0.545,8.965,2.048c2.685,1.501,5.049,3.729,7.098,6.462
				c5.142,6.869,8.236,16.877,8.871,26.297c0.547,8.007-3.002,19.563-8.644,29.209c-2.821,4.869-6.188,9.328-9.874,12.604
				l-0.045,0.045C239.855,95.374,235.807,97.516,231.666,97.786L231.666,97.786z"/>
		</g>
		<g>
			<path fill="#009DE0" d="M221.109,24.99c-2.911-0.093-5.823-0.684-8.555-1.775h-0.045c-2.639-1.047-5.188-2.592-7.462-4.596
				c-2.274-2.002-4.095-4.322-5.459-6.871c-1.411-2.592-2.366-5.459-2.774-8.325c-0.092-0.454,0.227-0.864,0.682-0.911
				c0.045-0.045,0.137-0.045,0.184-0.045c2.911,0.092,5.822,0.682,8.555,1.773c2.684,1.048,5.23,2.594,7.506,4.597
				c2.275,2.001,4.096,4.368,5.46,6.87c1.409,2.639,2.366,5.46,2.819,8.326c0.047,0.453-0.271,0.864-0.728,0.957
				C221.247,24.99,221.157,24.99,221.109,24.99L221.109,24.99z M213.148,21.712c2.272,0.91,4.687,1.411,7.052,1.593
				c-0.454-2.366-1.274-4.687-2.41-6.825c-1.321-2.364-3.005-4.551-5.144-6.416c-2.138-1.864-4.504-3.32-7.006-4.321
				c-2.275-0.863-4.688-1.41-7.053-1.593c0.454,2.365,1.271,4.688,2.412,6.825c1.318,2.364,3.001,4.55,5.141,6.416
				c2.139,1.91,4.504,3.321,6.961,4.321H213.148z"/>
		</g>
		<g>
			<path fill="#009DE0" d="M234.168,0.008c0.456,0,0.818,0.365,0.773,0.821c0,0.454-0.408,0.817-0.818,0.772
				c-0.045,0-13.516-1.002-12.059,22.066c0.047,0.453-0.316,0.816-0.772,0.863c-0.455,0-0.819-0.317-0.864-0.773
				C218.881-1.13,234.123,0.008,234.168,0.008L234.168,0.008z"/>
		</g>
		<g>
			<path fill="#FF21A4" d="M191.753,53.472c-0.058-0.46,0.298-0.891,0.754-0.902c0.507-0.051,0.886,0.345,0.942,0.806
				c-0.004,0.047,1.143,18.342,12.021,22.83c0.443,0.171,0.633,0.688,0.465,1.086c-0.17,0.442-0.687,0.629-1.131,0.459
				C192.952,72.866,191.749,53.517,191.753,53.472L191.753,53.472z"/>
		</g>
		<g>
			<path fill="#009DE0" d="M192.061,48.886c0.362,0.027,0.655,0.37,0.629,0.732c-0.028,0.362-0.371,0.656-0.732,0.629
				c-0.408-0.031-0.701-0.373-0.674-0.736C191.313,49.147,191.652,48.854,192.061,48.886L192.061,48.886z"/>
		</g>
	</g>
	<g>
		<g>
			<path fill="#009DE0" d="M208.734,96.071c0.553,0,0.99,0.388,0.99,0.875c0,0.485,2.691,0.873,2.141,0.873h-36.903
				c-0.549,0-0.992-0.388-0.992-0.873c0-0.487,0.443-0.875,0.992-0.875H208.734z"/>
		</g>
		<g>
			<path fill="#009DE0" d="M171.372,97.772c-0.381,0-0.722-0.34-0.722-0.824c0-0.439,0.341-0.776,0.722-0.776
				c0.383,0,0.723,0.337,0.723,0.776C172.095,97.433,171.755,97.772,171.372,97.772L171.372,97.772z"/>
		</g>
	</g>
	<g>
		<g>
			<path fill="#FF21A4" d="M170.391,47.649c0.551,0,0.989,0.389,0.989,0.876c0,0.485-0.438,0.873-0.989,0.873h-55.055
				c-0.549,0-0.992-0.388-0.992-0.873c0-0.487,0.443-0.876,0.992-0.876H170.391z"/>
		</g>
		<g>
			<path fill="#FF21A4" d="M111.746,49.351c-0.381,0-0.721-0.34-0.721-0.824c0-0.438,0.34-0.776,0.721-0.776
				c0.383,0,0.723,0.338,0.723,0.776C112.469,49.011,112.129,49.351,111.746,49.351L111.746,49.351z"/>
		</g>
	</g>
	<g>
		<g>
			<path fill="#009DE0" d="M3.066,96.851c-0.539,0-0.967-0.388-0.967-0.876c0-0.484,0.428-0.873,0.967-0.873h55.041
				c0.536,0,0.97,0.389,0.97,0.873c0,0.488-0.434,0.876-0.97,0.876H3.066z"/>
		</g>
		<g>
			<path fill="#009DE0" d="M61.613,95.149c0.372,0,0.704,0.341,0.704,0.824c0,0.439-0.332,0.777-0.704,0.777
				c-0.373,0-0.705-0.338-0.705-0.777C60.908,95.49,61.24,95.149,61.613,95.149L61.613,95.149z"/>
		</g>
	</g>
</g>
</svg>
