<?xml version="1.0" encoding="utf-8"?>
<!-- Generator: Adobe Illustrator 16.0.3, SVG Export Plug-In . SVG Version: 6.00 Build 0)  -->
<!DOCTYPE svg PUBLIC "-//W3C//DTD SVG 1.1//EN" "http://www.w3.org/Graphics/SVG/1.1/DTD/svg11.dtd">
<svg version="1.1" id="Warstwa_1" xmlns="http://www.w3.org/2000/svg" xmlns:xlink="http://www.w3.org/1999/xlink" x="0px" y="0px"
	 width="25.9px" height="35.639px" viewBox="0 0 25.9 35.639" enable-background="new 0 0 25.9 35.639" xml:space="preserve">
<g>
	<path fill="#FFFFFF" d="M25.59,21.892c0.033-4.97,0.742-9.977-0.102-14.919c-0.338-1.983-1.027-1.848-2.969-1.875
		c-1.893-0.027-3.787-0.016-5.679-0.082c-0.019-0.001-0.03,0.007-0.048,0.008c-0.291-0.175-0.594-0.352-0.895-0.547
		c-0.979-0.64-0.453-0.693-0.311-1.731c0.085-0.627,0.049-1.303-0.338-1.831c-0.878-1.202-3.219-1.128-4.313-0.304
		c-1.259,0.947-0.388,1.931-0.683,3.07c-0.129,0.508-1.209,0.833-1.823,1.287C8.408,4.966,8.389,4.956,8.363,4.956
		C6.26,4.999,3.293,4.539,1.296,5.349C0.398,5.714,0.248,6.265,0.172,7.173c-0.135,1.586-0.079,3.229-0.111,4.82
		c-0.089,4.25-0.068,8.502-0.022,12.753c0.018,1.632,0.042,3.264,0.067,4.894c0.02,1.265-0.223,2.902,0.348,4.076
		c1.127,2.322,4.002,1.877,6.123,1.906c3.742,0.052,7.477-0.155,11.221-0.123c1.484,0.013,2.959-0.146,4.441-0.136
		c1.223,0.008,2.104,0.116,2.83-1.026c0.914-1.44,0.496-3.671,0.512-5.282C25.604,26.668,25.576,24.28,25.59,21.892z M10.959,4.46
		c0.168-0.079,0.221-0.289,0.186-0.454C10.9,2.844,10.5,1.568,11.971,0.997c0.883-0.341,2.417-0.243,2.816,0.815
		c0.242,0.64-0.152,1.535-0.429,2.098c-0.073,0.149-0.079,0.369,0.063,0.487c0.913,0.764,2.288,1.188,2.997,2.141
		c0.29,0.39,0.527,0.907,0.396,1.45c-0.365,1.51-1.969,1.282-3.209,1.296c-1.529,0.016-3.061,0.052-4.59,0.05
		c-0.389,0-1.066,0.105-1.428-0.038C7.742,8.958,7.994,8.882,7.881,8.185C7.819,7.81,7.877,7.398,7.869,7.02
		C8.033,5.704,9.892,4.967,10.959,4.46z M18.714,8.343c0.746,0.028,1.499,0.102,2.239,0.092c0.26-0.003,0.848,0.09,0.805,0.023
		c0.109,0.167,0.014,0.798,0.018,0.99c0.02,1.47,0.027,2.94,0.037,4.409c0.023,4.198,0.039,8.396,0.023,12.594
		c-0.004,1.476-0.003,2.952-0.041,4.427c-0.004,0.144,0.071,0.868-0.037,0.971c-0.369,0.356-2.431,0.02-2.998,0.066
		c-1.676,0.14-3.414,0.274-5.1,0.23c-1.912-0.05-3.77,0.088-5.692,0.102c-1.185,0.008-3.313,0.315-3.805-0.836
		c-0.296-0.688-0.204-1.782-0.245-2.521c-0.219-3.802-0.048-7.606-0.165-11.408c-0.017-1.723,0.046-3.437,0.063-5.157
		c0.008-0.693-0.428-3.084-0.053-3.675C4.09,8.135,6.08,8.269,7.043,8.323c0.016,0.709,0.146,1.419,0.725,1.702
		c1.041,0.508,3.083,0.067,4.18,0.057c1.399-0.014,2.795,0.02,4.194-0.029C17.922,9.991,18.722,9.699,18.714,8.343z M24.889,18.339
		c-0.171,3.812-0.076,7.629-0.119,11.444c-0.023,2.089,0.438,4.63-2.262,4.782c-1.254,0.07-2.523,0.133-3.781,0.138
		c-2.771,0.008-5.527,0.046-8.299,0.108c-1.557,0.035-3.114,0.026-4.671-0.004c-0.796-0.016-1.828,0.123-2.611-0.069
		c-2.347-0.575-2.194-2.504-2.226-4.389c-0.023-1.479-0.046-2.958-0.064-4.435C0.814,22.609,0.791,19.305,0.812,16
		c0.011-1.824,0.036-3.648,0.087-5.471c0.029-0.963-0.27-2.802,0.123-3.691C1.66,5.393,5.555,5.676,7.609,5.747
		C7.366,6.054,7.197,6.406,7.113,6.829C7.084,6.882,7.064,6.944,7.065,7.02c0.003,0.146-0.003,0.318-0.011,0.5
		C6.002,7.453,4.203,7.241,3.466,7.666C2.697,8.107,2.97,9.108,2.994,9.887c0.08,2.53-0.068,5.063-0.044,7.595
		c0.123,4.026-0.085,8.053,0.207,12.076c0.067,0.942-0.024,2.419,0.771,3.067c0.385,0.316,1.719,0.32,2.273,0.366
		C7.26,33.079,8.324,33.062,9.383,33c2.127-0.122,4.264-0.208,6.39-0.167c1.729,0.033,3.437-0.081,5.166-0.149
		c0.616-0.025,1.276-0.011,1.593-0.608c0.39-0.736,0.088-2.433,0.094-3.22c0.042-4.761,0.02-9.524-0.007-14.285
		c-0.01-1.864,0.054-3.748-0.046-5.609c-0.1-1.813-2.434-1.465-3.935-1.439c-0.024-0.144-0.053-0.298-0.085-0.459
		c-0.111-0.519-0.346-0.903-0.654-1.22c0.699,0.011,1.397,0.019,2.096,0.027c0.729,0.008,1.455,0.016,2.183,0.024
		c1.428,0.02,2.091-0.166,2.538,1.291C25.749,10.558,25.043,14.876,24.889,18.339z"/>
	<path fill="#FFFFFF" d="M13.658,13.856c-1.265-0.075-2.391-0.173-3.666-0.042c-0.508,0.052-0.514,0.857,0,0.803
		c1.279-0.133,2.396-0.042,3.666,0.042c0.597,0.04,1.135-0.04,1.721-0.106c0.893-0.101,1.688,0.006,2.571,0.043
		c0.517,0.023,0.517-0.78,0-0.803c-0.628-0.026-1.247-0.143-1.876-0.123C15.26,13.698,14.481,13.904,13.658,13.856z"/>
	<path fill="#FFFFFF" d="M9.854,18.152c-0.516,0.017-0.517,0.821,0,0.804c1.433-0.048,2.858-0.064,4.29,0.013
		c1.385,0.075,2.581,0,3.944-0.089c0.513-0.034,0.517-0.838,0-0.805C15.349,18.255,12.615,18.061,9.854,18.152z"/>
	<path fill="#FFFFFF" d="M18.183,22.447c-1.442,0.062-2.883,0.096-4.325,0.076c-1.459-0.021-2.791-0.182-4.202,0.19
		c-0.501,0.132-0.288,0.908,0.212,0.775c1.479-0.389,2.986-0.168,4.506-0.156c1.271,0.01,2.539-0.027,3.81-0.081
		C18.697,23.229,18.699,22.425,18.183,22.447z"/>
	<path fill="#FFFFFF" d="M18.164,26.874c-2.832,0.374-5.627-0.514-8.416,0.001C9.24,26.97,9.456,27.744,9.961,27.65
		c2.696-0.498,5.453,0.392,8.203,0.028C18.67,27.611,18.676,26.808,18.164,26.874z"/>
	<path fill="#FFFFFF" d="M8.322,13.932c-0.246-0.028-0.486-0.035-0.736-0.023c-0.514,0.023-0.516,0.827,0,0.803
		c0.25-0.012,0.49-0.003,0.736,0.024C8.836,14.792,8.83,13.987,8.322,13.932z"/>
	<path fill="#FFFFFF" d="M7.537,18.975c0.013-0.003,0.372-0.023,0.301-0.106c-0.001-0.002-0.001-0.006-0.002-0.008
		c0.172,0.131,0.456,0.157,0.627-0.066c0.002-0.001,0.004-0.004,0.006-0.005c0.111-0.147,0.044-0.365-0.063-0.488
		c-0.233-0.265-0.786-0.173-1.082-0.101C6.822,18.324,7.035,19.1,7.537,18.975z"/>
	<path fill="#FFFFFF" d="M8.192,22.784c-0.241-0.002-0.48-0.004-0.72-0.006c-0.518-0.005-0.518,0.799,0,0.803
		c0.239,0.002,0.479,0.005,0.72,0.006C8.709,23.593,8.709,22.79,8.192,22.784z"/>
	<path fill="#FFFFFF" d="M8.148,26.898c-0.221,0.008-0.441,0.017-0.661,0.025c-0.517,0.021-0.519,0.824,0,0.803
		c0.22-0.008,0.44-0.017,0.661-0.026C8.664,27.682,8.666,26.878,8.148,26.898z"/>
	<path fill="#FFFFFF" d="M12.85,2.89c0.006,0,0.01,0,0.016,0c0.518,0,0.518-0.802,0-0.802c-0.006,0-0.01,0-0.016,0
		C12.334,2.087,12.332,2.89,12.85,2.89z"/>
	<path fill="#FFFFFF" d="M9.463,8.1c0.029-0.35-0.094-0.717,0.119-1.024c0.195-0.283,0.479-0.475,0.785-0.623
		c0.467-0.222,0.059-0.914-0.406-0.693C9.526,5.967,9.15,6.279,8.879,6.681C8.576,7.133,8.703,7.592,8.66,8.1
		C8.618,8.616,9.422,8.613,9.463,8.1z"/>
	<path fill="#FFFFFF" d="M11.161,5.992c0.517,0,0.519-0.804,0-0.804C10.645,5.188,10.644,5.992,11.161,5.992z"/>
</g>
</svg>
