<?xml version="1.0" encoding="utf-8"?>
<!-- Generator: Adobe Illustrator 16.0.3, SVG Export Plug-In . SVG Version: 6.00 Build 0)  -->
<!DOCTYPE svg PUBLIC "-//W3C//DTD SVG 1.1//EN" "http://www.w3.org/Graphics/SVG/1.1/DTD/svg11.dtd">
<svg version="1.1" id="Warstwa_1" xmlns="http://www.w3.org/2000/svg" xmlns:xlink="http://www.w3.org/1999/xlink" x="0px" y="0px"
	 width="30.085px" height="29.941px" viewBox="0 0 30.085 29.941" enable-background="new 0 0 30.085 29.941" xml:space="preserve">
<g>
	<path fill="#333333" d="M28.641,3.837c-2.109-2.395-5.962-1.462-8.815-1.496c-0.941-1.365-2.559-2.108-4.606-2.337
		c-1.918-0.073-3.741,0.92-4.819,2.452C8.387,2.439,6.331,2.292,4.325,2.451C3.229,2.538,2.151,2.765,1.408,3.623
		C0.65,4.497,0.362,5.768,0.286,6.893c-0.117,1.723-0.107,3.484-0.173,5.214c-0.073,1.928,0.078,3.855,0.03,5.786
		c-0.053,2.25-0.223,4.507-0.102,6.757c0.102,1.864,0.342,4.376,2.494,4.844c3.601,0.781,7.75,0.316,11.41,0.26
		c3.899-0.06,7.812,0.218,11.707-0.046c2.922-0.2,4.178-0.963,4.189-4.046c0.017-4.065-0.015-8.131,0.051-12.197
		C29.939,10.534,30.751,6.232,28.641,3.837z M15.219,0.786C17.8,1.074,19.824,2.4,19.945,5.184c0.123,2.822-1.87,5.318-4.806,5.301
		c-2.604-0.014-4.939-2.255-4.946-4.913C10.188,2.887,12.589,0.687,15.219,0.786z M29.139,11.953
		c-0.061,3.065-0.072,6.129-0.08,9.194c-0.004,1.41-0.001,2.819,0.001,4.229c0,0.64,0.096,1.516-0.148,2.11
		c-0.603,1.47-2.326,1.384-3.586,1.459c-2.928,0.176-5.863,0.042-8.793,0.015c-2.938-0.027-5.873,0.131-8.81,0.056
		c-1.382-0.035-2.861-0.014-4.229-0.219c-1.839-0.275-2.347-1.511-2.579-3.109c-0.455-3.143,0.064-6.429,0.03-9.591
		c-0.03-2.998-0.02-5.993,0.12-8.989c0.119-2.502,1.381-3.784,3.934-3.896C6.64,3.14,8.293,3.209,9.938,3.233
		C9.633,3.861,9.444,4.55,9.41,5.277c-0.146,3.143,2.601,6.075,5.772,6.062c3.178-0.014,5.607-2.77,5.553-5.832
		c-0.016-0.919-0.187-1.71-0.484-2.388c0.957-0.005,1.911-0.055,2.868-0.035c1.244,0.028,2.935-0.202,4.019,0.465
		C29.805,5.187,29.19,9.267,29.139,11.953z"/>
	<path fill="#333333" d="M14.374,6.234c0.475,0.358,1.043,0.402,1.415-0.119c0.281-0.395,0.269-0.852,0.011-1.203
		c-0.006-0.044-0.02-0.086-0.043-0.125c0.211-0.578,0.417-1.159,0.623-1.739c0.168-0.476-0.59-0.682-0.757-0.208
		c-0.196,0.555-0.394,1.109-0.594,1.662C14.157,4.526,13.471,5.555,14.374,6.234z M15.052,5.275c0.03,0.017,0.063,0.034,0.098,0.043
		c0.007,0.006,0.01,0.013,0.017,0.018c0.238,0.174-0.183,0.614-0.394,0.204C14.672,5.343,14.87,5.263,15.052,5.275z"/>
	<path fill="#333333" d="M26.56,15.754c0.043-1.239,0.301-2.966-0.127-4.155c-0.293-0.816-0.938-1.291-1.766-1.414
		c-0.931-0.138-2.851-0.205-3.739,0.251c-0.437,0.224-0.763,0.845-1.112,1.161c-0.782,0.703-1.798,1.177-2.807,1.457
		c-2.566,0.714-5.033-0.149-6.988-1.839c-1.134-1.012-4.263-1.04-5.564-0.402c-1.744,0.854-1.15,3.258-1.107,4.81
		c0.081,2.929-0.303,6.129,0.204,9.018c0.233,1.331,0.87,2.056,2.202,2.308c1.713,0.325,3.711,0.271,5.461,0.351
		c1.805,0.082,3.613,0.003,5.417-0.089c1.658-0.085,3.316-0.195,4.978-0.214c1.324-0.016,2.59,0.282,3.746-0.456
		c1.916-1.223,1.26-3.689,1.178-5.659C26.462,19.167,26.499,17.469,26.56,15.754z M25.667,24.948
		c-0.532,1.35-1.726,1.219-3.018,1.264c-3.204,0.113-6.427,0.325-9.633,0.336c-1.574,0.005-3.113-0.174-4.68-0.271
		c-1.419-0.09-3.359,0.374-3.93-1.32c-0.419-1.25-0.218-2.868-0.201-4.171c0.017-1.497-0.01-2.987-0.054-4.483
		c-0.044-1.483-0.725-4.131,1.026-4.868c0.922-0.389,3.527-0.346,4.288,0.334c1.751,1.515,3.937,2.554,6.314,2.325
		c1.107-0.106,2.247-0.468,3.226-0.991c1.008-0.539,1.769-1.72,2.844-2.06c0.474-0.149,1.472-0.125,1.939-0.066
		c0.988-0.204,1.647,0.308,1.978,1.537c0.024,0.359,0.04,0.719,0.041,1.079c0.029,1.557-0.104,3.111-0.118,4.667
		c-0.014,1.488,0.099,2.973,0.137,4.46C25.846,23.467,25.945,24.242,25.667,24.948z"/>
	<path fill="#333333" d="M11.789,5.224c0.08-0.936,0.554-1.929,1.396-2.398c0.442-0.244,0.046-0.92-0.395-0.675
		c-1.095,0.608-1.682,1.865-1.785,3.074C10.964,5.726,11.747,5.723,11.789,5.224z"/>
	<path fill="#333333" d="M11.321,6.027c-0.504,0-0.505,0.782,0,0.782C11.825,6.81,11.826,6.027,11.321,6.027z"/>
</g>
</svg>
