<?xml version="1.0" standalone="no"?>
<!DOCTYPE svg PUBLIC "-//W3C//DTD SVG 20010904//EN"
 "http://www.w3.org/TR/2001/REC-SVG-20010904/DTD/svg10.dtd">
<svg version="1.0" xmlns="http://www.w3.org/2000/svg"
 width="896.000000pt" height="896.000000pt" viewBox="0 0 896.000000 896.000000"
 preserveAspectRatio="xMidYMid meet">
<metadata>
Created by potrace 1.11, written by Peter Selinger 2001-2013
</metadata>
<g transform="translate(0.000000,896.000000) scale(0.100000,-0.100000)"
fill="#000000" stroke="none">
<path d="M819 7950 c-5 -50 -3 -71 9 -125 16 -78 79 -226 147 -350 30 -54 55
-102 55 -106 0 -4 3 -9 8 -11 4 -1 16 -19 26 -38 11 -19 38 -64 61 -100 23
-36 42 -69 44 -75 1 -5 10 -19 20 -30 9 -11 43 -60 76 -110 32 -49 63 -91 67
-93 4 -2 8 -8 8 -13 0 -8 101 -155 144 -210 12 -14 28 -36 36 -49 20 -29 265
-359 287 -386 10 -12 27 -34 38 -49 11 -16 25 -33 30 -39 6 -6 39 -49 75 -96
71 -93 82 -106 122 -153 15 -18 28 -35 28 -39 0 -4 11 -19 25 -33 14 -14 23
-25 19 -25 -5 0 -1 -6 8 -12 9 -7 48 -53 88 -103 39 -49 76 -97 83 -105 7 -8
55 -67 107 -130 51 -63 96 -117 100 -120 3 -3 45 -53 93 -112 48 -58 92 -112
99 -120 7 -7 35 -40 62 -73 28 -33 57 -67 65 -76 9 -9 34 -38 56 -64 22 -27
45 -53 50 -59 16 -18 129 -150 140 -164 6 -7 21 -24 34 -38 13 -14 55 -62 94
-107 38 -45 73 -84 76 -87 3 -3 40 -43 81 -90 41 -46 94 -105 117 -130 24 -25
43 -48 43 -51 0 -3 -48 -51 -106 -105 -58 -54 -122 -115 -143 -134 -96 -91
-283 -263 -407 -375 -48 -44 -99 -91 -113 -103 -14 -13 -51 -46 -81 -72 -30
-26 -69 -61 -85 -77 -36 -33 -153 -135 -210 -184 -22 -19 -56 -49 -75 -67 -66
-62 -193 -141 -250 -156 -121 -30 -201 2 -341 136 -128 123 -213 180 -343 228
-58 22 -69 25 -161 40 -60 10 -206 7 -255 -4 -14 -3 -36 -8 -50 -10 -105 -17
-317 -121 -430 -211 -59 -47 -210 -206 -257 -270 -112 -154 -191 -342 -221
-525 -7 -47 -7 -324 0 -350 3 -8 8 -33 12 -55 13 -67 67 -216 97 -267 16 -27
29 -51 29 -53 0 -15 76 -112 135 -171 106 -107 266 -194 389 -212 101 -14 271
-5 333 19 13 5 23 7 23 4 0 -2 25 5 55 15 234 81 402 204 580 426 30 38 60 74
65 81 6 7 10 15 10 18 0 3 16 28 35 55 19 27 35 52 35 54 0 3 14 29 31 58 36
60 116 218 148 293 12 28 27 59 33 70 7 11 18 34 26 50 16 32 81 143 94 160
121 157 230 273 333 352 94 73 201 144 370 246 17 10 111 58 210 106 156 77
201 98 225 106 3 1 25 11 50 23 25 12 51 22 58 22 6 0 12 4 12 8 0 5 6 9 13 9
10 1 223 86 282 113 11 5 83 34 160 65 77 31 181 75 231 97 l92 40 83 -37 c46
-20 98 -43 114 -50 17 -8 53 -23 80 -33 59 -23 314 -127 365 -149 19 -8 44
-19 55 -23 11 -4 36 -15 55 -23 19 -8 69 -29 110 -46 130 -55 410 -195 410
-205 0 -5 3 -7 6 -3 7 6 44 -14 159 -85 44 -27 89 -55 100 -61 11 -7 22 -15
25 -18 3 -3 25 -19 50 -37 25 -17 57 -41 73 -54 15 -13 41 -34 58 -48 49 -38
175 -166 206 -208 15 -20 30 -39 33 -42 18 -17 70 -90 70 -98 0 -6 3 -12 8
-14 14 -6 112 -194 112 -215 0 -7 5 -13 10 -13 6 0 10 -5 10 -11 0 -20 98
-216 164 -326 129 -218 288 -401 440 -506 71 -50 242 -137 267 -137 8 0 19 -4
24 -9 6 -5 24 -12 40 -15 17 -3 64 -12 105 -20 69 -13 224 -15 275 -3 110 26
214 72 294 131 51 38 158 146 185 189 23 34 28 34 48 -1 60 -101 409 -432 456
-432 7 0 12 -4 12 -10 0 -5 6 -10 14 -10 8 0 16 -3 18 -7 7 -16 97 -41 142
-39 38 1 51 7 71 30 38 44 44 107 15 152 -7 11 -46 46 -88 79 -107 85 -250
228 -309 309 -65 89 -116 193 -148 301 -30 106 -35 134 -41 250 -2 50 -7 108
-10 130 -3 22 -6 48 -6 57 1 10 -3 20 -8 23 -5 3 -7 11 -4 18 6 18 -48 182
-88 265 -28 57 -99 175 -125 207 -5 6 -26 32 -48 59 -161 199 -438 380 -629
410 -21 4 -42 9 -48 12 -16 10 -211 12 -263 3 -88 -15 -105 -19 -173 -45 -119
-44 -228 -121 -366 -259 -72 -72 -152 -109 -233 -108 -114 1 -198 55 -522 342
-34 30 -73 65 -85 76 -12 11 -58 52 -101 90 -43 39 -92 84 -110 100 -17 17
-74 68 -126 115 -51 47 -128 116 -169 155 -41 38 -80 74 -86 80 -6 5 -62 58
-125 116 -63 59 -138 129 -168 156 l-54 50 34 38 c19 20 45 49 59 64 52 56
172 192 248 280 26 29 55 63 66 75 10 11 71 82 135 156 64 74 118 137 121 140
3 3 43 50 90 105 47 55 89 105 95 111 5 6 24 28 40 49 17 21 35 43 40 49 6 6
32 38 60 71 27 33 52 62 55 65 3 3 32 39 65 80 33 41 62 77 65 80 3 3 23 28
45 55 21 28 42 52 45 55 3 3 21 25 40 50 19 25 37 47 40 50 3 3 30 37 60 75
30 39 59 75 65 81 5 6 21 26 35 44 79 105 175 225 182 228 4 2 8 10 8 17 0 7
4 15 8 17 5 2 51 59 102 128 52 69 96 127 99 130 4 3 22 28 40 55 19 28 38 52
41 55 4 3 22 28 40 55 19 28 37 52 42 53 4 2 8 8 8 12 0 7 62 96 107 155 5 6
26 38 48 72 22 35 43 63 48 63 4 0 7 4 7 10 0 5 22 42 49 82 66 99 171 268
171 274 0 3 9 18 20 33 35 51 148 286 176 366 28 86 44 195 27 195 -6 0 -21
-9 -34 -21 -22 -19 -173 -156 -209 -189 -9 -8 -67 -62 -130 -120 -63 -58 -128
-118 -146 -135 -17 -16 -82 -77 -143 -135 -199 -186 -445 -419 -586 -555 -46
-44 -152 -145 -235 -225 -84 -80 -185 -176 -225 -215 -40 -38 -153 -146 -250
-240 -97 -93 -210 -201 -250 -240 -185 -179 -445 -428 -496 -477 -81 -76 -391
-373 -527 -505 -65 -62 -120 -113 -124 -113 -5 0 -49 39 -99 88 -133 127 -178
170 -353 337 -86 83 -196 188 -245 235 -49 47 -175 168 -281 270 -106 102
-230 221 -276 265 -45 44 -149 144 -230 222 -82 78 -190 181 -240 230 -51 48
-160 153 -244 233 -84 80 -176 168 -205 195 -28 28 -121 115 -205 195 -84 80
-179 170 -211 200 -32 30 -106 100 -165 155 -59 55 -123 116 -144 135 -20 19
-61 57 -91 84 -30 27 -96 88 -148 135 -51 47 -104 95 -116 106 -12 11 -40 38
-63 60 -27 25 -42 34 -43 25z m412 -4900 c200 -53 404 -273 435 -468 4 -21 7
-41 8 -47 1 -5 4 -14 7 -20 7 -11 3 -178 -5 -244 -8 -64 -53 -204 -92 -289
-88 -191 -268 -399 -414 -478 -19 -10 -37 -22 -40 -25 -10 -12 -141 -60 -187
-69 -74 -14 -211 -4 -274 19 -256 96 -413 357 -403 671 2 58 5 116 8 130 11
62 47 180 71 227 14 29 25 57 25 63 0 5 4 10 8 10 5 0 15 15 24 33 26 54 132
188 203 257 100 96 104 100 114 100 5 0 11 4 13 8 5 12 133 86 168 97 3 1 12
5 20 8 73 32 224 40 311 17z m6154 -3 c179 -48 366 -195 518 -409 26 -37 47
-71 47 -76 0 -6 4 -12 8 -14 19 -7 94 -188 107 -255 3 -16 8 -39 11 -53 11
-42 13 -241 3 -303 -5 -31 -16 -79 -25 -105 -22 -65 -74 -172 -84 -172 -5 0
-11 -8 -15 -19 -9 -28 -101 -119 -160 -156 -87 -56 -166 -79 -275 -79 -52 -1
-117 5 -145 13 -65 18 -215 89 -215 101 0 6 -6 10 -12 10 -32 1 -193 157 -262
255 -74 104 -168 292 -180 362 -3 13 -7 31 -10 41 -6 18 -15 61 -22 102 -7 42
-7 203 0 235 3 17 8 41 11 54 12 65 57 166 99 225 39 55 137 145 198 182 125
76 264 97 403 61z"/>
</g>
</svg>
